<?xml version="1.0" encoding="utf-8"?>
<svg version="1.1" id="Layer_1" 
    xmlns="http://www.w3.org/2000/svg" 
    xmlns:xlink="http://www.w3.org/1999/xlink" x="0px" y="0px" viewBox="0 0 284.6 79.4" xml:space="preserve">

    <path d="M278.8,11.6h0.9c0.4,0,0.6-0.3,0.6-0.6c0-0.4-0.2-0.7-0.7-0.7h-0.8V11.6z M282,11c0,0.7-0.4,1.3-0.9,1.7l1.2,2
	h-2l-1-1.6h-0.5v1.6h-1.7V8.8c0.9,0,1.6-0.1,2.4-0.1C281.1,8.8,282,9.6,282,11 M274.6,11.8c0,2.8,2,4.8,4.8,4.8c2.8,0,4.8-2,4.8-4.8
	c0-2.7-2-4.8-4.8-4.8C276.7,7,274.6,9.1,274.6,11.8 M285.8,11.8c0,3.6-2.7,6.3-6.4,6.3c-3.6,0-6.4-2.7-6.4-6.3
	c0-3.5,2.7-6.2,6.4-6.2C283,5.6,285.8,8.3,285.8,11.8"/>
    <polygon points="15.5,33.5 27.6,19.5 43.5,19.5 28.8,36.6 44.8,60.4 29.1,60.4 19.5,46.2 13.7,46.2 13.7,60.4 0,60.4 
	0,0.5 13.7,0.5 13.7,33.5 "/>
    <path d="M90.5,34v26.4H76.8V38.1c0-5.1-3-7.4-6.9-7.4c-2.2,0-4.9,0.2-8.3,0.4v29.3H47.9V20.3c9.1-1.1,18.5-2,25.9-2
	C83.8,18.2,90.5,24.6,90.5,34"/>
    <path d="M122.5,51.3v-7.9l-9.5,0.5c-4.1,0.3-5.9,1.6-5.9,4c0,2.4,2.3,4,6.5,4C115.4,51.9,118.4,51.8,122.5,51.3
	 M135.6,33.7v25.9c-15.3,2.2-19.9,2.1-25.5,2.1c-10.3,0-15.9-5.3-15.9-13.7c0-8.2,6-12.2,17.8-12.8l10.4-0.6v-0.3
	c0-3.2-2.5-4.9-7.1-4.9c-5.3,0-9.7,0.6-15.8,1.4l-1.4-10.8c7.9-1.3,12.4-1.9,18.9-1.9C129.2,17.9,135.6,23.2,135.6,33.7"/>
    <path d="M172.2,40c0-6.2-3-10.7-9.7-10.7c-3,0-5.5,0.2-8.3,0.4v19.6c4.2,0.6,6.7,0.6,8.9,0.6
	C168.4,49.9,172.2,45.6,172.2,40 M185.4,39.7c0,13.7-9.4,21.3-19.9,21.3c-3.8,0-6.8,0-11.3-0.4v18.7h-13.7V20.3
	c9.5-1.3,16.6-2,24.4-2C177.6,18.2,185,26.8,185.4,39.7"/>
    <path d="M220.5,40c0-6.2-3-10.7-9.7-10.7c-3,0-5.5,0.2-8.3,0.4v19.6c4.2,0.6,6.7,0.6,8.9,0.6
	C216.7,49.9,220.5,45.6,220.5,40 M233.6,39.7c0,13.7-9.4,21.3-19.9,21.3c-3.8,0-6.8,0-11.3-0.4v18.7h-13.7V20.3
	c9.5-1.3,16.6-2,24.4-2C225.9,18.2,233.2,26.8,233.6,39.7"/>
    <path d="M271.2,60c-4.7,1.3-7.7,1.7-12.8,1.7c-10.2,0-15.9-6.2-15.9-17.4V31.7h-7.8V19.5h7.8V5.6h13.7v13.9h12.6v12.2
	h-12.6v11.2c0,4,1.6,6.5,5.8,6.5c2,0,4.2-0.2,7.9-0.7L271.2,60z"/>
    <rect x="234.7" y="19.5" width="7.8" height="12.2"/>
</svg>
