<?xml version="1.0" encoding="utf-8"?>
<!-- Generator: Adobe Illustrator 19.2.0, SVG Export Plug-In . SVG Version: 6.00 Build 0)  -->
<svg version="1.1" id="Layer_1" xmlns="http://www.w3.org/2000/svg" xmlns:xlink="http://www.w3.org/1999/xlink" x="0px" y="0px"
	 viewBox="0 0 240.9 79.4" style="enable-background:new 0 0 240.9 79.4;" xml:space="preserve">
<style type="text/css">
	.st0{fill:none;stroke:#000000;stroke-miterlimit:10;}
</style>
<g id="POLYLINE_33_">
	<polygon class="st0" points="208.3,25.7 208.3,45.7 238.2,45.7 238.2,39.3 	"/>
</g>
<g id="POLYLINE_32_">
	<polygon class="st0" points="32.7,25.7 32.7,45.7 2.7,45.7 2.7,39.3 	"/>
</g>
<g id="POLYLINE_31_">
	<polygon class="st0" points="205.9,25.7 161.9,45.7 205.9,45.7 	"/>
</g>
<g id="POLYLINE_30_">
	<polygon class="st0" points="203.5,23.5 156.1,2 156.1,45 	"/>
</g>
<g id="POLYLINE_29_">
	<polygon class="st0" points="153.7,3.8 123.3,45.7 153.7,45.7 	"/>
</g>
<g id="POLYLINE_28_">
	<polygon class="st0" points="152.1,1.3 88.9,1.3 120.5,44.9 	"/>
</g>
<g id="POLYLINE_27_">
	<polygon class="st0" points="35.1,25.7 79,45.7 35.1,45.7 	"/>
</g>
<g id="POLYLINE_26_">
	<polygon class="st0" points="37.5,23.5 84.8,2 84.8,45 	"/>
</g>
<g id="POLYLINE_25_">
	<polygon class="st0" points="87.3,3.8 117.7,45.7 87.3,45.7 	"/>
</g>
<g id="POLYLINE_24_">
	<polyline points="23.8,79.4 2.7,79.4 27.7,54.1 61.2,54.1 86.2,79.4 65,79.4 46.2,60.4 42.7,60.4 23.8,79.4 	"/>
</g>
<g id="SPLINE_20_">
	<path d="M158,79.3H93.8c-1.4-3.9-2.2-8.1-2.2-12.5c0-4.3,0.8-8.6,2.2-12.7c16,0,48,0,64.1,0l-6.2,6.3h-41.5c-0.7,2-1.1,4.2-1.1,6.4
		c0,2.2,0.4,4.3,1,6.3h41.5L158,79.3z"/>
</g>
<g id="POLYLINE_23_">
	<polyline points="183.2,63.6 207.6,63.6 217,54.1 238.2,54.1 225.7,66.7 238.2,79.4 217,79.4 207.6,69.9 183.2,69.9 183.2,79.4 
		165.6,79.4 165.6,54.1 183.2,54.1 183.2,63.6 	"/>
</g>
</svg>
