<?xml version="1.0" encoding="utf-8"?>
<!-- Generator: Adobe Illustrator 22.0.1, SVG Export Plug-In . SVG Version: 6.00 Build 0)  -->
<svg version="1.1" id="Layer_1" xmlns="http://www.w3.org/2000/svg" xmlns:xlink="http://www.w3.org/1999/xlink" x="0px" y="0px"
	 viewBox="0 0 219.6 72.5" style="enable-background:new 0 0 219.6 72.5;" xml:space="preserve">
<g>
	<g>
		<path d="M101.3,40.2c-0.8,2.1-1.7,3.5-2.6,4.3c-1,0.8-2.2,1.3-3.7,1.3h-2.3v-3.4h1.9c0.5,0,1-0.1,1.3-0.3c0.3-0.1,0.5-0.5,0.8-0.9
			c0-0.1,0.1-0.3,0.1-0.3c0-0.1,0.1-0.1,0.1-0.3L90,23.8h4.5l2.6,7.1c0.4,1,0.6,1.9,0.9,2.7c0.3,0.9,0.5,1.5,0.8,2.1h0.1l1.7-5
			c0-0.1,0.1-0.4,0.3-0.8s0.3-0.8,0.5-1.3c0.1-0.5,0.4-1,0.5-1.5c0.1-0.5,0.4-1,0.5-1.5c0.1-0.5,0.3-0.9,0.4-1.2
			c0.1-0.4,0.1-0.5,0.3-0.6h4.3C107.3,23.6,101.3,40.2,101.3,40.2z M120.9,39.9c0,1.7-0.5,3.1-1.4,4.1c-0.9,1-2.3,1.5-4.1,1.5
			c-0.5,0-1.2,0-1.9-0.1c-0.8-0.1-1.5-0.4-2.3-0.8v7h-3.9v-22h3.7l0.3,1.4c0.9-0.5,1.7-0.9,2.5-1.2c0.8-0.3,1.4-0.4,1.9-0.4
			c1.7,0,3,0.5,3.9,1.4c0.9,0.9,1.3,2.3,1.3,4.4L120.9,39.9L120.9,39.9z M116.8,35.6c0-0.9-0.1-1.5-0.5-1.8
			c-0.4-0.4-0.9-0.5-1.4-0.5c-0.3,0-0.5,0-0.9,0.1c-0.3,0.1-0.6,0.1-0.9,0.3c-0.4,0.1-0.6,0.3-1,0.4c-0.3,0.1-0.6,0.4-0.9,0.5v6.2
			c0.8,0.4,1.3,0.5,1.8,0.6c0.5,0.1,1,0.1,1.5,0.1c0.6,0,1.2-0.1,1.5-0.5c0.4-0.4,0.6-1,0.6-1.9L116.8,35.6L116.8,35.6z M127.9,31.4
			l0.8-0.4c0.3-0.1,0.5-0.3,0.9-0.4c0.3-0.1,0.6-0.1,0.9-0.3h0.8c0.9,0,1.8,0.1,2.5,0.4c0.8,0.3,1.4,0.6,1.9,1
			c0.5,0.5,0.9,1.2,1.3,1.8c0.3,0.8,0.4,1.7,0.4,2.7v3.2c0,1-0.1,1.8-0.5,2.6c-0.4,0.8-0.9,1.4-1.5,1.8c-0.6,0.5-1.4,0.9-2.2,1.2
			c-0.8,0.3-1.7,0.4-2.7,0.4s-1.9-0.1-2.8-0.4c-0.9-0.3-1.5-0.6-2.2-1.2s-1-1.2-1.4-1.8c-0.4-0.8-0.5-1.5-0.5-2.6v-3.7
			c0-1.2,0-2.1,0.1-3.1c0.1-0.9,0.3-1.7,0.4-2.5s0.4-1.4,0.8-2.1s0.8-1.2,1.2-1.7c0.4-0.4,0.8-0.8,1.2-1c0.4-0.3,0.9-0.5,1.4-0.8
			c0.5-0.3,1-0.5,1.5-0.6c0.5-0.3,1-0.4,1.5-0.6c0.6-0.3,1.2-0.5,1.7-0.6c0.5-0.1,1-0.4,1.7-0.8l1.3,3.2c-0.4,0.1-0.8,0.3-1,0.4
			l-0.8,0.4c-0.3,0.1-0.5,0.3-0.8,0.3c-0.3,0.1-0.5,0.3-0.8,0.3c-0.6,0.3-1.3,0.5-1.8,0.8c-0.5,0.3-1.2,0.5-1.5,0.9
			c-0.5,0.4-0.9,0.8-1.2,1.2S127.9,30.6,127.9,31.4z M133.3,36.8c0-1-0.3-1.7-0.9-2.2c-0.5-0.4-1.3-0.6-2.1-0.6c-0.4,0-0.6,0-1,0.1
			c-0.4,0.1-0.6,0.3-0.9,0.5c-0.3,0.3-0.5,0.5-0.6,0.9c-0.1,0.4-0.3,0.8-0.3,1.3V39c0,0.5,0.1,0.9,0.3,1.3c0.1,0.4,0.4,0.6,0.6,0.8
			c0.3,0.3,0.5,0.4,0.9,0.5c0.4,0.1,0.6,0.1,1,0.1c0.4,0,0.8,0,1-0.1c0.4-0.1,0.6-0.3,0.9-0.5c0.3-0.3,0.5-0.5,0.6-0.8
			c0.1-0.4,0.3-0.8,0.3-1.3L133.3,36.8L133.3,36.8z M149.1,44c-0.9,0.5-1.8,0.9-2.6,1.2s-1.4,0.3-2.1,0.3c-1.5,0-2.8-0.4-3.7-1.3
			c-0.9-0.9-1.3-2.1-1.3-3.5c0-0.9,0.1-1.5,0.5-2.2c0.4-0.6,0.8-1,1.4-1.4c0.5-0.4,1.2-0.6,1.8-0.8c0.6-0.1,1.3-0.3,1.9-0.3h4v-0.6
			c0-0.8-0.3-1.3-0.6-1.7c-0.4-0.4-1.2-0.5-2.2-0.5c-0.5,0-1.2,0.1-1.9,0.3c-0.8,0.1-1.5,0.5-2.3,1.2l-1.8-3c1-0.9,2.2-1.4,3.4-1.7
			c1.2-0.3,2.1-0.4,3.1-0.4c2.2,0,3.9,0.5,4.9,1.5c1,1,1.5,2.6,1.5,4.6v9.8h-3.6C149.4,45.6,149.1,44,149.1,44z M149.1,39h-4.1
			c-0.3,0-0.5,0.1-0.6,0.3c-0.3,0.1-0.4,0.3-0.5,0.5c-0.1,0.3-0.1,0.5-0.1,0.8c0,0.4,0.1,0.8,0.5,1c0.3,0.3,0.8,0.4,1.4,0.4
			s1.3-0.1,1.9-0.4c0.6-0.3,1.2-0.5,1.5-0.8V39z M166,45.3V39h-5.8v6.3h-4V29.7h4v5.9h5.8v-5.9h4v15.6H166z M182.9,36l-2.7,4.1
			l-3.5,5.2h-3.5V29.7h4V39h0.1l2.3-3.5l3.9-5.8h3.6v15.6h-4V36H182.9L182.9,36z M190.1,45.3V29.7h4v5.8h1.3c0.6,0,1.3-0.1,1.7-0.4
			c0.5-0.3,0.9-0.9,1.2-1.7l1.4-3.7h4.3l-1.7,4.5c-0.3,0.8-0.5,1.3-0.9,1.8c-0.4,0.5-0.9,0.9-1.5,1.2c0.8,0.3,1.3,0.6,1.7,1.2
			c0.4,0.5,0.6,1.2,0.9,1.9l1.8,5h-4.5l-1.3-4.1c-0.1-0.5-0.3-0.8-0.5-1.2c-0.3-0.3-0.4-0.5-0.6-0.6c-0.3-0.1-0.5-0.3-0.9-0.3H194
			v6.3h-3.9L190.1,45.3z M215.6,44c-0.9,0.5-1.8,0.9-2.6,1.2s-1.4,0.3-2.1,0.3c-1.5,0-2.8-0.4-3.7-1.3c-0.9-0.9-1.3-2.1-1.3-3.5
			c0-0.9,0.1-1.5,0.5-2.2s0.8-1,1.4-1.4c0.5-0.4,1.2-0.6,1.8-0.8c0.6-0.1,1.3-0.3,1.9-0.3h4v-0.6c0-0.8-0.3-1.3-0.6-1.7
			c-0.4-0.4-1.2-0.5-2.2-0.5c-0.5,0-1.2,0.1-1.9,0.3c-0.8,0.1-1.5,0.5-2.3,1.2l-1.8-3c1-0.9,2.2-1.4,3.4-1.7
			c1.2-0.3,2.1-0.4,3.1-0.4c2.2,0,3.9,0.5,4.9,1.5c1,1,1.5,2.6,1.5,4.6v9.8H216C216,45.6,215.6,44,215.6,44z M215.6,39h-4.1
			c-0.3,0-0.5,0.1-0.6,0.3c-0.3,0.1-0.4,0.3-0.5,0.5c-0.1,0.3-0.1,0.5-0.1,0.8c0,0.4,0.1,0.8,0.5,1c0.3,0.3,0.8,0.4,1.4,0.4
			s1.3-0.1,1.9-0.4c0.6-0.3,1.2-0.5,1.7-0.8V39H215.6z M0,36.8h3.4v3.4H0V36.8z M6.3,35.8H12v5.7H6.3V35.8z M12.5,29.6h3.4v3.4h-3.4
			V29.6z M18.7,27.3h5.7v5.7h-5.7V27.3z M14.9,35.8h9.4v9.4h-9.4C14.9,45.2,14.9,35.8,14.9,35.8z M32.4,0h3.4v3.4h-3.4V0z M31.1,6.3
			h5.7V12h-5.7V6.3z M39.7,12.5H43v3.4h-3.4V12.5z M48.3,21.1h3.4v3.4h-3.4V21.1z M21.1,20.9h3.4v3.4h-3.4V20.9z M20.9,48h3.4v3.4
			h-3.4V48z M48.2,48.2h3.4v3.4h-3.4V48.2z M39.7,18.7h5.7v5.7h-5.7C39.7,24.4,39.7,18.7,39.7,18.7z M27.4,14.9h9.4v9.4h-9.4V14.9z
			 M69.2,32.3h3.4v3.4h-3.4V32.3z M60.7,31h5.7v5.7h-5.7V31z M56.8,39.5h3.4v3.4h-3.4V39.5z M48.2,39.5h5.7v5.7h-5.7V39.5z
			 M48.3,27.3h9.4v9.4h-9.4V27.3z M36.8,69.1h3.4v3.4h-3.4V69.1z M35.8,60.4h5.7v5.7h-5.7C35.8,66.1,35.8,60.4,35.8,60.4z
			 M29.6,56.6h3.4v3.4h-3.4V56.6z M27.3,48h5.7v5.7h-5.7V48z M35.8,48.2h9.4v9.4h-9.4V48.2z M27.4,35.8v9.4h5.6V43h-3.2v-7.2
			 M45.2,39.5h-2.3V43h-7.1v2.2h9.4"/>
		<path d="M45.2,27.3H27.4v5.7h2.3v-3.4h2.8V40H40V29.6h2.8v7h2.3"/>
	</g>
</g>
</svg>
