<svg xmlns="http://www.w3.org/2000/svg" style="display: none">


	<symbol id="fb" viewBox="0 0 512 512"><path d="M274.59,401.85H218.28a5,5,0,0,1-5-5V261.09H190.13a5,5,0,0,1-5-5V199.78a5,5,0,0,1,5-5h23.15V174.24c0-9.05,1.63-26.43,12.53-41.17,11.26-15.21,28.69-22.92,51.82-22.92l43.61.19a5,5,0,0,1,5,5v48.37a5,5,0,0,1-5,5H289.54c-6.55,0-7.31,4.82-7.31,8.45v17.62h39.64a5,5,0,0,1,5,5.46l-3.11,34.2h0l-2,22.11a5,5,0,0,1-5,4.54H279.59V396.85A5,5,0,0,1,274.59,401.85Zm-51.31-10h46.31V256.09a5,5,0,0,1,5-5h37.58l4.23-46.31H277.23a5,5,0,0,1-5-5V177.16c0-13.62,9.33-18.45,17.31-18.45h26.68V120.32l-38.61-.17c-50.41,0-54.33,41.4-54.33,54.09v25.54a5,5,0,0,1-5,5H195.13v46.31h23.15a5,5,0,0,1,5,5Z"/></symbol>


	<symbol id="be" viewBox="0 0 512 512"><path d="M302.06,185.83H405.71a5,5,0,0,0,5-5V152.29a5,5,0,0,0-5-5H302.06a5,5,0,0,0-5,5v28.54A5,5,0,0,0,302.06,185.83Zm5-28.54h93.65v18.54H307.06Z M117.81,237.9h57.28a28,28,0,1,0,0-56.07H117.81a5,5,0,0,0-5,5V232.9A5,5,0,0,0,117.81,237.9Zm5-46.07h52.28a18,18,0,1,1,0,36.07H122.81Z M227,246.33a62.57,62.57,0,0,0-40.09-110.56H71.75a5,5,0,0,0-5,5V371.09a5,5,0,0,0,5,5H186.87a74.31,74.31,0,0,0,74.28-74.17A62.78,62.78,0,0,0,227,246.33ZM186.87,366.09H76.75V145.77H186.87a52.61,52.61,0,0,1,27.43,97.44,5,5,0,0,0,1,9,53,53,0,0,1,35.86,49.74A64.3,64.3,0,0,1,186.87,366.09Z M199.85,269c-9.43-5.9-20.46-6.53-24.76-6.53H117.81a5,5,0,0,0-5,5V325a5,5,0,0,0,5,5h69.06c7.52,0,14.68-3.9,20.17-11a36.22,36.22,0,0,0,7.7-21.68C214.74,284.89,209.6,275.07,199.85,269Zm-13,51H122.81V272.45h52.28c7,0,29.65,1.79,29.65,24.91C204.74,307.56,196.5,320,186.87,320Z M420.25,220.2C403.6,203,380.1,193.45,354.08,193.45s-49.76,9.5-66.45,26.74c-16.15,16.69-25.05,39.59-25.05,64.48s8.91,48,25.1,64.76c16.7,17.28,40.32,26.8,66.5,26.8,56.6,0,78.48-33.94,86.87-62.42a5,5,0,0,0-4.79-6.41H389.05a5,5,0,0,0-4.65,3.17c-5.48,13.94-15.65,21-30.22,21-17.3,0-31.65-15.19-34.93-36.1h121a5,5,0,0,0,5-5v-5.82C445.25,259.79,436.37,236.9,420.25,220.2Zm15,65.28H313.67a5,5,0,0,0-5,5.32c1.85,28.95,21.41,50.78,45.5,50.78,17.68,0,30.81-8.34,38.17-24.18h37c-5.16,14-13,25.16-23.24,33.21-13.23,10.36-30.7,15.62-51.92,15.62-23.78,0-44.29-8.21-59.31-23.75-14.37-14.87-22.29-35.4-22.29-57.81,0-47.06,34.28-81.22,81.5-81.22,47,0,81.17,34.15,81.17,81.21Z M354.18,228.14c-22.9,0-40.27,15.54-43.2,38.68a5,5,0,0,0,1.2,3.93,5,5,0,0,0,3.76,1.7h76.15a5,5,0,0,0,4.94-5.78C393.33,243.26,376.51,228.14,354.18,228.14ZM322,262.45c4.07-14.95,16.2-24.31,32.18-24.31,15.52,0,27.24,9.16,31.68,24.31Z"/></symbol>


	<symbol id="vimeo" viewBox="0 0 512 512"><path d="M246.09,401.85c-24.61,0-45.48-20.87-54.47-40.3-6.36-12.77-17.23-48.16-25.25-75.64-1.86-5.83-3.81-12.06-5.79-18.37-6.37-20.32-14.86-47.35-18.65-55.66-4.89.84-13,5.42-18.91,9.8-2.84,2.55-6.82,2.55-8.76,2.55-3.46,0-5.91-2.46-7.7-4.24a4.78,4.78,0,0,1-.47-.54l-12.3-16.4c-4.94-5.25-2.06-11-.66-13.82a5,5,0,0,1,.94-1.3c.22-.23.75-.82,1.54-1.7,46.17-51.7,77.33-67.55,95.62-71.58,2.73-1.73,6.19-1.73,9.06-1.73,16.61,0,28.85,9.09,37.43,27.78,7,15.28,10.6,34.73,14.07,53.53l.6,3.27a2.5,2.5,0,0,1,.05.29c1.28,10.27,2.66,20.16,5.33,28.18a4.44,4.44,0,0,1,.16.6c2.85,14.24,9,37.68,13.51,48.81,7.69-6.44,18-17.68,35.68-43.62,5.76-9.26,7.32-20.08,3.88-26.95a11.5,11.5,0,0,0-7.28-6.17c-5.13-1.49-11.88-.1-18.59,3.83-3,2.46-7.66,2.65-12.13.41-5.54-2.77-5.54-8.39-5.54-11.41a5.1,5.1,0,0,1,.07-.87c4.06-23,16.85-43.9,36-58.92,17.46-13.69,39-21.53,59.11-21.53,20.33,0,36.49,6.57,45.53,18.52,12.05,14.15,15.57,34.52,10.74,62.27-5.44,30.14-22,77.74-70.18,133.55-32.09,37.2-64,61.83-76.4,69.65l-.1.06A51.81,51.81,0,0,1,246.09,401.85ZM143.4,201.74h1.39a5,5,0,0,1,4,2c3.62,4.82,10.47,26.19,21.33,60.81,2,6.31,3.94,12.55,5.8,18.38l0,.12c11.2,38.38,20,64.7,24.65,74.1a.91.91,0,0,1,.07.14c7.93,17.18,26.07,34.56,45.42,34.56a41.81,41.81,0,0,0,21-6.19c24-15.16,124.15-97.47,142-196.47,4.3-24.67,1.49-42.39-8.58-54.14-.08-.08-.14-.17-.21-.25-7.09-9.45-20.45-14.65-37.63-14.65-34.77,0-77.14,27.42-85.2,71.76a12.17,12.17,0,0,0,.12,2.08,4.47,4.47,0,0,0,1.54.46,4.07,4.07,0,0,1,.48-.33c9.34-5.61,18.9-7.41,26.91-5.08A21.43,21.43,0,0,1,320,200.34c5,10,3.3,24.49-4.4,36.8a1.63,1.63,0,0,1-.11.17c-21.19,31.08-32.45,42.39-42.85,49.82a5,5,0,0,1-7.07-1.3c-6.41-9.62-14.87-44.8-17.33-57-2.89-8.78-4.33-19-5.66-29.66L242,196c-6.63-35.95-13.49-73.12-41.67-73.12a20.6,20.6,0,0,0-3.7.2,5,5,0,0,1-2.25,1.09c-23.5,4.7-55.92,29.09-91.27,68.68l-1.31,1.46a9.32,9.32,0,0,0-.74,1.78l.12.13a6,6,0,0,1,.46.54l12.28,16.36c.37.37.8.79,1.11,1.06a7.48,7.48,0,0,0,1.55-.17l.27-.21C119.5,211.82,133.45,201.74,143.4,201.74ZM116.27,214.3Zm.39-.29Zm79.8-90.85Zm.43-.32h0Z"/></symbol>

	<symbol id="issuu" viewBox="0 0 512 512"><path d="M256,92.26H105.55a13.3,13.3,0,0,0-13.29,13.29V250.74c0,91.55,72.08,167.35,160.67,169l3.1,0A163.75,163.75,0,0,0,419.74,256C419.74,165.71,346.29,92.26,256,92.26ZM363.7,365.71a152.66,152.66,0,0,1-110.58,44c-83.19-1.52-150.86-72.83-150.86-159V105.55a3.3,3.3,0,0,1,3.29-3.29H256c84.77,0,153.74,69,153.74,153.74A152.6,152.6,0,0,1,363.7,365.71Z M256,150.72A105.28,105.28,0,1,0,361.28,256,105.4,105.4,0,0,0,256,150.72Zm0,200.56A95.28,95.28,0,1,1,351.28,256,95.38,95.38,0,0,1,256,351.28Z M256,208.88A47.12,47.12,0,1,0,303.12,256,47.18,47.18,0,0,0,256,208.88Zm0,84.24A37.12,37.12,0,1,1,293.12,256,37.16,37.16,0,0,1,256,293.12Z"/></symbol>

	<symbol id="insta" viewBox="0 0 512 512"><path d="M328.73,91H183.27A92.37,92.37,0,0,0,91,183.27V328.73A92.37,92.37,0,0,0,183.27,421H328.73A92.37,92.37,0,0,0,421,328.73V183.27A92.37,92.37,0,0,0,328.73,91ZM411,328.73A82.37,82.37,0,0,1,328.73,411H183.27A82.37,82.37,0,0,1,101,328.73V183.27A82.37,82.37,0,0,1,183.27,101H328.73A82.37,82.37,0,0,1,411,183.27Z M256,171.59a85,85,0,1,0,85,85A85.06,85.06,0,0,0,256,171.59Zm0,159.92a75,75,0,1,1,75-75A75,75,0,0,1,256,331.51Z M343.27,140.19a14.55,14.55,0,1,0,14.55,14.54A14.54,14.54,0,0,0,343.27,140.19Z"/></symbol>


</svg>