<svg id="Слой_1" data-name="Слой 1" xmlns="http://www.w3.org/2000/svg" viewBox="0 0 851.6 78.15"><path d="M7.54.6h3.31l7.54,22H15.23l-2-5.73H5.1L3.17,22.62H0ZM6.12,13.87h6.12l-3-9Z"/><path d="M39.5.6h8c3.92,0,6.79,2.57,6.79,6.34s-2.87,6.33-6.79,6.33H42.67v9.35H39.5Zm8.14,9.65a3.2,3.2,0,0,0,3.47-3.31,3.2,3.2,0,0,0-3.47-3.32h-5v6.63Z"/><path d="M75.84.6l4.64,7.84L85.16.6h3.5L82.23,11.37,89,22.62h-3.5l-4.94-8.33-5,8.33h-3.5l6.7-11.25L72.37.6Z"/><path d="M112.9,16.89,122.28.6h3.47v22h-3.14V6l-9.38,16.59h-3.46V.6h3.13Z"/><path d="M146.56.6h15.38v3h-6.1v19h-3.19v-19h-6.09Z"/><path d="M182.74.6H196v3h-10.1V10h9.8v3h-9.8V19.6H196v3H182.74Z"/><path d="M233.1.6l-9.5,10.83,9.8,11.19h-4l-8.17-9.35v9.35H218V.6h3.16V9.65l8.14-9Z"/><path d="M251.8.6h15.38v3h-6.09v19h-3.2v-19H251.8Z"/><path d="M289.65.6l4.46,10.26L298.69.6h3.47l-10,22h-3.38l3.59-8L286.18.6Z"/><path d="M322.67.6h8c3.92,0,6.78,2.57,6.78,6.34s-2.86,6.33-6.78,6.33h-4.83v9.35h-3.16Zm8.14,9.65a3.2,3.2,0,0,0,3.47-3.31,3.2,3.2,0,0,0-3.47-3.32h-5v6.63Z"/><path d="M370.16.6h3.17v22h-3.17V13h-8.44v9.65h-3.17V.6h3.17V10h8.44Z"/><path d="M402,.6h3.31l7.54,22h-3.16l-2-5.73h-8.18l-1.93,5.73h-3.16Zm-1.42,13.27h6.12l-3-9Z"/><path d="M432.89,6.78c0-3.91,3.16-6.18,6.78-6.18h7.84v22h-3.16V13h-.61L436,22.62h-3.59V22l7.45-9C436.26,13,432.89,10.55,432.89,6.78ZM444.35,10V3.62h-4.83a3.25,3.25,0,0,0-3.47,3.16A3.25,3.25,0,0,0,439.52,10Z"/><path d="M513.55.6h4.53v22h-3.14V4.85l-6.21,12.94h-3.62L498.9,4.85V22.62h-3.14V.6h4.52l6.64,14.05Z"/><path d="M546.72.6H550l7.54,22h-3.17l-2-5.73h-8.17l-1.93,5.73h-3.16Zm-1.41,13.27h6.12l-3-9Z"/><path d="M587.59,0a11.15,11.15,0,0,1,8.74,4.22l-2.11,2.11A7.57,7.57,0,0,0,587.74,3c-5.13,0-8.27,3.76-8.27,8.62s3.14,8.62,8.42,8.62a7.57,7.57,0,0,0,6.48-3.34L596.48,19a11.15,11.15,0,0,1-8.74,4.22,11.29,11.29,0,0,1-11.46-11.58A11.29,11.29,0,0,1,587.59,0Z"/><path d="M615.78.6h15.38v3h-6.09v19h-3.2v-19h-6.09Z"/><path d="M652,.6h13.27v3h-10.1V10h9.8v3h-9.8V19.6h10.1v3H652Z"/><path d="M687.25.6h8C699.16.6,702,3.17,702,6.94s-2.87,6.33-6.79,6.33h-4.82v9.35h-3.17Zm8.14,9.65a3.2,3.2,0,0,0,3.47-3.31,3.2,3.2,0,0,0-3.47-3.32h-5v6.63Z"/><path d="M732.94,0a11.15,11.15,0,0,1,8.74,4.22l-2.11,2.11A7.57,7.57,0,0,0,733.09,3c-5.13,0-8.26,3.76-8.26,8.62s3.13,8.62,8.41,8.62a7.57,7.57,0,0,0,6.48-3.34L741.83,19a11.15,11.15,0,0,1-8.74,4.22,11.29,11.29,0,0,1-11.46-11.58A11.29,11.29,0,0,1,732.94,0Z"/><path d="M778.32.6l-9.5,10.83,9.8,11.19h-4l-8.17-9.35v9.35h-3.17V.6h3.17V9.65l8.14-9Z"/><path d="M804.86.6h3.32l7.53,22h-3.16l-2-5.73h-8.17l-1.93,5.73h-3.17Zm-1.42,13.27h6.12l-3-9Z"/><path d="M835.77,6.78c0-3.91,3.17-6.18,6.78-6.18h7.84v22h-3.16V13h-.61l-7.71,9.65h-3.59V22l7.44-9C839.15,13,835.77,10.55,835.77,6.78ZM847.23,10V3.62H842.4a3.24,3.24,0,0,0-3.46,3.16A3.25,3.25,0,0,0,842.4,10Z"/><path d="M23.1,33.2A21.57,21.57,0,0,1,40,41.38l-4.09,4.08A14.66,14.66,0,0,0,23.39,39c-9.92,0-16,7.3-16,16.7s6.08,16.69,16.29,16.69a14.64,14.64,0,0,0,12.55-6.48L40.32,70a21.59,21.59,0,0,1-16.93,8.17c-12.84,0-22.18-9.92-22.18-22.41S10.55,33.2,23.1,33.2Z"/><path d="M46.74,34.37H72.43v5.84H52.87V52.47h19V58.3h-19V71.15H72.43V77H46.74Z"/><path d="M80,34.37H95.49c7.59,0,13.13,5,13.13,12.26s-5.54,12.26-13.13,12.26H86.15V77H80ZM95.78,53.05c3.5,0,6.71-2,6.71-6.42s-3.21-6.42-6.71-6.42H86.15V53.05Z"/><path d="M114.46,34.37h26.85v5.84H120.59V77h-6.13Z"/><path d="M146.57,34.37h25.68v5.84H152.7V52.47h19V58.3h-19V71.15h19.55V77H146.57Z"/><path d="M185.92,65.89l18.15-31.52h6.71V77h-6.07V44.88L186.56,77h-6.72V34.37h6.08Zm1.92-37.51V33.3H203.6V28.38Z"/><path d="M263.32,34.37l-18.38,21,19,21.65h-7.83L240.27,58.89V77h-6.13V34.37h6.13V51.88L256,34.37Z"/><path d="M274.65,65.89,292.8,34.37h6.72V77h-6.07V44.88L275.29,77h-6.71V34.37h6.07Z"/><path d="M328.42,33.2a21.54,21.54,0,0,1,16.92,8.18l-4.08,4.08A14.67,14.67,0,0,0,328.71,39c-9.93,0-16,7.3-16,16.7S318.78,72.37,329,72.37a14.64,14.64,0,0,0,12.55-6.48L345.64,70a21.59,21.59,0,0,1-16.93,8.17c-12.84,0-22.18-9.92-22.18-22.41S315.87,33.2,328.42,33.2Z"/><path d="M352.06,34.37h25.68v5.84H358.19V52.47h19V58.3h-19V71.15h19.55V77H352.06Z"/><path d="M387.09,34.37h27.43V77h-6.13V40.21H393.22V67c0,5.55-3.8,10.57-10.8,10.57L381.25,77V71.73h1.17a4.3,4.3,0,0,0,4.67-4.67Z"/><path d="M424.45,34.37h25.68v5.84H430.58V52.47h19V58.3h-19V71.15h19.55V77H424.45Z"/><path d="M457.73,34.37H472.9c7.59,0,13.43,4.67,13.43,11.68a10.51,10.51,0,0,1-5.2,9.1A10.57,10.57,0,0,1,486.91,65c0,7.29-5.83,12-13.42,12H457.73Zm15.46,18.1c3.51,0,7-1.75,7-6.13s-3.5-6.13-7-6.13h-9.34V52.47Zm.59,18.68c3.5,0,7-2.34,7-6.42,0-4.67-3.5-6.43-7-6.43h-9.93V71.15Z"/><path d="M514.58,65.89l18.16-31.52h6.71V77h-6.07V44.88L515.23,77h-6.72V34.37h6.07Z"/><path d="M562.8,34.37h28.61V77h-6.13V40.21H568.93V77H562.8Z"/><path d="M611.84,34.37h6.42L632.86,77h-6.13l-3.8-11.09H607.11L603.38,77h-6.13ZM609.1,60.06H621l-5.9-17.52Z"/><path d="M638.7,34.37h15.47c7.59,0,13.13,5,13.13,12.26s-5.54,12.26-13.13,12.26h-9.34V77H638.7Zm15.76,18.68c3.5,0,6.71-2,6.71-6.42s-3.21-6.42-6.71-6.42h-9.63V53.05Z"/><path d="M669.05,34.37h29.78v5.84H687V77h-6.18V40.21h-11.8Z"/><path d="M726.56,34.37h6.12V77h-6.12V58.3H710.21V77h-6.13V34.37h6.13v18.1h16.35Z"/><path d="M742,34.37h25.68v5.84H748.16V52.47h19V58.3h-19V71.15h19.55V77H742Z"/><path d="M775.3,34.37h15.47c7.59,0,13.14,5,13.14,12.26s-5.55,12.26-13.14,12.26h-9.34V77H775.3Zm15.76,18.68c3.51,0,6.72-2,6.72-6.42s-3.21-6.42-6.72-6.42h-9.63V53.05Z"/><path d="M809.75,34.37h6.13v18.1h10.5c7.59,0,13.14,5,13.14,12.26S834,77,826.38,77H809.75Zm16.92,36.78c3.51,0,6.72-2.05,6.72-6.42s-3.21-6.43-6.72-6.43H815.88V71.15Zm16.76,0h1V40.21h-1V34.37h8.17v5.84h-1V71.15h1V77h-8.17Z"/></svg>