<svg xmlns:xlink="http://www.w3.org/1999/xlink" xmlns="http://www.w3.org/2000/svg" width="263" height="60" viewBox="0 0 263 60" fill="none">
<path d="M23.7928 15.589H23.8472H29.5504H29.6048C30.5825 15.589 31.2886 14.8829 31.2886 13.9052V1.68383C31.2886 0.706126 30.5825 0 29.6048 0H29.5504H23.8472H23.7928C22.8151 0 22.109 0.706126 22.109 1.68383V13.9052C22.0547 14.9372 22.7608 15.589 23.7928 15.589Z" fill="#B8195B"/>
<path d="M16.1259 22.1074L16.1802 22.053L19.7108 17.599L19.7652 17.5447C20.3626 16.7843 20.254 15.8066 19.4936 15.1548L9.93377 7.55038C9.17333 6.9529 8.19562 7.06153 7.54381 7.82197L7.4895 7.87628L3.95889 12.3303L3.90457 12.3846C3.30708 13.145 3.41572 14.1228 4.17616 14.7746L13.736 22.379C14.5507 22.9764 15.5284 22.8678 16.1259 22.1074Z" fill="#8401FF"/>
<path d="M16.4547 32.1006V32.0463L15.2054 26.5059V26.4516C14.9882 25.4739 14.1734 24.9851 13.1957 25.2023L1.30025 27.9182C0.322539 28.1354 -0.166308 28.9502 0.0509599 29.9279V29.9822L1.30025 35.5226V35.5769C1.51751 36.5546 2.33228 37.0435 3.30998 36.8262L15.2054 34.1103C16.1831 33.8931 16.672 33.0783 16.4547 32.1006Z" fill="#0047CB"/>
<path d="M24.4994 38.0791L24.445 38.0247L19.3392 35.5805L19.2849 35.5262C18.3615 35.0916 17.4381 35.4175 17.0579 36.3409L11.7892 47.313C11.3546 48.2364 11.6805 49.1598 12.6039 49.54L12.6582 49.5943L17.764 52.0386L17.8184 52.0929C18.7417 52.5274 19.6651 52.2015 20.0453 51.2781L25.3141 40.3061C25.6943 39.437 25.3684 38.5136 24.4994 38.0791Z" fill="#19B9EB"/>
<path d="M34.1568 35.5838L34.1025 35.6381L28.9967 38.0824L28.9424 38.1367C28.019 38.5712 27.7474 39.4946 28.1276 40.418L33.4507 51.39C33.8853 52.3134 34.8087 52.585 35.732 52.2048L35.7864 52.1505L40.8922 49.7062L40.9465 49.6519C41.8699 49.2174 42.1415 48.294 41.7612 47.3706L36.4382 36.3985C35.9493 35.4751 35.0259 35.1492 34.1568 35.5838Z" fill="#38DEC2"/>
<path d="M38.1769 26.3959V26.4503L36.9276 31.9906V32.0449C36.7103 33.0226 37.1992 33.8374 38.1769 34.0547L50.0724 36.7705C51.0501 36.9878 51.8648 36.4989 52.0821 35.5212V35.4669L53.3314 29.9266V29.8722C53.5486 28.8945 53.0598 28.0798 52.0821 27.8625L40.1866 25.1467C39.2632 24.9294 38.4485 25.4182 38.1769 26.3959Z" fill="#FBC41B"/>
<path d="M33.5649 17.5447L33.6192 17.599L37.1498 22.053L37.2042 22.1074C37.8016 22.8678 38.7793 22.9764 39.5941 22.379L49.1539 14.7746C49.9144 14.1771 50.023 13.1994 49.4255 12.3846L49.3712 12.3303L45.8406 7.87628L45.7863 7.82197C45.1888 7.06153 44.2111 6.9529 43.3963 7.55038L33.8365 15.1548C33.0761 15.8066 32.9674 16.73 33.5649 17.5447Z" fill="#F9831B"/>
<path d="M179.103 0H186.001C186.273 0 186.436 0.108632 186.381 0.380218V7.44144C186.381 7.65871 186.218 7.82166 186.001 7.82166H179.103C178.885 7.82166 178.723 7.65871 178.723 7.44144V0.380218C178.723 0.16295 178.885 0 179.103 0Z" fill="#2F3337"/>
<path d="M68.3423 0H75.2405C75.4578 0 75.6207 0.108632 75.6207 0.380218V7.44144C75.6207 7.65871 75.4578 7.82166 75.2405 7.82166H68.3423C68.125 7.82166 67.962 7.65871 67.962 7.44144V0.380218C67.962 0.16295 68.125 0 68.3423 0Z" fill="#2F3337"/>
<path d="M97.3359 25.0742C95.6577 24.9004 94.0951 24.7385 92.8894 24.4974C90.6081 24.0629 89.9019 23.1938 89.9019 21.8359C89.9019 19.7718 91.803 18.3596 95.4423 18.3596C99.1902 18.3596 102.558 19.7175 105.056 21.8359C105.219 21.9988 105.437 21.9988 105.6 21.7815L109.673 17.0016C109.836 16.8387 109.836 16.6214 109.619 16.4585C107.555 14.6117 103.427 12.0045 96.3657 12.0045C88.4354 12.0045 83.1123 15.7523 83.1123 22.379C83.1123 27.2132 85.7195 29.4946 89.1958 30.6895C91.4991 31.4573 93.7819 31.6507 95.9811 31.8369C97.3604 31.9538 98.7069 32.0678 100.005 32.3191C102.558 32.7536 103.373 33.7856 103.373 35.4151C103.373 37.6421 101.363 39.0001 97.3977 39.0001C92.7808 39.0001 89.2501 37.5335 86.48 34.872C86.317 34.709 86.0454 34.6547 85.8825 34.872L81.9173 39.6519C81.9076 39.6809 81.8962 39.71 81.8849 39.7387C81.8329 39.8712 81.7834 39.9971 81.9173 40.0864C83.9271 42.1504 88.2181 45.3008 96.7459 45.3008C106.632 45.3008 110.542 40.5209 110.542 34.7633C110.325 28.6798 106.197 26.4528 102.612 25.7467C100.906 25.4439 99.0598 25.2528 97.3359 25.0742Z" fill="#2F3337"/>
<path d="M75.0764 12.7794H68.5584C68.3411 12.7794 68.1782 12.9424 68.1782 13.1596V44.3222C68.1782 44.5395 68.3411 44.7024 68.5584 44.7024H75.0764C75.2937 44.7024 75.4566 44.5395 75.4566 44.3222V13.1596C75.4566 12.9424 75.348 12.7794 75.0764 12.7794Z" fill="#2F3337"/>
<path fill-rule="evenodd" clip-rule="evenodd" d="M134.374 11.7151C129.866 11.7151 126.444 13.2359 124.109 15.7345V12.8542C124.109 12.6369 123.946 12.474 123.728 12.474H117.536C117.319 12.474 117.156 12.6369 117.156 12.8542V57.45C117.156 57.6673 117.319 57.8302 117.536 57.8302H124.054C124.271 57.8302 124.434 57.6673 124.434 57.45V41.3179C126.77 43.5992 130.029 44.9028 134.429 44.9028C143.934 44.9028 150.235 37.6243 150.235 28.2274C150.181 19.0479 143.934 11.7151 134.374 11.7151ZM133.179 38.1675C126.987 38.1675 123.837 33.7678 123.837 28.3361C123.837 22.9587 126.987 18.6133 133.179 18.6133C138.991 18.6133 142.468 23.013 142.468 28.3361C142.468 33.7678 138.991 38.1675 133.179 38.1675Z" fill="#2F3337"/>
<path d="M171.44 12.1943C172.961 12.1943 174.428 12.5202 175.514 12.9004C175.731 12.9547 175.731 13.1177 175.731 13.4436L173.939 20.1246C173.884 20.3418 173.721 20.3961 173.504 20.3418C172.364 19.9616 171.169 19.7443 170.191 19.7443C165.574 19.7443 162.804 23.5465 162.804 27.9462V44.35C162.804 44.5672 162.641 44.7302 162.423 44.7302H155.905C155.688 44.7302 155.525 44.5672 155.525 44.35V13.1945C155.525 12.9772 155.688 12.8143 155.905 12.8143H162.098C162.315 12.8143 162.478 12.9772 162.478 13.1945V17.1914C164.813 13.3349 168.398 12.1943 171.44 12.1943Z" fill="#2F3337"/>
<path fill-rule="evenodd" clip-rule="evenodd" d="M261.562 12.7801H255.37C255.153 12.7801 254.99 12.943 254.99 13.1603V15.7345C252.6 13.2359 249.232 11.7151 244.724 11.7151C235.218 11.7151 228.918 18.9935 228.918 28.2818C228.918 37.6243 235.218 44.9571 244.724 44.9571C249.069 44.9571 252.383 43.5992 254.718 41.3722V44.4139C254.718 50.0086 250.427 52.1813 246.516 52.1813C242.823 52.1813 239.401 50.3888 237.554 46.8039C237.5 46.5866 237.174 46.478 237.011 46.5866L230.927 49.3568C230.764 49.4111 230.71 49.6827 230.764 49.7913C232.448 53.7565 237.065 58.6993 246.516 58.6993C256.728 58.6993 261.997 52.3442 261.997 44.4139V13.1603C261.942 12.943 261.779 12.7801 261.562 12.7801ZM245.919 38.1675C240.107 38.1675 236.631 33.7678 236.631 28.3361C236.631 22.9587 240.107 18.6133 245.919 18.6133C252.111 18.6133 255.261 23.013 255.261 28.3361C255.261 33.7678 252.111 38.1675 245.919 38.1675Z" fill="#2F3337"/>
<path d="M179.266 12.7717H185.784C186.001 12.7717 186.164 12.9347 186.164 13.1519V44.3229C186.164 44.5401 186.001 44.7031 185.784 44.7031H179.266C179.048 44.7031 178.885 44.5401 178.885 44.3229V13.1519C178.885 12.9347 179.048 12.7717 179.266 12.7717Z" fill="#2F3337"/>
<path d="M212.309 12.7801C208.308 12.7801 205.107 14.0538 202.813 16.2829V13.1516C202.813 12.9393 202.652 12.7801 202.439 12.7801H196.357C196.143 12.7801 195.983 12.9393 195.983 13.1516V44.3587C195.983 44.571 196.143 44.7302 196.357 44.7302H202.759C202.973 44.7302 203.133 44.571 203.133 44.3587V26.8976C203.133 22.7048 205.373 19.4673 210.015 19.4673C213.91 19.4673 216.524 21.6964 216.524 26.3668V44.3587C216.524 44.571 216.684 44.7302 216.898 44.7302H223.3C223.513 44.7302 223.673 44.571 223.673 44.3587V24.6154C223.62 18.1405 220.739 12.7801 212.309 12.7801Z" fill="#2F3337"/>
</svg>