<svg width="174" height="94" viewBox="0 0 174 94" fill="none" xmlns="http://www.w3.org/2000/svg">
<path d="M84.9959 45.1607H77.808V18.7554H84.9959V45.1607ZM88.9255 15H73.8887V48.9264H88.9255V15Z" fill="#111111"/>
<path d="M118.922 52.6155H55.0042V56.3606H118.922V52.6155Z" fill="#111111"/>
<path d="M58.9132 63.8557H77.3878V71.0129H58.9132V63.8557ZM55.0042 60.1055V79.0001H58.9183V74.7529H81.3071V60.1055H55.0042Z" fill="#111111"/>
<path d="M96.6984 26.2815L103.881 18.7554V48.9212H107.806V26.2815L114.994 18.7605V48.9212H118.918V15H113.405L107.806 20.8405V15H102.293L92.7688 24.8623V48.9212H96.6984V26.2815Z" fill="#111111"/>
<path d="M89.0441 63.8557H99.9413V71.0129H89.0441V63.8557ZM104.025 63.8557H115.009V71.0129H104.025V63.8557ZM85.1299 74.7529H99.9464V79.0001H104.025V74.7529H118.923V60.1055H85.1299V74.7529Z" fill="#111111"/>
<path d="M58.9296 26.2815L66.1124 18.7605V45.1556H58.9296V26.2815ZM64.5293 15L55 24.8572V45.1556V48.9212H58.9296H66.1124H70.0419V45.1556V15H64.5293Z" fill="#111111"/>
<path d="M118.922 52.6155H55.0042V56.3606H118.922V52.6155Z" fill="#111111"/>
<path d="M58.9132 63.8557H77.3878V71.0129H58.9132V63.8557ZM55.0042 60.1055V79.0001H58.9183V74.7529H81.3071V60.1055H55.0042Z" fill="#111111"/>
<path d="M89.0441 63.8557H99.9413V71.0129H89.0441V63.8557ZM104.025 63.8557H115.009V71.0129H104.025V63.8557ZM85.1299 74.7529H99.9464V79.0001H104.025V74.7529H118.923V60.1055H85.1299V74.7529Z" fill="#111111"/>
<path d="M84.9959 45.1607H77.808V18.7554H84.9959V45.1607ZM88.9255 15H73.8887V48.9264H88.9255V15Z" fill="#111111"/>
<path d="M96.6984 26.2815L103.881 18.7554V48.9212H107.806V26.2815L114.994 18.7605V48.9212H118.918V15H113.405L107.806 20.8405V15H102.293L92.7688 24.8623V48.9212H96.6984V26.2815Z" fill="#111111"/>
<path d="M58.9296 26.2815L66.1124 18.7605V45.1556H58.9296V26.2815ZM64.5293 15L55 24.8572V45.1556V48.9212H58.9296H66.1124H70.0419V45.1556V15H64.5293Z" fill="#111111"/>
</svg>
