<?xml version="1.0" encoding="UTF-8"?>
<svg id="_Слой_1" xmlns="http://www.w3.org/2000/svg" version="1.1" viewBox="0 0 706.53 109.15">
  <!-- Generator: Adobe Illustrator 29.5.1, SVG Export Plug-In . SVG Version: 2.1.0 Build 141)  -->
  <defs>
    <style>
      .st0, .st1 {
        fill: #fff;
      }

      .st0, .st2 {
        fill-rule: evenodd;
      }

      .st3, .st2 {
        fill: #007bfc;
      }
    </style>
  </defs>
  <rect class="st3" y="144.75" width="706.51" height="109.15"/>
  <g>
    <path class="st1" d="M0,198.51c0-6.05,0-9.08.28-11.62,2.4-22.05,19.81-39.46,41.86-41.86,2.55-.28,5.57-.28,11.62-.28s9.08,0,11.62.28c22.05,2.4,39.46,19.81,41.86,41.86.28,2.55.28,5.57.28,11.62v1.63c0,6.05,0,9.08-.28,11.62-2.4,22.05-19.81,39.46-41.86,41.86-2.55.28-5.57.28-11.62.28s-9.08,0-11.62-.28c-22.05-2.4-39.46-19.81-41.86-41.86C0,209.21,0,206.19,0,200.14c0,0,0-1.63,0-1.63Z"/>
    <path class="st2" d="M34.36,223.71c-.5.5-.5,1.3,0,1.79l9.87,9.87c.5.5,1.3.5,1.79,0l34.36-34.36c.5-.5.5-1.3,0-1.79l-9.87-9.87c-.5-.5-1.3-.5-1.79,0l-34.36,34.36ZM46.02,164.85c-.5-.5-1.3-.5-1.79,0l-9.88,9.88c-.5.5-.5,1.3,0,1.79l18.53,18.53c.5.5,1.3.5,1.79,0l9.88-9.88c.5-.5.5-1.3,0-1.79,0,0-18.53-18.53-18.53-18.53Z"/>
    <polygon class="st1" points="301.73 163.92 326.95 163.92 347.28 217.82 367.46 163.92 391.8 163.92 391.8 235.79 375.62 235.79 375.62 180.85 354.56 235.79 337.94 235.79 316.87 181.14 316.87 235.79 301.74 235.79 301.74 163.92 301.73 163.92"/>
    <path class="st1" d="M497.44,163.92h55.64v71.87h-17.21v-56.72h-22.7c-.15,10.1-.44,23.61-.74,31.18-.6,18.86-6.08,25.54-22.26,25.54h-7.71v-15.15h4.3c7.27,0,9.64-3.27,10.09-13.51.44-10.99.59-32.82.59-43.21h0Z"/>
    <polygon class="st1" points="641.1 163.92 706.53 163.92 706.53 179.06 682.35 179.06 682.35 235.79 665.28 235.79 665.28 179.06 641.1 179.06 641.1 163.92"/>
    <path class="st1" d="M247.52,223.25c-6.74-.19-10.64-4.09-10.64-9.03,0-4.09,1.84-6.09,4.27-7.51,2.55-1.49,5.87-2,11.02-2.19,4.95-.18,8.98-.39,16.66-.39,0,12.27-7.71,18.43-17.28,19.08-1.51.1-2.44.08-4.02.04h-.01ZM257.19,162.44h-6.16c-14.8,0-26.02,9.01-28.59,22.41l15.73,2.52c2.15-6.39,7.09-10.74,13.34-11.03,2.02-.1,1.54-.07,3.56,0,9.29.34,13.49,4.79,13.49,15.8-17.61,0-29.64-.83-38.5,5.01-7.23,4.77-10.33,10.06-10.33,18.42,0,12.1,9.41,21.69,24.59,21.69,2.38,0,1.41,0,2.09,0,10.73,0,19.39-4.18,22.91-9.23v7.74h15.84v-43.32c0-16.71-8.94-30.04-27.99-30.04l.02.03Z"/>
    <path class="st1" d="M599.79,176.34c1.8-.1,2.44-.1,4.25,0,7.5.38,15.4,5.25,16.16,14.95h-36.94c.86-8.65,7.8-14.47,16.54-14.95h0ZM637.11,204.71v-6.73c0-23.19-14.56-35.19-33.36-35.19h-3.68c-20.23,0-33.13,13.8-33.8,33.28-.09,2.85-.09,4.04,0,7.94.48,19.39,14.05,32.44,32.19,32.91,3.32.1,2.9.09,6.03,0,15.79-.44,27.75-9.57,31.28-21.49l-15.28-2.67c-3.73,7.47-10.86,10.34-16.55,10.62-1.8.1-2.06.07-3.86,0-8.93-.37-16.92-7.37-16.92-17.54v-1.14h53.95,0Z"/>
    <path class="st1" d="M460.84,205.24c-.2,10.16-7.58,17.05-17.51,17.55-1.91.1-1.79.1-3.69,0-10.03-.5-17.31-7.4-17.51-17.55-.1-4.22-.1-6.62,0-10.84.2-10.06,7.48-16.95,17.51-17.45,1.91-.1,1.79-.1,3.69,0,9.93.5,17.31,7.4,17.51,17.55.1,4.22.1,6.52,0,10.74h0ZM477.76,193.51c-.38-17.39-14.4-30.71-32.92-30.71h-6.71c-18.53,0-32.54,13.32-32.92,30.8-.1,4.85-.1,7.67,0,12.52.38,17.49,14.4,30.8,32.92,30.8h6.71c18.53,0,32.54-13.32,32.92-30.8.1-4.85.1-7.76,0-12.61Z"/>
    <path class="st1" d="M193.06,210.43c-2,6.66-7.35,11.23-14.55,12.23-2.07.29-4.13.22-5.8,0-8.95-1.25-15.25-7.97-15.44-17.41-.1-4.22-.1-6.62,0-10.84.19-9.51,6.8-16.47,15.91-17.44.53-.06,2.51-.24,4.43-.03,7.67.83,13.44,5.43,15.51,12.43l16.67-3.23c-3.58-13.64-15.94-23.33-31.74-23.33h-4.79c-18.53,0-32.54,13.32-32.92,30.8-.1,4.85-.1,7.67,0,12.52.39,17.49,14.4,30.8,32.92,30.8h4.79c16.1,0,28.58-10.07,31.88-24.19l-16.88-2.31h.01Z"/>
  </g>
  <g>
    <path class="st3" d="M0,53.76c0-6.05,0-9.08.28-11.62C2.67,20.09,20.09,2.67,42.14.28,44.69,0,47.71,0,53.76,0S62.84,0,65.38.28c22.05,2.4,39.46,19.81,41.86,41.86.28,2.55.28,5.57.28,11.62v1.63c0,6.05,0,9.08-.28,11.62-2.4,22.05-19.81,39.46-41.86,41.86-2.55.28-5.57.28-11.62.28s-9.08,0-11.62-.28C20.09,106.48,2.67,89.07.28,67.02c-.28-2.55-.28-5.57-.28-11.62v-1.63h0Z"/>
    <path class="st0" d="M34.36,78.96c-.5.5-.5,1.3,0,1.79l9.87,9.87c.5.5,1.3.5,1.79,0l34.36-34.36c.5-.5.5-1.3,0-1.79l-9.87-9.87c-.5-.5-1.3-.5-1.79,0,0,0-34.36,34.36-34.36,34.36ZM46.02,20.1c-.5-.5-1.3-.5-1.79,0l-9.88,9.88c-.5.5-.5,1.3,0,1.79l18.53,18.53c.5.5,1.3.5,1.79,0l9.88-9.88c.5-.5.5-1.3,0-1.79,0,0-18.53-18.53-18.53-18.53Z"/>
    <polygon class="st3" points="301.73 19.17 326.95 19.17 347.28 73.07 367.46 19.17 391.8 19.17 391.8 91.04 375.62 91.04 375.62 36.1 354.56 91.04 337.94 91.04 316.87 36.39 316.87 91.04 301.74 91.04 301.74 19.17 301.73 19.17"/>
    <path class="st3" d="M497.44,19.17h55.64v71.87h-17.21v-56.72h-22.7c-.15,10.1-.44,23.61-.74,31.18-.6,18.86-6.08,25.54-22.26,25.54h-7.71v-15.15h4.3c7.27,0,9.64-3.27,10.09-13.51.44-10.99.59-32.82.59-43.21h0Z"/>
    <polygon class="st3" points="641.1 19.17 706.53 19.17 706.53 34.32 682.35 34.32 682.35 91.04 665.28 91.04 665.28 34.32 641.1 34.32 641.1 19.17"/>
    <path class="st3" d="M247.52,78.5c-6.74-.19-10.64-4.09-10.64-9.03,0-4.09,1.84-6.09,4.27-7.51,2.55-1.49,5.87-2,11.02-2.19,4.95-.18,8.98-.39,16.66-.39,0,12.27-7.71,18.43-17.28,19.08-1.51.1-2.44.08-4.02.04h-.01ZM257.19,17.69h-6.16c-14.8,0-26.02,9.01-28.59,22.41l15.73,2.52c2.15-6.39,7.09-10.74,13.34-11.03,2.02-.1,1.54-.07,3.56,0,9.29.34,13.49,4.79,13.49,15.8-17.61,0-29.64-.83-38.5,5.01-7.23,4.77-10.33,10.06-10.33,18.42,0,12.1,9.41,21.69,24.59,21.69,2.38,0,1.41,0,2.09,0,10.73,0,19.39-4.18,22.91-9.23v7.74h15.84v-43.32c0-16.71-8.94-30.04-27.99-30.04l.02.03Z"/>
    <path class="st3" d="M599.79,31.59c1.8-.1,2.44-.1,4.25,0,7.5.38,15.4,5.25,16.16,14.95h-36.94c.86-8.65,7.8-14.47,16.54-14.95h0ZM637.11,59.96v-6.73c0-23.19-14.56-35.19-33.36-35.19h-3.68c-20.23,0-33.13,13.8-33.8,33.28-.09,2.85-.09,4.04,0,7.94.48,19.39,14.05,32.44,32.19,32.91,3.32.1,2.9.09,6.03,0,15.79-.44,27.75-9.57,31.28-21.49l-15.28-2.67c-3.73,7.47-10.86,10.34-16.55,10.62-1.8.1-2.06.07-3.86,0-8.93-.37-16.92-7.37-16.92-17.54v-1.14h53.95,0Z"/>
    <path class="st3" d="M460.84,60.49c-.2,10.16-7.58,17.05-17.51,17.55-1.91.1-1.79.1-3.69,0-10.03-.5-17.31-7.4-17.51-17.55-.1-4.22-.1-6.62,0-10.84.2-10.06,7.48-16.95,17.51-17.45,1.91-.1,1.79-.1,3.69,0,9.93.5,17.31,7.4,17.51,17.55.1,4.22.1,6.52,0,10.74ZM477.76,48.76c-.38-17.39-14.4-30.71-32.92-30.71h-6.71c-18.53,0-32.54,13.32-32.92,30.8-.1,4.85-.1,7.67,0,12.52.38,17.49,14.4,30.8,32.92,30.8h6.71c18.53,0,32.54-13.32,32.92-30.8.1-4.85.1-7.76,0-12.61Z"/>
    <path class="st3" d="M193.06,65.68c-2,6.66-7.35,11.23-14.55,12.23-2.07.29-4.13.22-5.8-.01-8.95-1.25-15.25-7.97-15.44-17.41-.1-4.22-.1-6.62,0-10.84.19-9.51,6.8-16.47,15.91-17.44.53-.06,2.51-.24,4.43-.03,7.67.83,13.44,5.43,15.51,12.43l16.67-3.23c-3.58-13.64-15.94-23.33-31.74-23.33h-4.79c-18.53,0-32.54,13.32-32.92,30.8-.1,4.85-.1,7.67,0,12.52.39,17.49,14.4,30.8,32.92,30.8h4.79c16.1,0,28.58-10.07,31.88-24.19l-16.88-2.31h.01Z"/>
  </g>
</svg>