<svg id="Слой_1" data-name="Слой 1" xmlns="http://www.w3.org/2000/svg" viewBox="0 0 100.16 51.04"><path d="M56,23.25c-.06.81-.12,1.55-.16,2.28,0,.3-.1.45-.43.43s-.28-.27-.27-.47c0-1,.06-2,.13-2.94,0-.32-.11-.78.35-.91s.54.36.78.57c.06,0,.12-.05.14-.09.21-.33.11-.95.64-.92s.46.65.58,1c.33,1.07.61,2.15.91,3.22.07.27.15.56-.24.65s-.42-.23-.47-.45a18.21,18.21,0,0,0-.69-2.25c-.07-.18-.19-.35-.3-.16C56.67,23.8,56.36,23.32,56,23.25Z"/><path d="M79.51,22.1c.6-.08.87-.31.61-.93a.5.5,0,0,1,.36-.76c.41-.06.34.33.4.58.32,1.35.65,2.7,1,4.05.06.26.25.62-.21.72s-.51-.16-.57-.51c-.15-.77-.32-1.54-.51-2.3,0-.19,0-.57-.41-.43s-.57.21-.41.69c.21.64.3,1.32.45,2,.07.3.21.62-.22.74s-.45-.24-.51-.54c-.24-1.2-.49-2.39-.74-3.59-.06-.28-.24-.64.2-.74s.45.29.52.58S79.48,22,79.51,22.1Z"/><path d="M95.36,21.49a28.35,28.35,0,0,0,.16,3.24c0,.2.23.53-.18.57s-.29-.29-.32-.51a29.08,29.08,0,0,0-.46-3.72c-.1-.39-.06-.72.31-.91s.48.23.71.38.27.34.59.4c0-.17,0-.31,0-.46s.08-.27.24-.26.24.12.25.27a42.88,42.88,0,0,0,1.11,4.29c.06.25.09.5-.28.52s-.45,0-.49-.37c-.07-.56-.26-1.11-.35-1.67A2.38,2.38,0,0,0,95.36,21.49Z"/><path d="M21.9,24.71c0,.49,0,1,0,1.47s-.15.91-.77,1-1.1-.1-1.26-.75a6.2,6.2,0,0,1-.1-1.14,5.66,5.66,0,0,0-.36-2.48c-.12-.26-.15-.57.21-.68s.38.22.48.44a5.27,5.27,0,0,1,.41,2.63,6.09,6.09,0,0,0,0,.74c0,.25.05.52.38.53s.3-.32.29-.54c0-.95-.13-1.9-.15-2.85,0-.31-.33-.86.32-.89s.34.56.4.85a12.18,12.18,0,0,1,.11,1.71Z"/><path d="M12.25,23.05c-.7.16-1.23.29-1.76.4-.27.06-.52,0-.56-.3s.16-.38.39-.43l4-.83c.28-.06.59,0,.62.37s-.27.35-.52.4c-1.15.25-1.17.26-1.09,1.43.06.89.22,1.78.28,2.68,0,.33.26.88-.31.94s-.42-.51-.46-.85c-.12-1.11-.2-2.22-.3-3.34C12.51,23.24,12.52,22.94,12.25,23.05Z"/><path d="M73.53,21.33c-.07.08-.15.2-.24.29a1.22,1.22,0,0,0,0,1.87A3.86,3.86,0,0,1,74,25.36a2,2,0,0,1-.64,1.69.48.48,0,0,1-.65.15.46.46,0,0,1-.16-.71c.8-1,.23-1.82-.33-2.65A2.15,2.15,0,0,1,72.4,21a.61.61,0,0,1,.73-.2A.67.67,0,0,1,73.53,21.33Z"/><path d="M4.56,25.56c-.07-.47-.49-.86-.78-1.31a3.11,3.11,0,0,1,.42-2.53.41.41,0,0,1,.46,0,.3.3,0,0,1,.12.43c-.8,1.12-.2,2,.39,3a2.48,2.48,0,0,1-.87,2.54.35.35,0,0,1-.39,0,.33.33,0,0,1-.1-.44,7.54,7.54,0,0,1,.47-.77A1.68,1.68,0,0,0,4.56,25.56Z"/><path d="M88.62,25.38c0,.28.19.69-.35.74s-.41-.34-.46-.64c-.24-1.28-.5-2.56-.73-3.85,0-.29-.27-.68.25-.78s.42.33.51.63A14,14,0,0,1,88.62,25.38Z"/><path d="M66,26.29c0,.35,0,.56-.32.57a.41.41,0,0,1-.47-.35c-.24-1.34-.49-2.67-.71-4,0-.22-.06-.53.31-.55s.38.16.43.45C65.46,23.73,65.74,25.06,66,26.29Z"/><path d="M37.92,26.36c0,.3.06.53-.28.57s-.37-.09-.45-.34c-.39-1.39-.38-2.85-.71-4.25a.33.33,0,0,1,.35-.44.37.37,0,0,1,.43.36A32.79,32.79,0,0,0,37.92,26.36Z"/><path d="M64.34,29c.5.22.47.57.48.88a13.63,13.63,0,0,0,.42,2.62c0,.19.08.41.32.38s.11-.26.15-.41c.25-.88-.38-1.68-.2-2.55,0-.18-.17-.49.16-.53s.24.27.29.44a10.05,10.05,0,0,1,.19,3,.51.51,0,0,1-.45.5A.58.58,0,0,1,65,33a5,5,0,0,1-.5-1.94C64.41,30.42,64.4,29.75,64.34,29Z"/><path d="M63,32.88c-.08-.13-.13-.19-.17-.25-.14-.24,0-.73-.42-.68s-.18.53-.23.81,0,.52-.26.51-.22-.32-.22-.54c0-1,0-2.11,0-3.17,0-.22,0-.48.28-.49s.24.27.29.42c.29.85.55,1.7.81,2.56A.74.74,0,0,1,63,32.88Z"/><path d="M18.64,34.4c-.14-.59-.27-1.16-.4-1.73,0-.15,0-.36-.25-.33s-.14.28-.11.42c.09.51.21,1,.32,1.52,0,.13.09.29-.08.35s-.31-.08-.34-.25q-.36-1.68-.69-3.36c0-.13,0-.29.17-.31s.24.09.27.23,0,.17,0,.25c.05.24,0,.67.32.61s0-.4,0-.61-.13-.42.14-.48.27.22.31.39c.18.88.36,1.76.52,2.64C18.94,34,19,34.24,18.64,34.4Z"/><path d="M13.42,34.81l-.8-1.41-.12,0,.09,1.47a1.86,1.86,0,0,1-.41-1.32c-.07-.71-.13-1.41-.16-2.12,0-.19-.49-.55.1-.58.36,0,.88-.1.91.53,0,.19.06.45,0,.56-.57.6,0,1.05.16,1.56S13.67,34.27,13.42,34.81Z"/><path d="M35,33.14c0-.87,0-1.73,0-2.6,0-.17-.11-.44.14-.47s.29.27.3.47c0,.87,0,1.74,0,2.61,0,.22,0,.47-.28.5s-.5.09-.66-.17c-.08-.11-.2-.23-.2-.35,0-1,0-2.05.07-3.08a25.39,25.39,0,0,1,.38,3.14Z"/><path d="M53.52,29.53a5.51,5.51,0,0,1,.4,3.15c-.05.22-.11.43-.38.46a.42.42,0,0,1-.46-.28,6.11,6.11,0,0,1-.5-3.3c.41,1,.34,2.09.87,3.19C53.88,31.58,53.16,30.56,53.52,29.53Z"/><path d="M39.37,33.62c-.64-.3-.75-.82-1.21-1.14l.07,1.34-.22,0a20.32,20.32,0,0,1-.54-3.74,1.25,1.25,0,0,1,.79,0c.24.05.33.25.4.47s-.06.37-.25.43c-.72.2-.33.6-.15.92A13.07,13.07,0,0,1,39.37,33.62Z"/><path d="M57.44,32.85c-.64-.3-.75-.82-1.21-1.14l.07,1.34-.22,0a20.32,20.32,0,0,1-.54-3.74,1.16,1.16,0,0,1,.78,0c.25.05.34.25.41.46a.32.32,0,0,1-.25.44c-.72.2-.33.6-.15.92A12.42,12.42,0,0,1,57.44,32.85Z"/><path d="M10.64,35.12c-.36-.31-.29-.76-.44-1.11,0-.14-.12-.25-.27-.24s-.19.16-.2.3,0,.06,0,.08c-.1.33.19.93-.23.93-.27,0-.07-.65-.07-1,0-.92,0-1.84.07-2.76,0-.13,0-.29.17-.32s.18.07.21.19c.31,1.23.61,2.47.91,3.71C10.8,34.94,10.71,35,10.64,35.12Z"/><path d="M60,32.8c-1.17.23-1.23.19-1.34-.81-.07-.62-.16-1.25-.17-1.87,0-.28-.3-.66,0-.82a1.21,1.21,0,0,1,1.12.14c-1,.56-1,.83-.2,1.34C58.68,31.48,58.85,32.19,60,32.8Z"/><path d="M23.35,34.31c-.72-1.17.17-2.82-1.14-3.8.19-.31.52-.17.79-.18.62,0,.6,0,.34.53a1.12,1.12,0,0,0,0,.55c.07.74.15,1.47.22,2.2C23.55,33.83,23.65,34.08,23.35,34.31Z"/><path d="M44.75,33.48c-.36,0-.61,0-.67-.42-.15-1.08-.37-2.14-.54-3.21,0-.17-.11-.43.15-.47s.25.22.28.39c.13.75.25,1.5.38,2.25.07.42-.06,1,.65,1,.14,0,.19.2.13.33S44.86,33.47,44.75,33.48Z"/><path d="M14.63,31.91c0-.25.09-.54.17-.83s.32-.52.6-.33-.12.3-.16.47a3.85,3.85,0,0,0,.53,2.94,2.65,2.65,0,0,0,.21.26c.08.1.2.23.08.35s-.3,0-.4-.1A5.22,5.22,0,0,1,14.63,31.91Z"/><path d="M30.64,30.21,32.21,30c-.64,1.37.2,2.66-.06,4-.47-.42-.23-.92-.34-1.33a5.85,5.85,0,0,1-.12-.73c-.07-.74.13-1.65-1.33-1.49Z"/><path d="M29.22,30.39a2.28,2.28,0,0,0,.15,3c.16.16.52.33.31.56s-.48,0-.65-.24a3.33,3.33,0,0,1-.59-2.76C28.5,30.56,28.67,30.21,29.22,30.39Z"/><path d="M20.81,34.3A3.59,3.59,0,0,1,20.52,33c-.07-.7-.17-1.4-.25-2.1,0-.14,0-.29.17-.32s.2.09.22.19l.39,3.55Z"/><path d="M64.4,21.63c-.23-.05-.55-.05-.52-.43a.35.35,0,0,1,.46-.33c.26,0,.57.09.56.45S64.67,21.65,64.4,21.63Z"/><path d="M28.79,21.72c-.31.06-.65.12-.44.56a8.5,8.5,0,0,1,.91,4.26.44.44,0,0,0,.27.47.4.4,0,0,0,.5-.16,4.15,4.15,0,0,0,1.35-2.79C31.36,22.1,30.55,21.37,28.79,21.72Zm1.14,3.9a8.68,8.68,0,0,0-.49-2.53c-.06-.21-.35-.55.07-.68s.84.05.88.38C30.5,23.7,30.78,24.66,29.93,25.62Z"/><path d="M44.17,22c-.44-.5-1.36-.48-1.56.12a4.49,4.49,0,0,0,.12,3.71c.29.55.8.52,1.37.15.77-.5.43-1.25.54-1.71A3.08,3.08,0,0,0,44.17,22Zm-.38,3.35c0,.08-.1.21-.25.17s-.2-.17-.25-.3a3.49,3.49,0,0,1,.13-2.76A4.2,4.2,0,0,1,43.79,25.37Z"/><path d="M50.76,31.66c-.66-.5-1.06-1-.62-1.75a.65.65,0,0,0-.8-.65c-.13,0-.25.06-.19.26a11.15,11.15,0,0,1,.77,3.75c0,.23.13.34.38.24C51,33.26,51.31,32.06,50.76,31.66Zm-.28,1.23a1.11,1.11,0,0,1-.18-1.1C50.7,32.11,50.62,32.45,50.48,32.89Z"/><path d="M42,32.67c-.25-.86-.54-1.7-.79-2.56-.06-.21-.06-.5-.32-.48s-.2.33-.2.53c0,.93,0,1.85,0,2.78,0,.29-.21.85.12.83.53,0,.09-.56.2-.85,0,0,0-.05,0-.08,0-.18,0-.41.24-.44a.35.35,0,0,1,.41.3c0,.23.05.48.3.63C42.26,33.11,42.08,32.87,42,32.67Zm-.7-.67a.16.16,0,0,1-.15,0c-.32-.28-.09-.63-.06-1C41.2,31.38,41.51,31.64,41.32,32Z"/></svg>