<svg id="Слой_1" data-name="Слой 1" xmlns="http://www.w3.org/2000/svg" viewBox="0 0 100.16 51.04"><defs><style>.cls-1{fill:#00aeef;}</style></defs><path class="cls-1" d="M45.51,22.72h1.9v4.21H45.14Zm3,0h6.38l.44,4.21H48.48Zm-2.6-4.29h1.53v3.13h-1.8Zm2.6,0h5.94l.32,3.13H48.48Zm-2.25-4h1.18v2.91H46Zm2.25,0H54l.3,2.91H48.48Zm-1.91-4h.84v2.93H46.32Zm1.91,0h5.11l.31,2.93H48.48Zm0-1.86h2.93v.79H48.48Zm0-2.47L50.07,4.3l1.34,1.53V7.49H48.48Zm-1.07-.4v1.8H45.55V8.56h1.86v.79H45.59L44.07,26.93H37.83V28H62.2V26.93H56.37L54.55,9.35H52.48V8.56h1.84V7.49H52.48V5.42l-2.4-2.73Z"/><path class="cls-1" d="M42,4l1,0c.2-.5.91-1.79,1.8-1.79V1.09a3,3,0,0,0-2.34,1.57c-.5-.71-1.29-1.57-2.19-1.57V2.17c.53,0,1.36,1.1,1.74,1.84"/><path class="cls-1" d="M39.57,17.6l1-.05c.19-.5.9-1.79,1.79-1.79V14.67A3,3,0,0,0,40,16.25c-.49-.71-1.29-1.58-2.18-1.58v1.09c.53,0,1.35,1.1,1.74,1.84"/><path class="cls-1" d="M60,11.19c-.5-.71-1.29-1.58-2.19-1.58V10.7c.53,0,1.36,1.1,1.75,1.84l1-.06c.2-.49.91-1.78,1.8-1.78V9.61A3,3,0,0,0,60,11.19"/><polygon class="cls-1" points="1.07 38.79 0 38.79 0 31.59 7.19 31.59 7.19 32.66 1.07 32.66 1.07 38.79"/><polygon class="cls-1" points="0 43.71 0 51.04 7.19 51.04 7.19 49.97 1.07 49.97 1.07 43.71 0 43.71"/><polygon class="cls-1" points="92.97 31.59 92.97 32.66 99.09 32.66 99.09 38.79 100.16 38.79 100.16 31.59 92.97 31.59"/><polygon class="cls-1" points="99.09 43.71 99.09 49.97 92.97 49.97 92.97 51.04 100.16 51.04 100.16 43.71 99.09 43.71"/><polygon class="cls-1" points="3.5 34.74 4.39 34.74 4.39 39.15 6.64 39.15 6.64 34.74 7.53 34.74 7.53 39.14 8.15 39.14 8.08 41.09 7.26 41.09 7.26 39.85 3.5 39.85 3.5 34.74"/><path class="cls-1" d="M10.37,36.67a.75.75,0,0,0-.57.24,1.36,1.36,0,0,0-.27.69h1.63v-.06a1,1,0,0,0-.23-.65.72.72,0,0,0-.56-.22m.1,3.26a1.72,1.72,0,0,1-1.31-.52,1.83,1.83,0,0,1-.51-1.36V38a2.39,2.39,0,0,1,.22-1,1.76,1.76,0,0,1,.62-.7,1.68,1.68,0,0,1,.89-.25,1.52,1.52,0,0,1,1.2.5,2.11,2.11,0,0,1,.42,1.4v.35H9.51a1.13,1.13,0,0,0,.32.74.93.93,0,0,0,.69.27,1.16,1.16,0,0,0,1-.47l.46.44a1.57,1.57,0,0,1-.61.53,2,2,0,0,1-.86.19"/><polygon class="cls-1" points="15.88 39.85 15.03 39.85 15.03 38.32 13.55 38.32 13.55 39.85 12.69 39.85 12.69 36.05 13.55 36.05 13.55 37.64 15.03 37.64 15.03 36.05 15.88 36.05 15.88 39.85"/><polygon class="cls-1" points="19.78 36.73 18.55 36.73 18.55 39.85 17.69 39.85 17.69 36.73 16.47 36.73 16.47 36.05 19.78 36.05 19.78 36.73"/><path class="cls-1" d="M22.83,37.92a1.58,1.58,0,0,0-.23-.9.73.73,0,0,0-.65-.34.79.79,0,0,0-.75.43V38.8a.78.78,0,0,0,.76.44.75.75,0,0,0,.64-.33,1.74,1.74,0,0,0,.23-1m.85.07a2.31,2.31,0,0,1-.4,1.41,1.29,1.29,0,0,1-1.08.52,1.26,1.26,0,0,1-1-.41v1.81h-.85V36.05h.78l0,.39a1.27,1.27,0,0,1,1-.46,1.31,1.31,0,0,1,1.09.52,2.37,2.37,0,0,1,.4,1.44Z"/><polygon class="cls-1" points="28.72 36.74 27.07 36.74 27.07 39.85 26.22 39.85 26.22 36.05 28.72 36.05 28.72 36.74"/><path class="cls-1" d="M29.83,38a1.55,1.55,0,0,0,.24.92.86.86,0,0,0,1.35,0,1.72,1.72,0,0,0,.24-1,1.47,1.47,0,0,0-.25-.91.83.83,0,0,0-1.33,0,1.61,1.61,0,0,0-.25,1M29,37.92a2.23,2.23,0,0,1,.22-1,1.54,1.54,0,0,1,.62-.69,1.75,1.75,0,0,1,.92-.24,1.67,1.67,0,0,1,1.25.5,2,2,0,0,1,.52,1.31V38a2.21,2.21,0,0,1-.22,1,1.61,1.61,0,0,1-.61.68,1.8,1.8,0,0,1-.93.25,1.64,1.64,0,0,1-1.29-.54A2.06,2.06,0,0,1,29,38Z"/><path class="cls-1" d="M35.71,37.92a1.58,1.58,0,0,0-.23-.9.71.71,0,0,0-.64-.34.82.82,0,0,0-.76.43V38.8a.79.79,0,0,0,.76.44.74.74,0,0,0,.64-.33,1.74,1.74,0,0,0,.23-1m.85.07a2.25,2.25,0,0,1-.4,1.41,1.29,1.29,0,0,1-1.08.52,1.28,1.28,0,0,1-1-.41v1.81h-.85V36.05H34l0,.39a1.27,1.27,0,0,1,1-.46,1.33,1.33,0,0,1,1.1.52,2.37,2.37,0,0,1,.39,1.44Z"/><path class="cls-1" d="M38,38a1.55,1.55,0,0,0,.24.92.86.86,0,0,0,1.35,0,1.72,1.72,0,0,0,.24-1,1.47,1.47,0,0,0-.25-.91.79.79,0,0,0-.67-.34.8.8,0,0,0-.67.33A1.68,1.68,0,0,0,38,38m-.86-.07a2.37,2.37,0,0,1,.22-1,1.62,1.62,0,0,1,.63-.69,1.73,1.73,0,0,1,.92-.24,1.67,1.67,0,0,1,1.25.5,1.91,1.91,0,0,1,.51,1.31V38a2.21,2.21,0,0,1-.22,1,1.57,1.57,0,0,1-.62.68,1.77,1.77,0,0,1-.93.25,1.63,1.63,0,0,1-1.28-.54A2,2,0,0,1,37.12,38Z"/><path class="cls-1" d="M42.14,39.17H43.6V36.79h-1l0,.72a3,3,0,0,1-.48,1.66m-1,0a2.14,2.14,0,0,0,.48-.75,3.16,3.16,0,0,0,.14-.91l.05-1.46h2.64v3.12H45V41h-.85V39.86H41.69V41h-.86V39.17Z"/><path class="cls-1" d="M47.15,39.24a.79.79,0,0,0,.53-.18.66.66,0,0,0,.23-.46h.8a1.27,1.27,0,0,1-.22.66,1.57,1.57,0,0,1-.56.49,1.68,1.68,0,0,1-.77.18,1.63,1.63,0,0,1-1.26-.52A2,2,0,0,1,45.43,38v-.09a2,2,0,0,1,.46-1.39A1.63,1.63,0,0,1,47.16,36a1.52,1.52,0,0,1,1.1.4,1.38,1.38,0,0,1,.45,1h-.8a.79.79,0,0,0-.23-.54.71.71,0,0,0-.53-.21.75.75,0,0,0-.64.3,1.5,1.5,0,0,0-.23.91V38a1.54,1.54,0,0,0,.23.92.74.74,0,0,0,.64.3"/><polygon class="cls-1" points="50.71 38.35 50.27 38.35 50.27 39.85 49.42 39.85 49.42 36.05 50.27 36.05 50.27 37.57 50.65 37.57 51.7 36.05 52.75 36.05 51.38 37.87 52.87 39.85 51.76 39.85 50.71 38.35"/><path class="cls-1" d="M53.83,38a1.48,1.48,0,0,0,.25.92.85.85,0,0,0,1.34,0,1.72,1.72,0,0,0,.24-1,1.53,1.53,0,0,0-.24-.91.79.79,0,0,0-.68-.34.77.77,0,0,0-.66.33,1.68,1.68,0,0,0-.25,1M53,37.92a2.23,2.23,0,0,1,.22-1,1.67,1.67,0,0,1,.62-.69,1.78,1.78,0,0,1,.92-.24,1.66,1.66,0,0,1,1.25.5,2,2,0,0,1,.52,1.31V38a2.34,2.34,0,0,1-.21,1,1.63,1.63,0,0,1-.62.68,1.8,1.8,0,0,1-.93.25,1.64,1.64,0,0,1-1.29-.54A2.06,2.06,0,0,1,53,38Z"/><polygon class="cls-1" points="59.77 36.74 58.12 36.74 58.12 39.85 57.27 39.85 57.27 36.05 59.77 36.05 59.77 36.74"/><path class="cls-1" d="M60.87,38a1.55,1.55,0,0,0,.25.92.85.85,0,0,0,1.34,0,1.72,1.72,0,0,0,.24-1,1.53,1.53,0,0,0-.24-.91.84.84,0,0,0-1.34,0,1.68,1.68,0,0,0-.25,1M60,37.92a2.23,2.23,0,0,1,.22-1,1.67,1.67,0,0,1,.62-.69,1.78,1.78,0,0,1,.92-.24,1.66,1.66,0,0,1,1.25.5,1.92,1.92,0,0,1,.52,1.31V38a2.34,2.34,0,0,1-.22,1,1.63,1.63,0,0,1-.62.68,1.8,1.8,0,0,1-.93.25,1.65,1.65,0,0,1-1.29-.54A2.06,2.06,0,0,1,60,38Z"/><path class="cls-1" d="M68.55,37.92a1.58,1.58,0,0,0-.23-.9.73.73,0,0,0-.65-.34.79.79,0,0,0-.75.43V38.8a.79.79,0,0,0,.76.44.75.75,0,0,0,.64-.33,1.74,1.74,0,0,0,.23-1m.85.07A2.31,2.31,0,0,1,69,39.4a1.29,1.29,0,0,1-1.08.52,1.26,1.26,0,0,1-1-.41v1.81h-.85V36.05h.78l0,.39a1.27,1.27,0,0,1,1-.46A1.3,1.3,0,0,1,69,36.5a2.3,2.3,0,0,1,.4,1.44Z"/><path class="cls-1" d="M71.45,39.24a1,1,0,0,0,.48-.12.87.87,0,0,0,.33-.33v-.72H71.8a1.27,1.27,0,0,0-.71.16.55.55,0,0,0-.24.47.48.48,0,0,0,.17.39.59.59,0,0,0,.43.15m.94.61a1.25,1.25,0,0,1-.1-.35,1.45,1.45,0,0,1-1.93.1,1.14,1.14,0,0,1,.09-1.74,2.16,2.16,0,0,1,1.29-.33h.52v-.25a.67.67,0,0,0-.16-.47.65.65,0,0,0-.5-.18.73.73,0,0,0-.48.15.47.47,0,0,0-.19.37h-.85a1,1,0,0,1,.21-.59,1.34,1.34,0,0,1,.56-.42,1.87,1.87,0,0,1,.8-.16,1.55,1.55,0,0,1,1.06.34,1.19,1.19,0,0,1,.41.94V39a2,2,0,0,0,.14.81v.06Z"/><path class="cls-1" d="M76.89,37.09a.8.8,0,0,1-.15.47,1.14,1.14,0,0,1-.43.34.87.87,0,0,1,.65.88,1,1,0,0,1-.42.83,1.9,1.9,0,0,1-1.14.32,2,2,0,0,1-.79-.15,1.28,1.28,0,0,1-.56-.42,1,1,0,0,1-.2-.63h.85a.5.5,0,0,0,.2.39.9.9,0,0,0,.53.15.79.79,0,0,0,.49-.14.47.47,0,0,0,.19-.39.51.51,0,0,0-.16-.4.86.86,0,0,0-.5-.12h-.61v-.61h.63c.38,0,.57-.17.57-.47a.44.44,0,0,0-.16-.37.76.76,0,0,0-.46-.13.82.82,0,0,0-.47.14.41.41,0,0,0-.19.35h-.85a1,1,0,0,1,.42-.82A1.68,1.68,0,0,1,75.4,36a1.85,1.85,0,0,1,1.1.28,1,1,0,0,1,.39.82"/><path class="cls-1" d="M78.61,38.23v1h.93c.44,0,.66-.16.66-.47s-.22-.48-.67-.48Zm0-.61h.7c.48,0,.73-.14.73-.43s-.23-.45-.69-.46h-.74Zm-.86,2.23v-3.8H79.3a2,2,0,0,1,1.18.28.86.86,0,0,1,.41.78.74.74,0,0,1-.16.47,1,1,0,0,1-.49.32,1.08,1.08,0,0,1,.59.31.79.79,0,0,1,.22.56.94.94,0,0,1-.39.81,2,2,0,0,1-1.13.27Z"/><polygon class="cls-1" points="84.16 36.05 85.01 36.05 85.01 39.85 84.16 39.85 84.16 37.32 82.67 39.85 81.82 39.85 81.82 36.05 82.67 36.05 82.67 38.59 84.16 36.05"/><polygon class="cls-1" points="88.91 36.73 87.68 36.73 87.68 39.85 86.83 39.85 86.83 36.73 85.61 36.73 85.61 36.05 88.91 36.05 88.91 36.73"/><polygon class="cls-1" points="91.85 36.05 92.7 36.05 92.7 39.85 91.85 39.85 91.85 37.32 90.36 39.85 89.51 39.85 89.51 36.05 90.36 36.05 90.36 38.59 91.85 36.05"/><path class="cls-1" d="M94.33,37.29a.48.48,0,0,0,.18.39.69.69,0,0,0,.46.15h.84v-1.1H95a.72.72,0,0,0-.5.16.51.51,0,0,0-.19.4m2.33-1.24v3.8h-.85V38.46H95l-.81,1.39h-.89l.9-1.53a1.16,1.16,0,0,1-.54-.42,1,1,0,0,1-.19-.63,1.1,1.1,0,0,1,.41-.87,1.7,1.7,0,0,1,1.1-.35Z"/><polygon class="cls-1" points="4.66 43.37 6.14 47.3 7.61 43.37 8.76 43.37 8.76 48.49 7.87 48.49 7.87 46.8 7.96 44.55 6.45 48.49 5.82 48.49 4.31 44.55 4.39 46.8 4.39 48.49 3.51 48.49 3.51 43.37 4.66 43.37"/><path class="cls-1" d="M11.06,47.27l.77-2.58h.91l-1.51,4.38a1.23,1.23,0,0,1-1.18,1A1.6,1.6,0,0,1,9.64,50V49.3H9.8a.84.84,0,0,0,.49-.12.82.82,0,0,0,.25-.39l.13-.33L9.33,44.69h.92Z"/><path class="cls-1" d="M15.71,46.55a1.58,1.58,0,0,0-.23-.9.74.74,0,0,0-.65-.33.78.78,0,0,0-.75.43v1.69a.81.81,0,0,0,.76.44.75.75,0,0,0,.64-.33,1.78,1.78,0,0,0,.23-1m.85.08a2.28,2.28,0,0,1-.4,1.4,1.27,1.27,0,0,1-1.08.53,1.31,1.31,0,0,1-1-.41V50h-.85V44.69H14l0,.38a1.26,1.26,0,0,1,1-.45,1.27,1.27,0,0,1,1.09.52,2.26,2.26,0,0,1,.4,1.44Z"/><polygon class="cls-1" points="19.54 47.44 20.66 44.69 21.73 44.69 21.73 48.49 20.88 48.49 20.88 45.97 19.83 48.49 19.25 48.49 18.2 45.96 18.2 48.49 17.35 48.49 17.35 44.69 18.42 44.69 19.54 47.44"/><path class="cls-1" d="M24,47.87a1,1,0,0,0,.48-.12.75.75,0,0,0,.33-.33V46.7h-.46a1.26,1.26,0,0,0-.71.17.54.54,0,0,0-.24.47.53.53,0,0,0,.16.39.63.63,0,0,0,.44.14m.94.62a1.24,1.24,0,0,1-.1-.36,1.3,1.3,0,0,1-1,.43,1.32,1.32,0,0,1-.93-.33,1,1,0,0,1-.36-.81,1.09,1.09,0,0,1,.45-.93,2.23,2.23,0,0,1,1.29-.32h.52v-.25a.64.64,0,0,0-.16-.47.65.65,0,0,0-.5-.18.78.78,0,0,0-.48.14.44.44,0,0,0-.19.37h-.85a1,1,0,0,1,.2-.58,1.48,1.48,0,0,1,.57-.43,2,2,0,0,1,.79-.15,1.63,1.63,0,0,1,1.07.33,1.24,1.24,0,0,1,.41.95v1.71a1.89,1.89,0,0,0,.14.82v.06Z"/><polygon class="cls-1" points="29.8 48.49 28.95 48.49 28.95 46.95 27.47 46.95 27.47 48.49 26.61 48.49 26.61 44.69 27.47 44.69 27.47 46.27 28.95 46.27 28.95 44.69 29.8 44.69 29.8 48.49"/><path class="cls-1" d="M32.27,47.88a.75.75,0,0,0,.53-.19.64.64,0,0,0,.23-.46h.8a1.21,1.21,0,0,1-.22.66,1.48,1.48,0,0,1-.56.49,1.68,1.68,0,0,1-.77.18A1.59,1.59,0,0,1,31,48a2,2,0,0,1-.47-1.42v-.09A2,2,0,0,1,31,45.14a1.6,1.6,0,0,1,1.27-.52,1.56,1.56,0,0,1,1.1.39,1.39,1.39,0,0,1,.45,1H33a.79.79,0,0,0-.23-.54.71.71,0,0,0-.53-.21.75.75,0,0,0-.64.3,1.54,1.54,0,0,0-.23.92v.13a1.54,1.54,0,0,0,.23.92.72.72,0,0,0,.64.31"/><polygon class="cls-1" points="35.83 46.99 35.4 46.99 35.4 48.49 34.54 48.49 34.54 44.69 35.4 44.69 35.4 46.21 35.77 46.21 36.82 44.69 37.88 44.69 36.5 46.51 37.99 48.49 36.88 48.49 35.83 46.99"/><path class="cls-1" d="M39,46.63a1.5,1.5,0,0,0,.25.92.78.78,0,0,0,.67.33.76.76,0,0,0,.67-.34,1.68,1.68,0,0,0,.24-1,1.53,1.53,0,0,0-.24-.91.82.82,0,0,0-.68-.34.77.77,0,0,0-.66.33,1.73,1.73,0,0,0-.25,1m-.85-.08a2.19,2.19,0,0,1,.22-1,1.67,1.67,0,0,1,.62-.69,1.78,1.78,0,0,1,.92-.24,1.65,1.65,0,0,1,1.25.49,2,2,0,0,1,.52,1.32v.2a2.29,2.29,0,0,1-.21,1,1.6,1.6,0,0,1-.62.69,1.79,1.79,0,0,1-.93.24A1.64,1.64,0,0,1,38.58,48a2,2,0,0,1-.48-1.42Z"/><path class="cls-1" d="M45.13,43.23a.91.91,0,0,1-.31.72,1.4,1.4,0,0,1-1.65,0,.91.91,0,0,1-.31-.72h.64a.48.48,0,0,0,.13.36.49.49,0,0,0,.37.13.48.48,0,0,0,.36-.13.53.53,0,0,0,.13-.36Zm-.4,1.46h.85v3.8h-.85V46l-1.49,2.54h-.85v-3.8h.85v2.54Z"/><path class="cls-1" d="M49,46.63a1.57,1.57,0,0,0,.25.92.78.78,0,0,0,.67.33.76.76,0,0,0,.67-.34,1.68,1.68,0,0,0,.24-1,1.53,1.53,0,0,0-.24-.91.82.82,0,0,0-.68-.34.78.78,0,0,0-.66.33,1.73,1.73,0,0,0-.25,1m-.85-.08a2.19,2.19,0,0,1,.22-1,1.67,1.67,0,0,1,.62-.69,1.78,1.78,0,0,1,.92-.24,1.65,1.65,0,0,1,1.25.49,1.93,1.93,0,0,1,.52,1.32v.2a2.3,2.3,0,0,1-.22,1,1.6,1.6,0,0,1-.62.69,1.79,1.79,0,0,1-.93.24A1.65,1.65,0,0,1,48.6,48a2,2,0,0,1-.48-1.42Z"/><path class="cls-1" d="M54,45.58a.81.81,0,0,0-.65.28,1.32,1.32,0,0,0-.24.86,1.44,1.44,0,0,0,.23.86.8.8,0,0,0,.66.3.76.76,0,0,0,.66-.31,1.47,1.47,0,0,0,.24-.92,1.17,1.17,0,0,0-.24-.78.79.79,0,0,0-.66-.29m.17-.68a1.49,1.49,0,0,1,1.15.48,1.9,1.9,0,0,1,.43,1.3v0a1.89,1.89,0,0,1-.47,1.33,1.65,1.65,0,0,1-1.28.51A1.62,1.62,0,0,1,52.74,48a2,2,0,0,1-.48-1.42v-.24a3.66,3.66,0,0,1,.44-2A1.83,1.83,0,0,1,54,43.54a1.83,1.83,0,0,0,.63-.21.36.36,0,0,0,.14-.3h.69a1.35,1.35,0,0,1-.11.57A.89.89,0,0,1,55,44a3,3,0,0,1-.82.26,1.55,1.55,0,0,0-.81.4,1.58,1.58,0,0,0-.38.8,1.61,1.61,0,0,1,1.2-.52"/><path class="cls-1" d="M59.64,44.69v3.8h-.85V45.38H57.72l-.07,1.32a2.75,2.75,0,0,1-.37,1.37,1.06,1.06,0,0,1-.92.42H56.1v-.71l.18,0a.5.5,0,0,0,.41-.34,3.72,3.72,0,0,0,.16-1.11l.07-1.62Z"/><path class="cls-1" d="M61.89,47.87a1,1,0,0,0,.47-.12.83.83,0,0,0,.34-.33V46.7h-.46a1.27,1.27,0,0,0-.72.17.56.56,0,0,0-.23.47.5.5,0,0,0,.16.39.61.61,0,0,0,.44.14m.93.62a1.31,1.31,0,0,1-.09-.36,1.33,1.33,0,0,1-1,.43,1.35,1.35,0,0,1-.94-.33,1,1,0,0,1-.36-.81,1.09,1.09,0,0,1,.45-.93,2.23,2.23,0,0,1,1.29-.32h.53v-.25a.64.64,0,0,0-.17-.47.64.64,0,0,0-.5-.18.83.83,0,0,0-.48.14.46.46,0,0,0-.18.37h-.86a.94.94,0,0,1,.21-.58,1.53,1.53,0,0,1,.56-.43,2.07,2.07,0,0,1,.8-.15,1.6,1.6,0,0,1,1.06.33,1.21,1.21,0,0,1,.41.95v1.71a1.88,1.88,0,0,0,.15.82v.06Z"/><path class="cls-1" d="M66,47.88a.75.75,0,0,0,.53-.19.63.63,0,0,0,.22-.46h.81a1.3,1.3,0,0,1-.22.66,1.44,1.44,0,0,1-.57.49,1.64,1.64,0,0,1-.76.18A1.62,1.62,0,0,1,64.75,48a2,2,0,0,1-.46-1.42v-.09a2,2,0,0,1,.46-1.39A1.78,1.78,0,0,1,67.12,45a1.47,1.47,0,0,1,.45,1h-.81a.78.78,0,0,0-.22-.54A.72.72,0,0,0,66,45.3a.75.75,0,0,0-.64.3,1.54,1.54,0,0,0-.23.92v.13a1.54,1.54,0,0,0,.22.92.75.75,0,0,0,.65.31"/><polygon class="cls-1" points="71.2 45.37 69.97 45.37 69.97 48.49 69.12 48.49 69.12 45.37 67.9 45.37 67.9 44.69 71.2 44.69 71.2 45.37"/><polygon class="cls-1" points="74.14 44.69 75 44.69 75 48.49 74.14 48.49 74.14 45.95 72.66 48.49 71.81 48.49 71.81 44.69 72.66 44.69 72.66 47.23 74.14 44.69"/></svg>