<svg xmlns="http://www.w3.org/2000/svg" xmlns:xlink="http://www.w3.org/1999/xlink" version="1.1" id="Слой_1" x="0px" y="0px" viewBox="1 11.00101089477539 775 199.99899291992188" enable-background="new 0 0 775 220" xml:space="preserve" preserveAspectRatio="xMidYMid meet" width="775"  height="199.99899291992188" >
<polygon points="229.047,15.044 190.852,15.044 190.852,206.776 277.257,206.776 277.257,171.707 229.047,171.707 "></polygon>
<rect x="296.345" y="15.044" width="38.193" height="191.732"></rect>
<polygon points="484.6,144.845 400.936,15.044 361.831,15.044 361.831,206.776 399.113,206.776 399.113,80.616 482.786,206.776   521.881,206.776 521.881,15.044 484.6,15.044 "></polygon>
<polygon points="549.622,15.044 549.622,206.776 635.569,206.776 635.569,171.707 586.92,171.707 586.92,127.481 635.569,127.481   635.569,92.403 586.92,92.403 586.92,50.106 635.569,50.106 635.569,15.044 "></polygon>
<path d="M762.694,114.843c-12.646-12.648-23.514-15.204-37.74-22.439l-17.481-8.286c-3.978-1.755-13.908-6.65-14.732-18.532  c-0.876-12.52,7.964-20.254,19.226-20.254c11.28,0,22.661,6.865,22.661,23.342h35.239c0,0,4.794-57.673-56.56-57.673  c-53.477,0-59.311,44.027-59.311,55.265c0,14.334,3.05,25.434,13.309,36.738c14.069,15.505,40.53,23.748,40.53,23.748l14.688,6.978  c3.979,1.755,14.038,9.051,14.038,20.202c0,14.919-9.167,23.54-23.486,23.54c-15.49,0-24.655-10.419-24.655-28.298h-36.554  c0,8.689-2.285,61.674,61.113,61.674c56.973,0,63.021-45.929,63.021-59.266C776,137.265,772.915,125.056,762.694,114.843z"></path>
<path d="M106.083,107.95c12.495-9.075,20.366-23.056,20.366-41.152c0-33.711-27.277-55.78-60.934-55.78  c-33.658,0-60.933,22.069-60.933,55.78c0,18.097,7.871,32.077,20.365,41.151C10.343,117.601,1,133.215,1,153.784  C1,189.973,29.883,211,65.516,211c35.634,0,64.516-21.027,64.516-57.216C130.031,133.215,120.688,117.601,106.083,107.95z   M65.516,44.341c12.827,0,23.22,9.697,23.22,23.377c0,13.689-10.394,23.377-23.22,23.377c-12.826,0-23.219-9.688-23.219-23.377  C42.296,54.038,52.69,44.341,65.516,44.341z M65.516,177.832c-14.062,0-25.462-10.978-25.462-26.458  c0-15.486,11.4-26.448,25.462-26.448c14.064,0,25.462,10.962,25.462,26.448C90.978,166.854,79.58,177.832,65.516,177.832z"></path>
</svg>