<svg xmlns:xlink="http://www.w3.org/1999/xlink" xmlns="http://www.w3.org/2000/svg" width="617" height="213" viewBox="0 0 617 213">
  <g fill="none" fill-rule="evenodd" transform="translate(.078 .52)">
    <path fill="#000000" d="M270.9459,12.1525 L270.9459,10.7325 L266.0889,10.7325 C263.4339,10.7325 262.0509,11.8535 262.0509,13.7975 C262.0509,15.7025 263.4709,16.7865 265.9009,16.7865 C268.7409,16.7865 270.9459,14.7305 270.9459,12.1525 Z M271.0569,17.9075 L270.3109,17.9075 C269.1899,19.3275 267.2839,20.2235 264.6689,20.2235 C260.2579,20.2235 257.7919,17.2715 257.7919,13.9835 C257.7919,10.9575 259.8459,7.5935 265.3409,7.5935 L270.9459,7.5935 L270.9459,7.0335 C270.9459,4.9405 269.7119,3.5575 266.9479,3.5575 C264.5179,3.5575 263.2859,4.5295 263.1349,5.9865 L258.9499,5.9865 C259.1369,2.3995 262.3129,0.2315 266.7979,0.2315 C271.7309,0.2315 275.0179,2.3995 275.0179,7.1075 L275.0179,19.7385 L271.0569,19.7385 L271.0569,17.9075 Z"/>
    <polygon fill="#000000" points="281.372 .718 296.208 .718 296.208 4.305 285.595 4.305 285.595 19.738 281.372 19.738"/>
    <path fill="#000000" d="M303.569,7.4445 L313.098,7.4445 C312.837,5.3135 311.303,3.5945 308.538,3.5945 C305.587,3.5945 304.053,5.2765 303.569,7.4445 Z M317.432,10.5835 L303.382,10.5835 C303.493,14.4695 305.288,16.6365 308.725,16.6365 C311.005,16.6365 312.35,15.7405 312.874,14.2085 L317.171,14.2085 C316.46,17.7205 313.62,20.2235 308.688,20.2235 C302.71,20.2235 299.196,16.0395 299.196,10.0965 C299.196,4.1185 302.747,0.2315 308.575,0.2315 C314.257,0.2315 317.358,4.2305 317.432,9.1635 L317.432,10.5835 Z"/>
    <polygon fill="#000000" points="336.303 19.738 336.303 11.778 327.112 11.778 327.112 19.738 322.889 19.738 322.889 .718 327.112 .718 327.112 8.191 336.303 8.191 336.303 .718 340.526 .718 340.526 19.738"/>
    <polygon fill="#000000" points="345.346 .718 362.387 .718 362.387 4.305 355.996 4.305 355.996 19.738 351.774 19.738 351.774 4.305 345.346 4.305"/>
    <path fill="#000000" d="M383.6881,13.6476 C383.0901,17.5716 379.9131,20.2236 375.3171,20.2236 C369.4131,20.2236 365.9011,16.0766 365.9011,10.2096 C365.9011,4.3796 369.4131,0.2316 375.3171,0.2316 C379.9521,0.2316 382.9771,2.8106 383.5381,6.5096 L379.3521,6.5096 C378.8311,4.8656 377.5591,3.8196 375.3541,3.8196 C371.5811,3.8196 370.1241,6.7716 370.1241,10.1716 C370.1241,13.6476 371.6181,16.6366 375.3541,16.6366 C377.7091,16.6366 379.0921,15.5156 379.5021,13.6476 L383.6881,13.6476 Z"/>
    <polygon fill="#000000" points="387.239 .718 404.278 .718 404.278 4.305 397.889 4.305 397.889 19.738 393.667 19.738 393.667 4.305 387.239 4.305"/>
    <path fill="#000000" d="M422.0651 14.0587C422.0651 12.6387 421.2431 11.5547 418.8151 11.5547L413.2471 11.5547 413.2471 16.5247 418.8151 16.5247C421.2431 16.5247 422.0651 15.4787 422.0651 14.0587zM413.2471 8.3407L418.7781 8.3407C420.7581 8.3407 421.4671 7.3317 421.4671 6.1357 421.4671 4.9037 420.7581 3.9317 418.7781 3.9317L413.2471 3.9317 413.2471 8.3407zM426.3251 14.5067C426.3251 17.9447 423.8971 19.7387 419.5981 19.7387L409.0981 19.7387 409.0981.7177 419.6741.7177C423.5221.7177 425.6901 2.5487 425.6901 5.5377 425.6901 7.4067 424.6061 8.7887 423.5221 9.3127L423.5221 10.0227C425.2801 10.7327 426.3251 12.4137 426.3251 14.5067zM445.6823 10.2091C445.6823 6.8841 444.0003 3.8191 440.3013 3.8191 436.6023 3.8191 434.9203 6.8841 434.9203 10.2091 434.9203 13.6091 436.6023 16.6371 440.3013 16.6371 444.0003 16.6371 445.6823 13.6091 445.6823 10.2091M449.9053 10.2091C449.9053 16.0391 446.2823 20.2241 440.3013 20.2241 434.3233 20.2241 430.6983 16.0391 430.6983 10.2091 430.6983 4.4171 434.3233.2311 440.3013.2311 446.2823.2311 449.9053 4.4171 449.9053 10.2091M275.5797 56.8703C274.9817 60.7943 271.8057 63.4463 267.2097 63.4463 261.3057 63.4463 257.7927 59.2993 257.7927 53.4323 257.7927 47.6023 261.3057 43.4543 267.2097 43.4543 271.8437 43.4543 274.8697 46.0333 275.4307 49.7323L271.2447 49.7323C270.7227 48.0883 269.4517 47.0423 267.2467 47.0423 263.4727 47.0423 262.0157 49.9943 262.0157 53.3943 262.0157 56.8703 263.5097 59.8593 267.2467 59.8593 269.6007 59.8593 270.9837 58.7383 271.3937 56.8703L275.5797 56.8703z"/>
    <polygon fill="#000000" points="279.13 43.941 296.171 43.941 296.171 47.528 289.781 47.528 289.781 62.962 285.558 62.962 285.558 47.528 279.13 47.528"/>
    <path fill="#000000" d="M305.1012 53.4699C305.1012 56.7949 306.6702 59.8599 310.3702 59.8599 313.8452 59.8599 315.5642 57.1319 315.5642 53.4699 315.5642 49.7699 313.8452 47.0419 310.3702 47.0419 306.6702 47.0419 305.1012 50.1069 305.1012 53.4699M305.9602 61.0929L305.2132 61.0929 305.2132 70.4349 300.9912 70.4349 300.9912 43.9409 305.1012 43.9409 305.1012 45.8089 305.8482 45.8089C306.8952 44.5009 308.5392 43.4539 311.3412 43.4539 316.5732 43.4539 319.7872 47.7149 319.7872 53.4699 319.7872 59.2239 316.5362 63.4469 311.3412 63.4469 308.5772 63.4469 306.9692 62.4379 305.9602 61.0929M337.0153 55.3751L337.0153 53.9551 332.1583 53.9551C329.5043 53.9551 328.1213 55.0761 328.1213 57.0201 328.1213 58.9251 329.5413 60.0091 331.9703 60.0091 334.8103 60.0091 337.0153 57.9531 337.0153 55.3751zM337.1273 61.1301L336.3803 61.1301C335.2593 62.5501 333.3533 63.4461 330.7383 63.4461 326.3273 63.4461 323.8623 60.4941 323.8623 57.2061 323.8623 54.1801 325.9163 50.8161 331.4103 50.8161L337.0153 50.8161 337.0153 50.2561C337.0153 48.1631 335.7823 46.7801 333.0173 46.7801 330.5873 46.7801 329.3553 47.7521 329.2053 49.2091L325.0203 49.2091C325.2063 45.6221 328.3833 43.4541 332.8683 43.4541 337.8003 43.4541 341.0883 45.6221 341.0883 50.3301L341.0883 62.9611 337.1273 62.9611 337.1273 61.1301z"/>
    <polygon fill="#000000" points="345.647 43.941 362.687 43.941 362.687 47.528 356.297 47.528 356.297 62.962 352.075 62.962 352.075 47.528 345.647 47.528"/>
    <path fill="#000000" d="M370.5729,50.6671 L380.1019,50.6671 C379.8409,48.5361 378.3079,46.8171 375.5429,46.8171 C372.5909,46.8171 371.0579,48.4991 370.5729,50.6671 Z M384.4359,53.8061 L370.3859,53.8061 C370.4979,57.6921 372.2919,59.8591 375.7289,59.8591 C378.0099,59.8591 379.3539,58.9631 379.8779,57.4311 L384.1759,57.4311 C383.4649,60.9431 380.6249,63.4461 375.6919,63.4461 C369.7139,63.4461 366.2009,59.2621 366.2009,53.3191 C366.2009,47.3411 369.7509,43.4541 375.5799,43.4541 C381.2609,43.4541 384.3619,47.4531 384.4359,52.3861 L384.4359,53.8061 Z"/>
    <polygon fill="#000000" points="389.893 43.941 404.728 43.941 404.728 47.528 394.116 47.528 394.116 62.962 389.893 62.962"/>
    <polygon fill="#000000" points="409.548 62.961 409.548 43.94 413.659 43.94 413.659 56.422 414.406 56.422 422.402 43.94 427.262 43.94 427.262 62.961 423.151 62.961 423.151 50.48 422.402 50.48 414.293 62.961"/>
    <path fill="#000000" d="M437.0153 43.9406L437.0153 49.4336C437.0153 51.0406 437.1643 52.7216 441.2013 52.7216 442.7703 52.7216 444.1153 52.5356 445.3483 52.2736L445.3483 43.9406 449.6093 43.9406 449.6093 62.9616 445.3483 62.9616 445.3483 55.7866C443.7793 56.1226 441.6123 56.3096 440.0043 56.3096 433.3533 56.3096 432.7923 53.0956 432.7923 49.9946L432.7923 43.9406 437.0153 43.9406zM459.4742 50.6671L469.0032 50.6671C468.7422 48.5361 467.2092 46.8171 464.4442 46.8171 461.4922 46.8171 459.9592 48.4991 459.4742 50.6671zM473.3372 53.8061L459.2872 53.8061C459.3992 57.6921 461.1932 59.8591 464.6302 59.8591 466.9112 59.8591 468.2552 58.9631 468.7792 57.4311L473.0772 57.4311C472.3662 60.9431 469.5262 63.4461 464.5932 63.4461 458.6152 63.4461 455.1022 59.2621 455.1022 53.3191 455.1022 47.3411 458.6522 43.4541 464.4812 43.4541 470.1622 43.4541 473.2632 47.4531 473.3372 52.3861L473.3372 53.8061zM495.4606 56.8703C494.8626 60.7943 491.6866 63.4463 487.0906 63.4463 481.1866 63.4463 477.6736 59.2993 477.6736 53.4323 477.6736 47.6023 481.1866 43.4543 487.0906 43.4543 491.7246 43.4543 494.7506 46.0333 495.3116 49.7323L491.1256 49.7323C490.6036 48.0883 489.3326 47.0423 487.1276 47.0423 483.3536 47.0423 481.8966 49.9943 481.8966 53.3943 481.8966 56.8703 483.3906 59.8593 487.1276 59.8593 489.4816 59.8593 490.8646 58.7383 491.2746 56.8703L495.4606 56.8703z"/>
    <polygon fill="#000000" points="509.736 55.001 505.028 55.001 505.028 62.961 500.805 62.961 500.805 43.94 505.028 43.94 505.028 51.414 509.811 51.414 513.809 43.94 518.144 43.94 513.286 53.096 518.406 62.961 513.959 62.961"/>
    <path fill="#000000" d="M536.7906,53.4318 C536.7906,50.1068 535.1086,47.0418 531.4096,47.0418 C527.7106,47.0418 526.0286,50.1068 526.0286,53.4318 C526.0286,56.8318 527.7106,59.8598 531.4096,59.8598 C535.1086,59.8598 536.7906,56.8318 536.7906,53.4318 M541.0136,53.4318 C541.0136,59.2618 537.3896,63.4468 531.4096,63.4468 C525.4316,63.4468 521.8066,59.2618 521.8066,53.4318 C521.8066,47.6398 525.4316,43.4538 531.4096,43.4538 C537.3896,43.4538 541.0136,47.6398 541.0136,53.4318"/>
    <polygon fill="#000000" points="546.507 43.941 561.342 43.941 561.342 47.528 550.73 47.528 550.73 62.962 546.507 62.962"/>
    <path fill="#000000" d="M579.316 53.4318C579.316 50.1068 577.634 47.0418 573.935 47.0418 570.236 47.0418 568.554 50.1068 568.554 53.4318 568.554 56.8318 570.236 59.8598 573.935 59.8598 577.634 59.8598 579.316 56.8318 579.316 53.4318M583.539 53.4318C583.539 59.2618 579.915 63.4468 573.935 63.4468 567.957 63.4468 564.332 59.2618 564.332 53.4318 564.332 47.6398 567.957 43.4538 573.935 43.4538 579.915 43.4538 583.539 47.6398 583.539 53.4318M263.5084 96.7013C263.5084 100.0263 265.0774 103.0913 268.7774 103.0913 272.2524 103.0913 273.9714 100.3633 273.9714 96.7013 273.9714 93.0013 272.2524 90.2733 268.7774 90.2733 265.0774 90.2733 263.5084 93.3383 263.5084 96.7013M264.3674 104.3243L263.6204 104.3243 263.6204 113.6663 259.3984 113.6663 259.3984 87.1723 263.5084 87.1723 263.5084 89.0403 264.2554 89.0403C265.3024 87.7323 266.9464 86.6853 269.7484 86.6853 274.9804 86.6853 278.1944 90.9463 278.1944 96.7013 278.1944 102.4553 274.9434 106.6783 269.7484 106.6783 266.9844 106.6783 265.3764 105.6693 264.3674 104.3243M295.4225 98.6066L295.4225 97.1866 290.5655 97.1866C287.9115 97.1866 286.5285 98.3076 286.5285 100.2516 286.5285 102.1566 287.9485 103.2406 290.3775 103.2406 293.2175 103.2406 295.4225 101.1846 295.4225 98.6066zM295.5345 104.3616L294.7875 104.3616C293.6665 105.7816 291.7605 106.6776 289.1455 106.6776 284.7345 106.6776 282.2695 103.7256 282.2695 100.4376 282.2695 97.4116 284.3235 94.0476 289.8175 94.0476L295.4225 94.0476 295.4225 93.4876C295.4225 91.3946 294.1895 90.0116 291.4245 90.0116 288.9945 90.0116 287.7625 90.9836 287.6125 92.4406L283.4275 92.4406C283.6135 88.8536 286.7905 86.6856 291.2755 86.6856 296.2075 86.6856 299.4955 88.8536 299.4955 93.5616L299.4955 106.1926 295.5345 106.1926 295.5345 104.3616zM313.0602 90.2736C310.6682 90.2736 309.3612 91.0206 308.9872 92.7026L305.0632 92.7026C305.4372 88.7786 308.7252 86.6856 313.2852 86.6856 318.1792 86.6856 320.9452 89.1156 320.9452 92.1046 320.9452 94.2716 319.9732 95.4676 318.9642 95.8786L318.9642 96.6266C320.3472 97.0376 321.5422 98.3076 321.5422 100.7736 321.5422 104.0626 318.4792 106.6776 313.3222 106.6776 307.7532 106.6776 304.8392 104.2866 304.3532 100.5126L308.3142 100.5126C308.9132 102.5306 310.8552 103.0906 313.1722 103.0906 315.6382 103.0906 317.3202 102.3056 317.3202 100.5866 317.3202 99.0546 316.3482 98.2326 313.7332 98.2326L310.4822 98.2326 310.4822 94.7946 313.5452 94.7946C315.8262 94.7946 316.7592 93.8986 316.7592 92.5526 316.7592 91.0206 315.2652 90.2736 313.0602 90.2736M340.153 100.5128C340.153 99.0928 339.331 98.0088 336.902 98.0088L331.334 98.0088 331.334 102.9788 336.902 102.9788C339.331 102.9788 340.153 101.9328 340.153 100.5128zM331.334 94.7948L336.865 94.7948C338.845 94.7948 339.555 93.7858 339.555 92.5898 339.555 91.3578 338.845 90.3858 336.865 90.3858L331.334 90.3858 331.334 94.7948zM344.413 100.9608C344.413 104.3988 341.984 106.1928 337.686 106.1928L327.186 106.1928 327.186 87.1718 337.761 87.1718C341.61 87.1718 343.778 89.0028 343.778 91.9918 343.778 93.8608 342.694 95.2428 341.61 95.7668L341.61 96.4768C343.367 97.1868 344.413 98.8678 344.413 100.9608z"/>
    <polygon fill="#000000" points="349.906 106.192 349.906 87.171 354.016 87.171 354.016 99.653 354.763 99.653 362.76 87.171 367.619 87.171 367.619 106.192 363.508 106.192 363.508 93.712 362.76 93.712 354.651 106.192"/>
    <polygon fill="#000000" points="372.44 87.172 389.48 87.172 389.48 90.759 383.09 90.759 383.09 106.193 378.868 106.193 378.868 90.759 372.44 90.759"/>
    <polygon fill="#000000" points="394.301 106.192 394.301 87.171 398.411 87.171 398.411 99.653 399.158 99.653 407.155 87.171 412.014 87.171 412.014 106.192 407.903 106.192 407.903 93.712 407.155 93.712 399.046 106.192"/>
    <path fill="#000000" d="M430.5485,90.6095 L425.5415,90.6095 C423.0745,90.6095 422.1785,91.6185 422.1785,93.2995 C422.1785,94.9815 423.0745,95.9905 425.5415,95.9905 L430.5485,95.9905 L430.5485,90.6095 Z M434.7715,87.1715 L434.7715,106.1925 L430.5485,106.1925 L430.5485,99.2795 L426.0655,99.2795 C425.6155,99.2795 425.1675,99.2795 424.7195,99.2425 L422.0665,106.1925 L417.8065,106.1925 L420.8705,98.3445 C418.9645,97.3365 417.9925,95.5805 417.9925,93.2625 C417.9925,89.4885 420.5715,87.1715 425.2045,87.1715 L434.7715,87.1715 Z"/>
    <polygon fill="#FD7400" points="194.559 65.364 172.947 65.364 172.947 22.138 129.72 22.138 129.72 .525 194.559 .525"/>
    <polygon fill="#000000" points="21.657 65.364 .043 65.364 .043 .525 64.882 .525 64.882 22.138 21.657 22.138"/>
    <polygon fill="#000000" points=".043 130.203 21.657 130.203 21.657 173.43 64.882 173.43 64.882 195.042 .043 195.042"/>
    <polygon fill="#000000" points="172.947 130.203 194.559 130.203 194.559 195.042 129.72 195.042 129.72 173.43 172.947 173.43"/>
    <path fill="#FD7400" d="M97.3004,62.963 C78.1004,62.963 62.4804,78.583 62.4804,97.786 C62.4804,116.984 78.1004,132.605 97.3004,132.605 C116.5014,132.605 132.1214,116.984 132.1214,97.786 C132.1214,78.583 116.5014,62.963 97.3004,62.963 M97.3004,83.775 C105.0254,83.775 111.3094,90.06 111.3094,97.784 C111.3094,105.508 105.0254,111.791 97.3004,111.791 C89.5764,111.791 83.2924,105.508 83.2924,97.784 C83.2924,90.06 89.5764,83.775 97.3004,83.775"/>
    <polygon fill="#000000" points="317.033 195.042 259.398 195.042 259.398 130.203 273.807 130.203 273.807 182.234 307.428 182.234 307.428 130.203 321.836 130.203 321.836 182.234 331.442 182.234 331.442 211.849 317.033 211.849"/>
    <polygon fill="#000000" points="475.531 130.203 475.531 195.042 461.121 195.042 461.123 168.622 430.704 168.622 430.704 195.042 416.293 195.042 416.293 130.203 430.704 130.203 430.704 155.818 461.123 155.818 461.121 130.203"/>
    <path fill="#000000" d="M602.1285,151.8165 C602.1285,146.0945 599.0395,143.0105 590.6865,143.0105 L569.9855,143.0105 L569.9855,160.6215 L590.6865,160.6215 C599.0395,160.6215 602.1285,157.4465 602.1285,151.8165 M616.5265,151.8165 C616.5265,164.8925 607.8985,173.4285 593.0975,173.4285 L569.9855,173.4285 L569.9855,195.0425 L555.5775,195.0425 L555.5775,130.2035 L593.0975,130.2035 C607.8985,130.2035 616.5265,138.9215 616.5265,151.8165"/>
    <polygon fill="#000000" points="401.084 182.234 401.084 195.042 343.449 195.042 343.449 130.204 400.283 130.204 400.283 143.011 357.858 143.011 357.857 155.819 392.28 155.819 392.28 168.626 357.857 168.626 357.858 182.234"/>
    <polygon fill="#000000" points="545.97 143.011 522.756 143.011 522.756 195.042 508.347 195.042 508.347 143.011 485.133 143.011 485.133 130.203 545.97 130.203"/>
  </g>
</svg>