<?xml version="1.0" encoding="UTF-8"?> <svg xmlns="http://www.w3.org/2000/svg" width="196" height="34" viewBox="0 0 196 34" fill="none"> <path d="M174.667 32.5944C179.334 32.9944 184.868 30.3278 187.334 28.7945C188.534 28.0611 189.668 27.2611 189.868 27.0611C191.868 25.2612 191.735 21.7945 188.068 22.5278C184.534 23.1945 184.868 24.3278 183.334 26.2611C181.601 28.3945 178 30.2611 175.533 30.1944C172.733 30.1278 170.533 27.6611 170.6 22.6612C170.666 20.7945 172.066 19.1945 172.066 19.1945C172.066 19.1945 174.067 18.7946 176.934 19.1279C180.334 19.4612 187.201 19.4612 190.601 19.1945C194.068 18.8612 199.069 16.8612 192.601 14.3946C184.067 11.128 177.267 12.7279 173.733 14.6613C172.066 15.5946 170.2 17.1279 169.066 18.5946C165.333 23.4612 169.533 32.1944 174.667 32.5944ZM190.268 15.7946C192.802 16.7279 190.868 16.8612 189.801 16.9946C186.201 17.3279 184.668 17.3279 181.867 17.2612C177.4 17.1279 174.667 16.9946 174.667 16.9946C174.667 16.9946 182.601 12.8613 190.268 15.7946Z" fill="#121212"></path> <path d="M158.663 16.6595C157.196 18.4595 151.063 22.7262 151.196 22.0596C151.396 21.1929 153.463 17.1929 156.596 15.8595C159.396 14.5929 160.063 14.9262 158.663 16.6595ZM161.396 19.5929C161.93 17.7929 164.063 15.1262 164.33 14.5929C164.53 14.0595 164.996 13.4595 163.263 13.1929C162.663 13.0595 161.996 13.4595 161.996 13.4595C161.996 13.4595 161.13 12.8595 160.863 12.7929C159.13 12.1929 156.796 12.4595 154.53 13.8595C152.863 14.9262 150.996 16.5929 148.13 20.3262C145.796 22.3929 145.063 22.7262 144.53 22.6596C143.73 22.5929 145.13 20.5262 145.796 19.6596C147.796 16.9262 149.796 15.8595 150.063 15.1929C150.33 14.5262 149.93 13.3929 148.263 13.2595C146.596 13.1929 141.196 17.2595 141.196 17.2595C141.196 17.2595 142.463 15.2595 142.596 14.6595C142.73 13.9929 141.396 13.1262 140.196 13.9929C139.13 14.6595 136.196 19.5929 136.196 19.5929C136.196 19.5929 133.063 21.9262 132.329 21.9262C130.329 21.8596 133.929 17.1262 134.663 16.2595C135.53 15.1929 136.263 14.0595 135.33 13.5262C133.796 12.6595 133.463 13.1929 132.996 13.6595C132.529 14.1262 125.929 20.5929 124.929 20.9929C124.463 21.1929 124.129 20.7929 125.796 18.1262C126.796 16.5262 130.463 13.1262 131.529 12.3929C132.529 11.6595 133.729 10.5262 132.596 9.19285C131.729 8.19284 126.263 9.39285 126.263 9.39285C126.263 9.39285 124.929 9.05951 124.063 9.05951C123.196 9.12618 122.596 9.32618 121.729 9.92618C120.929 10.5262 110.529 11.6595 108.329 11.5262C106.196 11.3929 104.463 15.8595 109.329 15.3929C109.329 15.3929 110.663 14.5929 111.129 14.4595C113.263 13.9262 119.663 13.1929 119.663 13.1929C119.663 13.1929 118.796 14.7929 118.663 15.1262C117.329 17.7929 111.463 30.5929 103.729 30.7929C98.9958 30.8596 95.8624 28.1263 95.0624 27.6596C94.2624 27.2596 92.6624 26.9262 92.9957 27.5263C93.3291 28.0596 96.0624 31.8596 102.129 33.0596C110.796 34.7929 117.463 23.7262 119.863 19.0596C122.863 13.1929 125.196 12.4595 125.463 12.3262C125.729 12.2595 126.929 12.1262 126.929 12.1262C126.929 12.1262 122.063 18.3262 121.329 21.7262C120.529 25.5929 123.463 25.3929 125.729 23.8596C126.596 23.2596 129.263 20.9929 129.263 20.9929C129.263 20.9929 127.729 24.5262 129.929 25.0596C130.929 25.3262 134.729 22.8596 134.729 22.8596C134.729 22.8596 134.329 23.4596 134.396 24.1262C134.463 25.1262 135.596 25.0596 136.73 24.5262C137.463 24.1929 138.93 22.1929 140.663 20.7262C141.93 19.6596 144.263 17.9929 144.263 17.9929C144.263 17.9929 141.73 22.2596 141.863 24.1262C141.93 25.3262 143.796 25.3929 145.13 24.6596C146.463 23.9262 147.93 22.9262 147.93 22.9262C147.93 22.9262 147.996 23.1929 148.063 23.7929C148.13 24.3929 148.396 26.1262 151.13 25.4596C153.863 24.7929 157.796 20.8596 157.796 20.8596C157.796 20.8596 157.796 21.3262 157.463 22.3929C157.13 23.4596 155.73 27.4596 152.663 29.3263C149.596 31.1263 147.196 28.7263 147.063 29.3263C146.93 29.9263 148.796 31.4596 150.73 31.3929C152.663 31.3263 155.063 30.9929 158.13 26.9929C159.33 25.1262 161.263 19.9262 161.396 19.5929Z" fill="#121212"></path> <path d="M131.862 0.792847C122.396 5.05951 105.662 4.72618 102.796 4.99285C99.929 5.25951 73.6624 4.32618 66.6625 4.52618C57.0625 4.85951 53.0625 6.99285 52.1292 7.99285C51.4625 8.65951 53.1958 11.6595 55.9292 9.79285C57.3958 8.79285 58.6625 8.32618 61.3958 8.05951C67.7291 7.32618 86.3957 7.52618 86.8624 7.45951C87.1957 7.45951 88.3957 7.52618 88.3957 7.52618C88.3957 7.52618 88.0624 8.12618 87.8624 8.45951C86.529 10.3928 84.3291 12.6595 82.5957 14.3262C81.1957 15.7262 80.1957 16.7928 79.3291 17.5928C78.9957 17.8595 77.7957 18.8595 76.9957 19.4595C76.1958 20.0595 73.3291 22.2595 69.1291 22.7928C67.2625 23.0595 67.9291 21.1262 67.9958 20.8595C69.8624 20.1928 72.7291 19.1262 73.3291 18.8595C76.5958 17.6595 79.4624 15.7262 79.4624 14.1262C79.5291 12.1928 75.6624 11.8595 73.5958 12.7262C72.9291 12.9928 71.1958 13.5928 69.4624 15.1262C67.5958 16.7928 66.5291 18.4595 65.9291 19.5928C65.1291 19.9262 64.3958 20.1928 62.9958 20.7928C61.9958 21.1928 60.9958 21.5262 60.2625 21.7262C60.4625 20.3928 63.3958 18.0595 65.9291 15.9928C66.8625 15.7928 67.5958 15.5928 68.1291 15.3928C69.1958 14.8595 69.6624 14.3262 69.7291 13.7262C69.7291 13.3262 69.5291 12.9928 69.1291 12.7928C68.2625 12.3262 67.0625 12.4595 66.3958 12.8595C66.3958 12.8595 65.0625 13.7928 64.3958 14.3928C62.9958 14.6595 62.5291 14.7262 60.8625 14.7928C61.1958 14.2595 60.9291 13.5262 60.4625 12.9262C59.9958 12.3262 59.0625 12.2595 57.7958 12.7928C57.3292 12.9928 54.8625 14.0595 55.0625 15.4595C55.1292 15.7262 55.5958 16.5262 56.6625 16.6595C54.8625 18.5262 50.1958 22.7262 46.9292 22.7928C45.8625 22.7928 46.7292 20.3928 47.1292 19.6595C47.9959 17.9262 49.3292 16.9262 50.1292 16.5928C50.9292 16.2595 49.6625 16.6595 50.7958 17.1262C51.3292 17.3928 52.7958 17.2595 53.1958 16.7262C53.4625 16.3928 53.5958 16.1928 54.0625 15.7262C56.3292 13.1928 53.4625 11.5928 49.9292 13.6595C46.9959 15.3928 45.7959 17.3262 44.8625 18.9928C44.4625 19.6595 44.1959 20.6595 43.2625 21.3262C42.8625 21.6595 41.9292 21.9262 41.9292 21.9262C41.9292 21.9262 41.9959 19.1262 45.5292 15.9262C46.2625 15.2595 47.2625 14.5262 46.9959 13.8595C46.3959 12.3262 45.0625 12.6595 43.5292 13.5928C42.2625 14.3262 37.1292 17.3262 37.1292 17.3262C37.1292 17.3262 38.1292 15.9262 38.7292 14.7928C39.3959 13.6595 37.6626 12.6595 36.9959 12.9928C36.5959 13.1928 34.5959 14.6595 33.0626 15.7262C33.0626 15.7262 28.4626 21.4595 28.6626 21.3262C29.4626 20.5928 33.0626 18.2595 33.5959 17.6595C32.3959 19.6595 30.3959 23.5262 30.5959 24.1262C30.9292 25.2595 32.5292 24.9262 33.4626 23.9262C35.7292 21.4595 37.2626 19.9262 39.0626 18.9262C39.7959 18.5262 41.1292 17.7262 41.1292 17.7262C41.1292 17.7262 36.7292 24.8595 39.7292 24.8595C40.7959 24.8595 42.7292 23.6595 43.7292 22.9928C43.7292 22.9928 44.2625 25.4595 46.0625 25.3928C51.0625 25.2595 55.6625 20.7262 59.0625 17.1262C60.2625 17.1262 60.3958 16.9262 61.7291 16.8595C58.9291 19.3928 56.0625 22.6595 56.7292 24.4595C57.1292 25.7262 58.7291 25.2595 60.2625 24.5928C62.5958 23.5262 63.8625 22.7928 65.5291 22.0595C65.3958 23.4595 65.7958 25.3262 68.3958 25.1262C72.3291 24.7928 75.9291 22.6595 77.6624 21.3928C77.6624 21.4595 77.5957 21.6595 77.5957 22.1262C77.5291 23.7262 77.9291 25.3928 80.0624 24.9928C82.4624 24.5262 85.3291 22.1928 85.3291 22.1928C85.3291 22.1928 85.3957 23.6595 86.1291 24.5928C88.2624 27.1262 96.529 24.4595 100.262 20.9262C100.862 20.3928 101.196 19.4595 100.262 19.9928C97.2623 21.5928 93.9957 22.9928 90.8624 23.3262C88.0624 23.6595 88.7957 20.7262 88.7957 20.7262C88.7957 20.7262 91.7957 19.9262 93.329 19.5262C96.8624 18.4595 99.9957 16.8595 100.929 14.8595C102.129 12.3928 97.8623 12.2595 95.929 12.5928C94.129 12.9262 91.0624 13.6595 88.8624 15.7262C85.9957 18.3262 85.3957 19.8595 85.3957 19.8595C85.3957 19.8595 83.7957 21.1928 82.5957 21.6595C80.1957 22.7262 82.4624 19.0595 83.7291 17.7262C84.8624 16.5928 91.0624 9.65951 92.529 8.05951C92.529 8.05951 112.862 7.79285 120.196 6.39285C125.596 5.39285 132.329 2.79285 133.996 0.859513C134.996 -0.807153 132.796 0.392847 131.862 0.792847ZM75.5291 14.3928C76.1291 14.2595 77.2624 14.4595 76.2624 15.3262C75.6624 15.8595 73.6624 16.7928 71.6624 17.4595C70.7958 17.7262 69.5958 18.1262 69.5958 18.1262C69.5958 18.1262 71.8624 15.1262 75.5291 14.3928ZM97.1957 14.1928C98.0623 14.1928 97.329 15.3928 96.329 15.9262C93.6624 17.3928 89.0624 18.2595 89.0624 18.2595C89.0624 18.2595 91.529 14.0595 97.1957 14.1928Z" fill="#121212"></path> <path d="M32.997 13.9251C32.597 12.7251 30.997 12.5918 29.4637 12.7918C28.8637 12.8584 27.797 13.2584 26.7303 13.8584C26.397 13.7251 25.0637 13.3918 24.4637 13.8584C22.797 15.1918 16.4637 22.4584 10.597 25.1251C5.06365 27.5918 3.19698 24.4584 3.39698 22.0584C3.59698 19.7918 5.26365 15.6584 9.13032 11.9918C12.9303 8.32508 20.397 4.52508 22.997 3.85842C25.597 3.19175 25.3303 4.59175 24.8637 5.72508C24.397 6.79175 20.2637 10.8584 17.797 12.1918C15.3303 13.5251 13.8637 12.2584 12.7303 13.6584C11.597 15.0584 12.8637 17.4584 15.2637 18.1918C17.597 18.9251 19.197 17.1918 19.6637 16.4584C20.1303 15.7251 20.3303 14.8584 22.397 13.1251C24.5303 11.3918 27.8637 7.99175 28.397 4.92508C29.0637 1.19175 23.0636 1.39175 20.6636 2.05842C18.197 2.72508 12.397 5.52508 6.19698 11.3918C0.130317 17.3251 -0.803016 23.0584 0.530317 26.1918C1.59698 28.7918 5.13032 29.3918 8.99698 28.5251C15.0637 27.1251 21.4637 19.5251 20.9303 20.1918C20.397 21.9251 20.597 24.5918 22.797 24.7918C24.197 24.9251 26.797 23.3251 28.1303 22.1918C29.7303 20.7918 32.197 18.2584 32.9303 16.3251C33.4637 14.9251 33.1303 14.3918 32.997 13.9251ZM29.197 17.7251C26.6637 21.0584 23.7303 21.9918 23.7303 21.9918C23.7303 21.9918 23.6637 20.4584 25.1303 18.2584C26.3303 16.4584 28.8637 14.4584 29.797 15.0584C29.9303 15.2584 30.397 16.1251 29.197 17.7251Z" fill="#121212"></path> <path d="M170.26 14.193C171.66 12.993 172.927 11.9264 173.993 10.993C178.527 7.65971 178.06 6.05971 178.06 6.05971C178.06 6.05971 177.993 5.19305 177.327 4.99305C176.66 4.79305 174.393 5.39305 172.393 7.05971C171.46 7.92638 169.526 10.4597 167.726 13.193C166.526 14.4597 163.593 17.393 161.326 18.9264C161.059 19.1264 160.526 19.793 160.526 19.793C160.593 20.0597 158.659 23.4597 159.459 22.8597C160.326 22.193 161.66 20.993 163.526 19.5263C162.193 21.793 160.526 25.0597 161.86 25.6597C163.793 26.593 167.726 24.1263 169.793 22.393C170.66 21.6597 170.393 20.4597 170.393 20.4597L171.26 18.793C171.26 18.793 164.793 24.2597 165.193 22.6597C165.726 20.3263 167.86 17.1264 170.26 14.193Z" fill="#121212"></path> </svg> 