<svg width="183" height="48" viewBox="0 0 183 48" fill="none" xmlns="http://www.w3.org/2000/svg">
<g clip-path="url(#clip0)">
<path d="M53.8485 0.970459H44.8296V46.9864H65.2323V38.5698H53.8485V0.970459Z" fill="black"/>
<path d="M78.758 0.970459H69.7395V46.9864H78.758V0.970459Z" fill="black"/>
<path d="M114.192 32.1229L94.4365 0.970459H85.2026V46.9864H94.006V16.7078L113.764 46.9864H122.995V0.970459H114.192V32.1229Z" fill="black"/>
<path d="M129.545 0.970459V46.9864H149.84V38.5698H138.353V27.9555H149.84V19.5367H138.353V9.38538H149.84V0.970459H129.545Z" fill="black"/>
<path d="M179.858 24.9222C176.872 21.8867 174.306 21.2732 170.947 19.5368L166.819 17.5482C165.88 17.127 163.535 15.9522 163.34 13.1005C163.133 10.0957 165.221 8.23948 167.88 8.23948C170.544 8.23948 173.231 9.88709 173.231 13.8416H181.552C181.552 13.8416 182.684 0 168.196 0C155.569 0 154.191 10.5665 154.191 13.2637C154.191 16.7038 154.912 19.3679 157.334 22.0808C160.656 25.802 166.904 27.7804 166.904 27.7804L170.373 29.4551C171.312 29.8763 173.687 31.6274 173.687 34.3036C173.687 37.8842 171.523 39.9532 168.142 39.9532C164.484 39.9532 162.32 37.4527 162.32 33.1617H153.688C153.688 35.2471 153.149 47.9635 168.119 47.9635C181.572 47.9635 183 36.9405 183 33.7396C183 30.3035 182.272 27.3733 179.858 24.9222Z" fill="black"/>
<path d="M24.8131 23.2675C27.7636 21.0894 29.6221 17.734 29.6221 13.3909C29.6221 5.30025 23.1813 0.00366211 15.2339 0.00366211C7.28623 0.00366211 0.845814 5.30025 0.845814 13.3909C0.845814 17.7342 2.70439 21.0894 5.65458 23.2672C2.20615 25.5837 0 29.3311 0 34.2677C0 42.9531 6.82011 47.9996 15.2341 47.9996C23.6483 47.9996 30.4682 42.9531 30.4682 34.2677C30.468 29.3311 28.2618 25.5837 24.8131 23.2675ZM15.2341 8.00122C18.2629 8.00122 20.717 10.3285 20.717 13.6117C20.717 16.8971 18.2627 19.2222 15.2341 19.2222C12.2055 19.2222 9.75142 16.8971 9.75142 13.6117C9.75118 10.3285 12.2055 8.00122 15.2341 8.00122ZM15.2341 40.0392C11.9137 40.0392 9.22178 37.4045 9.22178 33.6893C9.22178 29.9726 11.9137 27.3417 15.2341 27.3417C18.555 27.3417 21.2464 29.9726 21.2464 33.6893C21.2464 37.4045 18.555 40.0392 15.2341 40.0392Z" fill="black"/>
</g>
<defs>
<clipPath id="clip0">
<rect width="183" height="48" fill="white"/>
</clipPath>
</defs>
</svg>
