<?xml version="1.0" encoding="utf-8"?>
<!-- Generator: Adobe Illustrator 26.0.2, SVG Export Plug-In . SVG Version: 6.00 Build 0)  -->
<svg version="1.1" id="be82da25-f229-4185-928f-38dd360ad0bf"
	 xmlns="http://www.w3.org/2000/svg" xmlns:xlink="http://www.w3.org/1999/xlink" x="0px" y="0px" viewBox="0 0 1131.2 204.1"
	 style="enable-background:new 0 0 1131.2 204.1;" xml:space="preserve">
<style type="text/css">
	.st0{fill:#0069B6;}
</style>
<g>
	<path class="st0" d="M626.3,0H518.7c-4.9,0-8.8,3.9-8.8,8.8c0,0,0,0,0,0V195c0,4.9,3.9,8.8,8.8,8.8c0,0,0,0,0,0h25.5
		c4.9,0,8.8-3.9,8.8-8.8V44.3c0-2,1.6-3.6,3.5-3.6c0,0,0,0,0,0h69.8c4.9,0,8.8-3.9,8.8-8.8c0,0,0,0,0,0V8.8
		C635.1,3.9,631.2,0,626.3,0z"/>
	<path class="st0" d="M782.7,0H674.2c-4.9,0-8.8,3.9-8.8,8.8c0,0,0,0,0,0V195c0,4.9,3.9,8.8,8.8,8.8c0,0,0,0,0,0h25.5
		c4.9,0,8.8-3.9,8.8-8.8c0,0,0,0,0,0v-72.7h74.2c4.9,0,8.8-3.9,8.8-8.8V8.8C791.5,3.9,787.6,0,782.7,0z M750.7,76
		c0.2,2.9-2,5.3-4.8,5.5c-0.2,0-0.5,0-0.7,0h-34.5c-2,0-3.5-1.6-3.6-3.5V44.3c0-2,1.6-3.6,3.5-3.6c0,0,0,0,0,0h34.6
		c2.9-0.2,5.3,2,5.5,4.8c0,0.2,0,0.5,0,0.7L750.7,76z"/>
	<path class="st0" d="M905.7,6.8c-0.9-4-4.5-6.8-8.6-6.8H857c-4.1,0-7.7,2.8-8.6,6.8l-42.9,186.2c-1.1,4.7,1.9,9.5,6.6,10.5
		c0.6,0.1,1.3,0.2,2,0.2h24c4.2,0,7.8-2.9,8.6-7l3.3-15.4h54.1l3.2,15.4c0.9,4.1,4.5,7,8.6,7h24c4.8,0,8.8-3.9,8.8-8.8
		c0-0.7-0.1-1.3-0.2-2L905.7,6.8z M891.2,140.6h-28.4c-1.8,0-3.3-1.5-3.3-3.3c0-0.2,0-0.4,0.1-0.7l15.8-73.4
		c0.1-0.5,0.6-0.9,1.1-0.9h1.1c0.5,0,1,0.4,1.1,0.9l15.8,73.4c0.4,1.8-0.8,3.6-2.6,3.9C891.7,140.6,891.5,140.6,891.2,140.6z"/>
	<path class="st0" d="M1122.4,163.1h-4.6c-0.5,0-1-0.4-1.1-0.9L1081.5,6.8c-0.9-4-4.5-6.9-8.6-6.8h-40.1c-4.1,0-7.7,2.8-8.6,6.8
		L989,162.2c-0.1,0.5-0.6,0.9-1.1,0.9h-4.6c-4.9,0-8.8,3.9-8.8,8.8c0,0,0,0,0,0V195c0,4.8,3.9,8.8,8.8,8.8c0,0,0,0,0,0h139.1
		c4.9,0,8.8-3.9,8.8-8.8c0,0,0,0,0,0v-23.1C1131.2,167,1127.3,163.1,1122.4,163.1z M1072.9,163.1h-39.9c-1.2,0-2.2-1-2.2-2.2
		c0-0.1,0-0.3,0-0.4l19.9-95.1c0.1-0.5,0.6-0.9,1.1-0.9h2.2c0.5,0,1,0.4,1.1,0.9l19.9,95.1c0.2,1.2-0.5,2.4-1.7,2.6
		C1073.1,163,1073,163,1072.9,163.1z"/>
	<path class="st0" d="M122.5,101.3c-5.7-26.8-16.5-76.7-20.8-94.8c-0.9-4-4.5-6.8-8.6-6.8h-44c-4.1,0-7.7,2.9-8.6,6.9L0.2,192.6
		c-1,4.7,2,9.4,6.7,10.5c0.6,0.1,1.2,0.2,1.9,0.2h25.6c4.2,0,7.8-2.9,8.6-7C52,153.6,60.9,111,69.8,68.4c0.2-0.8,0.9-1.3,1.7-1.1
		c0.6,0.1,1,0.6,1.1,1.1c8.9,42.7,17.9,85.3,26.8,127.8c0.9,4.1,4.4,7,8.6,7h25.6c4.9,0,8.8-4,8.8-8.8c0-0.6-0.1-1.2-0.2-1.9
		C135.7,162.1,129,131.7,122.5,101.3z"/>
	<path class="st0" d="M417.3,0H352c-4.9,0-8.8,3.9-8.8,8.8c0,0,0,0,0,0V195c0,4.9,3.9,8.8,8.8,8.8c0,0,0,0,0,0h73.6
		c0.6,0,1.2,0,1.8,0l0,0h32c4.9,0,8.8-3.9,8.8-8.8l0,0V90.3c0-4.9-3.9-8.8-8.8-8.8h-73.1c-1.2,0-2.2-1-2.2-2.2V43
		c0-1.2,1-2.2,2.2-2.2l0,0h73.1c4.8,0,8.7-3.9,8.8-8.8V8.5c0-4.9-3.9-8.8-8.8-8.8h-42V0z M387.5,122.3h36.3c2,0,3.6,1.6,3.6,3.6
		v33.6c0,2-1.6,3.6-3.6,3.6h-36.3c-2,0-3.6-1.6-3.6-3.5c0,0,0,0,0,0v-33.6C384,123.9,385.6,122.3,387.5,122.3
		C387.5,122.3,387.5,122.3,387.5,122.3z"/>
	<path class="st0" d="M267.9,6.8c-0.9-4-4.5-6.8-8.6-6.8h-40.1c-4.1,0-7.7,2.8-8.6,6.8l-42.8,186.2c-1.1,4.7,1.9,9.4,6.6,10.5
		c0.6,0.1,1.3,0.2,2,0.2h24c4.2,0,7.8-2.9,8.6-7l3.2-15.4h54.2l3.2,15.4c0.9,4.1,4.4,7,8.6,7h24c4.9,0,8.8-3.9,8.8-8.8
		c0-0.7-0.1-1.3-0.2-2L267.9,6.8z M253.4,140.6H225c-1.8,0-3.3-1.5-3.3-3.4c0-0.2,0-0.4,0.1-0.6l15.8-73.4c0.1-0.5,0.6-0.9,1.1-0.9
		h1.1c0.5,0,1,0.4,1.1,0.9l15.8,73.4c0.4,1.8-0.8,3.6-2.6,3.9C253.9,140.6,253.7,140.6,253.4,140.6z"/>
</g>
</svg>
