<svg version="1.1" id="Layer_1___dJgsJmh1" xmlns="http://www.w3.org/2000/svg" xmlns:xlink="http://www.w3.org/1999/xlink" x="0px" y="0px" viewBox="0 0 284.6 79.4" style="enable-background:new 0 0 284.6 79.4;" xml:space="preserve" width="284.6"  height="79.4" >
<g>
	<g id="POLYLINE_22____dJgsJmh1">
		<polyline points="0,9.1 29.5,9.1 44.4,55.8 44.6,55.8 60.2,9.1 88.6,9.1 88.6,79.4 70.3,79.4 70.6,25.4 70.4,25.4 52.4,79.4 
			35.2,79.4 18.1,25.4 17.9,25.4 18.3,79.4 0,79.4 0,9.1 		"></polyline>
	</g>
	<g id="POLYLINE_21____dJgsJmh1">
		<polyline points="101.2,9.1 119.9,9.1 119.9,65.5 148.9,65.5 148.9,79.4 101.2,79.4 101.2,9.1 		"></polyline>
	</g>
	<path d="M201,9.1h-23l-26.7,70.3h19l5.5-15h26.4l5.2,15h20.5L201,9.1z M180.3,51.1l9.1-27.5h0.2l8.4,27.5H180.3z"></path>
	<g id="POLYLINE_18____dJgsJmh1">
		<polyline points="233.6,20.1 252.7,20.1 252.7,1 265.4,1 265.4,20.1 284.6,20.1 284.6,32.8 265.4,32.8 265.4,51.9 252.7,51.9 
			252.7,32.8 233.6,32.8 233.6,20.1 		"></polyline>
	</g>
</g>
</svg>