<svg id="Слой_1" data-name="Слой 1" xmlns="http://www.w3.org/2000/svg" viewBox="0 0 500 500"><defs><style>.cls-1{fill:#00aeef;}.cls-2{font-size:26.78px;font-family:Montserrat-Light, Montserrat;font-weight:300;}.cls-3{letter-spacing:-0.1em;}.cls-4{letter-spacing:-0.02em;}.cls-5{letter-spacing:-0.02em;}.cls-6{letter-spacing:-0.04em;}.cls-7{letter-spacing:-0.18em;}.cls-8{letter-spacing:-0.02em;}.cls-9{letter-spacing:-0.01em;}</style></defs><path class="cls-1" d="M233.51,190.82h6.86V206h-8.2Zm10.82,0h23L268.94,206H244.23ZM235,175.34h5.52v11.29H234Zm9.38,0h21.44l1.15,11.29H244.23Zm-8.11-14.44h4.25v10.5h-5.19Zm8.11,0h19.82l1.08,10.5h-21Zm-6.89-14.43h3V157h-4Zm6.89,0h18.44L263.89,157H244.23Zm0-6.71h10.58v2.85H244.23Zm0-8.92,5.63-6.49,4.84,5.52v6H244.23Zm-3.86-1.44v6.5h-6.82v3.82h6.72v2.85H233.8L228.31,206H205.8v3.86h87.94V206h-21l-6.57-63.44h-7.47v-2.85h6.64v-3.86h-6.64v-7.47L250,118.54Z"/><path class="cls-1" d="M220.84,123.27h3.61c.72-1.81,3.29-6.46,6.5-6.46v-4a10.83,10.83,0,0,0-8.45,5.66c-1.8-2.56-4.65-5.66-7.9-5.66v3.89c1.91,0,4.91,4,6.28,6.64"/><path class="cls-1" d="M212.07,172.34l3.61-.18c.69-1.8,3.25-6.46,6.46-6.46v-3.93a10.81,10.81,0,0,0-8.51,5.7c-1.77-2.56-4.66-5.7-7.87-5.7v3.93c1.91,0,4.87,4,6.28,6.64"/><path class="cls-1" d="M285.8,149.21c-1.81-2.56-4.66-5.7-7.91-5.7v3.93c1.92,0,4.91,4,6.32,6.64l3.61-.21c.72-1.77,3.28-6.43,6.49-6.43v-3.93a10.81,10.81,0,0,0-8.51,5.7"/><polygon class="cls-1" points="73.14 248.81 69.28 248.81 69.28 222.83 95.23 222.83 95.23 226.69 73.14 226.69 73.14 248.81"/><polygon class="cls-1" points="69.28 266.56 69.28 293.01 95.23 293.01 95.23 289.15 73.14 289.15 73.14 266.56 69.28 266.56"/><polygon class="cls-1" points="404.77 222.83 404.77 226.69 426.86 226.69 426.86 248.81 430.72 248.81 430.72 222.83 404.77 222.83"/><polygon class="cls-1" points="426.86 266.56 426.86 289.15 404.77 289.15 404.77 293.01 430.72 293.01 430.72 266.56 426.86 266.56"/><polygon class="cls-1" points="81.91 234.19 85.13 234.19 85.13 250.11 93.24 250.11 93.24 234.19 96.46 234.19 96.46 250.07 98.69 250.07 98.44 257.11 95.48 257.11 95.48 252.63 81.91 252.63 81.91 234.19"/><path class="cls-1" d="M106.7,241.16a2.71,2.71,0,0,0-2,.86,5,5,0,0,0-1,2.49h5.88v-.21a3.54,3.54,0,0,0-.83-2.35,2.62,2.62,0,0,0-2-.79m.36,11.76a6.18,6.18,0,0,1-4.72-1.87,6.6,6.6,0,0,1-1.84-4.91V246a8.63,8.63,0,0,1,.79-3.61,6.43,6.43,0,0,1,2.24-2.53,6.15,6.15,0,0,1,3.21-.9,5.48,5.48,0,0,1,4.33,1.81,7.62,7.62,0,0,1,1.52,5.05V247h-9a4.07,4.07,0,0,0,1.16,2.67,3.3,3.3,0,0,0,2.49,1,4.14,4.14,0,0,0,3.6-1.69l1.66,1.59a5.65,5.65,0,0,1-2.2,1.91,7.08,7.08,0,0,1-3.1.68"/><polygon class="cls-1" points="126.59 252.63 123.52 252.63 123.52 247.11 118.18 247.11 118.18 252.63 115.08 252.63 115.08 238.92 118.18 238.92 118.18 244.66 123.52 244.66 123.52 238.92 126.59 238.92 126.59 252.63"/><polygon class="cls-1" points="140.66 241.38 136.22 241.38 136.22 252.63 133.12 252.63 133.12 241.38 128.72 241.38 128.72 238.92 140.66 238.92 140.66 241.38"/><path class="cls-1" d="M151.67,245.67a5.81,5.81,0,0,0-.83-3.25,2.65,2.65,0,0,0-2.35-1.23,2.88,2.88,0,0,0-2.71,1.56v6.09a2.81,2.81,0,0,0,2.75,1.59,2.71,2.71,0,0,0,2.31-1.19,6.32,6.32,0,0,0,.83-3.61m3.06.26a8.28,8.28,0,0,1-1.44,5.08,4.66,4.66,0,0,1-3.9,1.88,4.57,4.57,0,0,1-3.61-1.48v6.53h-3.06v-19h2.81v1.41a4.58,4.58,0,0,1,3.61-1.66,4.73,4.73,0,0,1,3.93,1.87,8.6,8.6,0,0,1,1.45,5.2Z"/><polygon class="cls-1" points="172.92 241.41 166.97 241.41 166.97 252.63 163.9 252.63 163.9 238.92 172.92 238.92 172.92 241.41"/><path class="cls-1" d="M176.93,246a5.56,5.56,0,0,0,.86,3.32,3.11,3.11,0,0,0,4.36.51,3.08,3.08,0,0,0,.51-.51,6.2,6.2,0,0,0,.87-3.61,5.28,5.28,0,0,0-.9-3.28,3,3,0,0,0-4.19-.61,2.72,2.72,0,0,0-.61.61,5.72,5.72,0,0,0-.9,3.6m-3-.32a7.93,7.93,0,0,1,.8-3.61,5.55,5.55,0,0,1,2.23-2.49,6.37,6.37,0,0,1,3.32-.87,6,6,0,0,1,4.51,1.81,7.18,7.18,0,0,1,1.88,4.73V246a8.06,8.06,0,0,1-.79,3.61,5.88,5.88,0,0,1-2.21,2.45,6.45,6.45,0,0,1-3.35.9,5.9,5.9,0,0,1-4.66-1.95,7.43,7.43,0,0,1-1.73-5Z"/><path class="cls-1" d="M198.14,245.67a5.72,5.72,0,0,0-.82-3.25,2.59,2.59,0,0,0-2.31-1.23,3,3,0,0,0-2.75,1.56v6.09a2.84,2.84,0,0,0,2.75,1.59,2.68,2.68,0,0,0,2.31-1.19,6.24,6.24,0,0,0,.82-3.61m3.07.26a8.12,8.12,0,0,1-1.44,5.08,5.06,5.06,0,0,1-7.51.4v6.53H189.2v-19H192v1.41a4.58,4.58,0,0,1,3.61-1.66,4.82,4.82,0,0,1,4,1.87,8.56,8.56,0,0,1,1.41,5.2Z"/><path class="cls-1" d="M206.41,246a5.63,5.63,0,0,0,.86,3.32,3.13,3.13,0,0,0,4.88,0,6.19,6.19,0,0,0,.86-3.61,5.28,5.28,0,0,0-.9-3.28,2.83,2.83,0,0,0-2.42-1.23,2.89,2.89,0,0,0-2.42,1.19,6.08,6.08,0,0,0-.86,3.61m-3.1-.25a8.33,8.33,0,0,1,.79-3.61,5.88,5.88,0,0,1,2.27-2.49,6.19,6.19,0,0,1,3.32-.87,6,6,0,0,1,4.51,1.8,6.88,6.88,0,0,1,1.84,4.73V246a8.06,8.06,0,0,1-.79,3.61A5.64,5.64,0,0,1,213,252a6.27,6.27,0,0,1-3.35.9A5.87,5.87,0,0,1,205,251a7.21,7.21,0,0,1-1.81-5Z"/><path class="cls-1" d="M221.35,250.18h5.27v-8.59H223v2.6a10.86,10.86,0,0,1-1.73,6m-3.61,0a7.66,7.66,0,0,0,1.73-2.71,11.06,11.06,0,0,0,.5-3.28l.19-5.27h9.52v11.26h2.06v6.6H228.6v-4.11h-8.88v4.11h-3.1v-6.6Z"/><path class="cls-1" d="M239.43,250.43a2.79,2.79,0,0,0,1.91-.65,2.37,2.37,0,0,0,.83-1.66h2.89a4.58,4.58,0,0,1-.8,2.38,5.56,5.56,0,0,1-2,1.77,6,6,0,0,1-2.78.65,5.85,5.85,0,0,1-4.54-1.87,7.22,7.22,0,0,1-1.7-5.09v-.33a7.19,7.19,0,0,1,1.66-5,5.88,5.88,0,0,1,4.58-1.88,5.48,5.48,0,0,1,4,1.44,5,5,0,0,1,1.63,3.61h-2.89a2.86,2.86,0,0,0-.83-1.95,2.57,2.57,0,0,0-1.91-.75,2.67,2.67,0,0,0-2.31,1.08,5.43,5.43,0,0,0-.83,3.28V246a5.55,5.55,0,0,0,.83,3.32,2.66,2.66,0,0,0,2.31,1.08"/><polygon class="cls-1" points="252.27 247.22 250.69 247.22 250.69 252.63 247.62 252.63 247.62 238.92 250.69 238.92 250.69 244.41 252.06 244.41 255.85 238.92 259.63 238.92 254.69 245.49 260.07 252.63 256.06 252.63 252.27 247.22"/><path class="cls-1" d="M263.53,246a5.44,5.44,0,0,0,.9,3.32,3.08,3.08,0,0,0,4.31.53,3,3,0,0,0,.53-.53,6.27,6.27,0,0,0,.87-3.61,5.5,5.5,0,0,0-.87-3.28,2.82,2.82,0,0,0-2.45-1.23,2.76,2.76,0,0,0-2.39,1.19,6.11,6.11,0,0,0-.9,3.61m-3-.29a8.06,8.06,0,0,1,.79-3.61,6.05,6.05,0,0,1,2.24-2.49,6.54,6.54,0,0,1,3.32-.87,6,6,0,0,1,4.51,1.81,7.24,7.24,0,0,1,1.88,4.73V246a8.67,8.67,0,0,1-.76,3.61,6,6,0,0,1-2.24,2.45,6.51,6.51,0,0,1-3.36.9,5.88,5.88,0,0,1-4.65-1.95,7.38,7.38,0,0,1-1.73-5Z"/><polygon class="cls-1" points="284.97 241.41 279.01 241.41 279.01 252.63 275.95 252.63 275.95 238.92 284.97 238.92 284.97 241.41"/><path class="cls-1" d="M288.94,246a5.59,5.59,0,0,0,.9,3.32,3.07,3.07,0,0,0,4.3.53,3,3,0,0,0,.53-.53,6.2,6.2,0,0,0,.87-3.61,5.5,5.5,0,0,0-.87-3.28,3,3,0,0,0-4.24-.59,2.75,2.75,0,0,0-.59.59,6,6,0,0,0-.9,3.6m-3.14-.32a8.06,8.06,0,0,1,.79-3.61,6.05,6.05,0,0,1,2.24-2.49,6.54,6.54,0,0,1,3.32-.87,6,6,0,0,1,4.51,1.81,7,7,0,0,1,1.88,4.73V246a8.52,8.52,0,0,1-.8,3.61A5.88,5.88,0,0,1,295.5,252a6.45,6.45,0,0,1-3.35.9,6,6,0,0,1-4.66-1.95,7.41,7.41,0,0,1-1.69-5Z"/><path class="cls-1" d="M316.65,245.67a5.65,5.65,0,0,0-.83-3.25,2.64,2.64,0,0,0-2.35-1.23,2.85,2.85,0,0,0-2.7,1.56v6.09a2.84,2.84,0,0,0,2.74,1.59,2.71,2.71,0,0,0,2.31-1.19,6.32,6.32,0,0,0,.83-3.61m3.07.26a8.32,8.32,0,0,1-1.45,5.12,4.64,4.64,0,0,1-3.89,1.88,4.56,4.56,0,0,1-3.61-1.48v6.53H307.7v-19h2.82v1.41a4.55,4.55,0,0,1,3.6-1.66,4.68,4.68,0,0,1,4.15,1.87,8.32,8.32,0,0,1,1.45,5.2Z"/><path class="cls-1" d="M327.11,250.43a3.51,3.51,0,0,0,1.74-.43,3.09,3.09,0,0,0,1.19-1.19v-2.6h-1.66a4.58,4.58,0,0,0-2.56.58,2,2,0,0,0-.87,1.69,1.73,1.73,0,0,0,.61,1.41,2.13,2.13,0,0,0,1.55.54m3.4,2.2a4.23,4.23,0,0,1-.36-1.26,5.23,5.23,0,0,1-7,.36,4.11,4.11,0,0,1-.19-5.81,3.87,3.87,0,0,1,.52-.47,7.84,7.84,0,0,1,4.65-1.19H330v-.9a2.45,2.45,0,0,0-.58-1.7,2.36,2.36,0,0,0-1.8-.65,2.66,2.66,0,0,0-1.74.55,1.69,1.69,0,0,0-.68,1.33h-3.07a3.59,3.59,0,0,1,.76-2.13,4.8,4.8,0,0,1,2-1.51,6.68,6.68,0,0,1,2.89-.58,5.58,5.58,0,0,1,3.82,1.23,4.25,4.25,0,0,1,1.48,3.39v6.28a7.32,7.32,0,0,0,.51,2.92v.22Z"/><path class="cls-1" d="M346.75,242.67a2.88,2.88,0,0,1-.55,1.7,4.14,4.14,0,0,1-1.55,1.23,3.13,3.13,0,0,1,2.35,3.17,3.61,3.61,0,0,1-1.52,3,6.81,6.81,0,0,1-4.11,1.15,7.12,7.12,0,0,1-2.85-.54,4.66,4.66,0,0,1-2-1.51,3.6,3.6,0,0,1-.72-2.28h3.06a1.81,1.81,0,0,0,.72,1.41,3.27,3.27,0,0,0,1.92.54,2.92,2.92,0,0,0,1.77-.5,1.7,1.7,0,0,0,.68-1.41,1.86,1.86,0,0,0-.58-1.45,3.15,3.15,0,0,0-1.8-.43h-2.2v-2.2h2.27c1.37,0,2.06-.61,2.06-1.7a1.58,1.58,0,0,0-.58-1.33,2.73,2.73,0,0,0-1.66-.47,3,3,0,0,0-1.7.51,1.46,1.46,0,0,0-.68,1.26H336a3.61,3.61,0,0,1,1.52-3,6,6,0,0,1,3.86-1.12,6.69,6.69,0,0,1,4,1,3.65,3.65,0,0,1,1.41,3"/><path class="cls-1" d="M353,246.79v3.61h3.36c1.59,0,2.38-.58,2.38-1.7s-.79-1.73-2.42-1.73Zm0-2.2h2.53c1.73,0,2.63-.51,2.63-1.56s-.83-1.62-2.49-1.66H353Zm-3.1,8V238.92h5.59a7.23,7.23,0,0,1,4.26,1,3.13,3.13,0,0,1,1.48,2.82,2.67,2.67,0,0,1-.58,1.69,3.6,3.6,0,0,1-1.77,1.16,3.88,3.88,0,0,1,2.13,1.12,2.85,2.85,0,0,1,.8,2,3.42,3.42,0,0,1-1.41,2.92,7.18,7.18,0,0,1-4.08,1Z"/><polygon class="cls-1" points="372.98 238.92 376.05 238.92 376.05 252.63 372.98 252.63 372.98 243.5 367.6 252.63 364.54 252.63 364.54 238.92 367.6 238.92 367.6 248.09 372.98 238.92"/><polygon class="cls-1" points="390.12 241.38 385.68 241.38 385.68 252.63 382.62 252.63 382.62 241.38 378.21 241.38 378.21 238.92 390.12 238.92 390.12 241.38"/><polygon class="cls-1" points="400.73 238.92 403.8 238.92 403.8 252.63 400.73 252.63 400.73 243.5 395.35 252.63 392.29 252.63 392.29 238.92 395.35 238.92 395.35 248.09 400.73 238.92"/><path class="cls-1" d="M409.68,243.4a1.71,1.71,0,0,0,.65,1.4,2.44,2.44,0,0,0,1.66.54h3v-4H412.1a2.63,2.63,0,0,0-1.81.58,1.85,1.85,0,0,0-.68,1.45m8.4-4.48v13.71H415v-5H412.1l-2.93,5H406l3.25-5.52a4.16,4.16,0,0,1-1.95-1.51,3.57,3.57,0,0,1-.68-2.28,4,4,0,0,1,1.47-3.14,6.18,6.18,0,0,1,4-1.26Z"/><polygon class="cls-1" points="86.1 265.34 91.44 279.52 96.74 265.34 100.89 265.34 100.89 283.81 97.68 283.81 97.68 277.71 98.01 269.59 92.56 283.81 90.28 283.81 84.84 269.59 85.13 277.71 85.13 283.81 81.95 283.81 81.95 265.34 86.1 265.34"/><path class="cls-1" d="M109.19,279.41,112,270.1h3.29l-5.45,15.8a4.44,4.44,0,0,1-4.26,3.61,5.73,5.73,0,0,1-1.48-.25v-2.53h.58a3.07,3.07,0,0,0,1.77-.43,2.94,2.94,0,0,0,.9-1.41l.47-1.19L103,270.1h3.32Z"/><path class="cls-1" d="M126,276.81a5.65,5.65,0,0,0-.83-3.25,2.67,2.67,0,0,0-2.34-1.19,2.84,2.84,0,0,0-2.71,1.55V280a2.92,2.92,0,0,0,2.74,1.59,2.71,2.71,0,0,0,2.31-1.19,6.34,6.34,0,0,0,.83-3.61m3.07.29a8.17,8.17,0,0,1-1.44,5,4.58,4.58,0,0,1-3.9,1.91,4.73,4.73,0,0,1-3.61-1.48v6.68H117V270.1h2.78v1.37a5,5,0,0,1,7.55.25,8.21,8.21,0,0,1,1.44,5.2Z"/><polygon class="cls-1" points="139.79 280.02 143.84 270.1 147.7 270.1 147.7 283.81 144.63 283.81 144.63 274.72 140.84 283.81 138.75 283.81 134.96 274.68 134.96 283.81 131.89 283.81 131.89 270.1 135.75 270.1 139.79 280.02"/><path class="cls-1" d="M155.89,281.57a3.5,3.5,0,0,0,1.73-.43,2.74,2.74,0,0,0,1.19-1.19v-2.6h-1.66a4.51,4.51,0,0,0-2.56.62,2,2,0,0,0-.87,1.69,1.92,1.92,0,0,0,.58,1.41,2.28,2.28,0,0,0,1.59.5m3.39,2.24a4.49,4.49,0,0,1-.36-1.3,5.13,5.13,0,0,1-7,.36,3.58,3.58,0,0,1-1.3-2.92,3.94,3.94,0,0,1,1.62-3.36,8.1,8.1,0,0,1,4.66-1.15h1.87v-.9a2.27,2.27,0,0,0-.58-1.7,2.35,2.35,0,0,0-1.8-.65,2.8,2.8,0,0,0-1.73.51A1.58,1.58,0,0,0,154,274H151a3.52,3.52,0,0,1,.72-2.09,5.3,5.3,0,0,1,2.05-1.55,7.19,7.19,0,0,1,2.85-.54,5.86,5.86,0,0,1,3.87,1.19,4.53,4.53,0,0,1,1.48,3.43v6.17a6.62,6.62,0,0,0,.5,2.95v.22Z"/><polygon class="cls-1" points="176.82 283.81 173.75 283.81 173.75 278.25 168.41 278.25 168.41 283.81 165.31 283.81 165.31 270.1 168.41 270.1 168.41 275.8 173.75 275.8 173.75 270.1 176.82 270.1 176.82 283.81"/><path class="cls-1" d="M185.73,281.61a2.69,2.69,0,0,0,1.91-.69,2.27,2.27,0,0,0,.83-1.66h2.89a4.35,4.35,0,0,1-.79,2.39,5.35,5.35,0,0,1-2,1.76,6,6,0,0,1-2.78.65,5.72,5.72,0,0,1-4.62-2,7.19,7.19,0,0,1-1.7-5.12v-.33a7.23,7.23,0,0,1,1.7-4.87,5.76,5.76,0,0,1,4.58-1.87,5.6,5.6,0,0,1,4,1.4,5,5,0,0,1,1.62,3.61h-2.95a2.91,2.91,0,0,0-.83-1.95,2.55,2.55,0,0,0-1.92-.75,2.68,2.68,0,0,0-2.31,1.08,5.54,5.54,0,0,0-.83,3.32V277a5.55,5.55,0,0,0,.83,3.32,2.61,2.61,0,0,0,2.31,1.12"/><polygon class="cls-1" points="198.58 278.4 197.03 278.4 197.03 283.81 193.92 283.81 193.92 270.1 197.03 270.1 197.03 275.58 198.36 275.58 202.15 270.1 205.98 270.1 201 276.67 206.37 283.81 202.37 283.81 198.58 278.4"/><path class="cls-1" d="M210,277.1a5.44,5.44,0,0,0,.9,3.32,2.82,2.82,0,0,0,2.42,1.19,2.72,2.72,0,0,0,2.41-1.23,6,6,0,0,0,.87-3.61,5.54,5.54,0,0,0-.87-3.28,3,3,0,0,0-2.45-1.23,2.81,2.81,0,0,0-2.38,1.19,6.22,6.22,0,0,0-.9,3.61m-3.07-.29a8,8,0,0,1,.79-3.6,6.06,6.06,0,0,1,2.24-2.49,6.37,6.37,0,0,1,3.32-.87,5.94,5.94,0,0,1,4.51,1.77,7.18,7.18,0,0,1,1.88,4.76v.72a8.31,8.31,0,0,1-.76,3.61,5.74,5.74,0,0,1-2.24,2.49,6.48,6.48,0,0,1-3.35.87,5.93,5.93,0,0,1-4.84-2,7.2,7.2,0,0,1-1.73-5.12Z"/><path class="cls-1" d="M232.14,264.83a3.3,3.3,0,0,1-1.12,2.6,5.07,5.07,0,0,1-6,0,3.29,3.29,0,0,1-1.11-2.6h2.31a1.77,1.77,0,0,0,.46,1.3,1.84,1.84,0,0,0,1.34.47,1.74,1.74,0,0,0,1.3-.47,1.93,1.93,0,0,0,.47-1.3Zm-1.45,5.27h3.07v13.71h-3.07v-9L225.32,284h-3.07V270.28h3.07v9.17Z"/><path class="cls-1" d="M246.1,277.1a5.74,5.74,0,0,0,.9,3.32,2.84,2.84,0,0,0,2.42,1.19,2.72,2.72,0,0,0,2.42-1.23,6.09,6.09,0,0,0,.87-3.61,5.54,5.54,0,0,0-.87-3.28,3,3,0,0,0-2.45-1.23,2.85,2.85,0,0,0-2.39,1.19,6.3,6.3,0,0,0-.9,3.61m-3.06-.29a7.76,7.76,0,0,1,.79-3.6,6,6,0,0,1,2.24-2.49,6.32,6.32,0,0,1,3.32-.87,6,6,0,0,1,4.51,1.77,6.94,6.94,0,0,1,1.87,4.76v.72a8.33,8.33,0,0,1-.79,3.61,5.74,5.74,0,0,1-2.24,2.49,6.48,6.48,0,0,1-3.35.87,6,6,0,0,1-4.73-2,7.2,7.2,0,0,1-1.73-5.12Z"/><path class="cls-1" d="M264.15,273.31a2.93,2.93,0,0,0-2.35,1,4.76,4.76,0,0,0-.87,3.1,5.32,5.32,0,0,0,.83,3.11,2.9,2.9,0,0,0,2.39,1.08,2.72,2.72,0,0,0,2.38-1.12,5.28,5.28,0,0,0,.86-3.32,4.23,4.23,0,0,0-.86-2.81,2.88,2.88,0,0,0-2.38-1.05m.61-2.45a5.36,5.36,0,0,1,4.15,1.73,6.89,6.89,0,0,1,1.55,4.69h0a6.77,6.77,0,0,1-1.7,4.8,5.92,5.92,0,0,1-4.61,1.84A5.84,5.84,0,0,1,259.6,282a7.2,7.2,0,0,1-1.73-5.12v-.87a13.21,13.21,0,0,1,1.58-7.21,6.62,6.62,0,0,1,4.7-2.89,6.62,6.62,0,0,0,2.27-.76,1.3,1.3,0,0,0,.5-1.08h2.49a4.88,4.88,0,0,1-.39,2.06,3.28,3.28,0,0,1-1.27,1.44,10.92,10.92,0,0,1-2.95.94,5.6,5.6,0,0,0-2.93,1.44,5.68,5.68,0,0,0-1.37,2.89,5.83,5.83,0,0,1,4.33-1.88"/><path class="cls-1" d="M284.5,270.1v13.71h-3.07V272.59h-3.86l-.25,4.76A10,10,0,0,1,276,282.3a3.83,3.83,0,0,1-3.32,1.51h-.94v-2.56h.65a1.8,1.8,0,0,0,1.48-1.23,13.26,13.26,0,0,0,.58-4l.25-5.85Z"/><path class="cls-1" d="M292.62,281.57a3.57,3.57,0,0,0,1.69-.43,2.94,2.94,0,0,0,1.23-1.19v-2.6h-1.66a4.56,4.56,0,0,0-2.6.62,2,2,0,0,0-.83,1.69,1.83,1.83,0,0,0,.58,1.41,2.17,2.17,0,0,0,1.59.5m3.35,2.24a4.43,4.43,0,0,1-.32-1.3,4.77,4.77,0,0,1-3.61,1.55,4.85,4.85,0,0,1-3.39-1.19,3.58,3.58,0,0,1-1.3-2.92,3.94,3.94,0,0,1,1.62-3.36,8.1,8.1,0,0,1,4.66-1.15h1.91v-.9a2.19,2.19,0,0,0-2.42-2.35,3,3,0,0,0-1.73.51,1.66,1.66,0,0,0-.65,1.33h-3.1a3.33,3.33,0,0,1,.76-2.09,5.4,5.4,0,0,1,2-1.55,7.26,7.26,0,0,1,2.88-.54,5.74,5.74,0,0,1,3.83,1.19,4.38,4.38,0,0,1,1.48,3.43v6.17a6.65,6.65,0,0,0,.54,2.95v.22Z"/><path class="cls-1" d="M307.45,281.61a2.69,2.69,0,0,0,1.91-.69,2.2,2.2,0,0,0,.79-1.66h2.93a4.74,4.74,0,0,1-.8,2.39,5.07,5.07,0,0,1-2,1.76,6.12,6.12,0,0,1-7.29-1.37,7.17,7.17,0,0,1-1.66-5.12v-.33a7.19,7.19,0,0,1,1.66-5,6.41,6.41,0,0,1,8.55-.36,5.26,5.26,0,0,1,1.62,3.61h-2.92a2.82,2.82,0,0,0-.79-1.95,2.61,2.61,0,0,0-1.95-.58,2.71,2.71,0,0,0-2.31,1.08,5.55,5.55,0,0,0-.83,3.32v.47a5.6,5.6,0,0,0,.79,3.32,2.72,2.72,0,0,0,2.35,1.12"/><polygon class="cls-1" points="326.21 272.55 321.77 272.55 321.77 283.81 318.71 283.81 318.71 272.55 314.31 272.55 314.31 270.1 326.21 270.1 326.21 272.55"/><polygon class="cls-1" points="336.82 270.1 339.93 270.1 339.93 283.81 336.82 283.81 336.82 274.65 331.48 283.81 328.41 283.81 328.41 270.1 331.48 270.1 331.48 279.26 336.82 270.1"/><text class="cls-2" transform="translate(102.17 395.08)">ЦЕНТР <tspan class="cls-3" x="102.77" y="0">Г</tspan><tspan x="115.27" y="0">ОР</tspan><tspan class="cls-4" x="157.03" y="0">О</tspan><tspan x="179.34" y="0">ДС</tspan><tspan class="cls-5" x="219.51" y="0">К</tspan><tspan x="237.46" y="0">О</tspan><tspan class="cls-3" x="260.3" y="0">Г</tspan><tspan x="272.81" y="0">О</tspan><tspan class="cls-6" x="-27.29" y="32.14">Р</tspan><tspan x="-9.59" y="32.14">АЗВИТИЯ </tspan><tspan class="cls-7" x="133.11" y="32.14">Г</tspan><tspan x="143.48" y="32.14">. М</tspan><tspan class="cls-8" x="181.54" y="32.14">У</tspan><tspan class="cls-9" x="199.11" y="32.14">Р</tspan><tspan x="217.75" y="32.14">МАНСК</tspan></text></svg>