<svg id="Слой_1" data-name="Слой 1" xmlns="http://www.w3.org/2000/svg" viewBox="0 0 500 500"><defs><style>.cls-1{fill:#83be62;}.cls-2{fill:#479cd5;}.cls-3{fill:#ed6567;}.cls-4{fill:#282828;}.cls-5{font-size:26.78px;font-family:Montserrat-Light, Montserrat;font-weight:300;}.cls-6{letter-spacing:-0.02em;}.cls-7{font-size:23px;}.cls-8{letter-spacing:-0.02em;}.cls-9{letter-spacing:-0.1em;}.cls-10{letter-spacing:-0.02em;}.cls-11{letter-spacing:-0.02em;}.cls-12{letter-spacing:-0.01em;}.cls-13{letter-spacing:-0.02em;}.cls-14{letter-spacing:0em;}.cls-15{letter-spacing:-0.01em;}.cls-16{letter-spacing:0.01em;}.cls-17{letter-spacing:-0.04em;}</style></defs><polygon class="cls-1" points="283.81 109.8 315.82 141.42 283.78 174.48 250.25 142.14 283.81 109.8"/><polygon class="cls-2" points="218.12 109.8 250.13 141.42 218.09 174.48 184.56 142.14 218.12 109.8"/><polygon class="cls-3" points="250.91 142.14 282.92 173.76 250.87 206.82 217.35 174.48 250.91 142.14"/><path class="cls-4" d="M240.15,235.53h.15c.65,1.83,1.3,3.62,1.95,5.45.95,2.52.95,2.48,3.54,2.4a1.08,1.08,0,0,0,1.15-.84c.68-2,1.41-3.92,2.13-5.87.16-.38.19-.84.58-1.14a2.6,2.6,0,0,1,.07,1.29c0,2.79-.11,5.53-.15,8.32s0,2.78,2.74,2.55c.46,0,.73-.15.73-.65V230.27c0-2.44,0-2.41-2.52-2.41a1.37,1.37,0,0,0-1.48,1c-1.15,2.94-2.37,5.84-3.55,8.77-.19.42-.19,1-.69,1.3a6.75,6.75,0,0,1-.34-.65c-1-2.9-2.25-5.68-3.43-8.5-1-2.33-.35-1.87-2.9-1.91-1.41,0-1.37-.15-1.37,1.45v16c0,2.4,0,2.4,2.4,2.32,1,0,1,0,1-1.1,0-1.91,0-3.78,0-5.68S240.15,237.32,240.15,235.53Z"/><path class="cls-4" d="M325.91,237.7v8.58c0,1.45-.19,1.37,1.45,1.37h7.43c1.19,0,1.19,0,1.19,1.22,0,2.14,0,2.14,2.13,2.14h.73c.42,0,.61-.23.61-.65V245c0-.42-.16-.58-.58-.65-1.22-.19-1.22-.23-1.22-1.49V230.19c0-2.75.42-2.29-2.28-2.33-1.3,0-1.3,0-1.3,1.41v14.42c0,.49-.23.69-.72.65-1.07,0-2.14,0-3.21,0-.49,0-.68-.23-.72-.69V230.23c0-2.48,0-2.48-2.48-2.37-1,0-1,0-1,1.11Z"/><path class="cls-4" d="M140.74,247.69a1.39,1.39,0,0,1,.23,1c.07,2.55.07,2.55,2.63,2.4.61,0,.88-.19.88-.84,0-1.72,0-3.39,0-5.11,0-.57-.19-.72-.73-.8-1.07-.08-1.07-.12-1.07-1.18V230c0-2.56.42-2.17-2.25-2.17-1.29,0-1.29,0-1.29,1.37v14.45c0,.5-.23.69-.73.69h-2c-2,0-1.79.34-1.83-1.76v-12.5c0-2.56.42-2.18-2.25-2.22-1.26,0-1.26,0-1.26,1.26v17.47c0,1,0,1.06,1,1.06H136C137.57,247.69,139.21,247.69,140.74,247.69Z"/><path class="cls-4" d="M366.29,235.72c.23.11.15.3.15.49-.19,3.09-.11,6.22-.15,9.31,0,2.17,0,2.17,2.14,2.13,1.29,0,1.22.08,1.22-1.29V230.19c0-2.36,0-2.33-2.4-2.36a1.44,1.44,0,0,0-1.53,1c-1.41,3.35-2.86,6.67-4.35,10-.15.3-.15.76-.72.87.19-3.16.27-6.33.19-9.49,0-2.82.57-2.33-2.48-2.37h-.3c-.42,0-.61.19-.61.61v17.77a2.7,2.7,0,0,0,.19,1.41c.72,0,1.48-.07,2.25,0s1.18-.26,1.48-1c1.41-3.47,3.05-6.82,4.39-10.29C365.91,236.14,366,235.8,366.29,235.72Z"/><path class="cls-4" d="M350.54,235.3c0,.61,0,1.22,0,1.83-.23,2.75-.19,5.53-.19,8.27,0,2.25,0,2.25,2.21,2.25,1.38,0,1.26,0,1.26-1.25V230.23c0-2.44,0-2.4-2.51-2.4a1.36,1.36,0,0,0-1.42.95c-1.44,3.47-3,6.94-4.49,10.41-.16.34-.2.76-.54,1a1.61,1.61,0,0,1-.07-.84,87.62,87.62,0,0,0,.26-9.46c0-2.32.38-2-2.1-2-1.33,0-1.33,0-1.33,1.38V245.4c0,2.29,0,2.25,2.29,2.29a1.55,1.55,0,0,0,1.71-1.1c1.49-3.63,3.21-7.17,4.58-10.83C350.28,235.57,350.28,235.34,350.54,235.3Z"/><path class="cls-4" d="M159.73,237.7v7.44c0,2.63,0,2.59,2.59,2.59.8,0,1-.3,1-1,0-2.13,0-4.27,0-6.41,0-.61.15-.87.8-.87,1,0,2,0,3.05,0,.72,0,.91.23.91.91,0,1.72,0,3.4,0,5.11,0,2.29,0,2.29,2.29,2.25,1.53,0,1.26-.07,1.26-1.26V230c0-2.14,0-2.14-2.21-2.1-1.3,0-1.37-.23-1.37,1.34v6c0,.61-.23.88-.84.84-1,0-2,0-3,0-.77,0-.88-.3-.88-.95,0-1.6,0-3.2,0-4.81,0-2.47,0-2.47-2.48-2.36-1,0-1,0-1,1.11C159.73,231.87,159.73,234.8,159.73,237.7Z"/><path class="cls-4" d="M310.5,237.74v7.44c0,2.67,0,2.63,2.67,2.51.77,0,.88-.34.88-1,0-1.22,0-2.44,0-3.62a11.13,11.13,0,0,1,.19-3.55,21.89,21.89,0,0,1,3.62-.07H318c.61-.08.72.26.72.8v5.11c0,2.4,0,2.4,2.33,2.36,1.41,0,1.22-.08,1.22-1.33v-16c0-2.52,0-2.52-2.44-2.44-1.07,0-1.11,0-1.11,1.14,0,2,0,4,0,6,0,.69-.11,1.11-.95,1a21.64,21.64,0,0,0-2.79,0c-.76,0-1-.19-1-1,0-1.6,0-3.2,0-4.81,0-2.4,0-2.4-2.36-2.36-1.11,0-1.15,0-1.15,1.14Z"/><path class="cls-4" d="M268.44,237.74c0-3,0-5.91,0-8.88,0-.77-.22-1-1-1-1.26,0-2.51,0-3.77,0h-6.1c-.61,0-.88.23-.84.84a6.46,6.46,0,0,1,0,.88v15.6c0,2.67,0,2.63,2.63,2.51.72,0,.88-.3.88-.95,0-2.17,0-4.39,0-6.56,0-2.67,0-5.34,0-8,0-.68.22-.95.91-.91.88,0,1.76,0,2.63,0,1.18,0,1.18,0,1.18,1.18v12.81c0,2.44,0,2.44,2.48,2.4,1,0,1,0,1-1.06C268.44,243.65,268.44,240.71,268.44,237.74Z"/><path class="cls-4" d="M211.36,235.34a1.21,1.21,0,0,1-.15-.42c0-1.57,0-3.13,0-4.65,0-2.79.5-2.33-2.36-2.37-1.07,0-1.11,0-1.11,1.15V247c0,.46.11.72.65.72.72,0,1.45,0,2.17,0,.5,0,.65-.23.65-.72,0-1.41.08-2.82,0-4.23a3.34,3.34,0,0,1,1.15-2.79,3.12,3.12,0,0,1,.8,1.26c1,1.91,1.94,3.78,2.93,5.68.19.38.35.8.92.76a24.4,24.4,0,0,0,3.39-.11c-.27-.5-.46-.95-.72-1.37-1.6-2.9-3.17-5.8-4.81-8.66a1.65,1.65,0,0,1,0-2c1.41-2.18,2.71-4.39,4-6.56.19-.31.57-.57.31-1.11-.88,0-1.79,0-2.71,0a1.44,1.44,0,0,0-1.49.88C213.88,230.88,212.66,233,211.36,235.34Z"/><path class="cls-4" d="M146.61,237.74c0,3,0,6,0,9,0,.72.23.91.92.91,2.36,0,4.76,0,7.13,0s2.4,0,2.25-2.48c0-.64-.27-.83-.88-.83-1.56,0-3.13,0-4.65,0-1.18,0-1.18,0-1.18-1.23v-2.78c0-1.14,0-1.14,1.1-1.14h2.63c2.6-.08,2.1.49,2.18-2.25,0-.8-.35-1-1-1q-1.89.06-3.78,0c-1.07,0-1.07,0-1.1-1.14v-2.33c0-1.29,0-1.29,1.22-1.29h3.05c2.51,0,2.13.46,2.17-2.29,0-1.07,0-1.11-1.18-1.11h-7.74c-1.11,0-1.15,0-1.15,1.11C146.61,231.91,146.61,234.84,146.61,237.74Z"/><path class="cls-4" d="M297.39,237.82c0,3,0,5.91,0,8.88,0,.76.19,1,1,1,2.32,0,4.65,0,7,0,2.7,0,2.25.58,2.32-2.4,0-.76-.3-.91-.95-.87-1.64,0-3.32,0-5,0-.61,0-.88-.2-.88-.84,0-1.19,0-2.33,0-3.51,0-.61.23-.88.84-.84,1,0,2,0,3,0,2.33,0,2,.42,2-2.14,0-1,0-1-1.07-1.06-1.38,0-2.71,0-4.08,0-.54,0-.8-.19-.8-.77,0-1.06,0-2.13,0-3.2,0-.61.19-.88.84-.84,1.1,0,2.25,0,3.35,0,2.67,0,2.25.5,2.29-2.29,0-1,0-1.06-1-1.06h-7.7c-1.22,0-1.22,0-1.22,1.18Z"/><path class="cls-4" d="M272.14,237.78v8.31c0,1.79-.23,1.56,1.53,1.6,2.13,0,4.27,0,6.4,0,2.75,0,2.25.57,2.33-2.4,0-.72-.23-.91-.91-.91-1.64,0-3.32,0-5,0-.61,0-.88-.19-.84-.84,0-1.18,0-2.32,0-3.5,0-.61.19-.88.84-.88,1,0,1.94,0,2.9,0,2.51-.08,2.09.53,2.17-2.25,0-.69-.19-.95-.92-.92-1.41,0-2.82,0-4.23,0-.57,0-.76-.19-.76-.76,0-1.1,0-2.25,0-3.35,0-.5.19-.69.69-.69,1.18,0,2.32,0,3.5,0,2.67,0,2.25.5,2.25-2.29,0-1,0-1.07-1-1.07h-7.85c-1,0-1.07,0-1.07,1C272.11,231.87,272.14,234.84,272.14,237.78Z"/><path class="cls-4" d="M287.78,239.46v5.83c0,2.4,0,2.4,2.36,2.36,1.3,0,1.3,0,1.3-1.41V233c0-2-.27-1.71,1.79-1.75,2.48,0,2.14.49,2.17-2.25,0-1.11,0-1.15-1.1-1.15h-8c-2.59,0-2.59,0-2.4,2.6v.15c0,.53.26.65.72.65h2.18c1,0,1,0,1,1.07C287.78,234.73,287.78,237.09,287.78,239.46Z"/><path class="cls-4" d="M181.2,247.54a3.7,3.7,0,0,0,.11-1.45v-13c0-2.14-.26-1.83,1.83-1.87,2.56,0,2.14.49,2.18-2.25,0-1.11,0-1.15-1.11-1.15h-8c-2.63,0-2.74.16-2.44,2.75.08.5.27.69.73.65.68,0,1.37,0,2,0,1.18,0,1.18,0,1.18,1.18v12.24C177.73,248,177.73,248,181.2,247.54Z"/><path class="cls-4" d="M231.72,265.12a3.08,3.08,0,0,1-.65-1.14l-1.6-3.89c-.15-.39-.34-.69-.84-.61s-.42.57-.42.91v7.86c0,.34,0,.72.5.72s.46-.38.46-.72v-3.63a4.66,4.66,0,0,1,.11-1.79c.42,0,.46.31.54.5.38.95.76,1.9,1.1,2.82.12.34.31.61.69.61s.57-.31.68-.65c.35-.88.65-1.72,1-2.55.16-.35.16-.84.73-1v5a8.87,8.87,0,0,0,0,1c0,.3.26.38.53.38a.35.35,0,0,0,.38-.34,2.73,2.73,0,0,0,0-.57v-8c0-.27-.08-.5-.34-.54s-.61,0-.77.27l-.34.8C233,262,232.37,263.48,231.72,265.12Z"/><path class="cls-4" d="M158.66,281.06a2.71,2.71,0,0,1,.19,1.52v4.24c0,.3,0,.64.38.68s.5-.34.5-.68v-8c0-.31.11-.73-.38-.8s-.69.26-.8.65c-.54,1.33-1.07,2.7-1.64,4-.16.34-.12.8-.65.91-.69-1.64-1.37-3.28-2-4.95-.15-.39-.31-.73-.8-.65s-.46.53-.46.87v7.86c0,.34-.08.72.42.76s.46-.38.49-.72c0-.76,0-1.57,0-2.33a15.59,15.59,0,0,1,.12-3.28c.53.16.53.57.69.92.38.88.72,1.79,1.06,2.71a.63.63,0,0,0,.65.49.62.62,0,0,0,.65-.46l.57-1.48A7.72,7.72,0,0,1,158.66,281.06Z"/><path class="cls-4" d="M271.34,281c.12,0,.23,0,.35,0,.45,1.11.87,2.25,1.33,3.36.15.38.19.88.76.91s.69-.57.88-1c.34-.8.65-1.64,1-2.44.12-.3.12-.76.65-.87v5.72c0,.3-.08.72.42.8s.49-.35.49-.69v-8.16c0-.27,0-.61-.38-.65a.67.67,0,0,0-.72.38c-.27.57-.5,1.15-.73,1.76-.49,1.22-1,2.44-1.6,3.85a10.83,10.83,0,0,0-.45-1.18c-.58-1.45-1.19-2.86-1.76-4.31a.65.65,0,0,0-.8-.46c-.38.08-.34.42-.34.69v7.55c0,.42-.31,1.18.38,1.18s.46-.8.46-1.26C271.34,284.45,271.34,282.74,271.34,281Z"/><path class="cls-4" d="M296.81,262a2.82,2.82,0,0,1,.31,1.64c0,1.56,0,3.09,0,4.65,0,.31,0,.61.46.61s.49-.23.49-.57v-8.31c0-.27,0-.5-.34-.57a.7.7,0,0,0-.8.19,4.55,4.55,0,0,0-.38.8c-.69,1.56-1.37,3.12-2.06,4.65a2.42,2.42,0,0,1-.8,1.22v-6.06c0-.35.07-.73-.42-.77s-.5.31-.5.69v8.16c0,.31,0,.61.42.65a.65.65,0,0,0,.73-.34c.15-.31.26-.61.42-.92C295.14,265.88,295.94,264.05,296.81,262Z"/><path class="cls-4" d="M200.42,264.36c0-1.38,0-2.71,0-4.08,0-.65-.23-.84-.84-.84-1.11,0-2.25,0-3.36,0-.76,0-1,.23-1,1,0,2.52,0,5,0,7.55a2.21,2.21,0,0,0,.08.72.37.37,0,0,0,.49.19c.12,0,.31-.15.31-.22a6.26,6.26,0,0,0,0-.88v-5.53c0-2.21-.31-2,2-2,1.25,0,1.25,0,1.25,1.29v6.68c0,.26,0,.61.39.65s.53-.27.53-.65C200.42,267,200.42,265.65,200.42,264.36Z"/><path class="cls-4" d="M257.5,282.24a2,2,0,0,1-.19-1.11v-2.32c0-.34.11-.84-.5-.84s-.38.46-.42.76V287a.39.39,0,0,0,.46.42c.31,0,.42-.19.42-.46v-1.76c0-2.32,0-2.32,2.4-2.17.61,0,.88.19.84.84,0,.95,0,1.94,0,2.9,0,.3,0,.61.38.65s.54-.31.54-.69v-8.16c0-.34,0-.72-.54-.69s-.38.38-.38.65v2.9c0,.46-.15.72-.65.72C259.06,282.2,258.22,282.24,257.5,282.24Z"/><path class="cls-4" d="M279.2,282.66v4.23c0,.31.07.57.46.61s.45-.3.45-.61v-1.75c0-2.25-.42-2.06,2.1-2.06,1.14,0,1.18,0,1.18,1.22,0,.91,0,1.83,0,2.75a.41.41,0,0,0,.5.38.46.46,0,0,0,.38-.38,1.68,1.68,0,0,0,0-.42v-7.86a1.4,1.4,0,0,0,0-.42.43.43,0,0,0-.46-.42c-.31,0-.42.19-.42.46,0,.53,0,1.07,0,1.6,0,2.48.46,2.17-2.4,2.21-.72,0-.92-.34-.88-1,0-.88,0-1.75,0-2.63,0-.34,0-.72-.49-.69s-.42.35-.42.65Z"/><path class="cls-4" d="M126.71,282.62V287a.44.44,0,0,0,.53.49c.31,0,.38-.26.38-.53v-1.6c0-2.4.23-2.6,2.63-2.25.5.07.69.26.65.72V287a.46.46,0,0,0,.92,0c0-.23,0-.5,0-.73v-7.13a8.72,8.72,0,0,0,0-.88.38.38,0,0,0-.39-.34.41.41,0,0,0-.49.38c0,.54,0,1.07,0,1.6,0,2.56.42,2.25-2.36,2.29-.69,0-1-.23-1-.91,0-.88,0-1.76,0-2.63,0-.31.08-.73-.42-.73s-.49.38-.49.73C126.71,280,126.74,281.29,126.71,282.62Z"/><path class="cls-4" d="M182.76,284.83c-.11,0-.23,0-.34-.07v-5.49a8.78,8.78,0,0,0,0-1A.33.33,0,0,0,182,278c-.11,0-.3.11-.34.23a2.13,2.13,0,0,0-.08.72v7.59c0,.34-.19.84.34,1s.84-.34,1-.8c.58-1.29,1.15-2.55,1.72-3.85.3-.72.65-1.45,1-2.29a1.34,1.34,0,0,1,.27,1.11v4.65a8.63,8.63,0,0,0,0,.88.38.38,0,0,0,.42.3.38.38,0,0,0,.42-.34,8.87,8.87,0,0,0,0-1c0-2.17,0-4.39,0-6.56,0-.53.5-1.41-.45-1.56s-.84.76-1.11,1.29C184.36,281.13,183.56,283,182.76,284.83Z"/><path class="cls-4" d="M193.17,280.64v5.53a9,9,0,0,0,0,1c0,.23.19.3.42.3a.38.38,0,0,0,.42-.3,9,9,0,0,0,0-1v-7.55c0-.31,0-.61-.42-.61s-.58,0-.73.34l-.34.8q-1.09,2.46-2.17,4.92c-.12.27-.12.69-.65.73v-5.92c0-.34.15-.87-.46-.83s-.38.57-.42.91v8c0,.23,0,.5.34.57a.62.62,0,0,0,.77-.26c.15-.27.26-.54.38-.8.72-1.61,1.41-3.21,2.13-4.77A1,1,0,0,1,193.17,280.64Z"/><path class="cls-4" d="M285,268.78c-.95-1.53-1.83-3-2.78-4.39a1.19,1.19,0,0,1,.07-1.67c.81-1,1.53-2.06,2.29-3.13-.87-.42-1.22,0-1.56.53-.73,1.07-1.49,2.1-2.25,3.13a.89.89,0,0,0-.31-.08v-3c0-.34,0-.72-.42-.76s-.53.3-.53.68v8.16c0,.39.08.69.53.65s.42-.3.42-.61c0-.91,0-1.83,0-2.74a.73.73,0,0,1,.42-.73c.34-.11.54.15.69.42.65,1,1.33,2,1.94,3.05C283.93,268.82,284.27,269.16,285,268.78Z"/><path class="cls-4" d="M321,278.12a1,1,0,0,0-1.41.38,24,24,0,0,1-1.45,2c-.27.35-.38,1-1,.84-.49-.19-.27-.76-.27-1.18s0-.95,0-1.45c0-.3.08-.72-.45-.72s-.46.38-.46.72v8.16c0,.31,0,.61.42.65s.49-.34.49-.69v-2.32a1.3,1.3,0,0,1,.77-1.34c.8,1.26,1.6,2.48,2.36,3.7.31.5.61.88,1.26.54,0-.46-.27-.73-.46-1-.72-1.15-1.41-2.33-2.17-3.43a1.06,1.06,0,0,1,.07-1.53C319.43,280.33,320.15,279.27,321,278.12Z"/><path class="cls-4" d="M207.59,278.12c-.92-.42-1.23.12-1.57.57-.72,1-1.49,2.06-2.25,3.13l-.34-.11v-2.83c0-.34.19-.87-.38-.91-.73,0-.5.57-.5.95,0,1.45,0,2.9,0,4.35v3.62c0,.35.15.57.54.54a.44.44,0,0,0,.38-.5v-2.48a1.32,1.32,0,0,1,.72-1.37c.8,1.26,1.6,2.48,2.37,3.7.3.46.61.91,1.25.57.08-.46-.26-.72-.45-1-.69-1.11-1.38-2.25-2.1-3.32a1.26,1.26,0,0,1,0-1.79A36.53,36.53,0,0,0,207.59,278.12Z"/><path class="cls-4" d="M173.08,282.62c0-1.1,0-2.25,0-3.35,0-.46.38-1.26-.5-1.26-.72,0-.38.76-.42,1.18,0,.76,0,1.56,0,2.33,0,1.18-1,.72-1.52.68s-1.6.61-1.68-.65c-.08-.95,0-1.94,0-2.89,0-.31,0-.61-.42-.65s-.53.34-.53.68v8.16c0,.31,0,.61.38.65s.53-.3.53-.65v-2.47c0-1.22,0-1.22,1.3-1.26h.15c2.1,0,1.76-.19,1.8,1.79V287c0,.3.07.57.49.57s.38-.23.42-.49v-.88C173.08,285,173.08,283.77,173.08,282.62Z"/><path class="cls-4" d="M169.61,259.44h-4c-1,0-1.07,0-1.07,1v7.43a4.47,4.47,0,0,0,0,.73c0,.23.19.3.42.3a.38.38,0,0,0,.42-.3,9,9,0,0,0,0-1v-5.68c0-1.83-.19-1.64,1.6-1.64s1.6-.16,1.64,1.64v6.25c0,.34,0,.72.46.72s.42-.3.42-.61C169.61,265.42,169.61,262.49,169.61,259.44Z"/><path class="cls-4" d="M315.92,268.86a22.8,22.8,0,0,0,3.2.07c.46,0,1.26.38,1.26-.46,0-.68-.76-.34-1.18-.38-.76-.11-1.76.35-2.25-.19s-.12-1.56-.19-2.4v-.15c-.08-.69.26-.84.88-.8a16.9,16.9,0,0,0,2,0c.22,0,.34-.15.34-.38a.39.39,0,0,0-.31-.42c-.19,0-.38,0-.57,0-.76-.08-1.75.38-2.21-.23s-.08-1.6-.15-2.4c0-.57.19-.8.76-.76.73,0,1.45,0,2.17,0,.31,0,.61,0,.58-.46s-.27-.34-.54-.34h-3.2c-.61,0-.73.3-.69.8V266A18.91,18.91,0,0,0,315.92,268.86Z"/><path class="cls-4" d="M272.83,264.09a15.38,15.38,0,0,0,.19,3.16,2.5,2.5,0,0,0,2.33,1.87,2.45,2.45,0,0,0,2.55-1.56c.15-.38.57-1-.08-1.22s-.53.5-.72.84a1.67,1.67,0,0,1-1.72,1.07,1.48,1.48,0,0,1-1.44-1.38,18.71,18.71,0,0,1,0-5.49,1.41,1.41,0,0,1,1.41-1.26A1.55,1.55,0,0,1,277,261a3.75,3.75,0,0,1,.19.53c.07.35.3.54.61.42s.3-.46.26-.72a2.47,2.47,0,0,0-2.32-2.06,2.37,2.37,0,0,0-2.67,1.75A11.14,11.14,0,0,0,272.83,264.09Z"/><path class="cls-4" d="M302.84,264.24a19.71,19.71,0,0,0,.11,2.86,2.61,2.61,0,0,0,4,1.6,2.43,2.43,0,0,0,1.1-1.79c0-.23.12-.49-.22-.61a.48.48,0,0,0-.65.38,3.09,3.09,0,0,1-.31.8,1.67,1.67,0,0,1-2.63.19,2.13,2.13,0,0,1-.5-1.48c0-1.38,0-2.71,0-4.08A2.79,2.79,0,0,1,304,261a1.62,1.62,0,0,1,2.75-.27,3,3,0,0,1,.34.8c.08.31.23.58.57.5.5-.11.35-.5.27-.84a2.47,2.47,0,0,0-2.55-1.94,2.34,2.34,0,0,0-2.44,1.87A29.2,29.2,0,0,0,302.84,264.24Z"/><path class="cls-4" d="M174.83,282.7h0a4.35,4.35,0,0,0,0,.72A7.57,7.57,0,0,0,175,286a2.47,2.47,0,0,0,2.78,1.6,2.45,2.45,0,0,0,2.22-2.14c0-.23.07-.49-.27-.57s-.5,0-.61.27a1.79,1.79,0,0,1-.12.42,1.63,1.63,0,0,1-1.9,1.18,1.66,1.66,0,0,1-1.45-1.76c-.08-.91,0-1.83,0-2.74a13.09,13.09,0,0,1,.08-2.17,1.45,1.45,0,0,1,1.14-1.34,1.64,1.64,0,0,1,1.6.38,2,2,0,0,1,.5.88c.11.34.15.72.65.57s.3-.61.19-1a2.59,2.59,0,0,0-5,.46C174.75,280.94,174.83,281.86,174.83,282.7Z"/><path class="cls-4" d="M195.84,282.74a20.81,20.81,0,0,0,0,2.74,2.39,2.39,0,0,0,2.1,2.14,2.42,2.42,0,0,0,2.78-1.34c.19-.42.61-1,.11-1.29-.68-.39-.64.42-.84.8a1.6,1.6,0,0,1-1.75,1,1.5,1.5,0,0,1-1.45-1.38,21,21,0,0,1,0-5.37,1.64,1.64,0,0,1,2.71-1,2.29,2.29,0,0,1,.57,1c.11.38.27.64.69.49s.22-.46.15-.72a2.38,2.38,0,0,0-2.52-2,2.42,2.42,0,0,0-2.52,2A10.35,10.35,0,0,0,195.84,282.74Z"/><path class="cls-4" d="M215.67,264.24h0c0,.76,0,1.57,0,2.33v.3a2.59,2.59,0,0,0,5,.69c.15-.38.61-.95-.08-1.22s-.53.5-.72.84a1.79,1.79,0,0,1-1.87,1.07,1.55,1.55,0,0,1-1.37-1.49c-.08-1.68-.08-3.39,0-5.07a1.48,1.48,0,0,1,1.33-1.49,1.53,1.53,0,0,1,1.83,1,1.11,1.11,0,0,1,.15.42c.08.3.27.53.61.42s.31-.42.23-.73a2.46,2.46,0,0,0-2.59-2.06,2.4,2.4,0,0,0-2.48,2.22C215.59,262.37,215.67,263.29,215.67,264.24Z"/><path class="cls-4" d="M330.75,282.7a1.62,1.62,0,0,1-.61-1c-.38-1-.76-2.1-1.14-3.13-.15-.42-.34-.76-.84-.57s-.11.57,0,.84c.57,1.6,1.18,3.16,1.76,4.76a2.25,2.25,0,0,1-1.15,3.09c-.23.12-.42.27-.38.54,0,.42.38.38.69.34a2,2,0,0,0,1.64-1.49c.8-2.48,1.56-5,2.32-7.47.08-.23.19-.5-.15-.61a.47.47,0,0,0-.69.3,5.48,5.48,0,0,0-.26.84C331.52,280.3,331.13,281.44,330.75,282.7Z"/><path class="cls-4" d="M360.23,222.53c.15,2.32,1.56,3.62,3.74,3.47a3,3,0,0,0,3-3.44l-.84,0a1.35,1.35,0,0,0-1.53.76,1.14,1.14,0,0,1-2-.08,1.16,1.16,0,0,0-1.3-.65C361,222.56,360.69,222.53,360.23,222.53Z"/><path class="cls-4" d="M215.71,282.77h0V287a.45.45,0,0,0,.42.49c.3,0,.42-.19.45-.45a9,9,0,0,0,0-1v-6.26c0-.68.23-1,.92-.91a10.68,10.68,0,0,0,1.6,0c.34,0,.84.19.88-.42s-.46-.5-.8-.5c-.88,0-1.76,0-2.64,0-.72,0-.91.27-.91,1C215.75,280.18,215.71,281.48,215.71,282.77Z"/><path class="cls-4" d="M294.37,279a15.45,15.45,0,0,1,2.33-.11c.34,0,.88.19.92-.42s-.61-.46-1-.5a22.44,22.44,0,0,0-2.32,0c-1,0-1.07,0-1.07,1.07v8c0,.26.15.45.42.49s.49-.23.53-.53v-5.26A11.44,11.44,0,0,1,294.37,279Z"/><path class="cls-4" d="M245.11,283.16v3.77c0,.34.19.57.53.53s.38-.26.38-.53v-6.25c0-.57-.23-1.22.16-1.68s.91-.12,1.37-.19c.26,0,.49-.12.49-.42s-.23-.5-.57-.5c-1.07,0-2.13,0-3.2,0-.46,0-1.26-.34-1.26.46s.76.38,1.18.38c.65,0,.84.27.84.88C245.11,280.83,245.11,282,245.11,283.16Z"/><path class="cls-4" d="M334.22,282.74c0,1.18,0,2.32,0,3.5,0,.42-.3,1.19.38,1.22.84,0,.5-.76.5-1.22,0-2.17,0-4.34,0-6.55,0-.61.19-.88.84-.84a17,17,0,0,0,1.75,0c.35,0,.88.15.84-.46s-.46-.38-.8-.42c-.91,0-1.83,0-2.74,0-.69,0-.81.3-.81.88C334.22,280.11,334.22,281.44,334.22,282.74Z"/><path class="cls-4" d="M240.11,264.05c0,1.26,0,2.52,0,3.78,0,.38-.23,1,.38,1.06.8,0,.46-.68.5-1.1,0-2,0-4.08,0-6.1,0-1.41,0-1.41,1.45-1.41h1.45c.26,0,.49,0,.53-.35s-.27-.45-.57-.45c-.95,0-1.95,0-2.9,0-.76,0-.88.3-.88.95C240.15,261.61,240.11,262.83,240.11,264.05Z"/><path class="cls-4" d="M135.13,283.19v3.32c0,.34-.15.88.42.92s.46-.5.5-.84a4.45,4.45,0,0,0,0-.73v-5.37a3.38,3.38,0,0,1,.11-1.41c.27-.5.88-.2,1.34-.23.3,0,.61-.08.57-.46s-.34-.42-.65-.42c-1,0-2.06,0-3,0-.46,0-1.26-.38-1.26.46s.77.38,1.18.38c.65,0,.84.27.81.88C135.13,280.87,135.13,282,135.13,283.19Z"/><path class="cls-4" d="M369.19,278h-1c-1.22,0-1.22,0-1.22,1.3,0,2.28,0,4.53,0,6.82,0,.46-.3,1.3.38,1.34.92,0,.46-.88.5-1.38.07-2.09,0-4.15,0-6.25,0-.76.26-1,1-1s1.26,0,1.91,0c.3,0,.61-.08.57-.5s-.23-.38-.5-.38C370.26,277.93,369.72,278,369.19,278Z"/><path class="cls-4" d="M335.18,264.09v4.08c0,.3-.08.72.42.76s.45-.38.45-.68v-8c0-.31.12-.73-.42-.77s-.49.5-.49.84C335.18,261.57,335.18,262.83,335.18,264.09Z"/><path class="cls-4" d="M386,282.62v-4c0-.31,0-.61-.46-.57s-.46.26-.46.57v8.24c0,.38,0,.72.54.64s.38-.38.38-.64Z"/><path class="cls-4" d="M146.54,282.81v-4.23c0-.31,0-.61-.42-.61s-.46.3-.46.57v8.28c0,.3,0,.61.42.61s.46-.31.46-.61Z"/><path class="cls-4" d="M191.53,277.13a1.31,1.31,0,0,0,1.37-1c0-.19.12-.38-.11-.49s-.42-.12-.5.07c-.57,1-1.1,1-1.67,0a.34.34,0,0,0-.5-.08c-.19.12-.15.35-.11.5A1.35,1.35,0,0,0,191.53,277.13Z"/><path class="cls-4" d="M149.89,282.24h-1.3c-.26,0-.49.11-.45.42a.41.41,0,0,0,.45.42H151c.27,0,.42-.19.39-.5s-.19-.3-.39-.34Z"/><path class="cls-4" d="M350.39,282.28h-2c-.19,0-.38.07-.38.3s.11.42.3.42c1.3,0,2.63,0,3.93,0a.37.37,0,0,0,.34-.38.35.35,0,0,0-.38-.34Z"/><path class="cls-4" d="M296.93,257.34a.35.35,0,0,0-.5-.34.9.9,0,0,0-.23.15c-.83.72-.83.72-1.56,0-.15-.15-.27-.27-.49-.23s-.27.11-.27.3c-.08.65.61,1.3,1.41,1.38A1.49,1.49,0,0,0,296.93,257.34Z"/><path class="cls-4" d="M250.33,73.81a2.31,2.31,0,0,1,.38.27c.27.26.57.53.84.8l66,66c1.26,1.25,1.26,1.25,0,2.51l-30,30-36,36c-1.37,1.37-1,1.41-2.4,0q-33.12-33.12-66.2-66.2c-1.26-1.26-1.26-.95,0-2.21q33.18-33.12,66.28-66.24C249.57,74.38,249.84,73.92,250.33,73.81Zm37.29,70.62c-.76-.15-1.41.31-2.13.34-.34,0-.46.31-.46.61v4.35c0,.27.12.46.42.46a1.27,1.27,0,0,0,1.22-1.18,9.58,9.58,0,0,1,.95-4.58c.12-.08.16-.11,0-.11A.18.18,0,0,1,287.62,144.43Zm-24.9,48.35c.31,0,.46-.19.65-.34l16.7-16.7c.69-.69.65-.73-.11-1.49l-28.83-28.83c-.8-.8-.8-.8-1.56,0l-28.83,28.83c-.76.76-.76.8,0,1.57l16.47,16.47c.23.23.42.57.92.46.27-.65.57-1.38.88-2.1a21,21,0,0,1,4.92-7.32c4-3.74,9.07-3.7,13,0a21.67,21.67,0,0,1,5.11,7.89A2.77,2.77,0,0,0,262.72,192.78Zm17.85-83.58c0-.35-.3-.5-.53-.73l-11-11c-6-6-12-11.93-17.93-17.92-.87-.88-.8-.8-1.56,0a6.62,6.62,0,0,1-.53.53L221.08,108c-.19.19-.38.42-.61.61-.45.38-.49.72,0,1.18,1.14,1.07,2.17,2.21,3.31,3.28.69.68,1.26,1.87,2.14,1.87s1.52-1.22,2.25-1.91c1.33-1.26,2.59-2.59,4-4,1.8,1.83,3.51,3.55,5.23,5.27,1,1,.88.72,1.68,0,1.48-1.49,3-2.94,4.42-4.43.8-.8.69-.91,1.56,0,1.53,1.56,3.13,3.08,4.62,4.65.53.53.84.57,1.41,0,1.56-1.6,3.16-3.17,4.73-4.77.53-.57.87-.53,1.37,0,1.52,1.57,3.09,3.09,4.61,4.65.73.73.77.73,1.45,0,.92-.87,1.79-1.79,2.67-2.67s1.76-1.75,2.86-2.82c.46.57.76,1.07,1.18,1.49,1.38,1.41,2.83,2.82,4.24,4.23.3.31.53.57.95.15C276.91,112.93,278.74,111.06,280.57,109.2Zm4.69,61.08c.57-.11.84-.61,1.22-.95l26.08-26.08c1.3-1.3,1.34-1,0-2.33l-28.14-28.14c-.19-.19-.42-.38-.61-.61-.38-.46-.72-.38-1.07,0-.15.19-.34.34-.49.53Q268.16,126.87,254,141c-.19.19-.38.42-.61.61-.46.38-.34.72,0,1.07a4.16,4.16,0,0,1,.42.42l26.69,26.69c.27.27.46.65,1,.65,0-2.48,0-5,0-7.44,0-1.29.38-2.7-.15-3.89s-1.95-1.71-2.86-2.63l-.12-.11a1.18,1.18,0,0,0-1.79-.15,2.91,2.91,0,0,1-.49.26,6.82,6.82,0,0,1-9.73-7.36,6.42,6.42,0,0,1,5-5.45,6.65,6.65,0,0,1,6.95,2.21,7.22,7.22,0,0,1,1.41,6c0,.3-.27.64.07.91.5.34.84.92,1.45,1.07.34-.27.23-.57.27-.88v-7c0-1.1,0-1.14-1.15-1.45a11.5,11.5,0,0,1,4.85-22.46A11.52,11.52,0,0,1,292.89,140a3.79,3.79,0,0,0-.92,1.52,5,5,0,0,1,3.09-.07,6.72,6.72,0,0,1,5.42,6.86,6.81,6.81,0,0,1-10.68,5.49c-1.15-.84-2-1-3.05-.15a2.72,2.72,0,0,1-.54.27c-.87.26-1.1.87-1.1,1.79,0,4.46,0,8.92,0,13.42A1.11,1.11,0,0,0,285.26,170.28Zm-52.39-13.76a1,1,0,0,0,.91-.46L247,142.87c.76-.77.76-.8,0-1.57l-28.75-28.75c-.84-.84-.88-.84-1.68,0l-28.75,28.76c-.8.8-.8.83,0,1.6l13.19,13.19c.23.23.38.57,1,.46V155c0-6.17,0-12.35,0-18.49a2.32,2.32,0,0,1,1.06-2.17q6.87-4.82,13.65-9.73a1.15,1.15,0,0,1,1.64,0c4.54,3.28,9.08,6.52,13.66,9.72a2.38,2.38,0,0,1,1.06,2.18c0,6.17,0,12.35,0,18.49C232.87,155.49,232.87,156,232.87,156.52ZM220,169.67a5.78,5.78,0,0,0,.57-.34l8.24-8.24a2.06,2.06,0,0,0,.57-1.71V138.1a1.87,1.87,0,0,0-.88-1.79c-3.43-2.4-6.82-4.81-10.18-7.29a1.18,1.18,0,0,0-1.75,0q-5,3.66-10.07,7.2a2.18,2.18,0,0,0-1.07,2c0,7.06,0,14.08,0,21.13a2.65,2.65,0,0,0,.84,2.06c2.56,2.52,5.07,5.07,7.63,7.59.23.23.38.57.8.53a3,3,0,0,0,.11-1.41V160c0-1.26,0-1.26,1.15-1.26h3.2c.53,0,.84.19.8.76v1.19C220,163.53,220,166.51,220,169.67Zm30.16,14.42-.84.19a7.7,7.7,0,0,0-4.38,3.16,25.06,25.06,0,0,0-3.82,7.82,1.25,1.25,0,0,0,.42,1.41c2.71,2.71,5.46,5.42,8.13,8.12.53.54.83.58,1.41,0q4-4.11,8.12-8.12a1.47,1.47,0,0,0,.38-1.71,29.2,29.2,0,0,0-2.33-5.5,14.13,14.13,0,0,0-3-3.73A6.66,6.66,0,0,0,250.14,184.09Zm41-50.53a7.9,7.9,0,1,0-15.79-.15,8,8,0,0,0,7.94,8A7.73,7.73,0,0,0,291.17,133.56Zm-40.88-6.21c1.91-1.91,3.63-3.66,5.42-5.42.42-.42.53-.68,0-1.18-1.68-1.64-3.32-3.28-5-5-.31-.3-.57-.45-.95,0-1.8,1.84-3.63,3.63-5.38,5.42a1.21,1.21,0,0,0,.38.72C246.63,123.65,248.42,125.44,250.29,127.35Zm26,23a3.21,3.21,0,0,0-3.17-3.28,3.26,3.26,0,0,0-3.31,3.28,3.2,3.2,0,0,0,3.16,3.28A3.16,3.16,0,0,0,276.3,150.3Zm20.4-2.06a3.07,3.07,0,0,0-3.13-3.28,3.25,3.25,0,1,0,3.13,3.28Z"/><path class="cls-4" d="M240.15,235.53v5.38c0,1.9,0,3.77,0,5.68,0,1.06,0,1.06-1,1.1-2.41.08-2.41.08-2.41-2.32v-16c0-1.6,0-1.49,1.38-1.45,2.55,0,1.94-.42,2.9,1.91,1.18,2.82,2.44,5.6,3.43,8.5a5.07,5.07,0,0,0,.34.65c.5-.3.5-.84.69-1.3,1.22-2.89,2.4-5.83,3.54-8.77a1.39,1.39,0,0,1,1.49-1c2.52,0,2.52,0,2.52,2.41V247c0,.5-.27.61-.73.65-2.74.23-2.74.23-2.74-2.55s.11-5.53.15-8.32a2.5,2.5,0,0,0-.08-1.29c-.38.3-.42.72-.57,1.14-.72,2-1.45,3.93-2.13,5.87a1.08,1.08,0,0,1-1.15.84c-2.63.08-2.63.12-3.54-2.4-.69-1.79-1.3-3.62-1.95-5.45Z"/><path class="cls-4" d="M325.91,237.7V229c0-1.07,0-1.07,1-1.11,2.48-.07,2.48-.07,2.48,2.37v13.42c0,.46.23.73.72.69h3.21c.49,0,.72-.16.72-.65V229.27c0-1.37,0-1.41,1.3-1.41,2.7,0,2.25-.42,2.28,2.33,0,4.23,0,8.47,0,12.66,0,1.26,0,1.3,1.22,1.49.42.07.58.26.58.65v5.37c0,.42-.16.65-.61.65h-.73c-2.1,0-2.1,0-2.13-2.14,0-1.22,0-1.22-1.19-1.22h-7.43c-1.6,0-1.45.08-1.45-1.37Z"/><path class="cls-4" d="M140.74,247.69H132c-1,0-1,0-1-1.07V229.16c0-1.26,0-1.3,1.26-1.26,2.63,0,2.21-.38,2.25,2.21,0,4.16,0,8.35,0,12.51,0,2.06-.16,1.72,1.83,1.76h2c.49,0,.72-.2.72-.69V229.24c0-1.38,0-1.41,1.3-1.38,2.67,0,2.25-.38,2.25,2.18,0,4.38,0,8.73,0,13.11,0,1.07,0,1.11,1.07,1.19.57,0,.76.23.72.8,0,1.71,0,3.39,0,5.11,0,.65-.27.8-.88.84-2.55.11-2.55.15-2.63-2.41A1,1,0,0,0,140.74,247.69Z"/><path class="cls-4" d="M366.29,235.72c-.34.08-.38.42-.46.65-1.33,3.51-3,6.86-4.38,10.29-.31.73-.65,1.11-1.49,1s-1.52,0-2.25,0a2.76,2.76,0,0,1-.19-1.41V228.47c0-.42.19-.64.61-.61h.31c3.05.08,2.44-.45,2.48,2.37,0,3.16,0,6.29-.2,9.49.58-.07.58-.53.73-.87,1.45-3.32,2.94-6.68,4.35-10a1.34,1.34,0,0,1,1.52-1c2.4,0,2.4,0,2.4,2.36v16.17c0,1.37.08,1.29-1.22,1.29-2.13,0-2.13,0-2.13-2.13,0-3.09,0-6.22.15-9.31C366.44,236,366.52,235.83,366.29,235.72Z"/><path class="cls-4" d="M350.54,235.3c-.3,0-.26.27-.34.42-1.37,3.7-3.13,7.21-4.58,10.83a1.51,1.51,0,0,1-1.71,1.1c-2.29,0-2.29,0-2.29-2.28V229.2c0-1.34,0-1.37,1.33-1.37,2.48,0,2.1-.31,2.1,2a87.71,87.71,0,0,1-.26,9.45,1.28,1.28,0,0,0,.07.84c.34-.23.38-.65.54-1,1.48-3.47,3-6.94,4.49-10.41a1.37,1.37,0,0,1,1.42-1c2.51,0,2.51,0,2.51,2.4v16.17c0,1.26.12,1.26-1.26,1.26-2.21,0-2.17,0-2.21-2.25,0-2.79,0-5.53.19-8.28A13.36,13.36,0,0,0,350.54,235.3Z"/><path class="cls-4" d="M159.73,237.7V229c0-1.07,0-1.07,1-1.11,2.48-.07,2.48-.07,2.48,2.37,0,1.6,0,3.2,0,4.8,0,.65.11,1,.87,1,1,0,2,0,3,0,.62,0,.84-.23.84-.84,0-2,0-4,0-6,0-1.52.08-1.33,1.38-1.33,2.21,0,2.21,0,2.21,2.09v16.44c0,1.14.27,1.26-1.26,1.26-2.29,0-2.29,0-2.29-2.25,0-1.72,0-3.4,0-5.11,0-.69-.19-1-.91-.92-1,0-2,0-3,0-.65,0-.8.27-.8.88,0,2.13,0,4.27,0,6.4,0,.73-.11,1-.95,1-2.59,0-2.59.08-2.59-2.59C159.73,242.66,159.73,240.18,159.73,237.7Z"/><path class="cls-4" d="M233.67,237.85c0,1.38,0,2.71,0,4.08-.12,3-1.64,5.15-4.2,5.84a7.33,7.33,0,0,1-4.15,0,5.47,5.47,0,0,1-4-5.45,77.55,77.55,0,0,1,0-8.89c.35-4.69,4.66-7.17,9-5.3,2.37,1,3.25,3.09,3.4,5.49.07,1.45,0,2.86,0,4.27Zm-3.62.08a40.49,40.49,0,0,0-.12-4.8,2.48,2.48,0,0,0-3.74-1.87,2.57,2.57,0,0,0-1.29,2.29c-.16,2.82-.12,5.64,0,8.42a2.79,2.79,0,0,0,.3,1.26,2.22,2.22,0,0,0,1.26,1.15,2.46,2.46,0,0,0,3.47-2A43.65,43.65,0,0,0,230.05,237.93Z"/><path class="cls-4" d="M310.5,237.74V229c0-1.11,0-1.11,1.15-1.15,2.36,0,2.36,0,2.36,2.37,0,1.6,0,3.2,0,4.8,0,.77.27,1,1,1a26,26,0,0,1,2.79,0c.84.08.95-.3.95-1,0-2,0-4,0-6,0-1.11,0-1.11,1.11-1.15,2.44,0,2.44,0,2.44,2.44v16c0,1.26.19,1.33-1.22,1.33-2.33,0-2.33,0-2.33-2.36v-5.11c0-.53-.15-.84-.72-.8h-.16a29.17,29.17,0,0,0-3.62.08,11.11,11.11,0,0,0-.19,3.54c0,1.22,0,2.44,0,3.62,0,.65-.11,1-.88,1-2.67.11-2.67.11-2.67-2.52Z"/><path class="cls-4" d="M268.44,237.74v8.88c0,1,0,1-1,1.07-2.47.08-2.47.08-2.47-2.4V232.48c0-1.18,0-1.18-1.19-1.18-.87,0-1.75,0-2.63,0-.68,0-.91.22-.91.91,0,2.67,0,5.34,0,8,0,2.17,0,4.38,0,6.56,0,.65-.15.91-.88.95-2.63.08-2.63.12-2.63-2.52V229.62a6.46,6.46,0,0,0,0-.88c0-.61.23-.84.84-.84,2,0,4.08,0,6.1,0,1.26,0,2.52,0,3.77,0,.77,0,1,.27,1,1C268.41,231.83,268.44,234.77,268.44,237.74Z"/><path class="cls-4" d="M211.36,235.34c1.3-2.29,2.52-4.43,3.7-6.6a1.42,1.42,0,0,1,1.49-.88c.91,0,1.83,0,2.7,0,.23.54-.11.8-.3,1.11-1.34,2.21-2.67,4.42-4,6.56a1.65,1.65,0,0,0,0,2c1.64,2.86,3.2,5.76,4.8,8.66.23.42.46.84.73,1.37a19.55,19.55,0,0,1-3.4.11c-.57,0-.72-.38-.91-.76-1-1.9-2-3.81-2.94-5.68a3.25,3.25,0,0,0-.8-1.26,3.63,3.63,0,0,0-1.14,2.79c.07,1.41,0,2.82,0,4.23,0,.49-.16.72-.65.72-.73,0-1.45,0-2.18,0-.53,0-.64-.26-.64-.72V229.05c0-1.15,0-1.15,1.1-1.15,2.86,0,2.33-.38,2.37,2.37,0,1.56,0,3.12,0,4.65C211.17,235,211.25,235.07,211.36,235.34Z"/><path class="cls-4" d="M146.61,237.74V229c0-1.11,0-1.11,1.15-1.11h7.74c1.14,0,1.18,0,1.18,1.11,0,2.74.34,2.21-2.17,2.29-1,0-2.06,0-3.06,0-1.22,0-1.22,0-1.22,1.29v2.33c0,1.1,0,1.14,1.11,1.14,1.26,0,2.52,0,3.78,0,.72,0,1.06.15,1,1-.07,2.74.39,2.17-2.17,2.25-.88,0-1.75,0-2.63,0-1.07,0-1.11,0-1.11,1.14v2.78c0,1.22,0,1.22,1.19,1.22,1.56,0,3.12,0,4.65,0,.61,0,.84.19.88.84.15,2.48.15,2.48-2.25,2.48s-4.77,0-7.14,0c-.68,0-.91-.19-.91-.91C146.61,243.77,146.61,240.75,146.61,237.74Z"/><path class="cls-4" d="M187.38,237.7V229c0-1.11,0-1.14,1.14-1.11a39.93,39.93,0,0,1,5.68.16,5.38,5.38,0,0,1,4.84,4.69,9.26,9.26,0,0,1-.23,4.46,5.26,5.26,0,0,1-4.38,3.74,18.36,18.36,0,0,1-2.48.15c-1,0-1.07,0-1.07,1,0,1.56,0,3.09,0,4.65,0,.69-.23.88-.91.91-2.63.08-2.63.12-2.63-2.55C187.38,242.66,187.38,240.18,187.38,237.7Zm4.91,0c2,0,3-.53,3.17-2,.49-3.59-.69-4.69-3.93-4.42-.49,0-.65.26-.65.72v5.07c0,.5.23.69.69.69A4.17,4.17,0,0,1,192.29,237.74Z"/><path class="cls-4" d="M297.39,237.82v-8.74c0-1.18,0-1.18,1.22-1.18h7.7c1,0,1.07,0,1,1.07,0,2.78.38,2.25-2.29,2.29-1.1,0-2.25,0-3.35,0-.65,0-.84.23-.84.84,0,1.06,0,2.13,0,3.2,0,.57.23.76.8.76,1.37,0,2.71,0,4.08,0,1,0,1.07,0,1.07,1.07,0,2.52.34,2.1-2,2.14-1,0-2,0-3,0-.64,0-.87.22-.84.83,0,1.19,0,2.33,0,3.51,0,.65.27.84.88.84,1.64,0,3.32,0,5,0,.65,0,1,.15.95.88-.07,3,.38,2.36-2.32,2.4-2.33,0-4.66,0-7,0-.8,0-1-.27-1-1Z"/><path class="cls-4" d="M272.14,237.78v-8.89c0-1,0-1,1.07-1h7.86c1,0,1,0,1,1.07,0,2.82.38,2.25-2.25,2.29-1.19,0-2.33,0-3.51,0-.5,0-.69.19-.69.69,0,1.1,0,2.25,0,3.35,0,.57.23.76.76.76,1.41,0,2.83,0,4.24,0,.72,0,.91.27.91.92-.07,2.78.38,2.17-2.17,2.25-.95,0-1.95,0-2.9,0-.65,0-.84.27-.84.88,0,1.18,0,2.32,0,3.5,0,.65.23.84.84.84,1.64,0,3.32,0,5,0,.68,0,.95.19.91.91-.07,2.94.42,2.33-2.32,2.4-2.14,0-4.27,0-6.41,0-1.72,0-1.49.19-1.52-1.6C272.11,243.31,272.14,240.56,272.14,237.78Z"/><path class="cls-4" d="M287.78,239.46v-7.13c0-1,0-1-1-1.07h-2.18c-.45,0-.76-.15-.72-.65v-.15c-.19-2.6-.19-2.6,2.4-2.6h8c1.11,0,1.14,0,1.11,1.15,0,2.78.3,2.21-2.18,2.25-2.06,0-1.79-.27-1.79,1.75v13.23c0,1.38,0,1.38-1.3,1.41-2.36,0-2.36,0-2.36-2.36C287.78,243.35,287.78,241.4,287.78,239.46Z"/><path class="cls-4" d="M181.2,247.54c-3.47.5-3.47.5-3.47-2.86V232.44c0-1.18,0-1.18-1.18-1.18h-2c-.45,0-.68-.15-.72-.65-.31-2.59-.19-2.75,2.44-2.75h8c1.1,0,1.14,0,1.1,1.15,0,2.74.39,2.21-2.17,2.25-2.1,0-1.83-.27-1.83,1.87v13A4.65,4.65,0,0,1,181.2,247.54Z"/><path class="cls-4" d="M357.25,282.58v-3.92c0-.35,0-.73.5-.69s.42.34.42.65v2.9c0,.45.11.72.65.72s.87,0,.91-.61a13.71,13.71,0,0,1,.19-1.72,2.65,2.65,0,0,1,5.11-.15,3.12,3.12,0,0,1,.16.84c0,1.45.07,2.9,0,4.39a2.57,2.57,0,0,1-2.71,2.63,2.42,2.42,0,0,1-2.56-1.95,5.26,5.26,0,0,1-.19-1.71c0-.65-.23-.84-.84-.84s-.72.3-.72.8V287c0,.34-.15.57-.53.53s-.39-.26-.39-.53v-4.39Zm7,.19h0a15,15,0,0,0,0-2.32,1.67,1.67,0,0,0-1.83-1.68c-.95,0-1.52.57-1.64,1.68a22.56,22.56,0,0,0,0,4.5c.12,1.18.73,1.75,1.72,1.75a1.67,1.67,0,0,0,1.75-1.75A19.83,19.83,0,0,0,364.27,282.77Z"/><path class="cls-4" d="M231.72,265.12c.69-1.6,1.26-3.09,1.87-4.54l.34-.8a.63.63,0,0,1,.77-.27.43.43,0,0,1,.34.54v8a2.73,2.73,0,0,1,0,.57.37.37,0,0,1-.38.34.42.42,0,0,1-.53-.38,8.87,8.87,0,0,1,0-1v-5c-.57.19-.57.64-.73,1-.34.84-.68,1.71-1,2.55-.11.35-.26.61-.68.65s-.57-.27-.69-.61c-.34-.95-.72-1.91-1.1-2.82-.08-.19-.12-.5-.54-.5a4.73,4.73,0,0,0-.11,1.8c0,1.22,0,2.44,0,3.62,0,.34,0,.72-.46.72s-.5-.34-.5-.72v-7.86c0-.34-.15-.8.42-.91s.69.23.84.61l1.6,3.89A2.92,2.92,0,0,0,231.72,265.12Z"/><path class="cls-4" d="M158.66,281.06a7.41,7.41,0,0,0-1,2.25,10.85,10.85,0,0,0-.57,1.49.62.62,0,0,1-.65.45.66.66,0,0,1-.65-.49c-.34-.92-.68-1.79-1.06-2.71-.16-.34-.16-.76-.69-.92a15.79,15.79,0,0,0-.12,3.28c0,.77,0,1.57,0,2.33,0,.34,0,.72-.49.72s-.42-.45-.42-.76v-7.85c0-.35-.15-.8.46-.88s.65.3.8.65c.68,1.64,1.37,3.28,2,5,.53-.12.49-.61.65-.92.57-1.33,1.1-2.71,1.64-4,.15-.38.3-.73.8-.65s.38.5.38.8v8c0,.34,0,.76-.5.68s-.38-.38-.38-.68v-4.23A2.64,2.64,0,0,0,158.66,281.06Z"/><path class="cls-4" d="M271.34,281c0,1.72,0,3.43,0,5.15,0,.46.39,1.26-.45,1.26s-.38-.76-.38-1.18c0-2.33,0-4.66,0-7v-.57c0-.27,0-.61.34-.69a.67.67,0,0,1,.8.46c.57,1.45,1.18,2.86,1.75,4.31.12.3.23.64.46,1.18.57-1.41,1.07-2.63,1.6-3.85.23-.57.5-1.15.73-1.76a.64.64,0,0,1,.72-.38c.42,0,.38.38.38.65v8.16c0,.34,0,.72-.49.69s-.42-.46-.42-.8v-5.72c-.54.11-.54.53-.65.87-.34.8-.65,1.64-1,2.44-.19.42-.19,1-.88,1s-.61-.53-.76-.91c-.46-1.11-.92-2.25-1.34-3.36A1.33,1.33,0,0,1,271.34,281Z"/><path class="cls-4" d="M296.81,262c-.91,2-1.71,3.81-2.51,5.64-.15.31-.27.61-.42.92a.65.65,0,0,1-.73.34c-.42,0-.42-.34-.42-.65v-8.16c0-.34,0-.72.5-.68s.42.45.42.76v6.06a2.28,2.28,0,0,0,.8-1.22l2.06-4.65a7.24,7.24,0,0,1,.38-.8.68.68,0,0,1,.8-.19c.31.08.35.3.35.57v8.31c0,.35-.12.58-.5.58s-.46-.31-.46-.61v-4.66A1.92,1.92,0,0,0,296.81,262Z"/><path class="cls-4" d="M271,263.9c0,.91,0,1.83,0,2.74,0,.58-.31,1.26.61,1.57.27.07.27,1.83.08,2.06a.63.63,0,0,1-.39.15.38.38,0,0,1-.38-.34c-.07-.38.12-.88-.3-1a3.44,3.44,0,0,0-1.3-.12H267c-.58,0-1,.08-.92.77a1.3,1.3,0,0,1,0,.41.38.38,0,0,1-.42.31c-.19,0-.42-.08-.42-.31.08-.8-.42-1.64.61-2.32.73-.5.77-1.53.84-2.4.12-1.68.19-3.4.23-5.08,0-.72.23-.95.92-.91s1.45,0,2.17,0c1,0,1,0,1,1.11S271,262.79,271,263.9Zm-4,4.16h2.51a.53.53,0,0,0,.61-.61v-6.53c0-.22,0-.53-.26-.61a3,3,0,0,0-1.72,0c-.53.16-.3.77-.34,1.15C267.53,263.63,267.8,265.81,267,268.06Z"/><path class="cls-4" d="M185.7,264.05a2.51,2.51,0,0,1,1.14,2,2.38,2.38,0,0,1-2.48,2.86c-.68,0-1.37,0-2,0s-.65-.23-.65-.68v-8.13c0-.49.19-.68.69-.68s1.14,0,1.75,0a2.42,2.42,0,0,1,2.18,3.51C186.15,263.33,185.93,263.63,185.7,264.05Zm-3.09,2.06v.65c0,1.33,0,1.33,1.37,1.3h.42c.95-.12,1.41-.54,1.49-1.45a1.67,1.67,0,0,0-1.15-1.95,2.56,2.56,0,0,0-2,0C182.34,265,182.68,265.69,182.61,266.11Zm0-4.23v.72c0,1,0,1,1,1a2.73,2.73,0,0,0,.57,0,1.57,1.57,0,0,0,1.33-1.86c-.11-1.11-.8-1.53-2.21-1.49-1.22,0-.57.95-.72,1.49Z"/><path class="cls-4" d="M326.75,263.71v3.51c0,.3-.08.61.34.84a2.32,2.32,0,0,1,.42,2.17.46.46,0,0,1-.34.19c-.19,0-.38,0-.42-.31s.15-.83-.23-1.06-.95-.12-1.41-.12c-.76,0-1.56,0-2.33,0-.61,0-.91.15-.87.8,0,.35,0,.77-.5.69s-.38-.46-.38-.8c0-.69-.15-1.37.69-1.87.49-.27.57-1.07.68-1.72a37.16,37.16,0,0,0,.27-5.37c.07-1.22,0-1.26,1.33-1.22.88,0,2-.35,2.56.15s.15,1.75.23,2.63C326.79,262.75,326.75,263.25,326.75,263.71Zm-3.89,4.23a8.06,8.06,0,0,0,2.1.12c.72.07.91-.23.91-.92,0-2,0-4,0-5.95,0-.8-.3-1-1-.95-1.22,0-1.26,0-1.29,1C323.43,263.48,323.58,265.73,322.86,267.94Z"/><path class="cls-4" d="M200.42,264.36v3.92c0,.39-.08.69-.54.65s-.38-.38-.38-.65v-6.67c0-1.3,0-1.3-1.26-1.3-2.32,0-2-.19-2,2v5.52a6.41,6.41,0,0,1,0,.88.36.36,0,0,1-.3.23.42.42,0,0,1-.5-.19,2.42,2.42,0,0,1-.07-.72c0-2.52,0-5,0-7.55,0-.77.23-1,1-1,1.1,0,2.21,0,3.35,0,.61,0,.88.19.84.84C200.42,261.65,200.42,263,200.42,264.36Z"/><path class="cls-4" d="M298.68,282.7c0-.76,0-1.57,0-2.33a2.55,2.55,0,0,1,2.63-2.55,2.47,2.47,0,0,1,2.75,2.4,21.3,21.3,0,0,1,0,4.92,2.69,2.69,0,0,1-5.38-.15,17.5,17.5,0,0,1,0-2.29Zm4.54.11h-.08v-2c0-.15,0-.3,0-.42-.19-1.07-.73-1.6-1.72-1.6a1.59,1.59,0,0,0-1.75,1.56q-.12,2.46,0,4.92a1.56,1.56,0,0,0,1.75,1.53,1.58,1.58,0,0,0,1.68-1.49C303.18,284.45,303.18,283.61,303.22,282.81Z"/><path class="cls-4" d="M257.5,282.24h2.4c.54,0,.65-.27.65-.72v-2.9c0-.27,0-.61.38-.65s.54.3.54.69v8.16c0,.34,0,.72-.54.68s-.38-.38-.38-.65c0-1,0-1.94,0-2.89,0-.65-.27-.8-.84-.84-2.4-.12-2.4-.15-2.4,2.17v1.76a.41.41,0,0,1-.42.45c-.3,0-.42-.15-.46-.42a6.31,6.31,0,0,1,0-.87v-7.4c0-.31-.11-.76.42-.76s.5.45.5.83v2.33A1.15,1.15,0,0,0,257.5,282.24Z"/><path class="cls-4" d="M286.1,282.7c0-.76,0-1.57,0-2.33a2.54,2.54,0,0,1,2.59-2.55,2.45,2.45,0,0,1,2.75,2.4,28.62,28.62,0,0,1,0,5.07,2.46,2.46,0,0,1-2.79,2.33,2.52,2.52,0,0,1-2.55-2.48c0-.8,0-1.6,0-2.44Zm4.5,0h0a22.69,22.69,0,0,0,0-2.33,1.64,1.64,0,0,0-1.68-1.64,1.6,1.6,0,0,0-1.79,1.68,45.08,45.08,0,0,0,0,4.65,1.74,1.74,0,1,0,3.47,0A22.5,22.5,0,0,0,290.6,282.66Z"/><path class="cls-4" d="M221.08,282.66c0-.76,0-1.56,0-2.33a2.5,2.5,0,0,1,2.64-2.51,2.44,2.44,0,0,1,2.7,2.4,33.67,33.67,0,0,1,0,4.92,2.67,2.67,0,0,1-5.34-.15C221.05,284.22,221.08,283.46,221.08,282.66Zm4.47.27h0c0-.84.07-1.64,0-2.48a1.69,1.69,0,0,0-1.76-1.76,1.61,1.61,0,0,0-1.75,1.72,45.08,45.08,0,0,0,0,4.65,1.74,1.74,0,0,0,3.47,0A14.3,14.3,0,0,0,225.55,282.93Z"/><path class="cls-4" d="M264.36,264.24c0,.73,0,1.45,0,2.18a2.6,2.6,0,0,1-2.63,2.7,2.57,2.57,0,0,1-2.74-2.44,18.71,18.71,0,0,1,0-5.07,2.53,2.53,0,0,1,2.82-2.36,2.58,2.58,0,0,1,2.55,2.48c0,.83,0,1.67,0,2.51Zm-4.46,0h0c0,.77,0,1.57,0,2.33a1.73,1.73,0,0,0,1.64,1.72,1.7,1.7,0,0,0,1.83-1.68,24.16,24.16,0,0,0,0-4.81,1.74,1.74,0,0,0-3.47.12C259.86,262.64,259.9,263.44,259.9,264.2Z"/><path class="cls-4" d="M213.92,282.85c0,.76,0,1.56,0,2.33a2.52,2.52,0,0,1-2.52,2.48,2.47,2.47,0,0,1-2.79-2.33,24,24,0,0,1,0-5.22,2.44,2.44,0,0,1,2.71-2.25,2.48,2.48,0,0,1,2.6,2.4c.07.84,0,1.71,0,2.59Zm-.92-.11c0-.77,0-1.57,0-2.33a1.64,1.64,0,0,0-1.79-1.68,1.61,1.61,0,0,0-1.68,1.64,25.76,25.76,0,0,0,0,4.81,1.57,1.57,0,0,0,1.72,1.6A1.67,1.67,0,0,0,213,285.1C213,284.26,213,283.5,213,282.74Z"/><path class="cls-4" d="M279.2,282.66v-4.08c0-.31,0-.61.42-.65s.49.34.49.69c0,.87,0,1.75,0,2.63,0,.65.16,1,.88,1,2.86,0,2.36.27,2.4-2.21,0-.54,0-1.07,0-1.6,0-.27.11-.46.42-.46a.41.41,0,0,1,.46.42c0,.15,0,.3,0,.42v7.85a1.33,1.33,0,0,1,0,.42.43.43,0,0,1-.38.38.4.4,0,0,1-.5-.38c0-.91,0-1.83,0-2.74,0-1.22,0-1.22-1.18-1.22-2.55,0-2.06-.23-2.1,2.06v1.75c0,.31,0,.61-.45.61s-.46-.27-.46-.61v-4.27Z"/><path class="cls-4" d="M126.74,282.62v-3.93c0-.34,0-.72.5-.72s.42.42.42.72c0,.88,0,1.76,0,2.64,0,.68.27.91,1,.91,2.75,0,2.29.31,2.37-2.29,0-.53,0-1.07,0-1.6,0-.3.19-.42.49-.38a.35.35,0,0,1,.38.34,6.48,6.48,0,0,1,0,.88v7.13a4.47,4.47,0,0,1,0,.73.46.46,0,0,1-.46.45c-.3,0-.41-.19-.45-.45v-3.17c0-.46-.19-.69-.65-.72-2.4-.31-2.63-.16-2.63,2.25V287c0,.26-.08.49-.38.53a.44.44,0,0,1-.54-.49v-2.64A10.87,10.87,0,0,1,126.74,282.62Z"/><path class="cls-4" d="M182.76,284.83c.84-1.86,1.6-3.7,2.48-5.53.23-.49.23-1.44,1.11-1.29s.41,1,.45,1.56c.08,2.17,0,4.39,0,6.56a8.87,8.87,0,0,1,0,1,.44.44,0,0,1-.84,0,8.63,8.63,0,0,1,0-.88v-4.65a1.34,1.34,0,0,0-.27-1.11c-.38.84-.69,1.57-1,2.29-.57,1.3-1.14,2.56-1.72,3.85-.19.46-.38,1-1,.8s-.34-.65-.34-1v-7.59a2.21,2.21,0,0,1,.08-.72c0-.12.19-.19.34-.23s.42,0,.42.27a8.78,8.78,0,0,1,0,1v5.49C182.53,284.8,182.65,284.8,182.76,284.83Z"/><path class="cls-4" d="M193.17,280.64c-.57.27-.61.69-.76,1-.73,1.6-1.41,3.17-2.14,4.77a8.21,8.21,0,0,1-.38.8.6.6,0,0,1-.76.26c-.31-.07-.31-.3-.34-.57v-8c0-.34-.16-.87.42-.91s.45.49.45.84c0,1.48,0,3,0,4.5v1.41c.54,0,.54-.46.65-.73q1.09-2.46,2.17-4.92l.35-.8a.64.64,0,0,1,.72-.34c.42,0,.42.3.42.61v7.55a8.87,8.87,0,0,1,0,1c0,.23-.19.3-.42.3a.39.39,0,0,1-.42-.3c0-.34,0-.69,0-1C193.17,284.34,193.17,282.55,193.17,280.64Z"/><path class="cls-4" d="M285.57,264.2c0-.76,0-1.56,0-2.32a2.59,2.59,0,0,1,2.59-2.63,2.54,2.54,0,0,1,2.82,2.51,35.1,35.1,0,0,1,0,4.81,2.53,2.53,0,0,1-2.78,2.55,2.63,2.63,0,0,1-2.63-2.74c0-.73,0-1.45,0-2.18Zm.91,0h0v2a.78.78,0,0,0,0,.3,1.77,1.77,0,0,0,1.75,1.76,1.69,1.69,0,0,0,1.76-1.76c.07-1.49.07-3,0-4.5a1.67,1.67,0,0,0-1.68-1.83,1.74,1.74,0,0,0-1.87,1.79C286.44,262.68,286.48,263.4,286.48,264.17Z"/><path class="cls-4" d="M285,268.78a1,1,0,0,1-1.45-.5c-.65-1-1.29-2.06-1.94-3-.15-.23-.35-.53-.69-.42a.73.73,0,0,0-.42.73c0,.91,0,1.83,0,2.74,0,.31,0,.61-.42.61s-.53-.3-.53-.64v-8.16c0-.39.08-.73.53-.69s.42.42.42.76v3a1.16,1.16,0,0,0,.31.07c.76-1,1.49-2.09,2.25-3.12.34-.5.69-1,1.56-.54-.76,1.07-1.48,2.14-2.29,3.13a1.25,1.25,0,0,0-.07,1.68C283.2,265.84,284.08,267.25,285,268.78Z"/><path class="cls-4" d="M193.51,264.17c0,.76,0,1.56,0,2.32a2.6,2.6,0,0,1-2.55,2.63,2.52,2.52,0,0,1-2.78-2.51,32.18,32.18,0,0,1,0-4.81,2.69,2.69,0,0,1,5.37.19c0,.73,0,1.45,0,2.18Zm-4.46,0h0c0,.76-.07,1.56,0,2.32a1.77,1.77,0,0,0,1.76,1.8,1.68,1.68,0,0,0,1.75-1.76,45.08,45.08,0,0,0,0-4.65,1.62,1.62,0,0,0-1.68-1.68,1.65,1.65,0,0,0-1.83,1.64C189,262.6,189.05,263.37,189.05,264.13Z"/><path class="cls-4" d="M241.52,282.55a2.72,2.72,0,0,1,1.22,2.78,2.26,2.26,0,0,1-1.79,2.06,10.44,10.44,0,0,1-2.9.11c-.45,0-.53-.34-.53-.68v-2.18c0-1.9,0-3.77,0-5.68,0-.76.27-1.07,1-1a11.6,11.6,0,0,0,1.18,0c2.36.11,3.39,2,2.21,4.08A3.23,3.23,0,0,0,241.52,282.55Zm-3.09,2.25v.57c0,1.29,0,1.29,1.26,1.26a3.28,3.28,0,0,0,.88-.08,1.62,1.62,0,0,0,1.26-1.95c-.15-1.14-1.15-1.71-2.63-1.63-1.19.07-.58.95-.73,1.52A.5.5,0,0,0,238.43,284.8Zm0-4.24c0,1.72.19,1.87,1.61,1.64,1.06-.19,1.48-.84,1.37-2s-.73-1.41-2.14-1.33c-.8,0-.8,0-.8,1.56C238.43,280.45,238.43,280.49,238.43,280.56Z"/><path class="cls-4" d="M249.11,282.62c0-.72,0-1.45,0-2.17a2.55,2.55,0,0,1,2.56-2.63,2.45,2.45,0,0,1,2.82,2.32,18.7,18.7,0,0,1,0,5.23,2.69,2.69,0,0,1-5.34-.23c-.08-.84,0-1.68,0-2.52Zm4.58.19v-2a1.46,1.46,0,0,0-.12-.57c-.23-1-.76-1.49-1.68-1.49a1.62,1.62,0,0,0-1.79,1.53,37.17,37.17,0,0,0,0,4.95,1.63,1.63,0,0,0,1.79,1.57c.92,0,1.45-.46,1.72-1.49A13.83,13.83,0,0,0,253.69,282.81Z"/><path class="cls-4" d="M321,278.12c-.84,1.15-1.56,2.21-2.36,3.24a1.13,1.13,0,0,0-.08,1.53c.76,1.1,1.49,2.29,2.17,3.43.19.31.54.61.46,1-.65.34-.95,0-1.26-.53-.76-1.22-1.56-2.44-2.36-3.7a1.25,1.25,0,0,0-.76,1.33v2.33c0,.34,0,.72-.5.68s-.42-.34-.42-.64v-8.16c0-.35-.08-.73.46-.73s.42.42.46.73c0,.49,0,.95,0,1.45s-.23,1,.26,1.18.73-.5,1-.84c.54-.65,1-1.34,1.45-2A1.1,1.1,0,0,1,321,278.12Z"/><path class="cls-4" d="M207.59,278.12c-.81,1.11-1.49,2.18-2.29,3.13a1.26,1.26,0,0,0,0,1.79c.76,1.07,1.41,2.17,2.1,3.32.19.3.53.57.45,1-.64.34-.95-.12-1.25-.57-.77-1.22-1.57-2.44-2.37-3.7a1.32,1.32,0,0,0-.72,1.37V287c0,.27-.08.49-.38.49s-.54-.19-.54-.53v-8c0-.38-.23-1,.5-.95s.38.57.38.91c0,1,0,1.87,0,2.82l.34.12c.76-1,1.49-2.06,2.25-3.13C206.36,278.24,206.67,277.7,207.59,278.12Z"/><path class="cls-4" d="M250.9,264.28c0,.72,0,1.45,0,2.17a2.61,2.61,0,0,1-2.55,2.67,2.54,2.54,0,0,1-2.82-2.36,18.33,18.33,0,0,1,0-5.23,2.69,2.69,0,0,1,5.34.27,18.74,18.74,0,0,1,0,2.48Zm-.91-.08c0-.72,0-1.45,0-2.17a1.77,1.77,0,0,0-1.64-1.87c-1.07-.07-1.72.5-1.91,1.72a17,17,0,0,0,0,4.61c.15,1.18.8,1.76,1.76,1.76a1.82,1.82,0,0,0,1.79-1.91C250,265.65,250,264.93,250,264.2Z"/><path class="cls-4" d="M173.08,282.62V287a.44.44,0,0,1-.42.49c-.39,0-.5-.26-.5-.57v-2.06c0-1.94.31-1.75-1.79-1.79h-.15c-1.3,0-1.3,0-1.3,1.26v2.48c0,.38-.08.72-.53.64s-.39-.38-.39-.64v-8.16c0-.35,0-.73.54-.69.38,0,.42.34.42.65,0,.95,0,1.94,0,2.9.07,1.25,1.1.61,1.67.64s1.49.5,1.53-.68c0-.76,0-1.57,0-2.33,0-.42-.31-1.18.42-1.18s.45.8.49,1.26C173.11,280.37,173.08,281.48,173.08,282.62Z"/><path class="cls-4" d="M169.61,259.44v8.84c0,.31,0,.61-.42.61s-.46-.38-.46-.72v-6.25c0-1.8.23-1.64-1.64-1.64s-1.6-.19-1.6,1.64v5.68a9,9,0,0,1,0,1,.38.38,0,0,1-.42.3c-.23,0-.38-.07-.42-.3a4.47,4.47,0,0,1,0-.73v-7.43c0-1,0-1,1.07-1Z"/><path class="cls-4" d="M263.22,282.66a11.77,11.77,0,0,1,0-2.59,2.71,2.71,0,0,1,5.38.38,40.08,40.08,0,0,1,0,4.65,2.7,2.7,0,0,1-5.38.19A19.34,19.34,0,0,1,263.22,282.66Zm4.54.19h0v-2.17a.83.83,0,0,0,0-.31c-.19-1.07-.72-1.64-1.68-1.68a1.62,1.62,0,0,0-1.87,1.57,19.43,19.43,0,0,0,0,4.76,1.66,1.66,0,0,0,1.94,1.68c.95-.07,1.56-.68,1.64-1.87A16,16,0,0,0,267.76,282.85Z"/><path class="cls-4" d="M314.16,282.74c0,.76,0,1.56,0,2.32a2.53,2.53,0,0,1-2.47,2.56,2.46,2.46,0,0,1-2.86-2.25,17.7,17.7,0,0,1,0-5.34,2.43,2.43,0,0,1,2.74-2.21,2.51,2.51,0,0,1,2.56,2.44,18.74,18.74,0,0,1,0,2.48Zm-.91,0h0v-2a.78.78,0,0,0,0-.3,1.75,1.75,0,0,0-1.79-1.76,1.61,1.61,0,0,0-1.75,1.57,19.77,19.77,0,0,0,0,4.8,1.66,1.66,0,0,0,1.83,1.68,1.7,1.7,0,0,0,1.71-1.79A10,10,0,0,0,313.25,282.77Z"/><path class="cls-4" d="M166.75,287c0,.19,0,.38-.23.45a.55.55,0,0,1-.65-.22,3.55,3.55,0,0,1-.19-.69c-.23-.42,0-1.11-.61-1.22a5.9,5.9,0,0,0-2.44,0c-.31.07-.31.45-.38.72s-.16.57-.23.84a.56.56,0,0,1-.73.5c-.42-.12-.23-.46-.19-.73l1.26-4.92c.27-1.06.57-2.17.84-3.24.08-.34.23-.65.65-.65s.57.31.68.65c.73,2.71,1.41,5.42,2.14,8.16C166.71,286.82,166.71,286.93,166.75,287Zm-1.64-2.71c-.42-1.6-.77-3-1.15-4.46-.07,0-.15,0-.23,0-.34,1.45-.68,2.89-1.06,4.38A5.27,5.27,0,0,0,165.11,284.3Z"/><path class="cls-4" d="M341.05,285.29c-1.34,0-1.34,0-1.72,1.34a3,3,0,0,1-.15.57.52.52,0,0,1-.61.3c-.31,0-.34-.3-.27-.53.19-.69.38-1.41.54-2.1.53-2,1-4,1.56-6,.08-.35.11-.8.65-.84s.68.42.8.84c.69,2.55,1.37,5.14,2,7.74a1.49,1.49,0,0,1,.08.42c0,.26,0,.49-.31.53a.46.46,0,0,1-.57-.3,3.4,3.4,0,0,1-.23-.84c-.08-.84-.53-1.22-1.37-1.07A1.4,1.4,0,0,0,341.05,285.29Zm-1.07-1a5.36,5.36,0,0,0,2.33-.08,39.78,39.78,0,0,0-1.19-4.65A47.67,47.67,0,0,0,340,284.34Z"/><path class="cls-4" d="M236.34,287.08c0,.19,0,.35-.19.38s-.54.08-.65-.19a3.82,3.82,0,0,1-.35-1.1c-.11-.73-.49-1-1.22-.92a4.33,4.33,0,0,1-.72,0c-1.18,0-1.18,0-1.49,1.11a3,3,0,0,1-.19.69.52.52,0,0,1-.68.38c-.42-.12-.31-.42-.23-.69.45-1.75.87-3.47,1.33-5.22.23-1,.5-1.87.76-2.83.12-.38.12-.76.65-.8s.61.38.73.73c.72,2.67,1.41,5.34,2.13,8A1.25,1.25,0,0,1,236.34,287.08Zm-4.12-2.63a8.2,8.2,0,0,0,2.44-.19c-.34-1.45-.73-2.9-1.11-4.5a2.06,2.06,0,0,0-.3.54C232.91,281.59,232.6,282.89,232.22,284.45Z"/><path class="cls-4" d="M208.65,264.13c0-.73,0-1.45,0-2.18a2.66,2.66,0,0,1,2.67-2.7,2.56,2.56,0,0,1,2.79,2.55,35.1,35.1,0,0,1,0,4.81,2.56,2.56,0,0,1-2.71,2.51,2.64,2.64,0,0,1-2.71-2.67A16.23,16.23,0,0,1,208.65,264.13Zm.92,0h0a16.47,16.47,0,0,0,0,2.44,1.79,1.79,0,0,0,1.83,1.72,1.71,1.71,0,0,0,1.71-1.64,21.74,21.74,0,0,0,0-4.77,1.65,1.65,0,0,0-1.79-1.68,1.7,1.7,0,0,0-1.75,1.76A13.11,13.11,0,0,0,209.57,264.09Z"/><path class="cls-4" d="M176.85,264.09c0,.76,0,1.56,0,2.33a2.66,2.66,0,0,1-2.67,2.7,2.58,2.58,0,0,1-2.74-2.48,21.22,21.22,0,0,1,0-4.91,2.56,2.56,0,0,1,2.86-2.48,2.63,2.63,0,0,1,2.55,2.67C176.89,262.64,176.85,263.37,176.85,264.09Zm-.91.15h0c0-.72,0-1.45,0-2.17a1.78,1.78,0,0,0-1.76-1.91,1.67,1.67,0,0,0-1.79,1.68,17,17,0,0,0,0,4.61,1.8,1.8,0,0,0,1.91,1.8,1.88,1.88,0,0,0,1.71-2C176,265.58,175.94,264.89,175.94,264.24Z"/><path class="cls-4" d="M119.35,287.5c.57,0,.42-.57.53-.87.65-2.41,1.26-4.77,1.87-7.17.08-.35.19-.65.27-1a.61.61,0,0,1,.61-.54.56.56,0,0,1,.64.46,3.23,3.23,0,0,0,.2.57c.64,2.48,1.29,5,1.94,7.48,0,.19.11.38.15.57s0,.42-.23.45a.46.46,0,0,1-.61-.22,5.48,5.48,0,0,1-.26-.84c-.12-.42-.08-1-.58-1.07a5.74,5.74,0,0,0-2.44,0c-.3.07-.3.57-.42.87-.45,1.22-.45,1.22-1.67,1.26Zm2.09-3.2a4.3,4.3,0,0,0,2.41,0c-.38-1.49-.73-2.9-1.19-4.65a6.36,6.36,0,0,0-.3.88C122.05,281.71,121.75,283,121.44,284.3Z"/><path class="cls-4" d="M202.44,264.09c0-1.3,0-2.59,0-3.93,0-.57.23-.76.76-.72.69,0,1.37,0,2,0a2.22,2.22,0,0,1,2.1,1.71c.76,2.37-.42,4.08-2.86,4.2-1.07,0-1.07,0-1.11,1.1v1.6c0,.38.12.84-.49.8s-.38-.45-.38-.76C202.44,266.8,202.44,265.46,202.44,264.09Zm2-3.78c-1.07,0-1.07,0-1.11,1.15v2.48c0,.23,0,.53.35.53A2.77,2.77,0,0,0,206,264a2.83,2.83,0,0,0,.34-2.74A1.78,1.78,0,0,0,204.46,260.31Z"/><path class="cls-4" d="M119.35,287.5h0a1,1,0,0,1-1.22-.72,19.51,19.51,0,0,0-1.53-3.13c-.46,1-.84,1.83-1.22,2.71-.15.3-.27.65-.42.91a.55.55,0,0,1-.76.19c-.31-.15-.12-.41,0-.64a14.2,14.2,0,0,1,.8-1.72,4.06,4.06,0,0,0,0-5,7.7,7.7,0,0,1-.61-1.3c-.11-.27-.38-.57,0-.76a.61.61,0,0,1,.84.34c.19.38.38.8.53,1.18.31.61.58,1.22.92,1.91a14.1,14.1,0,0,0,1.37-2.75c.23-.49.46-1,1.26-.61a6.81,6.81,0,0,1-1,2.22,3.77,3.77,0,0,0,0,4.53A7.5,7.5,0,0,1,119.35,287.5Z"/><path class="cls-4" d="M221.24,268.78c.76-2.9,1.52-5.8,2.25-8.69.07-.39.23-.61.64-.65a.65.65,0,0,1,.69.61c.73,2.74,1.45,5.53,2.17,8.27,0,.23.12.54-.19.57s-.61,0-.68-.34c0-.08,0-.19-.08-.27-.23-.45,0-1.22-.57-1.41a5.28,5.28,0,0,0-2.44-.07c-.31,0-.38.26-.42.49a9,9,0,0,1-.31,1.11C222.11,269,221.77,269.05,221.24,268.78Zm3-7.78a42.35,42.35,0,0,0-1.22,4.84,5.19,5.19,0,0,0,2.29,0,2.41,2.41,0,0,0,0-.54C224.94,263.94,224.59,262.64,224.21,261Z"/><path class="cls-4" d="M378.76,282.74v-4.08c0-.35,0-.73.46-.73s.46.42.46.76c0,.84,0,1.64,0,2.48,0,.57.23.8.76.77h.72a2.5,2.5,0,0,1,2.63,2.51,2.65,2.65,0,0,1-2.32,3c-2.48.42-2.71.23-2.71-2.25Zm.95,1.9h0v1.45c0,.27.08.5.42.5a3.15,3.15,0,0,0,2.1-.38,2.09,2.09,0,0,0,.54-2.37,2.11,2.11,0,0,0-2.6-1c-.84.31-.26,1.11-.42,1.64A.14.14,0,0,0,379.71,284.64Z"/><path class="cls-4" d="M328.92,264.09v-3.78c0-.38-.11-.83.5-.83s.42.41.42.76v2.32c0,.54.11.84.72.81a4.45,4.45,0,0,1,.73,0,2.6,2.6,0,0,1,2.67,2.82,2.64,2.64,0,0,1-2.75,2.74c-2.29.15-2.29.15-2.29-2.09Zm.92,2.06v.42c0,1.52.26,1.75,1.75,1.45a1.72,1.72,0,0,0,1.34-1.18,2,2,0,0,0-.39-2,2.19,2.19,0,0,0-2.32-.45c-.65.15-.27.91-.38,1.37A1.47,1.47,0,0,0,329.84,266.15Z"/><path class="cls-4" d="M315.92,268.86a15.24,15.24,0,0,1-.08-2.94v-5.68c0-.5.08-.84.69-.8,1.07,0,2.13,0,3.2,0,.27,0,.5,0,.54.34s-.27.46-.58.46c-.72,0-1.44,0-2.17,0-.57,0-.8.19-.76.76.07.8-.31,1.79.15,2.4s1.45.12,2.21.23c.19,0,.38,0,.57,0s.31.19.31.42a.35.35,0,0,1-.34.38c-.69,0-1.38,0-2,0s-1,.11-.88.8v.15c.07.8-.35,1.79.19,2.4s1.49.08,2.25.2c.42.07,1.18-.31,1.18.38s-.8.45-1.26.45A12.72,12.72,0,0,1,315.92,268.86Z"/><path class="cls-4" d="M309.55,264.13V260.2c0-.53.19-.8.76-.76s1.38,0,2,0a2.33,2.33,0,0,1,2.22,2,3.89,3.89,0,0,1-.12,2.29,2.44,2.44,0,0,1-2.63,1.64c-1.56,0-1.3.26-1.3,1.37v1.6c0,.34-.07.57-.49.57s-.46-.26-.46-.61Zm.92-1.72h0v1.45c0,.5.26.65.72.69,1.87.15,2.71-.73,2.48-2.6-.15-1.25-.76-1.67-2.25-1.6-.92,0-.92,0-.92,1.64A1.84,1.84,0,0,0,310.47,262.41Z"/><path class="cls-4" d="M322.4,282.74c0-1.26,0-2.52,0-3.78,0-.72.15-1.1,1-1,.42,0,.88,0,1.3,0a2.43,2.43,0,0,1,2.56,1.53,3.65,3.65,0,0,1-.39,3.58,2.41,2.41,0,0,1-2.05.84c-1.38,0-1.38.08-1.42,1.49V287c0,.27-.11.49-.38.49s-.53-.19-.53-.53v-3.05A10.86,10.86,0,0,1,322.4,282.74Zm.92-2h0v1.6a.63.63,0,0,0,.3.62,2.05,2.05,0,0,0,2.86-1.49,4.72,4.72,0,0,0,0-1.3c-.23-1.07-1.14-1.52-2.51-1.3-1,.16-.46,1-.61,1.49C323.28,280.45,323.32,280.6,323.32,280.75Z"/><path class="cls-4" d="M372.55,282.66V279c0-1.07,0-1.07,1.14-1.11h1.14a2.42,2.42,0,0,1,2.52,1.6,3.47,3.47,0,0,1-.57,3.66,2.9,2.9,0,0,1-2.14.69c-1.18,0-1.18.08-1.22,1.22v1.75c0,.31,0,.61-.42.61s-.45-.26-.45-.61v-4.19Zm2-3.81c-1.15,0-1.15,0-1.15,1.14v2.33c0,.23,0,.49.27.61a2.72,2.72,0,0,0,2.67-.61,3,3,0,0,0,.08-2.67A1.82,1.82,0,0,0,374.57,278.85Z"/><path class="cls-4" d="M254.75,259.44c.16,0,.58,0,1,.07a2,2,0,0,1,.91.38,3.46,3.46,0,0,1,.95,3.59,2.48,2.48,0,0,1-2.28,1.91c-.54.07-1.3-.27-1.6.26a3.62,3.62,0,0,0-.12,1.72v1.14c0,.31-.15.42-.46.42s-.42-.15-.45-.46v-7.81c0-1.18,0-1.18,1.18-1.22Zm-1.18,2.93h0v1.45c0,.5.19.65.69.69,2,.19,3-1,2.44-3-.27-1-1.11-1.38-2.48-1.19-1.07.16-.49,1-.65,1.49A2.71,2.71,0,0,0,253.57,262.37Z"/><path class="cls-4" d="M272.83,264.09a11.93,11.93,0,0,1,.19-3,2.39,2.39,0,0,1,2.67-1.76,2.46,2.46,0,0,1,2.33,2.06c0,.27.15.61-.27.73a.46.46,0,0,1-.61-.42,2.54,2.54,0,0,0-.19-.53,1.49,1.49,0,0,0-1.64-.92,1.48,1.48,0,0,0-1.41,1.26,17.43,17.43,0,0,0,0,5.49,1.47,1.47,0,0,0,1.45,1.37,1.61,1.61,0,0,0,1.71-1.07c.19-.34.12-1.06.73-.83s.23.83.07,1.22a2.46,2.46,0,0,1-2.55,1.56,2.53,2.53,0,0,1-2.33-1.87A13.65,13.65,0,0,1,272.83,264.09Z"/><path class="cls-4" d="M139.29,282.74v-4.05c0-.34,0-.72.5-.72s.42.42.45.72c0,.77,0,1.57,0,2.33s.27,1,1,.92h.42a2.54,2.54,0,0,1,2.74,2.7,2.66,2.66,0,0,1-2.63,2.86c-2.44.23-2.44.23-2.44-2.13v-2.63Zm.92,1.83h0V286c0,.3.11.57.45.61a3.47,3.47,0,0,0,1.83-.23,2.07,2.07,0,0,0,.77-2.44,2,2,0,0,0-2.56-1.07c-1,.23-.34,1-.53,1.56C140.21,284.45,140.21,284.49,140.21,284.57Z"/><path class="cls-4" d="M302.84,264.24a17.4,17.4,0,0,1,.15-3.09,2.36,2.36,0,0,1,2.44-1.87,2.53,2.53,0,0,1,2.56,2c.07.3.23.72-.27.84-.34.07-.5-.15-.57-.5a3.32,3.32,0,0,0-.34-.8,1.6,1.6,0,0,0-2.75.27,2.89,2.89,0,0,0-.23,1.1c0,1.38,0,2.71,0,4.08a2.14,2.14,0,0,0,.5,1.49,1.67,1.67,0,0,0,2.63-.19,2.75,2.75,0,0,0,.3-.8c.12-.34.31-.5.65-.38s.27.38.23.61a2.44,2.44,0,0,1-1.11,1.79,2.63,2.63,0,0,1-4-1.6A13.29,13.29,0,0,1,302.84,264.24Z"/><path class="cls-4" d="M174.83,282.7c0-.88-.08-1.76,0-2.63a2.35,2.35,0,0,1,2.25-2.25,2.43,2.43,0,0,1,2.78,1.79c.12.34.38.76-.19.95s-.53-.26-.65-.57a1.73,1.73,0,0,0-.49-.88,1.64,1.64,0,0,0-1.6-.38,1.46,1.46,0,0,0-1.15,1.34,14.31,14.31,0,0,0-.07,2.17c0,.92,0,1.83,0,2.75a1.67,1.67,0,0,0,1.45,1.75,1.64,1.64,0,0,0,1.91-1.18,1.13,1.13,0,0,0,.11-.42.5.5,0,0,1,.61-.27c.35.08.31.34.27.57a2.61,2.61,0,0,1-5,.54,7.33,7.33,0,0,1-.23-2.6,1.26,1.26,0,0,1,0-.68Z"/><path class="cls-4" d="M195.84,282.74a12.23,12.23,0,0,1,0-2.9,2.59,2.59,0,0,1,5,0c.08.27.23.61-.15.72s-.61-.11-.69-.49a1.73,1.73,0,0,0-.57-1,1.64,1.64,0,0,0-2.71.95,23,23,0,0,0,0,5.38,1.48,1.48,0,0,0,1.44,1.37,1.62,1.62,0,0,0,1.76-1c.19-.38.15-1.18.84-.8.49.3.07.87-.12,1.29a2.41,2.41,0,0,1-2.78,1.34,2.36,2.36,0,0,1-2.1-2.14C195.76,284.57,195.84,283.65,195.84,282.74Z"/><path class="cls-4" d="M215.67,264.24a20.78,20.78,0,0,1,0-2.74,2.4,2.4,0,0,1,2.48-2.22,2.47,2.47,0,0,1,2.59,2.06c.08.31.15.61-.23.73s-.53-.12-.61-.42a2.35,2.35,0,0,0-.15-.42,1.64,1.64,0,0,0-3.17.46c-.07,1.68-.07,3.39,0,5.07a1.57,1.57,0,0,0,1.38,1.49,1.73,1.73,0,0,0,1.86-1.07c.19-.34.08-1.07.73-.84s.23.8.07,1.22a2.48,2.48,0,0,1-2.66,1.56,2.52,2.52,0,0,1-2.29-2.25v-.3a15.19,15.19,0,0,1,0-2.33Z"/><path class="cls-4" d="M330.75,282.7c.38-1.26.77-2.4,1.11-3.55a5.46,5.46,0,0,1,.27-.84.46.46,0,0,1,.68-.3c.31.11.23.38.15.61-.76,2.48-1.52,5-2.32,7.47a1.93,1.93,0,0,1-1.64,1.49c-.27,0-.61.08-.69-.34,0-.27.12-.39.38-.54a2.19,2.19,0,0,0,1.15-3.09c-.57-1.6-1.18-3.16-1.76-4.76-.07-.27-.49-.65,0-.84s.69.15.84.57c.38,1.07.76,2.1,1.14,3.13C330.26,282,330.29,282.39,330.75,282.7Z"/><path class="cls-4" d="M360.23,222.53h1.1a1.14,1.14,0,0,1,1.3.64,1.13,1.13,0,0,0,2,.08,1.36,1.36,0,0,1,1.53-.76,5.84,5.84,0,0,0,.84,0,3,3,0,0,1-3,3.43C361.83,226.15,360.38,224.89,360.23,222.53Z"/><path class="cls-4" d="M215.71,282.77c0-1.29,0-2.63,0-3.92,0-.69.19-1,.91-1,.88,0,1.76,0,2.63,0,.35,0,.88-.15.8.5s-.57.38-.87.42a10.68,10.68,0,0,1-1.6,0c-.73,0-1,.27-.92.91,0,2.1,0,4.16,0,6.26a9,9,0,0,1,0,1,.42.42,0,0,1-.46.45.45.45,0,0,1-.41-.49c0-1.37,0-2.78,0-4.2Z"/><path class="cls-4" d="M294.37,279a11.55,11.55,0,0,0-.15,2.75c0,1.45,0,2.89,0,4.38V287c0,.3-.15.57-.53.53a.44.44,0,0,1-.42-.49v-8c0-1,0-1,1.07-1.07.76,0,1.56,0,2.32,0,.38,0,1-.27,1,.5,0,.61-.58.38-.92.42A11.68,11.68,0,0,0,294.37,279Z"/><path class="cls-4" d="M245.11,283.16c0-1.15,0-2.33,0-3.47,0-.61-.16-.88-.84-.88-.42,0-1.18.3-1.18-.38,0-.84.8-.46,1.25-.46,1.07,0,2.14,0,3.21,0,.3,0,.57.11.57.5s-.23.38-.5.41c-.45.08-1.06-.22-1.37.2s-.15,1.1-.15,1.67c0,1.8,0,3.59,0,5.38V287c0,.26-.08.49-.38.53s-.54-.19-.54-.53V284A3.29,3.29,0,0,1,245.11,283.16Z"/><path class="cls-4" d="M334.22,282.74v-3.93c0-.57.12-.92.8-.88.92,0,1.83,0,2.75,0,.3,0,.76-.07.8.42s-.5.46-.84.46a12.78,12.78,0,0,1-1.75,0c-.65,0-.84.23-.84.84,0,2.17,0,4.34,0,6.56,0,.45.34,1.25-.5,1.22-.68,0-.34-.77-.38-1.22C334.18,285.06,334.22,283.92,334.22,282.74Z"/><path class="cls-4" d="M240.11,264.05c0-1.22,0-2.44,0-3.62,0-.65.12-1,.88-.95.95,0,1.94,0,2.9,0,.3,0,.61,0,.57.45s-.27.35-.53.35h-1.45c-1.45,0-1.45,0-1.45,1.41v6.1c0,.38.34,1.14-.5,1.1-.65,0-.38-.68-.38-1.06C240.11,266.57,240.11,265.31,240.11,264.05Z"/><path class="cls-4" d="M135.13,283.19c0-1.18,0-2.32,0-3.5,0-.61-.15-.88-.8-.88-.42,0-1.18.34-1.18-.38s.8-.46,1.26-.46a25.86,25.86,0,0,1,3.05,0c.3,0,.61,0,.65.42s-.27.42-.57.46c-.46.07-1.07-.23-1.34.23a3.44,3.44,0,0,0-.11,1.41v6.1c0,.34.11.87-.5.84s-.42-.58-.42-.92c0-.69,0-1.37,0-2C135.13,284.07,135.13,283.61,135.13,283.19Z"/><path class="cls-4" d="M369.19,278h1.6c.27,0,.5.08.5.38s-.27.46-.57.5c-.65,0-1.26,0-1.91,0s-1,.19-1,1c0,2.1,0,4.15,0,6.25,0,.46.45,1.37-.5,1.37-.68,0-.38-.83-.38-1.33,0-2.29,0-4.54,0-6.83,0-1.29,0-1.29,1.22-1.29a3,3,0,0,1,1,0Z"/><path class="cls-4" d="M335.18,264.09v-3.78c0-.34-.12-.83.49-.83s.42.41.42.76v8c0,.34.08.72-.46.68s-.42-.42-.42-.76C335.18,266.8,335.18,265.46,335.18,264.09Z"/><path class="cls-4" d="M386,282.62v4.2c0,.3,0,.61-.38.64s-.54-.3-.54-.64v-8.24c0-.31.08-.57.46-.57s.46.26.46.57Z"/><path class="cls-4" d="M146.54,282.81v4.08c0,.31-.08.61-.46.61s-.42-.34-.42-.61v-8.27c0-.31,0-.61.46-.57s.42.34.42.61Z"/><path class="cls-4" d="M191.53,277.13a1.36,1.36,0,0,1-1.52-1c0-.19-.12-.38.11-.49a.36.36,0,0,1,.5.07c.57.92,1.14,1,1.67,0a.36.36,0,0,1,.5-.07c.23.11.15.34.11.49A1.27,1.27,0,0,1,191.53,277.13Z"/><path class="cls-4" d="M149.89,282.24H151a.35.35,0,0,1,.39.34.41.41,0,0,1-.39.5c-.8,0-1.63,0-2.44,0a.41.41,0,0,1-.45-.42c0-.31.19-.42.45-.42Z"/><path class="cls-4" d="M350.39,282.28h1.75a.35.35,0,0,1,.39.34.33.33,0,0,1-.35.38h-3.92c-.2,0-.31-.19-.31-.42s.19-.3.38-.3Z"/><path class="cls-4" d="M296.93,257.34a1.47,1.47,0,0,1-1.64,1.3,1.4,1.4,0,0,1-1.41-1.38.32.32,0,0,1,.27-.3c.22,0,.34.08.49.23.69.68.73.68,1.56,0a.9.9,0,0,1,.23-.15A.35.35,0,0,1,296.93,257.34Z"/><path class="cls-4" d="M287.62,144.43a.32.32,0,0,1,0-.11c.12,0,.08,0,0,.11Z"/><path class="cls-4" d="M250.29,178a9,9,0,0,1-9.19-9.27,9.14,9.14,0,0,1,9.31-9.19,9.25,9.25,0,0,1,9.19,9.31A9.13,9.13,0,0,1,250.29,178Zm5.65-9.12a5.61,5.61,0,1,0-11.21-.15,5.68,5.68,0,0,0,5.53,5.76A5.61,5.61,0,0,0,255.94,168.87Z"/><path class="cls-4" d="M256.47,97c-1.94,1.94-3.81,3.77-5.64,5.64-.38.42-.65.42-1.07,0-1.83-1.87-3.7-3.7-5.57-5.53a21.34,21.34,0,0,1,2.33-2.48c1-1.07,2.13-2.13,3.16-3.2.27-.27.54-.61,1-.19C252.58,93.1,254.49,95,256.47,97Z"/><path class="cls-4" d="M217.35,147.33H215.9c-1.07,0-1.07,0-1.11-1s0-1.83,0-2.75c0-.57.15-.91.8-.91,1.22,0,2.44,0,3.63,0,.57,0,.76.27.76.8,0,1,0,2,0,3.05,0,.65-.27.88-.88.84Z"/><text class="cls-5" transform="translate(88.74 396.19)">ЦЕНТР <tspan class="cls-6" x="102.77" y="0">К</tspan><tspan x="120.71" y="0">ОМПЕТЕНЦИЙ</tspan><tspan class="cls-7"><tspan x="-57.49" y="27.6">ПО ВОПРО</tspan><tspan class="cls-8" x="78.85" y="27.6">С</tspan><tspan x="94.84" y="27.6">АМ </tspan><tspan class="cls-9" x="139.78" y="27.6">Г</tspan><tspan x="150.52" y="27.6">ОР</tspan><tspan class="cls-10" x="186.38" y="27.6">О</tspan><tspan x="205.54" y="27.6">ДС</tspan><tspan class="cls-11" x="240.04" y="27.6">К</tspan><tspan x="255.45" y="27.6">ОЙ С</tspan><tspan class="cls-12" x="316.37" y="27.6">Р</tspan><tspan x="332.38" y="27.6">ЕДЫ</tspan></tspan><tspan class="cls-13" x="76.59" y="59.74">Х</tspan><tspan class="cls-14" x="92.95" y="59.74">М</tspan><tspan class="cls-15" x="118.77" y="59.74">А</tspan><tspan class="cls-16" x="138.13" y="59.74">О</tspan><tspan class="cls-14" x="161.22" y="59.74">-ЮГ</tspan><tspan class="cls-17" x="216.29" y="59.74">Р</tspan><tspan x="233.99" y="59.74">А</tspan></text></svg>