<svg id="Слой_1" data-name="Слой 1" xmlns="http://www.w3.org/2000/svg" viewBox="0 0 500 500"><defs><style>.cls-1{font-size:26.78px;font-family:Montserrat-Light, Montserrat;font-weight:300;}.cls-2{letter-spacing:-0.01em;}.cls-3{letter-spacing:-0.05em;}.cls-4{letter-spacing:-0.03em;}.cls-5{letter-spacing:0em;}.cls-6{letter-spacing:-0.02em;}.cls-7{letter-spacing:0em;}.cls-8{letter-spacing:-0.02em;}.cls-9{letter-spacing:-0.1em;}.cls-10,.cls-11{fill-rule:evenodd;}.cls-11{fill:#fd7400;}</style></defs><text class="cls-1" transform="translate(32.25 392.58)">АГЕН<tspan class="cls-2" x="74.35" y="0">С</tspan><tspan x="93.23" y="0">ТВО </tspan><tspan class="cls-2" x="158.45" y="0">С</tspan><tspan x="177.33" y="0">Т</tspan><tspan class="cls-3" x="192.73" y="0">Р</tspan><tspan class="cls-4" x="210.43" y="0">А</tspan><tspan class="cls-5" x="229.13" y="0">ТИГ</tspan><tspan class="cls-6" x="281.84" y="0">И</tspan><tspan x="303.4" y="0">Ч</tspan><tspan class="cls-7" x="322.84" y="0">Е</tspan><tspan x="340.22" y="0">С</tspan><tspan class="cls-8" x="359.35" y="0">К</tspan><tspan x="377.29" y="0">О</tspan><tspan class="cls-9" x="400.14" y="0">Г</tspan><tspan x="412.65" y="0">О</tspan><tspan class="cls-3" x="140.99" y="32.14">Р</tspan><tspan x="158.69" y="32.14">АЗВИТИЯ</tspan></text><path class="cls-10" d="M231.3,203v-.71h-2.43c-1.33,0-2,.56-2,1.53s.71,1.5,1.93,1.5A2.4,2.4,0,0,0,231.3,203Zm.06,2.88H231a3.47,3.47,0,0,1-2.83,1.16,3.16,3.16,0,0,1-3.44-3.12c0-1.52,1-3.2,3.78-3.2h2.8v-.28c0-1.05-.61-1.74-2-1.74-1.21,0-1.83.48-1.91,1.21H225.3c.09-1.79,1.68-2.88,3.93-2.88,2.47,0,4.11,1.09,4.11,3.44v6.33h-2Z"/><polygon class="cls-10" points="236.52 197.26 243.95 197.26 243.95 199.06 238.64 199.06 238.64 206.79 236.52 206.79 236.52 197.26"/><path class="cls-10" d="M247.64,200.63h4.77a2.13,2.13,0,0,0-2.28-1.93A2.34,2.34,0,0,0,247.64,200.63Zm6.94,1.57h-7c0,2,.95,3,2.67,3A1.93,1.93,0,0,0,252.3,204h2.15c-.36,1.76-1.78,3-4.25,3-3,0-4.75-2.09-4.75-5.07s1.78-4.94,4.7-4.94a4.24,4.24,0,0,1,4.43,4.47Z"/><polygon class="cls-10" points="264.03 206.79 264.03 202.8 259.43 202.8 259.43 206.79 257.31 206.79 257.31 197.26 259.43 197.26 259.43 201 264.03 201 264.03 197.26 266.14 197.26 266.14 206.79 264.03 206.79"/><polygon class="cls-10" points="268.56 197.26 277.09 197.26 277.09 199.06 273.89 199.06 273.89 206.79 271.78 206.79 271.78 199.06 268.56 199.06 268.56 197.26"/><path class="cls-10" d="M287.76,203.74a3.92,3.92,0,0,1-4.2,3.29c-2.95,0-4.71-2.08-4.71-5s1.76-5,4.71-5c2.33,0,3.84,1.29,4.12,3.14h-2.1a1.88,1.88,0,0,0-2-1.34c-1.89,0-2.62,1.47-2.62,3.18s.75,3.23,2.62,3.23a1.89,1.89,0,0,0,2.08-1.49Z"/><polygon class="cls-10" points="289.53 197.26 298.07 197.26 298.07 199.06 294.87 199.06 294.87 206.79 292.75 206.79 292.75 199.06 289.53 199.06 289.53 197.26"/><path class="cls-10" d="M307,203.94c0-.71-.41-1.25-1.63-1.25h-2.78v2.49h2.78C306.56,205.18,307,204.65,307,203.94Zm-4.41-2.86h2.77c1,0,1.34-.51,1.34-1.1s-.35-1.11-1.34-1.11h-2.77Zm6.54,3.09c0,1.72-1.21,2.62-3.36,2.62h-5.26v-9.53h5.29c1.93,0,3,.92,3,2.42a2.12,2.12,0,0,1-1.09,1.89v.35A2.31,2.31,0,0,1,309.1,204.17Zm9.7-2.15c0-1.67-.84-3.2-2.7-3.2s-2.69,1.53-2.69,3.2.84,3.21,2.69,3.21,2.7-1.51,2.7-3.21m2.11,0c0,2.91-1.81,5-4.81,5s-4.81-2.1-4.81-5,1.82-5,4.81-5,4.81,2.1,4.81,5m-87.29,23.36a3.92,3.92,0,0,1-4.19,3.29c-3,0-4.71-2.07-4.71-5s1.76-5,4.71-5c2.32,0,3.84,1.29,4.12,3.15h-2.1a1.88,1.88,0,0,0-2-1.35c-1.89,0-2.62,1.48-2.62,3.18s.75,3.24,2.62,3.24a1.89,1.89,0,0,0,2.08-1.5Z"/><polygon class="cls-10" points="235.4 218.91 243.93 218.91 243.93 220.7 240.74 220.7 240.74 228.43 238.62 228.43 238.62 220.7 235.4 220.7 235.4 218.91"/><path class="cls-10" d="M248.41,223.68c0,1.66.78,3.2,2.63,3.2s2.61-1.37,2.61-3.2-.87-3.22-2.61-3.22-2.63,1.53-2.63,3.22m.43,3.81h-.38v4.68h-2.11V218.91h2.06v.93h.37a3.28,3.28,0,0,1,2.75-1.18c2.62,0,4.23,2.14,4.23,5s-1.63,5-4.23,5a3.08,3.08,0,0,1-2.69-1.18m15.55-2.86v-.71H262c-1.32,0-2,.56-2,1.53s.71,1.5,1.93,1.5A2.41,2.41,0,0,0,264.39,224.63Zm.05,2.88h-.37a3.46,3.46,0,0,1-2.83,1.16,3.16,3.16,0,0,1-3.44-3.12c0-1.52,1-3.2,3.78-3.2h2.81v-.28c0-1-.62-1.74-2-1.74-1.21,0-1.83.48-1.9,1.21h-2.1c.09-1.79,1.68-2.88,3.93-2.88,2.47,0,4.12,1.09,4.12,3.45v6.32h-2Z"/><polygon class="cls-10" points="268.71 218.91 277.24 218.91 277.24 220.7 274.04 220.7 274.04 228.43 271.93 228.43 271.93 220.7 268.71 220.7 268.71 218.91"/><path class="cls-10" d="M281.19,222.27H286a2.13,2.13,0,0,0-2.28-1.92A2.34,2.34,0,0,0,281.19,222.27Zm6.94,1.58h-7c0,1.94.95,3,2.67,3a1.94,1.94,0,0,0,2.08-1.22H288c-.36,1.76-1.78,3-4.25,3-3,0-4.75-2.09-4.75-5.07s1.78-4.94,4.7-4.94a4.24,4.24,0,0,1,4.43,4.47Z"/><polygon class="cls-10" points="290.86 218.91 298.29 218.91 298.29 220.7 292.98 220.7 292.98 228.43 290.86 228.43 290.86 218.91"/><polygon class="cls-10" points="300.7 228.43 300.7 218.91 302.76 218.91 302.76 225.16 303.14 225.16 307.14 218.91 309.57 218.91 309.57 228.43 307.52 228.43 307.52 222.18 307.14 222.18 303.08 228.43 300.7 228.43"/><path class="cls-10" d="M314.46,218.91v2.75c0,.8.07,1.64,2.09,1.64a9.91,9.91,0,0,0,2.08-.22v-4.17h2.13v9.52h-2.13v-3.59a14.15,14.15,0,0,1-2.68.26c-3.33,0-3.61-1.61-3.61-3.16v-3Zm11.24,3.36h4.77a2.12,2.12,0,0,0-2.28-1.92A2.34,2.34,0,0,0,325.7,222.27Zm6.94,1.58h-7c.06,1.94.95,3,2.68,3a1.92,1.92,0,0,0,2.07-1.22h2.15c-.35,1.76-1.77,3-4.24,3-3,0-4.76-2.09-4.76-5.07s1.78-4.94,4.7-4.94a4.23,4.23,0,0,1,4.43,4.47Zm11.08,1.53a3.92,3.92,0,0,1-4.19,3.29c-2.95,0-4.71-2.07-4.71-5s1.76-5,4.71-5c2.32,0,3.84,1.29,4.12,3.15h-2.1a1.89,1.89,0,0,0-2-1.35c-1.89,0-2.62,1.48-2.62,3.18s.75,3.24,2.62,3.24a1.89,1.89,0,0,0,2.08-1.5Z"/><polygon class="cls-10" points="350.87 224.44 348.51 224.44 348.51 228.43 346.4 228.43 346.4 218.91 348.51 218.91 348.51 222.65 350.91 222.65 352.91 218.91 355.08 218.91 352.65 223.49 355.21 228.43 352.99 228.43 350.87 224.44"/><path class="cls-10" d="M364.42,223.66c0-1.67-.85-3.2-2.7-3.2S359,222,359,223.66s.84,3.22,2.69,3.22,2.7-1.52,2.7-3.22m2.11,0c0,2.92-1.81,5-4.81,5s-4.81-2.09-4.81-5,1.82-5,4.81-5,4.81,2.1,4.81,5"/><polygon class="cls-10" points="369.28 218.91 376.71 218.91 376.71 220.7 371.4 220.7 371.4 228.43 369.28 228.43 369.28 218.91"/><path class="cls-10" d="M385.71,223.66c0-1.67-.84-3.2-2.69-3.2s-2.7,1.53-2.7,3.2.84,3.22,2.7,3.22,2.69-1.52,2.69-3.22m2.11,0c0,2.92-1.81,5-4.8,5s-4.81-2.09-4.81-5,1.81-5,4.81-5,4.8,2.1,4.8,5M227.58,245.32c0,1.67.79,3.2,2.64,3.2s2.6-1.36,2.6-3.2-.86-3.21-2.6-3.21-2.64,1.53-2.64,3.21m.43,3.82h-.37v4.68h-2.12V240.55h2.06v.94H228a3.27,3.27,0,0,1,2.75-1.18c2.62,0,4.23,2.13,4.23,5s-1.62,5-4.23,5a3.12,3.12,0,0,1-2.69-1.18m15.55-2.86v-.71h-2.43c-1.33,0-2,.56-2,1.53s.71,1.5,1.92,1.5A2.41,2.41,0,0,0,243.56,246.28Zm.06,2.88h-.38a3.43,3.43,0,0,1-2.82,1.16,3.17,3.17,0,0,1-3.45-3.13c0-1.51,1-3.19,3.78-3.19h2.81v-.29c0-1-.62-1.74-2-1.74-1.22,0-1.84.49-1.91,1.22h-2.1c.1-1.8,1.69-2.88,3.93-2.88,2.47,0,4.12,1.08,4.12,3.44v6.33h-2Zm8.77-7c-1.2,0-1.85.37-2,1.21h-2c.18-2,1.83-3,4.11-3,2.45,0,3.84,1.22,3.84,2.71a1.88,1.88,0,0,1-1,1.89v.38a1.93,1.93,0,0,1,1.29,2.07c0,1.65-1.54,3-4.12,3-2.79,0-4.25-1.2-4.49-3.09h2c.3,1,1.28,1.29,2.44,1.29s2.07-.39,2.07-1.25-.48-1.18-1.79-1.18H251.1v-1.72h1.53c1.15,0,1.61-.45,1.61-1.12s-.74-1.14-1.85-1.14M266,247.23c0-.71-.41-1.25-1.63-1.25h-2.79v2.49h2.79C265.55,248.47,266,247.94,266,247.23Zm-4.42-2.86h2.77c1,0,1.35-.51,1.35-1.1s-.36-1.11-1.35-1.11h-2.77Zm6.55,3.09c0,1.72-1.22,2.62-3.37,2.62h-5.26v-9.53h5.3c1.93,0,3,.92,3,2.42a2.11,2.11,0,0,1-1.08,1.89v.35A2.31,2.31,0,0,1,268.09,247.46Z"/><polygon class="cls-10" points="270.84 250.08 270.84 240.55 272.9 240.55 272.9 246.8 273.27 246.8 277.28 240.55 279.71 240.55 279.71 250.08 277.65 250.08 277.65 243.83 277.28 243.83 273.22 250.08 270.84 250.08"/><polygon class="cls-10" points="282.12 240.55 290.66 240.55 290.66 242.35 287.46 242.35 287.46 250.08 285.34 250.08 285.34 242.35 282.12 242.35 282.12 240.55"/><polygon class="cls-10" points="293.07 250.08 293.07 240.55 295.13 240.55 295.13 246.8 295.5 246.8 299.51 240.55 301.94 240.55 301.94 250.08 299.88 250.08 299.88 243.83 299.51 243.83 295.45 250.08 293.07 250.08"/><path class="cls-10" d="M311.22,242.27h-2.51c-1.23,0-1.68.51-1.68,1.35s.45,1.35,1.68,1.35h2.51Zm2.11-1.72v9.53h-2.11v-3.47H308.3L307,250.08h-2.13l1.53-3.93a2.71,2.71,0,0,1-1.44-2.55c0-1.89,1.29-3,3.61-3Z"/><polygon class="cls-11" points="193.06 229.63 182.23 229.63 182.23 207.99 160.59 207.99 160.59 197.17 193.06 197.17 193.06 229.63"/><polygon class="cls-10" points="106.48 229.63 95.66 229.63 95.66 197.17 128.12 197.17 128.12 207.99 106.48 207.99 106.48 229.63"/><polygon class="cls-10" points="95.66 262.1 106.48 262.1 106.48 283.74 128.12 283.74 128.12 294.56 95.66 294.56 95.66 262.1"/><polygon class="cls-10" points="182.23 262.1 193.06 262.1 193.06 294.56 160.59 294.56 160.59 283.74 182.23 283.74 182.23 262.1"/><path class="cls-11" d="M144.36,228.43a17.44,17.44,0,1,0,17.43,17.44,17.46,17.46,0,0,0-17.43-17.44m0,10.42a7,7,0,1,1-7,7,7,7,0,0,1,7-7"/><polygon class="cls-10" points="254.38 294.56 225.52 294.56 225.52 262.1 232.74 262.1 232.74 288.15 249.57 288.15 249.57 262.1 256.79 262.1 256.79 288.15 261.6 288.15 261.6 302.98 254.38 302.98 254.38 294.56"/><polygon class="cls-10" points="333.74 262.1 333.74 294.56 326.53 294.56 326.53 281.34 311.3 281.34 311.3 294.56 304.08 294.56 304.08 262.1 311.3 262.1 311.3 274.93 326.53 274.93 326.53 262.1 333.74 262.1"/><path class="cls-10" d="M397.13,272.92c0-2.86-1.54-4.41-5.73-4.41H381v8.82H391.4c4.19,0,5.73-1.59,5.73-4.41m7.21,0c0,6.55-4.32,10.82-11.73,10.82H381v10.83h-7.22V262.1h18.79c7.41,0,11.73,4.36,11.73,10.82"/><polygon class="cls-10" points="296.47 288.15 296.47 294.56 267.61 294.56 267.61 262.1 296.06 262.1 296.06 268.51 274.82 268.51 274.82 274.93 292.06 274.93 292.06 281.34 274.82 281.34 274.82 288.15 296.47 288.15"/><polygon class="cls-10" points="369.01 268.51 357.39 268.51 357.39 294.56 350.18 294.56 350.18 268.51 338.55 268.51 338.55 262.1 369.01 262.1 369.01 268.51"/></svg>