<svg id="Слой_1" data-name="Слой 1" xmlns="http://www.w3.org/2000/svg" viewBox="0 0 500 500"><defs><style>.cls-1{font-size:26.78px;font-family:Montserrat-Light, Montserrat;font-weight:300;}.cls-2{letter-spacing:-0.03em;}.cls-3{letter-spacing:0em;}.cls-4{letter-spacing:-0.02em;}.cls-5{letter-spacing:0em;}.cls-6{letter-spacing:-0.03em;}.cls-7{letter-spacing:-0.01em;}.cls-8{letter-spacing:-0.13em;}.cls-9{letter-spacing:-0.03em;}.cls-10{letter-spacing:-0.03em;}.cls-11{letter-spacing:0em;}.cls-12{letter-spacing:0em;}.cls-13{fill:#bd7abd;}.cls-14{fill:#00b93e;}.cls-15{fill:#ff2a31;}.cls-16{fill:#00b7de;}.cls-17{fill:#ff8814;}.cls-18{fill:#ff1b0d;}.cls-19{fill:#ff3a3a;}.cls-20{fill:#dc4f90;}.cls-21{fill:#8a2e83;}.cls-22{fill:#ffae00;}.cls-23{fill:#f6ec4a;}</style></defs><text class="cls-1" transform="translate(110.02 395.08)">НЕ<tspan class="cls-2" x="39.5" y="0">К</tspan><tspan class="cls-3" x="57.45" y="0">ОММЕ</tspan><tspan class="cls-4" x="149.42" y="0">Р</tspan><tspan x="167.82" y="0">Ч</tspan><tspan class="cls-5" x="187.27" y="0">Е</tspan><tspan x="204.65" y="0">С</tspan><tspan class="cls-6" x="223.77" y="0">КА</tspan><tspan x="260.36" y="0">Я</tspan><tspan x="31.36" y="32.14">О</tspan><tspan class="cls-7" x="54.21" y="32.14">Р</tspan><tspan class="cls-8" x="72.85" y="32.14">Г</tspan><tspan x="84.55" y="32.14">АНИЗАЦИЯ</tspan><tspan x="-10.86" y="64.28">ВА</tspan><tspan class="cls-9" x="28.86" y="64.28">Р</tspan><tspan class="cls-3" x="46.88" y="64.28">ЛАМОВА И </tspan><tspan class="cls-10" x="211.68" y="64.28">К</tspan><tspan x="229.46" y="64.28">А</tspan><tspan class="cls-11" x="249.1" y="64.28">Ц</tspan><tspan class="cls-12" x="271.19" y="64.28">А</tspan></text><path d="M211.66,231.26H203.9v21.21h-2.52V228.94h10.28Zm-2.21,12.81q0-4.55,1.56-6.68a5.16,5.16,0,0,1,4.45-2.13,5,5,0,0,1,4.54,2.19q1.45,2.18,1.47,6.62t-1.58,6.69a5.25,5.25,0,0,1-4.44,2.12,5.07,5.07,0,0,1-4.54-2.19c-1-1.46-1.46-3.67-1.46-6.62Zm2.51,0a18.62,18.62,0,0,0,.19,2.69,7.52,7.52,0,0,0,.6,2.08,3.56,3.56,0,0,0,1.1,1.36,2.58,2.58,0,0,0,1.61.49,2.88,2.88,0,0,0,1.54-.4,2.84,2.84,0,0,0,1.08-1.17,10.9,10.9,0,0,0,.87-5.05,18.33,18.33,0,0,0-.18-2.67,7.4,7.4,0,0,0-.61-2.11,3.49,3.49,0,0,0-1.09-1.35,2.6,2.6,0,0,0-1.61-.49,2.84,2.84,0,0,0-2.6,1.57A11.09,11.09,0,0,0,212,244.07Zm12.74-8.4h1.7l.37,1.81h.13a4.16,4.16,0,0,1,1.62-1.68,4.21,4.21,0,0,1,2.28-.54,4.51,4.51,0,0,1,2.25.46,4.43,4.43,0,0,1,1.72,1.52c.88,1.33,1.33,3.49,1.33,6.49a15.69,15.69,0,0,1-.44,3.81,8.8,8.8,0,0,1-1.25,2.9,5.46,5.46,0,0,1-1.95,1.81,5.37,5.37,0,0,1-2.57.63,8,8,0,0,1-1.55-.12,4.72,4.72,0,0,1-1.24-.49v6.92h-2.41V235.66Zm2.42,14.16a3.65,3.65,0,0,0,1,.64,4.14,4.14,0,0,0,1.56.23,3.17,3.17,0,0,0,1.69-.49,3.13,3.13,0,0,0,1.15-1.32,10.43,10.43,0,0,0,1-5.17,15.67,15.67,0,0,0-.18-2.56,7.36,7.36,0,0,0-.57-2,3.48,3.48,0,0,0-1.06-1.31,2.52,2.52,0,0,0-1.53-.45q-2.45,0-3.15,3Zm11.44-5.76q0-4.55,1.56-6.68a5.32,5.32,0,0,1,1.95-1.63,5.23,5.23,0,0,1,2.49-.5,5.07,5.07,0,0,1,4.55,2.19q1.45,2.18,1.46,6.62c0,3-.52,5.26-1.58,6.69a5.25,5.25,0,0,1-2,1.61,5.17,5.17,0,0,1-2.48.51,5.06,5.06,0,0,1-4.54-2.19Q238.57,248.5,238.56,244.07Zm2.51,0a18.62,18.62,0,0,0,.19,2.69,7.52,7.52,0,0,0,.6,2.08A3.54,3.54,0,0,0,243,250.2a2.61,2.61,0,0,0,1.62.49,2.92,2.92,0,0,0,1.53-.4,2.86,2.86,0,0,0,1.09-1.17,10.77,10.77,0,0,0,.87-5.05,17,17,0,0,0-.19-2.67,7.39,7.39,0,0,0-.6-2.11,3.49,3.49,0,0,0-1.09-1.35,2.6,2.6,0,0,0-1.61-.49,2.84,2.84,0,0,0-1.53.41A2.9,2.9,0,0,0,242,239a10.84,10.84,0,0,0-.89,5.05Zm25,12.67h-1.7l-.41-4.27H254l-.44,4.27H251.9v-6.46h1.58a10.7,10.7,0,0,0,.57-1.35,19.2,19.2,0,0,0,.69-2.76,42.92,42.92,0,0,0,.56-4.35c.18-2,.27-4.1.29-6.15H264v14.61h2l0,6.46Zm-4.4-6.46V237.85h-3.76c0,1-.11,2-.18,3.16s-.2,2.28-.35,3.41-.35,2.21-.57,3.25a15.65,15.65,0,0,1-.77,2.61Zm16.19,1.35a5.82,5.82,0,0,1-1.92.94,8.29,8.29,0,0,1-2.27.31,5.47,5.47,0,0,1-2.72-.63,4.73,4.73,0,0,1-1.8-1.78,8.89,8.89,0,0,1-1-2.79,19.86,19.86,0,0,1-.32-3.61q0-4.31,1.53-6.56a5,5,0,0,1,4.38-2.27,9.7,9.7,0,0,1,2.28.23,6.68,6.68,0,0,1,1.61.61l-.67,2.12a5.78,5.78,0,0,0-2.92-.78,2.9,2.9,0,0,0-1.6.41,3,3,0,0,0-1.14,1.19,10.48,10.48,0,0,0-.93,5,15.94,15.94,0,0,0,.21,2.58,6.78,6.78,0,0,0,.67,2.1,4,4,0,0,0,1.21,1.42,3.18,3.18,0,0,0,1.84.52,4.58,4.58,0,0,0,2.86-1Zm6.34-6.72h-1.24v7.56h-2.41v-16.8h2.41v7.59l1.14-.47,4.1-7.12h2.58l-4,6.75-1.17,1.14L287,244.9l4.29,7.6h-2.89l-4.28-7.59Zm17.7-2.12.2-2.55h-.14l-1.16,2.84-5.68,9.42H293.5V235.67h2.43v10l-.2,2.45h.14l1.1-2.76,5.75-9.66h1.58v16.8h-2.42Zm16.43,8.53a5.68,5.68,0,0,1-2.05,1.14,8.63,8.63,0,0,1-2.62.4,5.79,5.79,0,0,1-2.74-.62,5.38,5.38,0,0,1-1.92-1.78,8.17,8.17,0,0,1-1.1-2.78,16.37,16.37,0,0,1-.35-3.63c0-2.87.52-5.06,1.57-6.55a5.1,5.1,0,0,1,4.47-2.28,7.7,7.7,0,0,1,1.86.23,3.88,3.88,0,0,1,1.67,1,5.15,5.15,0,0,1,1.19,2,10.15,10.15,0,0,1,.45,3.33c0,.38,0,.79-.05,1.23s-.07.88-.12,1.36H310a14.35,14.35,0,0,0,.24,2.62,6.27,6.27,0,0,0,.74,2,3.68,3.68,0,0,0,1.29,1.28,3.94,3.94,0,0,0,2,.45,5.09,5.09,0,0,0,1.8-.34,3.78,3.78,0,0,0,1.35-.8Zm-1.89-9a6.57,6.57,0,0,0-.7-3.7,2.42,2.42,0,0,0-.9-.87,2.36,2.36,0,0,0-1.22-.31,2.94,2.94,0,0,0-2.45,1.18,6.89,6.89,0,0,0-1.07,3.7Zm20.9-4.47h-5.65v14.62h-2.41V235.67h10.47v16.8H337.3Zm6.38-2.19h1.7l.37,1.82h.17a4.25,4.25,0,0,1,1.63-1.68,4.19,4.19,0,0,1,2.27-.54,4.37,4.37,0,0,1,2.25.46,4.46,4.46,0,0,1,1.73,1.52c.88,1.32,1.33,3.49,1.33,6.49a15.21,15.21,0,0,1-.44,3.81,9.09,9.09,0,0,1-1.24,2.9,5.52,5.52,0,0,1-2,1.81,5.34,5.34,0,0,1-2.57.63,8,8,0,0,1-1.54-.12,4.72,4.72,0,0,1-1.24-.49v6.92h-2.42Zm2.43,14.18a3.65,3.65,0,0,0,1.05.64,4.16,4.16,0,0,0,1.57.23,3.11,3.11,0,0,0,2.83-1.81,10.42,10.42,0,0,0,1.05-5.17,15.68,15.68,0,0,0-.19-2.56,7,7,0,0,0-.56-2,3.4,3.4,0,0,0-1-1.28,2.55,2.55,0,0,0-1.53-.46c-1.63,0-2.69,1-3.15,3Zm11.45-5.74c0-3,.52-5.26,1.56-6.68a5.16,5.16,0,0,1,2-1.63,6,6,0,0,1,7,1.68c1,1.46,1.46,3.67,1.46,6.63s-.52,5.26-1.58,6.68a5.75,5.75,0,0,1-9-.06Q357.57,248.52,357.56,244.09Zm2.52,0a17.37,17.37,0,0,0,.18,2.69,7.21,7.21,0,0,0,.61,2.08,3.37,3.37,0,0,0,1.09,1.36,2.63,2.63,0,0,0,1.61.48,2.84,2.84,0,0,0,2.62-1.56,11,11,0,0,0,.87-5,17.16,17.16,0,0,0-.18-2.68,7.43,7.43,0,0,0-.61-2.1,3.52,3.52,0,0,0-1.09-1.36,2.71,2.71,0,0,0-1.61-.49,2.84,2.84,0,0,0-1.53.41A2.9,2.9,0,0,0,361,239,10.86,10.86,0,0,0,360.08,244.09Zm22.77,7.24a5.52,5.52,0,0,1-2.05,1.14,8.58,8.58,0,0,1-2.62.4,5.79,5.79,0,0,1-2.74-.62,5.34,5.34,0,0,1-1.91-1.78,8.23,8.23,0,0,1-1.13-2.78,16.34,16.34,0,0,1-.35-3.62q0-4.32,1.57-6.56a5.1,5.1,0,0,1,1.94-1.72,5.15,5.15,0,0,1,2.53-.56,7.3,7.3,0,0,1,1.86.24,3.67,3.67,0,0,1,1.66.94,5,5,0,0,1,1.2,2,10.06,10.06,0,0,1,.45,3.32c0,.38,0,.79-.05,1.23l-.12,1.36h-8.52a14.34,14.34,0,0,0,.23,2.62,6.52,6.52,0,0,0,.74,2,3.71,3.71,0,0,0,1.3,1.28,4,4,0,0,0,2,.45,5,5,0,0,0,1.79-.33,3.76,3.76,0,0,0,1.36-.81Zm-1.88-9a6.59,6.59,0,0,0-.7-3.7,2.5,2.5,0,0,0-.9-.87,2.35,2.35,0,0,0-1.22-.3,3,3,0,0,0-1.37.28,3,3,0,0,0-1.08.89,6.89,6.89,0,0,0-1.08,3.7Zm9.37,2.59H389.1v7.56h-2.42v-16.8h2.42v7.59l1.14-.47,4.09-7.12h2.59l-4,6.75-1.18,1.14,1.45,1.34,4.3,7.6h-2.89l-4.28-7.59Zm18.07-7.06h-4.13v14.62h-2.42V237.85h-4.13v-2.18h10.68Zm4.44,12.43a8.89,8.89,0,0,0,1.85.21,2.72,2.72,0,0,0,2.27-.86,4.13,4.13,0,0,0,.64-2.47,4.06,4.06,0,0,0-.62-2.37,2.55,2.55,0,0,0-2.21-.86c-.31,0-.62,0-.93,0a6.52,6.52,0,0,0-1,.19l0,6.11Zm0-8.2a10.66,10.66,0,0,1,1.24-.2c.41,0,.79,0,1.14,0a6.32,6.32,0,0,1,2.32.38,3.77,3.77,0,0,1,1.49,1.06,4.07,4.07,0,0,1,.79,1.6,7.63,7.63,0,0,1,.24,2,6.17,6.17,0,0,1-1.36,4.45c-.91.91-2.42,1.37-4.52,1.37a36.86,36.86,0,0,1-3.79-.2V235.67h2.42Zm9.27-6.41h2.42v16.8H422.1ZM207.31,271.12l.09-1.47h-.09l-.57,1.5-4.12,7.26h-.79V267.26H203v7.39l-.11,1.44H203l.57-1.5,4.13-7.34h.79V278.4h-1.15Zm6.6.36h-1.74c0,.91-.07,1.77-.12,2.62a16.93,16.93,0,0,1-.28,2.24,4.53,4.53,0,0,1-.57,1.55,1.15,1.15,0,0,1-.41.41,1.1,1.1,0,0,1-.56.16,3.44,3.44,0,0,1-.46,0,1.42,1.42,0,0,1-.35-.11l.17-1a.78.78,0,0,0,.6,0c.18-.09.33-.37.45-.83a11.55,11.55,0,0,0,.31-2.11c.08-.95.14-2.25.17-3.9h3.93v8h-1.14Zm4.17,5.89a4.14,4.14,0,0,0,.87.1c1,0,1.5-.52,1.5-1.58a1.71,1.71,0,0,0-.35-1.13,1.44,1.44,0,0,0-.52-.33,1.46,1.46,0,0,0-.62-.08,2.79,2.79,0,0,0-.91.09Zm0-3.88.6-.09h.56a2.94,2.94,0,0,1,1.14.19,1.85,1.85,0,0,1,.74.49,1.89,1.89,0,0,1,.43.77,3.57,3.57,0,0,1,.12.92,2.7,2.7,0,0,1-.13,1.13,2.77,2.77,0,0,1-.57,1,3.11,3.11,0,0,1-2.2.65q-.9,0-1.8-.09v-8h1.13Zm8.81.33.09-1.21h-.06l-.57,1.34-2.68,4.46h-.75v-8h1.13v4.73l-.09,1.13H224l.52-1.3,2.72-4.59H228v8h-1.13v-4.56Zm12-4a3.31,3.31,0,0,1-.1.83,2.63,2.63,0,0,1-.3.78,2.37,2.37,0,0,1-.52.66,1.94,1.94,0,0,1-.75.43v.09a2.77,2.77,0,0,1,.73.26,2,2,0,0,1,.62.51,2.54,2.54,0,0,1,.43.79,3.42,3.42,0,0,1,.16,1.14,3.79,3.79,0,0,1-.27,1.49,2.76,2.76,0,0,1-.74,1,3,3,0,0,1-1.08.57,4,4,0,0,1-1.29.19h-1.15a4.91,4.91,0,0,1-.66-.06l-.6-.12v-11a12.66,12.66,0,0,1,2.53-.22,5.57,5.57,0,0,1,1.08.1,2.42,2.42,0,0,1,1,.39,1.94,1.94,0,0,1,.69.81,2.87,2.87,0,0,1,.27,1.35Zm-3,7.65a2.35,2.35,0,0,0,.79-.14,1.88,1.88,0,0,0,.66-.41,2,2,0,0,0,.43-.65,2.66,2.66,0,0,0,.16-.92,2.6,2.6,0,0,0-.2-1.06,1.7,1.7,0,0,0-.51-.62,1.63,1.63,0,0,0-.74-.31,4.58,4.58,0,0,0-.83-.08h-1.06v4.08a.93.93,0,0,0,.24,0l.34,0h.37Zm-.65-5.23h.51a3.89,3.89,0,0,0,.47,0,2.48,2.48,0,0,0,1-.77,2,2,0,0,0,.42-1.32,2.39,2.39,0,0,0-.14-.88,1.49,1.49,0,0,0-.39-.57,1.71,1.71,0,0,0-.57-.29,2.74,2.74,0,0,0-.7-.09h-.75a4.26,4.26,0,0,0-.5.06v3.9Zm5.49-1.29a4.09,4.09,0,0,1,1.13-.44,6,6,0,0,1,1.4-.16,2.64,2.64,0,0,1,1.07.2,1.67,1.67,0,0,1,.64.57,2,2,0,0,1,.3.78,5.58,5.58,0,0,1,.07.91c0,.64,0,1.27,0,1.87s0,1.18,0,1.7a10.39,10.39,0,0,0,0,1.14,5.4,5.4,0,0,0,.15,1h-.88l-.26-.94h-.07a2.1,2.1,0,0,1-.7.72,2.35,2.35,0,0,1-1.24.3,1.8,1.8,0,0,1-1.41-.57,2.43,2.43,0,0,1-.57-1.65,2.57,2.57,0,0,1,.23-1.13,1.82,1.82,0,0,1,.65-.75,2.9,2.9,0,0,1,1-.41,6.34,6.34,0,0,1,1.3-.11h.65a8.65,8.65,0,0,0,0-.88,2.16,2.16,0,0,0-.27-1.27,1.17,1.17,0,0,0-.45-.31,1.24,1.24,0,0,0-.54-.06,4.44,4.44,0,0,0-1,.13,3.76,3.76,0,0,0-.88.35Zm3.44,3.86h-.63a4.74,4.74,0,0,0-.75.06,2.1,2.1,0,0,0-.65.23,1.12,1.12,0,0,0-.48.46,1.15,1.15,0,0,0-.14.65,1.47,1.47,0,0,0,.31,1,1,1,0,0,0,.36.26,1.12,1.12,0,0,0,.44.09,1.57,1.57,0,0,0,1-.32,1.74,1.74,0,0,0,.5-.7Zm3-4.33H248l.17.86h.06a1.95,1.95,0,0,1,1.85-1.05,2.13,2.13,0,0,1,1.89.94,5.65,5.65,0,0,1,.63,3.07,7.92,7.92,0,0,1-.21,1.81,4.33,4.33,0,0,1-.57,1.37,2.51,2.51,0,0,1-2.14,1.15,3,3,0,0,1-.74-.06,1.75,1.75,0,0,1-.57-.23v3.28h-1.14Zm1.13,6.7a1.63,1.63,0,0,0,.51.3,2,2,0,0,0,.73.12,1.62,1.62,0,0,0,.8-.24,1.54,1.54,0,0,0,.54-.62,5,5,0,0,0,.49-2.45,7.08,7.08,0,0,0-.08-1.22,3.44,3.44,0,0,0-.28-.93,1.51,1.51,0,0,0-.49-.6,1.16,1.16,0,0,0-.72-.22c-.77,0-1.27.48-1.5,1.42Zm9.23-5.69h-1.73c0,.91-.08,1.78-.13,2.62a15.24,15.24,0,0,1-.28,2.24,4.53,4.53,0,0,1-.57,1.55,1.18,1.18,0,0,1-.41.42,1.09,1.09,0,0,1-.56.15,3.55,3.55,0,0,1-.46,0,1.42,1.42,0,0,1-.35-.11l.17-1a.86.86,0,0,0,.57,0c.18-.09.33-.37.45-.83a12.78,12.78,0,0,0,.32-2.12c.08-.95.13-2.24.16-3.89h3.93v8h-1.13Zm2.94-.56a4,4,0,0,1,1.14-.45,5.93,5.93,0,0,1,1.39-.16,2.66,2.66,0,0,1,1.08.2,1.58,1.58,0,0,1,.63.57,1.82,1.82,0,0,1,.3.78,5.59,5.59,0,0,1,.08.91c0,.64,0,1.27,0,1.87s0,1.18,0,1.71a10.21,10.21,0,0,0,0,1.13,5.4,5.4,0,0,0,.15,1h-.87l-.28-.94H264a2.19,2.19,0,0,1-.7.72,2.26,2.26,0,0,1-1.24.3,1.8,1.8,0,0,1-1.41-.57,2.29,2.29,0,0,1-.56-1.65,2.32,2.32,0,0,1,.23-1.13,2,2,0,0,1,.65-.75,2.75,2.75,0,0,1,1-.41,6.28,6.28,0,0,1,1.3-.11h.66c0-.33,0-.62,0-.88a2.17,2.17,0,0,0-.27-1.27,1.05,1.05,0,0,0-.45-.3,1.07,1.07,0,0,0-.53-.07,4.62,4.62,0,0,0-1,.13,3.86,3.86,0,0,0-.87.35Zm3.45,3.85h-.63a4.74,4.74,0,0,0-.75.06,2.1,2.1,0,0,0-.65.23,1.26,1.26,0,0,0-.46.43,1.38,1.38,0,0,0-.16.69,1.46,1.46,0,0,0,.31,1,1.22,1.22,0,0,0,.36.27,1,1,0,0,0,.44.08,1.53,1.53,0,0,0,1-.32,1.66,1.66,0,0,0,.51-.69Zm8.27-1.1.12-1.51h-.07l-.47,1.35-1.5,3.07h-.41l-1.54-3.05-.43-1.36h-.08l.12,1.5v4.74h-1v-8H268l1.73,3.46.34,1h0l.38-1.07,1.61-3.41h1.17v8h-1.13Zm2.68.75a5.41,5.41,0,0,1,.74-3.16,2.4,2.4,0,0,1,.93-.77,2.37,2.37,0,0,1,1.17-.24,2.44,2.44,0,0,1,1.22.23,2.37,2.37,0,0,1,.94.81,5.67,5.67,0,0,1,.69,3.13,5.35,5.35,0,0,1-.74,3.17,2.46,2.46,0,0,1-.93.76,2.39,2.39,0,0,1-1.18.24,2.41,2.41,0,0,1-2.15-1A5.73,5.73,0,0,1,274.84,274.4Zm1.19,0a8.93,8.93,0,0,0,.09,1.27,3.33,3.33,0,0,0,.29,1,1.53,1.53,0,0,0,.51.64,1.32,1.32,0,0,0,.76.24,1.42,1.42,0,0,0,.73-.19,1.29,1.29,0,0,0,.51-.55,5.22,5.22,0,0,0,.42-2.4,8.79,8.79,0,0,0-.09-1.26,3.46,3.46,0,0,0-.28-1,1.74,1.74,0,0,0-.52-.65,1.46,1.46,0,0,0-1.49,0,1.35,1.35,0,0,0-.51.55A5.15,5.15,0,0,0,276,274.4Zm6-4,1-.08a11.57,11.57,0,0,1,1.26,0,2.75,2.75,0,0,1,1.84.49,1.73,1.73,0,0,1,.45.67,1.82,1.82,0,0,1,.12.8,2.25,2.25,0,0,1-.27,1.08,1.68,1.68,0,0,1-.88.8v.06a1.73,1.73,0,0,1,1.09.65,2.28,2.28,0,0,1,.32,1.28,2.12,2.12,0,0,1-.15,1,2.15,2.15,0,0,1-.59.81,3.56,3.56,0,0,1-2.18.57,8.61,8.61,0,0,1-1,0l-.94-.09v-7.94Zm1.14,7,.44,0h.54a1.76,1.76,0,0,0,1.19-.33,1.69,1.69,0,0,0,.37-1,1.61,1.61,0,0,0-.32-1,1.42,1.42,0,0,0-.53-.31,1.4,1.4,0,0,0-.61-.07h-1.06l0,2.7Zm1.17-3.58a1.25,1.25,0,0,0,.8-.39,1.18,1.18,0,0,0,.27-.4,1.37,1.37,0,0,0,.09-.49,1.29,1.29,0,0,0,0-.48,1.64,1.64,0,0,0-.24-.43,1.46,1.46,0,0,0-1-.28h-.61l-.43,0v2.43Zm4-2.92a3.82,3.82,0,0,1,1.13-.45,6,6,0,0,1,1.39-.15,2.36,2.36,0,0,1,1.08.2,1.49,1.49,0,0,1,.63.56,2,2,0,0,1,.31.78,7,7,0,0,1,.07.92c0,.64,0,1.26,0,1.86s0,1.18,0,1.71a10.48,10.48,0,0,0,0,1.14,5.68,5.68,0,0,0,.15,1h-.88l-.26-.94h-.07a2.37,2.37,0,0,1-.7.71,2.26,2.26,0,0,1-1.24.3,1.84,1.84,0,0,1-1.41-.56,2.43,2.43,0,0,1-.57-1.65,2.46,2.46,0,0,1,.24-1.14,1.88,1.88,0,0,1,.65-.75,2.75,2.75,0,0,1,1-.41,7.06,7.06,0,0,1,1.3-.11h.65a8.46,8.46,0,0,0,.05-.87,2.27,2.27,0,0,0-.27-1.28,1.23,1.23,0,0,0-.45-.3,1,1,0,0,0-.54-.06,4,4,0,0,0-1,.13,3.42,3.42,0,0,0-.87.34Zm3.45,3.85h-.64a4.76,4.76,0,0,0-.75.07,1.87,1.87,0,0,0-.64.22,1.19,1.19,0,0,0-.46.43,1.28,1.28,0,0,0-.16.69,1.4,1.4,0,0,0,.3,1,1,1,0,0,0,.37.27.91.91,0,0,0,.44.08,1.54,1.54,0,0,0,1.54-1Zm10.32-1,.1-1.21h-.07l-.57,1.33-2.69,4.46h-.72v-8h1.14v4.73l-.1,1.14h.07l.52-1.3,2.72-4.59h.77v8h-1.14ZM315.53,271l.14-1.71h-.06l-.51,1.58-2.27,4.84h-.4l-2.35-4.84-.5-1.58h0l.22,1.71v7.32h-1.14V267.22h1l2.69,5.47.39,1.31h0l.38-1.32,2.55-5.46h1.05v11.14h-1.2Zm3.07-.16a3.88,3.88,0,0,1,1.14-.45,5.86,5.86,0,0,1,1.39-.15,2.34,2.34,0,0,1,1.07.2,1.57,1.57,0,0,1,.64.56,1.87,1.87,0,0,1,.3.78,5.62,5.62,0,0,1,.07.92c0,.64,0,1.26,0,1.86s0,1.18,0,1.71a10.48,10.48,0,0,0,0,1.14,6.89,6.89,0,0,0,.16,1h-.88l-.27-.94h-.06a2.07,2.07,0,0,1-1.94,1,1.69,1.69,0,0,1-.77-.13,1.72,1.72,0,0,1-.64-.43,2.33,2.33,0,0,1-.57-1.65,2.59,2.59,0,0,1,.23-1.14,2,2,0,0,1,.66-.75,2.75,2.75,0,0,1,1-.41,7,7,0,0,1,1.29-.11H322a8.44,8.44,0,0,0,0-.87,2.26,2.26,0,0,0-.26-1.28,1.23,1.23,0,0,0-.45-.3,1,1,0,0,0-.55-.06,4,4,0,0,0-1,.13,3.42,3.42,0,0,0-.87.34Zm3.45,3.85h-.63a4.54,4.54,0,0,0-.75.07,2,2,0,0,0-.66.22,1.24,1.24,0,0,0-.45.43,1.38,1.38,0,0,0-.17.69,1.41,1.41,0,0,0,.32,1,1,1,0,0,0,.8.35,1.52,1.52,0,0,0,1-.31,1.76,1.76,0,0,0,.51-.7Zm4.73,0h-.57v3.58h-1.14v-8h1.14V274l.53-.22,1.95-3.38h1.22L328,273.6l-.57.53.68.63,2,3.6H328.8l-2-3.58Zm8.68,3.18a2.63,2.63,0,0,1-.9.45,3.88,3.88,0,0,1-1.07.14,2.52,2.52,0,0,1-1.29-.29,2.21,2.21,0,0,1-.85-.84,4.16,4.16,0,0,1-.48-1.33,9.68,9.68,0,0,1-.15-1.7,5.53,5.53,0,0,1,.72-3.11,2.39,2.39,0,0,1,2.08-1.06,4.2,4.2,0,0,1,1.06.11,2.78,2.78,0,0,1,.76.29l-.31,1a2.8,2.8,0,0,0-1.38-.37,1.43,1.43,0,0,0-.76.19,1.41,1.41,0,0,0-.54.57,5,5,0,0,0-.44,2.38,7.29,7.29,0,0,0,.1,1.23,3.19,3.19,0,0,0,.32,1,1.81,1.81,0,0,0,.57.66,1.44,1.44,0,0,0,.87.26,2.12,2.12,0,0,0,1.35-.48Zm5.23-4.18.1-1.21h-.06l-.57,1.33-2.69,4.46h-.75v-8h1.14v4.73l-.1,1.14h.06l.53-1.3,2.72-4.59h.75v8h-1.14Zm8.31-.14.1-1.52H349l-.47,1.36-1.51,3.08h-.41l-1.55-3.05-.43-1.36h-.08l.13,1.5v4.74h-1v-8h1.13l1.74,3.46.35,1,.38-1.07,1.61-3.41h1.17v8H349Zm2.94-2.76a3.93,3.93,0,0,1,1.13-.45,6.39,6.39,0,0,1,1.38-.13,2.64,2.64,0,0,1,1.07.2,1.58,1.58,0,0,1,.63.57,1.88,1.88,0,0,1,.31.78,5.62,5.62,0,0,1,.07.92c0,.63,0,1.26,0,1.86s0,1.18,0,1.71a10.48,10.48,0,0,0,0,1.14,6.51,6.51,0,0,0,.15,1h-.87l-.27-.94h-.07a2.1,2.1,0,0,1-.7.72,2.26,2.26,0,0,1-1.24.3,1.8,1.8,0,0,1-1.41-.57,2.35,2.35,0,0,1-.57-1.65,2.57,2.57,0,0,1,.23-1.13,2,2,0,0,1,.65-.75,2.87,2.87,0,0,1,1-.41,6.25,6.25,0,0,1,1.29-.11h.66c0-.33,0-.62,0-.88a2.17,2.17,0,0,0-.27-1.27,1.05,1.05,0,0,0-.45-.3,1.06,1.06,0,0,0-.53-.06,3.91,3.91,0,0,0-1,.13,3.49,3.49,0,0,0-.88.34Zm3.45,3.85h-.64a4.53,4.53,0,0,0-.74.07,2,2,0,0,0-.66.22,1.24,1.24,0,0,0-.45.43,1.2,1.2,0,0,0-.16.69,1.4,1.4,0,0,0,.3,1,1,1,0,0,0,.37.27.93.93,0,0,0,.44.08,1.52,1.52,0,0,0,1-.31,1.76,1.76,0,0,0,.51-.7Zm8.21-1.53H363v5.16h-1.2V267.22H363v5.19l.57-.22,2.9-5h1.37L364.94,272l-.57.5.66.64,3.23,5.19h-1.52Zm5.92-2.32a3.82,3.82,0,0,1,1.13-.45,6,6,0,0,1,1.4-.15,2.34,2.34,0,0,1,1.07.2,1.57,1.57,0,0,1,.64.56,2,2,0,0,1,.29.78,4.7,4.7,0,0,1,.08.92c0,.64,0,1.26,0,1.86s0,1.18,0,1.71a10.48,10.48,0,0,0,0,1.14,5.68,5.68,0,0,0,.15,1h-.87l-.27-.94H373a2.07,2.07,0,0,1-.7.71,2.26,2.26,0,0,1-1.24.3,1.84,1.84,0,0,1-1.41-.56,2.38,2.38,0,0,1-.57-1.65,2.62,2.62,0,0,1,.23-1.14,2,2,0,0,1,.66-.75,2.75,2.75,0,0,1,1-.41,7,7,0,0,1,1.29-.11H373A8.46,8.46,0,0,0,373,273a2.19,2.19,0,0,0-.27-1.28,1.08,1.08,0,0,0-.45-.3,1,1,0,0,0-.53-.06,3.91,3.91,0,0,0-1,.13,3.49,3.49,0,0,0-.88.34Zm3.45,3.85h-.64a3.81,3.81,0,0,0-.75.07,2.08,2.08,0,0,0-.65.22,1.16,1.16,0,0,0-.45.43,1.29,1.29,0,0,0-.17.69,1.46,1.46,0,0,0,.31,1,1,1,0,0,0,.8.35,1.55,1.55,0,0,0,1-.31,1.86,1.86,0,0,0,.51-.7Zm8.82,5.66H381l-.19-2H376v-8h1.13v6.93h2.63v-6.88h1.14v6.92h.91Zm1.14-9.51a3.88,3.88,0,0,1,1.14-.45,5.86,5.86,0,0,1,1.39-.15,2.32,2.32,0,0,1,1.07.2,1.57,1.57,0,0,1,.64.56,2.26,2.26,0,0,1,.3.78,7,7,0,0,1,.07.92c0,.64,0,1.26,0,1.86s0,1.18,0,1.71a10.48,10.48,0,0,0,0,1.14,5.68,5.68,0,0,0,.15,1h-.87l-.28-.94h-.06a2.16,2.16,0,0,1-.7.71,2.26,2.26,0,0,1-1.24.3,1.72,1.72,0,0,1-.77-.13,1.85,1.85,0,0,1-.64-.43,2.37,2.37,0,0,1-.56-1.65,2.48,2.48,0,0,1,.23-1.14,2,2,0,0,1,.65-.75,2.75,2.75,0,0,1,1-.41,7.06,7.06,0,0,1,1.3-.11h.65a8.46,8.46,0,0,0,.05-.87,2.27,2.27,0,0,0-.27-1.28,1.05,1.05,0,0,0-.45-.3,1,1,0,0,0-.54-.06,4,4,0,0,0-1,.13,3.49,3.49,0,0,0-.88.34Zm3.45,3.85h-.63a4.54,4.54,0,0,0-.75.07,2,2,0,0,0-.66.22,1.14,1.14,0,0,0-.44.43,1.3,1.3,0,0,0-.18.69,1.47,1.47,0,0,0,.27,1,1,1,0,0,0,.35.27,1,1,0,0,0,.45.08,1.53,1.53,0,0,0,1-.32,1.76,1.76,0,0,0,.51-.7Z"/><path class="cls-13" d="M107.53,234.79v-.13c0-2.33,0-3.37,2.65-3.95l8.22-1.82a.51.51,0,0,1,.28-.24c.9-.37,3.48-1.86,5.17-1.66,3.08.37,2.62,1.5.2,2.32a15.21,15.21,0,0,1-5.06.35h-.09a.83.83,0,0,1-.22,0l-8.31,1.84c-2,.45-2,1.29-2,3.2v.12h.57a.44.44,0,0,1,.28.12.39.39,0,0,1,.11.28.39.39,0,0,1-.11.27.39.39,0,0,1-.28.12h-.14V249.7h.14a.26.26,0,0,1,.15,0l.14.08a.38.38,0,0,1,.09.13.83.83,0,0,1,0,.15.46.46,0,0,1-.1.26.38.38,0,0,1-.24.13V268.6c0,2,1,3.68,2.2,3.68h.18v.57a.17.17,0,0,1,0,.1.22.22,0,0,1-.09.07h-6.21a.2.2,0,0,1-.11,0,.16.16,0,0,1-.06-.08.1.1,0,0,1,0-.07v-.57c1.14-.1,2.09-1.71,2.09-3.67,0-6,0-12.09,0-18.13a.41.41,0,0,1-.25-.15.4.4,0,0,1-.08-.28.38.38,0,0,1,.13-.25.42.42,0,0,1,.28-.1h.14V235.58H107a.36.36,0,0,1-.28-.12.39.39,0,0,1-.11-.27.39.39,0,0,1,.11-.28.4.4,0,0,1,.28-.12Z"/><path class="cls-14" d="M147.58,246.22a7.65,7.65,0,0,0-3.87,1.05v-4.33c0-1.14-1-2.32-1.59-3.24a3,3,0,0,0,1.46-1.38,3.05,3.05,0,0,0,.29-2,3,3,0,0,0-2.91-2.45,3,3,0,0,0-1.92.62,3,3,0,0,0-1.1,1.68,3,3,0,0,0,1.58,3.46c-.48.73-1.88,2.9-1.88,3.79,0,.66-.08,5.12.11,7.34l-2.53,1.5V248c0-1.14-1-2.32-1.6-3.24a3,3,0,0,0,1.46-1.38,3.05,3.05,0,0,0,.29-2,3,3,0,0,0-2.91-2.45,3,3,0,0,0-1.91.62,3,3,0,0,0-.92,3.69A3,3,0,0,0,131,244.7c-.48.73-1.88,2.91-1.88,3.8,0,.64-.07,5.05.11,7.29l-2.61,1.49v-4.47c0-1.13-1-2.32-1.59-3.23a3,3,0,0,0,1.47-1.38,3,3,0,0,0,.29-2,3,3,0,0,0-1-1.74,3.06,3.06,0,0,0-1.89-.72,3,3,0,0,0-1.92.62,3,3,0,0,0-.93,3.7,3.1,3.1,0,0,0,1.4,1.46c-.48.73-1.88,2.91-1.88,3.79,0,.67-.08,5.32.13,7.48l-.86.5a7.72,7.72,0,0,0-8.8,3,7.56,7.56,0,0,0-1.2,3.07,7.71,7.71,0,0,0,.19,3.31,7.62,7.62,0,0,0,1.56,2.91,7.7,7.7,0,0,0,2.63,2,7.79,7.79,0,0,0,3.23.7,11.32,11.32,0,0,0,4.06-.79c6.88-3.08,19.76-12.16,23.47-14.35a7.7,7.7,0,0,0,8.9-2.87,7.7,7.7,0,0,0-6.32-12.09Zm0,13.41a5.64,5.64,0,0,1-3.06-.9c-6.82,4.23-17.29,11.68-24.08,14.84a6.58,6.58,0,0,1-3,.52,5.4,5.4,0,0,1-2.37-.53,5.47,5.47,0,0,1-1.91-1.5,5.56,5.56,0,0,1-1.07-2.18,5.48,5.48,0,0,1,7.62-6.24l24.67-14.46.57-.35a5.74,5.74,0,0,1,2.45-.56,5.81,5.81,0,0,1,2.46.55,5.64,5.64,0,0,1,2,1.56,5.5,5.5,0,0,1,1.11,2.26,5.6,5.6,0,0,1,0,2.51,5.78,5.78,0,0,1-1.06,2.29A5.68,5.68,0,0,1,150,259a5.57,5.57,0,0,1-2.44.61Z"/><path class="cls-15" d="M140.79,207.06h-9.66v-.44a.15.15,0,0,0,0-.09.22.22,0,0,0-.05-.08.24.24,0,0,0-.08-.06h-1.92a.24.24,0,0,0-.18.07.26.26,0,0,0-.07.17v.45h-3.64c-2.21,0-2,11.42,0,11.42h15.62C142.81,218.48,143,207.06,140.79,207.06Zm-1,10H126.17c-1.62,0-1.77-8.53,0-8.53H139.8C141.57,208.5,141.41,217,139.8,217Z"/><path class="cls-15" d="M132.93,209.05a3.36,3.36,0,0,0-3.11,2.09,3.3,3.3,0,0,0-.26,1.29,3.37,3.37,0,0,0,5.75,2.38,3.38,3.38,0,0,0-2.38-5.76Zm0,5.6a2.26,2.26,0,0,1-.85-.17,2.36,2.36,0,0,1-.72-.49,2.3,2.3,0,0,1-.47-.72,2.27,2.27,0,0,1-.17-.86,2.09,2.09,0,0,1,.18-.85,2.12,2.12,0,0,1,.48-.71,2.16,2.16,0,0,1,.72-.48,2.2,2.2,0,0,1,2.42.49,2.18,2.18,0,0,1,.64,1.58,2.22,2.22,0,0,1-2.23,2.21Zm6.86-5.38H138l-.1,0a.16.16,0,0,0-.08.06.22.22,0,0,0,0,.08.29.29,0,0,0,0,.09v1.2a.25.25,0,0,0,.25.24h1.82l.1,0,.08-.05a.35.35,0,0,0,.05-.08.29.29,0,0,0,0-.09v-1.2a.29.29,0,0,0,0-.09.22.22,0,0,0-.05-.08l-.08,0a.16.16,0,0,0-.1,0Z"/><path class="cls-16" d="M168.39,210.22h-10l4.15-4.35c-.43-.27-.86-.54-1.3-.8l-5,5.12h-2.08l5.76-5.91c-.87-.49-1.76-.95-2.65-1.39l-7.15,7.31h-3.75c-4.78,0-4.5,16-4.22,16h3.37a2.35,2.35,0,0,0,4.7,0H171a2.34,2.34,0,0,0,4,1.59,2.32,2.32,0,0,0,.73-1.59h3.08a2.32,2.32,0,0,0,1.07-.26,2.19,2.19,0,0,0,.83-.71,54.79,54.79,0,0,0-4.38-6.71h-2.88v-3.43c-.63-.69-1.27-1.36-1.94-2v5.46h-5.83v-5.95H171q-1.26-1.22-2.58-2.34h0Zm-10.66,2.33h5.84v5.95h-5.84v-5.95Zm-7.9,0h5.87v5.95h-5.87v-5.95Zm-3.84,0h2v5.95h-2v-5.95Z"/><path class="cls-13" d="M139,208.14v2.41a1.15,1.15,0,0,1-1.14,1.08,1.15,1.15,0,0,1-.79-.31,1.17,1.17,0,0,1-.35-.77v-3.78a3.65,3.65,0,0,1,3.63-3.64h5.71l3.3-2.54a.88.88,0,0,1,.63-.16.86.86,0,0,1,.57.33.88.88,0,0,1,.18.64.89.89,0,0,1-.32.58L148,203.89l.72,3a1.48,1.48,0,0,1,.13.35l.62,3.13a1.14,1.14,0,0,1,0,.45,1,1,0,0,1-.18.41,1,1,0,0,1-.32.32,1.05,1.05,0,0,1-.42.18,1.37,1.37,0,0,1-.45,0,1.15,1.15,0,0,1-.41-.17,1.08,1.08,0,0,1-.32-.32,1,1,0,0,1-.17-.42l-.39-2-.57,2a1.14,1.14,0,0,1-.19.4,1.18,1.18,0,0,1-.33.3,1.23,1.23,0,0,1-.42.14,1,1,0,0,1-.45,0,1.23,1.23,0,0,1-.4-.19,1.13,1.13,0,0,1-.29-.33,1.12,1.12,0,0,1-.15-.42,1.14,1.14,0,0,1,0-.45l.56-2-5.55,0Zm-7.25-6.55h.89a2.47,2.47,0,0,1,.87-1.62l.7-2.19c1,.72,3.64,3,3.53,4.65a2.1,2.1,0,0,1-.68,1.28,2,2,0,0,1-1.34.54h-4a1.26,1.26,0,0,1-1-.36,1.25,1.25,0,0,1-.31-.44,1.33,1.33,0,0,1,0-1.06,1.25,1.25,0,0,1,.31-.44,1.21,1.21,0,0,1,.46-.28,1.25,1.25,0,0,1,.54-.08Zm12.85-3-4.9,3.78a.55.55,0,0,1-.2.17.58.58,0,0,1-.26.06.48.48,0,0,1-.26-.07.47.47,0,0,1-.2-.17.51.51,0,0,1-.1-.24.46.46,0,0,1,0-.26.48.48,0,0,1,.13-.23.49.49,0,0,1,.23-.14l4.11-3.2,1.43.28v0Z"/><path class="cls-17" d="M114.06,248.74c-.31-1.14-1-2.13-2.12-2.13h-9.46l3.71-3.71-5.58-5.57L95,242.91l3.72,3.72H80.5c0,.66-.09,1.31-.13,2h5v5.65h-5a53.64,53.64,0,0,0,1,7.78h0v.07l.3,1.35a1.2,1.2,0,0,0,1.53.07,1.17,1.17,0,0,0,.46-.67,1.25,1.25,0,0,0-.07-.81h1.48a1.2,1.2,0,0,0-.12.59,1.36,1.36,0,0,0,.18.58,1.24,1.24,0,0,0,.44.41,1.22,1.22,0,0,0,1.17,0,1.24,1.24,0,0,0,.44-.41,1.37,1.37,0,0,0,.19-.58,1.2,1.2,0,0,0-.12-.59h1.58a1.17,1.17,0,0,0-.12.52,1.19,1.19,0,0,0,.38.81,1.21,1.21,0,0,0,.83.33,1.23,1.23,0,0,0,.83-.33,1.19,1.19,0,0,0,.38-.81,1.24,1.24,0,0,0-.12-.53h11.22a1.23,1.23,0,0,0-.09.73,1.26,1.26,0,0,0,.33.66,1.28,1.28,0,0,0,.76.35,1.26,1.26,0,0,0,.8-.22,1.23,1.23,0,0,0,.47-.69,1.25,1.25,0,0,0-.08-.83H106a1.23,1.23,0,0,0-.09.73,1.19,1.19,0,0,0,1.09,1,1.28,1.28,0,0,0,.8-.22,1.23,1.23,0,0,0,.47-.69,1.25,1.25,0,0,0-.08-.83h1.57a1.23,1.23,0,0,0-.09.73,1.19,1.19,0,0,0,1.09,1,1.28,1.28,0,0,0,.8-.22,1.23,1.23,0,0,0,.47-.69A1.25,1.25,0,0,0,112,262c1.14,0,1.81-1,2.07-2.11l1.42-6.06-1.42-5.12Zm-21.12,5.49H87.26v-5.65h5.68Zm7.61,0H94.87v-5.65h5.68v5.65Zm.06-8.08-3.25-3.25,3.25-3.26,3.25,3.26Zm7.42,8.08h-5.68v-5.65H108Zm3.91,0h-2v-5.65h2Z"/><path class="cls-14" d="M132.23,213.68a1.22,1.22,0,0,1,0,1.71c-1,1-2.15,2.1-3.35,3.25h1.45a1.2,1.2,0,0,1,.81.39,1.25,1.25,0,0,1,0,1.67,1.2,1.2,0,0,1-.81.39h-4c-1.09,1.06-2.22,2.14-3.34,3.21h2.38a1.27,1.27,0,0,1,.6.12,1.32,1.32,0,0,1,.48.4,1.28,1.28,0,0,1,.21.58,1.21,1.21,0,0,1-.58,1.18,1.17,1.17,0,0,1-.71.17h-4.94l-2.41,2.31a4.12,4.12,0,0,0-1.48,3.06v5.79h-5.29v-5.8a4,4,0,0,0-1.48-3.06l-2.47-2.31h-4.91a1.21,1.21,0,0,1-1.17-1.22,1.22,1.22,0,0,1,.34-.85,1.26,1.26,0,0,1,.83-.38h2.37l-3.34-3.2h-4a1.26,1.26,0,0,1-.81-.4,1.24,1.24,0,0,1,0-1.66,1.26,1.26,0,0,1,.81-.4h1.44c-1.2-1.13-2.33-2.27-3.35-3.25a1.08,1.08,0,0,1-.28-.39,1.12,1.12,0,0,1-.11-.47,1.51,1.51,0,0,1,.08-.48,1.24,1.24,0,0,1,.67-.68,1.15,1.15,0,0,1,.94,0,1.09,1.09,0,0,1,.4.27l3.24,3.18v-1.06a1.13,1.13,0,0,1,.08-.48,1.29,1.29,0,0,1,.26-.42,1.21,1.21,0,0,1,.4-.28,1.19,1.19,0,0,1,.49-.1,1.15,1.15,0,0,1,.48.1,1.12,1.12,0,0,1,.4.28,1,1,0,0,1,.26.42,1.13,1.13,0,0,1,.08.48v3.1a1.12,1.12,0,0,1,0,.32l3.77,3.7v-2.22a1.22,1.22,0,1,1,2.44,0v4.62l3.52,3.41v-6.6l0,0q-5.39-5.27-10.74-10.54H97.74a53.27,53.27,0,0,1,5.32-4.28v2l9.6,9.41v-4.36l-3.93-3.84a1.24,1.24,0,0,1-.38-.86,1.26,1.26,0,0,1,.35-.88,1.27,1.27,0,0,1,.86-.37,1.23,1.23,0,0,1,.87.35l2.23,2.18v-3.94h-6.47a1.22,1.22,0,0,1-.77-.28,1.23,1.23,0,0,1-.43-.7q1.2-.76,2.43-1.47h2.84l-1-1c.76-.37,1.51-.75,2.27-1.11.36.34.78.66,1.17,1.05v-1.56c.81-.36,1.64-.69,2.47-1v2.59c.94-.93,2.06-1.53,2.06-2.69v-.62a53.81,53.81,0,0,1,6.38-1.65,1.09,1.09,0,0,1-.27.4l-1.71,1.68h1.23a1.23,1.23,0,0,1,.82.38,1.23,1.23,0,0,1-.82,2.07h-3.73l-1.57,1.48h4.07a1.23,1.23,0,1,1,0,2.45h-6.49v3.92l2.23-2.17a1.2,1.2,0,0,1,.4-.26,1.09,1.09,0,0,1,.47-.08,1,1,0,0,1,.46.1,1.18,1.18,0,0,1,.4.27,1.2,1.2,0,0,1,.26.4,1.09,1.09,0,0,1,.08.47,1.1,1.1,0,0,1-.1.47,1.05,1.05,0,0,1-.27.39l-3.93,3.84v4.37l9.6-9.41v-8.5a1.21,1.21,0,0,1,.38-.83,1.2,1.2,0,0,1,.84-.34,1.22,1.22,0,0,1,.85.34,1.25,1.25,0,0,1,.37.83v6.1l1.91-1.86a1.23,1.23,0,0,1,.87-.35,1.27,1.27,0,0,1,.86.37,1.22,1.22,0,0,1,.34.87,1.17,1.17,0,0,1-.37.86l-2.38,2.33h2.43a1.31,1.31,0,0,1,.48.08,1.22,1.22,0,0,1,.7,1.63,1.42,1.42,0,0,1-.28.41,1.29,1.29,0,0,1-.42.26,1.12,1.12,0,0,1-.48.07H125.9l-10.73,10.54,0,0v6.62l3.51-3.41v-4.65a1.23,1.23,0,0,1,2.45,0v2.22l3.77-3.7a1.64,1.64,0,0,1,0-.32v-3.1a1.31,1.31,0,0,1,.08-.48,1.29,1.29,0,0,1,.26-.42,1.25,1.25,0,0,1,.41-.28,1.12,1.12,0,0,1,.48-.1,1.15,1.15,0,0,1,.48.1,1.25,1.25,0,0,1,.41.28,1.2,1.2,0,0,1,.33.9v1.08l3.25-3.17a1.21,1.21,0,0,1,.85-.35,1.23,1.23,0,0,1,.85.35Z"/><path class="cls-18" d="M177.25,270.34l0,0-1.15-.72-1.34-.82v0a20.85,20.85,0,0,1,1.7-3.41,21.88,21.88,0,0,1,2.18-3l1.34.82,1.14.71a22.53,22.53,0,0,0-3.89,6.39ZM172,279v0l-1.17-.73-1.34-.81v0a21.86,21.86,0,0,0-3.92,6.36l1.34.82,1.14.71a20.33,20.33,0,0,1,1.65-3.3,21.33,21.33,0,0,1,2.28-3.06Zm4.37-2.9a10.5,10.5,0,0,1-3.54,3.41,28,28,0,0,0-2,2.9,25.56,25.56,0,0,0-1.76,3.41c2.51,1.14,6.79-1.61,10.15-6.42.31-.44.6-.88.88-1.35,3.47-5.68,4.28-11.54,1.93-13.43a27.16,27.16,0,0,0-3.88,6.26,10.65,10.65,0,0,1-1.6,5l-.14.22Z"/><path class="cls-19" d="M180.57,260.44l-4-.1a.79.79,0,0,0-.5.24.76.76,0,0,0,0,1,.74.74,0,0,0,.49.26l4,.1a.73.73,0,0,0,.52-.22.8.8,0,0,0,.23-.53.78.78,0,0,0-.2-.53.79.79,0,0,0-.51-.26Zm-3.83-34.15,1.13,25.7a.58.58,0,0,1-.17.41.58.58,0,0,1-.4.16.56.56,0,0,1-.22,0,.82.82,0,0,1-.2-.12.8.8,0,0,1-.13-.19.59.59,0,0,1,0-.23l-1.14-25.71c-1.44.27-2.27,1.42-3,4.33l-8,35.7a.74.74,0,0,1-.34.49.76.76,0,0,1-.59.1.74.74,0,0,1-.49-.34.76.76,0,0,1-.1-.59l8-35.58c.5-2.95,2.37-5.59,5.24-5.59,2.66,0,4.5,1.92,5.29,4.89v.15c0,.18.09.37.13.56l5.47,24.46c-.11,1.57-.29,3.14-.53,4.7l-6.5-29c-.69-2.85-1.7-4.11-3.4-4.29Zm-.11,26.8,2.58.69.11-.5a1.78,1.78,0,0,1,.5-.86,1.69,1.69,0,0,1,.89-.43,1.66,1.66,0,0,1,1.73.78,1.74,1.74,0,0,1,.24.62,1.89,1.89,0,0,1,0,.67l-.82,3.46c-.22.94-.68,2.32-2,2.27l-2.52-.09c-1.13,0-1.08-.2-2.09.35l-1.9,1.05c-2.07,1.14-2.52-1-1.4-1.66s2.36-1.41,3.46-1.95c.85-.44,2.84.5,3.13-.75l.33-1.4-2.63-.7a.8.8,0,0,1-.49-.37.87.87,0,0,1-.08-.61.83.83,0,0,1,.37-.49.77.77,0,0,1,.61-.08Zm4.86-5.64a2,2,0,0,1,.77.15,2,2,0,0,1,.64.43,1.92,1.92,0,0,1,.59,1.4,2,2,0,0,1-.15.77,1.85,1.85,0,0,1-.43.64,1.88,1.88,0,0,1-.64.44,2,2,0,0,1-2.18-3.24A2,2,0,0,1,181.49,247.45Z"/><path class="cls-20" d="M125.23,294.12A10.4,10.4,0,1,1,110.63,281v2.51a8.29,8.29,0,1,0,13.16,8l1.44,2.64Zm-10.59-19a2.82,2.82,0,0,1,2.8,2.8v1.86h5.11a1.37,1.37,0,0,1,1.26,1.37,1.41,1.41,0,0,1-.36.94,1.43,1.43,0,0,1-.9.44h-5.11v2.15h6.78a1.89,1.89,0,0,1,1,.26,1.78,1.78,0,0,1,.69.67l4.35,7.55a1.68,1.68,0,0,1,.14,1.3,1.73,1.73,0,0,1-3.15.43l-3.68-6.37h-8.89a1.88,1.88,0,0,1-.62-.11,2.8,2.8,0,0,1-2.15-2.73V277.9a2.8,2.8,0,0,1,2.8-2.8Zm.13-6.42a2.83,2.83,0,1,1-2,.83A2.85,2.85,0,0,1,114.77,268.68Z"/><path class="cls-14" d="M124.5,301.54h10.93v-4.65l-10.49,0,8.68-7.34-5.16-.06,6.46-5.95H132l4.61-4.36.85-.81.32.32,5.11,4.85H140l6.5,5.95-5.16.06,8.68,7.34H140v4.67h8.19a26.86,26.86,0,0,1-23.68,0l0,0Z"/><path class="cls-13" d="M82.43,260.46v-1.67l3.34,0v1.67Zm5,.06v-1.67l3.34,0v1.66l-3.34,0Zm5,.07v-1.67l3.33,0v1.67Zm5,.06V259l3.33,0v1.66Zm5,.07v-1.67h2v3h-1.65V260.7l-.35,0Zm.37,3h1.66v3.34h-1.67Zm0,5h1.66v3.34h-1.67Zm1.82,4.85V271.9h3.32v1.66Zm5,0V271.9h3.34v1.67Zm5,0V271.9h3.34v1.67H114.6Zm5,0V271.9h3.34v1.67Zm5,0V271.9h3.34v1.67Zm5,0V271.9h3.34v1.67Zm5,0V271.9h3.34v1.67Zm5,0V271.9h3.33v1.67Zm5,0V271.9h3.33v1.67Zm5,0V271.9h3.33v1.67Zm3.17.17h1.66v3.33h-1.67Zm0,5h1.66v3.34h-1.65Zm0,5h1.72v3.33h-1.71Zm0,5h1.72v3.33h-1.67l-.05-3.33Zm0,5h1.72v3.33h-1.67Zm0,5h1.72v1.69c-.57.23-1.11.45-1.67.66Z"/><path class="cls-15" d="M95.6,266.41c-5.61,0-10.17,1.31-10.17,2.93a.81.81,0,0,0,.06.31l.69,4.9A57.82,57.82,0,0,0,89,279.66L88.8,278a29.13,29.13,0,0,0,3.5.46l.18,2.5a14.38,14.38,0,0,1-3-.56c.47.72,1,1.43,1.46,2.13.54.08,1.09.15,1.65.19l.15,2h-.12c.61.75,1.22,1.49,1.87,2.2v-.32c.95,0,1.91,0,2.84-.06l-.16,2.17c-.31,0-.63.05-1,.06q1.32,1.35,2.73,2.61c2.18-.33,3.71-1,3.89-1.7v-.09l.71-5a2.61,2.61,0,0,0,.09-.57l2.08-14.51v-.2c0-1.58-4.5-2.89-10.12-2.89Zm-7,9.67-.42-3.18a19.49,19.49,0,0,0,3.86.81l.22,3a17.19,17.19,0,0,1-3.63-.66ZM87.74,270c.09-.8,3.57-1.44,7.86-1.44,3.41,0,6.33.41,7.41,1l0,0c-2.46,2.12-11.81,2.63-15.23.4v0Zm9.75,14.84a29.29,29.29,0,0,1-3.11.1l-.12-2.06a32.29,32.29,0,0,0,3.41-.09Zm.27-3.86a31.65,31.65,0,0,1-3.64.15l-.18-2.52a37.77,37.77,0,0,0,4-.09Zm.3-4.31a33.48,33.48,0,0,1-4.25.15l-.2-2.94a26.9,26.9,0,0,0,4.66-.14Zm3,10.72c0,.5-.91.93-2.28,1.19l.16-2.1c.8-.1,1.58-.23,2.32-.39Zm.46-3.41a12.41,12.41,0,0,1-2.47.62l.15-2a22,22,0,0,0,2.57-.51Zm.57-4.23a7.76,7.76,0,0,1-2.77,1l.18-2.38a27.6,27.6,0,0,0,2.84-.48l-.26,1.89Zm.56-4.16a10.7,10.7,0,0,1-3,.83l.21-3a20.22,20.22,0,0,0,3.06-.79l.14-.08ZM95.28,224.4c-.29,1.86-.9,4.11-1.33,6s-.9,3.93-1.32,5.9c-.69,3.16-.41,2.85-1.9,5.34q-1.38,2.3-2.74,4.6a2.5,2.5,0,0,0-.34,2.74,2.2,2.2,0,0,0,1.07.95,2.16,2.16,0,0,0,1.42.09c1.27-.36,2.27-2.62,3.15-4.09s1.79-3,2.69-4.55c.8-1.36,1.08-5.06,1.53-5.78.93.88,2.81,3,3.76,4.1,1.2,1.35.77.48,1.35,3.42.32,1.62.57,3.78,1,5.3a2.2,2.2,0,0,0,1.58,1.59,2.29,2.29,0,0,0,2.3-.8c.8-1.14.1-3.42-.24-5.16a43.81,43.81,0,0,0-1.09-5.25c-.14-.27-2.58-3.09-2.88-3.45-.47-.57-1-1.14-1.45-1.71a21.57,21.57,0,0,0-1.47-1.7l1.41-6.47a.49.49,0,0,1,.16.16c.69.88.57,2,1.86,2.87,1,.68,3.49,2.48,4.39,3a1.6,1.6,0,0,0,.93.26,1.58,1.58,0,0,0,.91-.33,1.48,1.48,0,0,0,.48-.89,1.56,1.56,0,0,0-.19-1,39.87,39.87,0,0,0-4.36-3.15c-.66-.45-.47-.34-1-1.43l-2.52-5c-1.19-2.36-3.41-2.71-5.64-.92l-3.45,2.79c-.32.26-2.59,2.09-2.71,2.28a25.28,25.28,0,0,0-1,4c-.22,1-1,3.25-.43,4s2.28,1.23,2.77-1c.3-1.38.57-2.71.89-4.08s.22-.94,1-1.57a10.07,10.07,0,0,1,1.47-1.13Zm4.55-13.49c-4.25.83-3.08,7.08,1.11,6.38s3-7.2-1.14-6.38ZM104,253.54h3.35v-2.65H104Z"/><path class="cls-15" d="M89.29,243.91H92.8l.38,0v-3l-.38-.05H89.3v3.09Zm1.32,9.63h3.33v-2.65H90.62Zm-6.69,0h3.34v-2.65H83.92Zm26.67,0h3.34v-2.65h-3.32Zm-1.15-9.63h3.88v-3.08h-3.86Z"/><path class="cls-13" d="M161.93,281.14c.13.26,2.15,2.23,2.54,2.61l1.29,1.3c1.71,1.67,2.6,2.54.39,4.63-1.34,1.27-2.59,2.55-3.91,3.78L161,294.75a4,4,0,0,1-1.48,1.11,1.9,1.9,0,0,1-1.92-.5,2,2,0,0,1-.49-.91,2,2,0,0,1,0-1c.31-1,3.12-3.08,3.68-3.92-3.85-.1-7.82,0-11.69,0-1.09,0-7.88.16-8.62-.17a1.94,1.94,0,0,1-.85-.73,1.9,1.9,0,0,1-.29-1.07c.07-2.27,2.63-1.84,4-1.84h11.7c1.91,0,3.93.06,5.82,0a5.89,5.89,0,0,0-1.14-1.25c-1.65-1.71-2.84-2.25-2.36-4.15l0,0,0,0,.15-.21a1.78,1.78,0,0,1,.22-.26c1.86-1.73,3.46,1,4.14,1.41Zm-2.88-5.89v1.67l-3.33,0v-1.67Zm25.65-9.39v1.68h-3.33v-1.68Zm-5,0v1.68h-3.33v-1.68Zm-5,0v1.68h-3.33v-1.68Zm-5,0v1.68h-.93v.73h-1.67v-2.41ZM167.13,270h1.67v3.33h-1.65Zm0,5h1.67v1.89h-3.08v-1.67h1.44l0-.22Zm-3.11.26v1.66h-3.33v-1.66Z"/><path class="cls-21" d="M143.68,241.48a8.32,8.32,0,0,1,1.38-3.76,7.62,7.62,0,0,1,2.63-2.46c.39.57,2.06,3.71,2.56,4.59a9.56,9.56,0,0,1,.82,1.63h-7.39Zm-19.05-5.74a8.52,8.52,0,0,1,1.85,11.56,10.35,10.35,0,0,1-.94,1.14,5.3,5.3,0,0,1-1.09,1,8.56,8.56,0,0,1-12.58-10.9c2.6-5.37,9.73-5.11,11-3.79-.18.47-1.86,3.41-2.23,4-.78,1.34-2.41,3.55-1.1,4.13,1,.42,1.38-.56,1.74-1.23.52-.95,3.09-5.63,3.37-5.89h0Zm24.9-1.35c1.34-.81,4.35-.41,5.72.12a8.54,8.54,0,1,1-11.57,8.94h5.95c1.79,0,4.84.46,4.07-1.42C153.27,241,149.76,235.14,149.53,234.39Zm-21.13-5.54,5,8.73c.83,1.51,1.67,2.9,2.51,4.43.57,1.08.57,1.44,2.09,1.43a29.91,29.91,0,0,1,3.28,0,15.48,15.48,0,0,0,1,3.72,12,12,0,0,0,2.55,3.41,11,11,0,0,0,13.07,1c9.8-6.55,4-21.36-7.26-19.9-.87.12-1.64.43-2.39.54l-2.13-3.77c-.29-.56,0-.83.64-2a8.74,8.74,0,0,1,1.16-1.9c1,0,3.66.26,4.2-.33a1,1,0,0,0,.21-.38,1.29,1.29,0,0,0,0-.44,1.18,1.18,0,0,0-.17-.4,1,1,0,0,0-.33-.29,64.42,64.42,0,0,0-6.86-.12c-.68,0-1.25.38-1.09,1.22s.79.71,1.63.76l-.8,1.55H130l2.58-4.65c1.42,0,2.87,0,4.3,0,1.93,0,1.71-1.92.22-2s-2.9,0-4.34,0c-1.7,0-1.35.06-2.4,1.91s-2,3.69-3.13,5.54-2.06,3.8-3.16,5.61a11.68,11.68,0,0,0-4.84-1,10.64,10.64,0,0,0-4.72,1.18,10.88,10.88,0,0,0-4.15,3.73,10.87,10.87,0,0,0-.64,10.77,10.89,10.89,0,0,0,3.68,4.2c10.05,6.76,22.3-6,14.5-15.82a18,18,0,0,0-2.12-2.07Zm10.35,12.64c.05-.37,2.6-4.94,3-5.68.69-1.21,2.55-4.86,3.1-5.63a16.25,16.25,0,0,1,1.66,3.07,9.33,9.33,0,0,0-2,1.4,11.38,11.38,0,0,0-2.62,4.1c-1.2,3.36.52,2.69-3.22,2.74Zm-1.86-1.82c-.9-1.47-6.43-11.28-6.51-11.54h13.34L137.18,240Z"/><path class="cls-17" d="M154.12,239.14a2.63,2.63,0,0,1,1,.17,2.4,2.4,0,0,1,.85.55,2.37,2.37,0,0,1,.57.83,2.58,2.58,0,0,1,0,2,2.37,2.37,0,0,1-.57.83,2.4,2.4,0,0,1-.85.55,2.63,2.63,0,0,1-1,.17,2.55,2.55,0,0,1,0-5.09ZM161,251.63v4.64a1.47,1.47,0,0,1-.89,1.44,1.4,1.4,0,0,1-1.18,0,1.49,1.49,0,0,1-.89-1.44v-6a10.84,10.84,0,0,0-.53,3.44v16.37a1.46,1.46,0,0,1-.43,1,1.48,1.48,0,0,1-1,.45H156a1.48,1.48,0,0,1-1-.45,1.45,1.45,0,0,1-.42-1V258.67a.46.46,0,0,0-.13-.29.47.47,0,0,0-.3-.12.45.45,0,0,0-.29.12.47.47,0,0,0-.14.29v11.45a1.49,1.49,0,0,1-1.45,1.48h-.06a1.48,1.48,0,0,1-1-.45,1.45,1.45,0,0,1-.42-1V253.75a11.13,11.13,0,0,0-.53-3.44v6a1.48,1.48,0,0,1-2.53,1,1.44,1.44,0,0,1-.43-1v-4.64c.27-5.29,2.46-6.83,6.89-6.72,4.44-.13,6.62,1.43,6.89,6.72Zm-5,20h0Zm13.86-8.69h-.69v7.22a1.42,1.42,0,0,1-.43,1,1.48,1.48,0,0,1-1,.45h-.07a1.48,1.48,0,0,1-1-.45,1.45,1.45,0,0,1-.42-1v-7.67a18.67,18.67,0,0,1-2.52-.75l2.54-10.38a1.19,1.19,0,0,0-.12-.38l-1.41,5c-.2.68-.68,1.35-1.58,1.13-1.43-.37-.81-2-.57-2.84.91-2.84,1.26-5.18,2.56-7.39.52-.88,1.65-1.47,4.32-1.42h.43c2.67-.05,3.81.56,4.33,1.42,1.3,2.19,1.65,4.55,2.56,7.39.24.78.85,2.45-.57,2.84-.91.24-1.39-.43-1.58-1.13l-1.4-5a2.78,2.78,0,0,0-.12.38l2.54,10.38a22.09,22.09,0,0,1-2.52.75v7.66a1.49,1.49,0,0,1-1.45,1.48h-.07a1.49,1.49,0,0,1-1.45-1.48v-7.23Zm1.74,8.69h0Zm-1.79-31.85a2.59,2.59,0,0,1,1.8.74,2.55,2.55,0,0,1-1.8,4.35,2.53,2.53,0,0,1-1.8-.74,2.55,2.55,0,0,1,1.8-4.35Z"/><path class="cls-16" d="M126.23,275.88a6.46,6.46,0,0,1,2.17-.44h22a4.57,4.57,0,0,0,2.23-.52l3.16-1.24a.94.94,0,0,1,.7,0,.92.92,0,0,1,.46,1.21.94.94,0,0,1-.5.48L153,276.72a5.1,5.1,0,0,1-2,.57,1.84,1.84,0,0,1,.7.92,1.91,1.91,0,0,1,0,1.16,1.84,1.84,0,0,1-.68.94,1.8,1.8,0,0,1-1.1.37,1.84,1.84,0,0,1-1.1-.37,1.82,1.82,0,0,1-.67-.94,1.91,1.91,0,0,1,0-1.16,1.86,1.86,0,0,1,.71-.92H131.29a1.79,1.79,0,0,1,.7.92,1.81,1.81,0,0,1,0,1.15,1.85,1.85,0,0,1-3.54,0,1.81,1.81,0,0,1,0-1.15,1.84,1.84,0,0,1,.7-.92h-.92a2,2,0,0,0-.81.14l-.73.21a.83.83,0,0,1-.35.05,1,1,0,0,1-.34-.1,1,1,0,0,1-.28-.22,1,1,0,0,1-.16-.32.69.69,0,0,1,0-.35.91.91,0,0,1,.1-.33.87.87,0,0,1,.23-.27.81.81,0,0,1,.32-.16Zm-.15-9.92h0a.87.87,0,0,0,0,.36,1,1,0,0,0,.18.31.8.8,0,0,0,.29.2.89.89,0,0,0,.35.08.85.85,0,0,0,.35-.08.72.72,0,0,0,.29-.2.84.84,0,0,0,.19-.31.82.82,0,0,0,0-.35.89.89,0,0,0,.08.43.87.87,0,0,0,.28.35.93.93,0,0,0,.42.15.84.84,0,0,0,.44-.07.83.83,0,0,0,.39-.35.79.79,0,0,0,.12-.52.93.93,0,0,0,.27.61.87.87,0,0,0,.6.28.89.89,0,0,0,.82-.63h.1a1,1,0,0,0,.31.43.85.85,0,0,0,.51.17.93.93,0,0,0,.61-.27.9.9,0,0,0,.25-.62.91.91,0,0,0,.26.62.88.88,0,0,0,.61.27.93.93,0,0,0,.61-.31,1,1,0,0,0,0-1.3.94.94,0,0,0-.61-.32.77.77,0,0,0-.34.08.86.86,0,0,0-.29.21l0,0a4.87,4.87,0,0,0,0-2.93,22.76,22.76,0,0,0-.63-2.56,7.22,7.22,0,0,0-3.3-.13c-.35.24-.37,1.07-.94,1.69-1.08,1.08-4.39,1-4.81,2.7a1.59,1.59,0,0,0,0,1h-.07a1,1,0,0,0-.62.31,1,1,0,0,0-.25.66,1,1,0,0,0,.25.65.93.93,0,0,0,.62.31.89.89,0,0,0,.6-.26,1,1,0,0,0,.27-.6.85.85,0,0,0,.29.52.88.88,0,0,0,1.12,0A.85.85,0,0,0,126,266l0,0Z"/><path class="cls-22" d="M162.33,259.36v.71h2.45a1.52,1.52,0,0,1,1,.47,1.54,1.54,0,0,1,0,2.09,1.52,1.52,0,0,1-1,.47h-2.45v2.31h4.08a1,1,0,0,1,.72.32,1,1,0,0,1,.28.74,1,1,0,0,1-.18.62,1.17,1.17,0,0,1-.51.4v7.36a.55.55,0,0,1-.16.38.51.51,0,0,1-.37.15.5.5,0,0,1-.37-.15.55.55,0,0,1-.16-.38v-7.32h-1.18v4.8a.55.55,0,0,1-.16.38.54.54,0,0,1-.37.15.56.56,0,0,1-.37-.15.55.55,0,0,1-.16-.38v-4.8H136.57v4.8a.54.54,0,0,1-.15.38.56.56,0,0,1-.37.15.58.58,0,0,1-.38-.15.54.54,0,0,1-.15-.38v-4.8h-1.18v7.32a.78.78,0,0,1,0,.22.57.57,0,0,1-.12.18.52.52,0,0,1-.17.13.52.52,0,0,1-.21,0,.54.54,0,0,1-.22,0,.52.52,0,0,1-.17-.13.57.57,0,0,1-.12-.18.78.78,0,0,1,0-.22v-7.33a1.07,1.07,0,0,1-.59-1.79,1.07,1.07,0,0,1,.68-.33h4.1v-2.31H135a1.52,1.52,0,0,1,0-3h2.45v-.7H135a1.52,1.52,0,0,1-1.51-1.52,1.5,1.5,0,0,1,1.51-1.51h29.76a1.51,1.51,0,0,1,1,2.56,1.49,1.49,0,0,1-1,.46h-2.44Zm-1,6v-2.31H138.57v2.31Zm-22.73-5.34H161.3v-.7H138.57Z"/><path class="cls-23" d="M166.16,230.18v.71a1.74,1.74,0,0,1-1.73,1.74h-8.82a1.74,1.74,0,0,1-1.73-1.74v-8.25h12.49a3.76,3.76,0,1,1,0,7.48h-.18Zm-16.88,3.36H171a2.44,2.44,0,0,1-2.43,2.44H151.71a2.44,2.44,0,0,1-2.43-2.44Zm16.88-9.75V229h.19a2.83,2.83,0,0,0,1.08-.12,2.6,2.6,0,0,0,.94-.54,2.74,2.74,0,0,0,.63-.88,2.56,2.56,0,0,0,.23-1.06,2.59,2.59,0,0,0-.23-1.06,2.74,2.74,0,0,0-.63-.88,2.6,2.6,0,0,0-.94-.54,2.64,2.64,0,0,0-1.08-.11Z"/><path class="cls-15" d="M97.15,253.54h3.36v-2.65H97.1Zm-14.38-9.63h3.49l.4,0v-3l-.37-.05H82.77Zm40.46,0h3.51l.38,0v-3l-.37-.05h-3.51Zm-6.69,0H120l.38,0v-3l-.38-.05h-3.5Z"/></svg>