<svg width="209" height="48" viewBox="0 0 209 48" fill="none" xmlns="http://www.w3.org/2000/svg">
<path d="M18.9075 12.4712H18.9508H23.483H23.5262C24.3032 12.4712 24.8643 11.9063 24.8643 11.1242V1.34706C24.8643 0.564901 24.3032 0 23.5262 0H23.483H18.9508H18.9075C18.1306 0 17.5695 0.564901 17.5695 1.34706V11.1242C17.5263 11.9498 18.0874 12.4712 18.9075 12.4712Z" fill="#B8195B"/>
<path d="M12.8148 17.686L12.8579 17.6424L15.6636 14.0792L15.7068 14.0358C16.1816 13.4275 16.0953 12.6453 15.491 12.1239L7.89403 6.04035C7.28973 5.56237 6.51277 5.64927 5.99479 6.25762L5.95163 6.30107L3.14593 9.86429L3.10277 9.90773C2.62796 10.516 2.71429 11.2983 3.31859 11.8197L10.9156 17.9032C11.563 18.3812 12.34 18.2943 12.8148 17.686Z" fill="#8401FF"/>
<path d="M13.0762 25.6805V25.637L12.0834 21.2047V21.1613C11.9108 20.3791 11.2633 19.9881 10.4863 20.1618L1.03328 22.3346C0.256314 22.5083 -0.132161 23.1602 0.0404965 23.9423V23.9858L1.03328 28.4181V28.4615C1.20593 29.2437 1.85341 29.6348 2.63036 29.461L12.0834 27.2882C12.8603 27.1145 13.2489 26.4626 13.0762 25.6805Z" fill="#0047CB"/>
<path d="M19.4692 30.4633L19.426 30.4198L15.3685 28.4644L15.3254 28.421C14.5916 28.0733 13.8578 28.334 13.5556 29.0728L9.36872 37.8504C9.02336 38.5892 9.28234 39.3279 10.0161 39.632L10.0593 39.6755L14.1168 41.6309L14.16 41.6744C14.8937 42.022 15.6275 41.7612 15.9297 41.0225L20.1166 32.2449C20.4188 31.5496 20.1598 30.8109 19.4692 30.4633Z" fill="#19B9EB"/>
<path d="M27.1437 28.4671L27.1005 28.5106L23.043 30.466L22.9999 30.5095C22.2661 30.8571 22.0503 31.5958 22.3524 32.3345L26.5825 41.1121C26.9279 41.8508 27.6617 42.0681 28.3954 41.764L28.4387 41.7205L32.4961 39.7651L32.5393 39.7216C33.2731 39.374 33.4889 38.6353 33.1867 37.8966L28.9566 29.1189C28.5681 28.3802 27.8343 28.1195 27.1437 28.4671Z" fill="#38DEC2"/>
<path d="M30.3382 21.1168V21.1603L29.3454 25.5926V25.636C29.1728 26.4182 29.5613 27.07 30.3382 27.2438L39.7913 29.4165C40.5683 29.5903 41.2157 29.1992 41.3884 28.417V28.3736L42.3812 23.9414V23.8978C42.5538 23.1157 42.1653 22.4639 41.3884 22.2901L31.9353 20.1174C31.2015 19.9436 30.5541 20.3346 30.3382 21.1168Z" fill="#FBC41B"/>
<path d="M26.6733 14.0358L26.7165 14.0792L29.5222 17.6424L29.5654 17.686C30.0401 18.2943 30.8171 18.3812 31.4646 17.9032L39.0615 11.8197C39.6659 11.3417 39.7522 10.5596 39.2774 9.90773L39.2342 9.86429L36.4285 6.30107L36.3854 6.25762C35.9106 5.64927 35.1336 5.56237 34.4861 6.04035L26.8891 12.1239C26.2849 12.6453 26.1985 13.384 26.6733 14.0358Z" fill="#F9831B"/>
<path d="M142.329 0H147.811C148.027 0 148.156 0.0869056 148.113 0.304174V5.95315C148.113 6.12697 147.983 6.25733 147.811 6.25733H142.329C142.156 6.25733 142.027 6.12697 142.027 5.95315V0.304174C142.027 0.13036 142.156 0 142.329 0Z" fill="#2F3337"/>
<path d="M54.31 0H59.7919C59.9645 0 60.094 0.0869056 60.094 0.304174V5.95315C60.094 6.12697 59.9645 6.25733 59.7919 6.25733H54.31C54.1373 6.25733 54.0078 6.12697 54.0078 5.95315V0.304174C54.0078 0.13036 54.1373 0 54.31 0Z" fill="#2F3337"/>
<path d="M77.3505 20.0593C76.0169 19.9202 74.7751 19.7907 73.817 19.5978C72.0041 19.2502 71.4429 18.555 71.4429 17.4686C71.4429 15.8174 72.9536 14.6876 75.8457 14.6876C78.8241 14.6876 81.5004 15.7739 83.4855 17.4686C83.615 17.599 83.7882 17.599 83.9178 17.4251L87.1545 13.6012C87.284 13.4709 87.284 13.297 87.1116 13.1667C85.4714 11.6893 82.1909 9.60352 76.5795 9.60352C70.2775 9.60352 66.0473 12.6018 66.0473 17.9031C66.0473 21.7705 68.1192 23.5956 70.8817 24.5515C72.7121 25.1658 74.5262 25.3205 76.2739 25.4694C77.37 25.563 78.44 25.6542 79.4716 25.8552C81.5004 26.2028 82.148 27.0284 82.148 28.332C82.148 30.1136 80.5507 31.2 77.3996 31.2C73.7307 31.2 70.9249 30.0267 68.7236 27.8975C68.594 27.7671 68.3782 27.7237 68.2487 27.8975L65.0977 31.7214C65.09 31.7446 65.0809 31.7679 65.0719 31.7909C65.0306 31.8969 64.9913 31.9976 65.0977 32.069C66.6948 33.7202 70.1048 36.2406 76.8816 36.2406C84.7379 36.2406 87.8451 32.4166 87.8451 27.8106C87.6726 22.9438 84.3922 21.1622 81.5433 20.5973C80.1876 20.355 78.7204 20.2022 77.3505 20.0593Z" fill="#2F3337"/>
<path d="M59.6615 10.2236H54.4818C54.3091 10.2236 54.1797 10.354 54.1797 10.5278V35.4579C54.1797 35.6317 54.3091 35.762 54.4818 35.762H59.6615C59.8342 35.762 59.9637 35.6317 59.9637 35.4579V10.5278C59.9637 10.354 59.8774 10.2236 59.6615 10.2236Z" fill="#2F3337"/>
<path fill-rule="evenodd" clip-rule="evenodd" d="M106.784 9.37207C103.201 9.37207 100.482 10.5887 98.6265 12.5876V10.2834C98.6265 10.1095 98.4969 9.97919 98.3237 9.97919H93.4031C93.2306 9.97919 93.1011 10.1095 93.1011 10.2834V45.96C93.1011 46.1338 93.2306 46.2642 93.4031 46.2642H98.5828C98.7552 46.2642 98.8847 46.1338 98.8847 45.96V33.0543C100.741 34.8794 103.331 35.9222 106.828 35.9222C114.381 35.9222 119.388 30.0994 119.388 22.5819C119.345 15.2383 114.381 9.37207 106.784 9.37207ZM105.834 30.534C100.914 30.534 98.4103 27.0142 98.4103 22.6689C98.4103 18.3669 100.914 14.8906 105.834 14.8906C110.453 14.8906 113.216 18.4104 113.216 22.6689C113.216 27.0142 110.453 30.534 105.834 30.534Z" fill="#2F3337"/>
<path d="M136.239 9.75537C137.448 9.75537 138.614 10.0161 139.477 10.3203C139.649 10.3637 139.649 10.4941 139.649 10.7548L138.225 16.0996C138.182 16.2734 138.052 16.3168 137.88 16.2734C136.974 15.9692 136.024 15.7954 135.247 15.7954C131.578 15.7954 129.377 18.8371 129.377 22.3569V35.4799C129.377 35.6537 129.247 35.7841 129.074 35.7841H123.894C123.722 35.7841 123.592 35.6537 123.592 35.4799V10.5555C123.592 10.3817 123.722 10.2514 123.894 10.2514H128.815C128.988 10.2514 129.117 10.3817 129.117 10.5555V13.7531C130.973 10.6679 133.822 9.75537 136.239 9.75537Z" fill="#2F3337"/>
<path fill-rule="evenodd" clip-rule="evenodd" d="M207.857 10.2241H202.937C202.764 10.2241 202.635 10.3544 202.635 10.5282V12.5876C200.735 10.5887 198.059 9.37207 194.476 9.37207C186.922 9.37207 181.916 15.1948 181.916 22.6254C181.916 30.0994 186.922 35.9657 194.476 35.9657C197.929 35.9657 200.563 34.8793 202.418 33.0977V35.5311C202.418 40.0069 199.008 41.745 195.901 41.745C192.966 41.745 190.246 40.311 188.779 37.4431C188.736 37.2693 188.477 37.1824 188.347 37.2693L183.512 39.4854C183.383 39.5289 183.34 39.7462 183.383 39.833C184.721 43.0052 188.39 46.9594 195.901 46.9594C204.016 46.9594 208.203 41.8753 208.203 35.5311V10.5282C208.159 10.3544 208.03 10.2241 207.857 10.2241ZM195.426 30.534C190.807 30.534 188.045 27.0142 188.045 22.6689C188.045 18.3669 190.807 14.8906 195.426 14.8906C200.347 14.8906 202.85 18.4104 202.85 22.6689C202.85 27.0142 200.347 30.534 195.426 30.534Z" fill="#2F3337"/>
<path d="M142.459 10.2173H147.638C147.811 10.2173 147.94 10.3477 147.94 10.5214V35.4582C147.94 35.632 147.811 35.7624 147.638 35.7624H142.459C142.285 35.7624 142.156 35.632 142.156 35.4582V10.5214C142.156 10.3477 142.285 10.2173 142.459 10.2173Z" fill="#2F3337"/>
<path d="M168.717 10.2241C165.538 10.2241 162.994 11.2431 161.171 13.0264V10.5213C161.171 10.3515 161.043 10.2241 160.874 10.2241H156.04C155.87 10.2241 155.743 10.3515 155.743 10.5213V35.487C155.743 35.6568 155.87 35.7842 156.04 35.7842H161.128C161.298 35.7842 161.425 35.6568 161.425 35.487V21.5181C161.425 18.1639 163.205 15.5739 166.894 15.5739C169.989 15.5739 172.067 17.3572 172.067 21.0935V35.487C172.067 35.6568 172.194 35.7842 172.364 35.7842H177.451C177.621 35.7842 177.748 35.6568 177.748 35.487V19.6924C177.706 14.5124 175.416 10.2241 168.717 10.2241Z" fill="#2F3337"/>
</svg>
