<svg width="100" height="80" viewBox="0 0 100 80" fill="none" xmlns="http://www.w3.org/2000/svg">
<g clip-path="url(#clip0)">
<path d="M6.00808 61.1504C5.37867 61.4761 4.70159 61.7009 4.00182 61.8164H0.668848C0.580624 61.8178 0.493008 61.8016 0.411212 61.7686C0.329416 61.7357 0.255112 61.6867 0.19272 61.6245C0.130328 61.5624 0.081122 61.4884 0.0480304 61.407C0.0149389 61.3255 -0.0013625 61.2383 9.60502e-05 61.1504V31.9017C-0.00141567 31.8143 0.0149313 31.7275 0.0481431 31.6467C0.081355 31.5658 0.130738 31.4925 0.19329 31.4312C0.255842 31.3699 0.330256 31.3219 0.412009 31.2901C0.493762 31.2584 0.581146 31.2435 0.668848 31.2465H19.3508C19.4385 31.2435 19.5258 31.2584 19.6076 31.2901C19.6894 31.3219 19.7638 31.3699 19.8263 31.4312C19.8889 31.4925 19.9383 31.5658 19.9715 31.6467C20.0047 31.7275 20.021 31.8143 20.0195 31.9017V50.4842C20.0195 51.1502 20.0195 51.1502 19.3508 51.8054L6.00808 61.1504Z" fill="#BF5D5D"/>
<path d="M99.2989 6.0957e-05H79.506C79.2086 -0.00244862 78.9158 0.0725707 78.6566 0.217665C78.3973 0.36276 78.1807 0.572879 78.0283 0.827146C75.267 5.42445 61.7517 27.9276 59.1522 31.4185C59.0397 31.5663 58.8832 31.675 58.705 31.729C58.5268 31.783 58.336 31.7796 58.1599 31.7193C56.6053 31.3139 54.997 31.1508 53.3923 31.2359C53.3041 31.2374 53.2165 31.2212 53.1347 31.1882C53.0529 31.1552 52.9786 31.1062 52.9162 31.0441C52.8538 30.982 52.8046 30.908 52.7715 30.8265C52.7384 30.7451 52.7221 30.6578 52.7236 30.57V1.33199C52.725 1.24413 52.7087 1.15688 52.6756 1.07543C52.6425 0.993973 52.5933 0.919978 52.5309 0.857846C52.4685 0.795714 52.3942 0.746713 52.3124 0.71376C52.2307 0.680806 52.143 0.664573 52.0548 0.666025H2.00625C1.91803 0.664573 1.83041 0.680806 1.74861 0.71376C1.66682 0.746713 1.59251 0.795714 1.53012 0.857846C1.46773 0.919978 1.41852 0.993973 1.38543 1.07543C1.35234 1.15688 1.33604 1.24413 1.3375 1.33199V17.2829C1.33599 17.3703 1.35233 17.457 1.38555 17.5379C1.41876 17.6188 1.46814 17.6921 1.53069 17.7534C1.59324 17.8147 1.66766 17.8627 1.74941 17.8944C1.83116 17.9262 1.91855 17.9411 2.00625 17.9381H31.3666C31.4549 17.9367 31.5425 17.9529 31.6243 17.9859C31.7061 18.0188 31.7804 18.0678 31.8428 18.13C31.9052 18.1921 31.9544 18.2661 31.9875 18.3475C32.0205 18.429 32.0368 18.5162 32.0354 18.6041V79.0887C32.0339 79.1765 32.0502 79.2638 32.0833 79.3452C32.1164 79.4267 32.1656 79.5007 32.228 79.5628C32.2904 79.625 32.3647 79.674 32.4465 79.7069C32.5283 79.7399 32.6159 79.7561 32.7041 79.7546H51.3861C51.4743 79.7561 51.5619 79.7399 51.6437 79.7069C51.7255 79.674 51.7998 79.625 51.8622 79.5628C51.9246 79.5007 51.9738 79.4267 52.0069 79.3452C52.04 79.2638 52.0563 79.1765 52.0548 79.0887V51.8379H52.7236C64.0708 52.5038 72.743 61.1506 72.743 72.4398V79.0887C72.7415 79.1765 72.7578 79.2638 72.7909 79.3452C72.824 79.4267 72.8732 79.5007 72.9356 79.5628C72.998 79.625 73.0723 79.674 73.1541 79.7069C73.2359 79.7399 73.3235 79.7561 73.4117 79.7546H92.1044C92.1922 79.7562 92.2793 79.7399 92.3605 79.7068C92.4418 79.6737 92.5154 79.6245 92.5769 79.5623C92.6385 79.5 92.6866 79.4259 92.7185 79.3445C92.7504 79.263 92.7653 79.176 92.7624 79.0887V72.4398C92.7124 66.206 91.266 60.0619 88.5285 54.4556C85.791 48.8492 81.8316 43.922 76.9389 40.0331C76.7424 39.8715 76.6096 39.6459 76.5642 39.3962C76.5188 39.1465 76.5637 38.8889 76.6908 38.669L99.8922 1.0742C99.96 0.968503 99.998 0.846566 100.002 0.721202C100.006 0.595839 99.9764 0.47168 99.9157 0.361775C99.855 0.25187 99.7657 0.160279 99.6572 0.0966292C99.5486 0.0329792 99.4249 -0.000379016 99.2989 6.0957e-05Z" fill="#BF5D5D"/>
</g>
<defs>
<clipPath id="clip0">
<rect width="100" height="79.7546" fill="white"/>
</clipPath>
</defs>
</svg>
