<svg id="Слой_1" data-name="Слой 1" xmlns="http://www.w3.org/2000/svg" viewBox="0 0 113.39 113.39"><defs><style>.cls-1{fill:#1b1918;fill-rule:evenodd;}</style></defs><path class="cls-1" d="M86.84,95.11h-.61A2.28,2.28,0,0,1,85,94.76L57.6,77.8a.71.71,0,0,0-.94.16A31.75,31.75,0,0,1,31.73,90H26.49a.71.71,0,0,1-.71-.71l0-14.51a.71.71,0,0,1,.71-.71h5.23a15.9,15.9,0,0,0,16-15.18.75.75,0,0,0-.2-.53.71.71,0,0,0-.52-.22l-20.47,0a.71.71,0,0,1-.71-.71V42.88a.71.71,0,0,1,.71-.71l46.39,0a.72.72,0,0,0,.72-.72l0-22.48a.71.71,0,0,1,.71-.71H86.89a.71.71,0,0,1,.71.71l0,38.42a.72.72,0,0,1-.71.72l-22.58,0a.7.7,0,0,0-.71.69,33,33,0,0,1-.34,4,.7.7,0,0,0,.33.71L86.89,78a1.38,1.38,0,0,1,.68,1.21l0,15.19A.71.71,0,0,1,86.84,95.11ZM40.2,22.85l7.13,10.73a1.43,1.43,0,0,0,1.19.64H63a.72.72,0,0,0,.72-.71V19a.71.71,0,0,0-.71-.71l-22.49,0a.71.71,0,0,0-.71.71v2.56A2.2,2.2,0,0,0,40.2,22.85Z"/></svg>