<svg id="Слой_1" data-name="Слой 1" xmlns="http://www.w3.org/2000/svg" viewBox="0 0 500 500"><defs><style>.cls-1{fill:#4f4f4f;}.cls-2{font-size:26.78px;font-family:Montserrat-Light, Montserrat;font-weight:300;}.cls-3{letter-spacing:-0.02em;}.cls-4{letter-spacing:-0.02em;}.cls-5{letter-spacing:0em;}.cls-6{letter-spacing:-0.03em;}.cls-7{letter-spacing:-0.02em;}.cls-8{letter-spacing:-0.01em;}.cls-9{letter-spacing:0em;}.cls-10{letter-spacing:-0.03em;}.cls-11{letter-spacing:-0.01em;}.cls-12{letter-spacing:-0.01em;}</style></defs><path class="cls-1" d="M233.79,172.57a12.93,12.93,0,0,1-5-4.79,14,14,0,0,1,0-13.85,12.93,12.93,0,0,1,5-4.79,15,15,0,0,1,7.22-1.73,15.17,15.17,0,0,1,6.11,1.19,12.2,12.2,0,0,1,4.59,3.42l-3.86,3.56a8.31,8.31,0,0,0-6.54-3,8.76,8.76,0,0,0-4.31,1.05,7.56,7.56,0,0,0-2.95,3,9.27,9.27,0,0,0,0,8.61,7.54,7.54,0,0,0,2.95,3,8.66,8.66,0,0,0,4.31,1.06,8.26,8.26,0,0,0,6.54-3.08l3.86,3.57a12,12,0,0,1-4.61,3.45A15.29,15.29,0,0,1,241,174.3,15,15,0,0,1,233.79,172.57Z"/><path class="cls-1" d="M275.77,169v4.83H255.65v-26h19.64v4.82H261.62v5.65h12.07V163H261.62v6Z"/><path class="cls-1" d="M297.89,149a8.93,8.93,0,0,1,3.92,3.27,9.81,9.81,0,0,1,0,10,8.74,8.74,0,0,1-3.92,3.27,14.6,14.6,0,0,1-6,1.14h-5.24v7.16h-6v-26h11.25A14.43,14.43,0,0,1,297.89,149Zm-2.21,11.6a4.06,4.06,0,0,0,1.41-3.32,4.12,4.12,0,0,0-1.41-3.36,6.32,6.32,0,0,0-4.12-1.17h-4.91v9h4.91A6.32,6.32,0,0,0,295.68,160.61Z"/><path class="cls-1" d="M325.46,152.76H313.1l0,21.09h-6v-26H325.5Z"/><path class="cls-1" d="M349.3,169v4.83H329.17v-26h19.65v4.82H335.15v5.65h12.07V163H335.15v6Z"/><path class="cls-1" d="M354.17,147.86h6v16.93l12.4-16.93h5.64v26h-5.94V157l-12.4,16.9h-5.68ZM359,140.5h4.12c.05,1.81,1.08,2.71,3.08,2.71a3.33,3.33,0,0,0,2.27-.68,2.64,2.64,0,0,0,.81-2h4.13a5.29,5.29,0,0,1-1.82,4.24,8.48,8.48,0,0,1-5.39,1.45Q359,146.19,359,140.5Z"/><path class="cls-1" d="M203.47,197.42h-4.16v10.47h-6v-26h6v10.51h4.31l6.83-10.51h6.35l-8.5,12.55,8.76,13.44h-6.83Z"/><path class="cls-1" d="M219.88,181.9h6v16.93l12.41-16.93h5.64v26H238V191l-12.4,16.89h-5.69Z"/><path class="cls-1" d="M255.48,206.61a12.87,12.87,0,0,1-5-4.79,14,14,0,0,1,0-13.85,12.87,12.87,0,0,1,5-4.79,15,15,0,0,1,7.22-1.73,15.21,15.21,0,0,1,6.11,1.19,12.2,12.2,0,0,1,4.59,3.42l-3.87,3.56a8.28,8.28,0,0,0-6.53-3,8.63,8.63,0,0,0-4.31,1.06,7.47,7.47,0,0,0-2.95,3,9.27,9.27,0,0,0,0,8.61,7.5,7.5,0,0,0,2.95,3,8.74,8.74,0,0,0,4.31,1.06,8.23,8.23,0,0,0,6.53-3.09l3.87,3.57a12.06,12.06,0,0,1-4.61,3.45,15.3,15.3,0,0,1-6.13,1.19A14.92,14.92,0,0,1,255.48,206.61Z"/><path class="cls-1" d="M297.46,203.07v4.82H277.33v-26H297v4.83H283.31v5.64h12.07v4.68H283.31v6Z"/><path class="cls-1" d="M325.5,181.9v26h-5.94V186.8h-8.92l-.18,5.42a56.2,56.2,0,0,1-.89,9,11.08,11.08,0,0,1-2.36,5.27,5.87,5.87,0,0,1-4.62,1.84,13.05,13.05,0,0,1-3-.41l.38-5.08a3.6,3.6,0,0,0,1.07.14c1.44,0,2.44-.84,3-2.54a31.08,31.08,0,0,0,1.08-8l.37-10.55Z"/><path class="cls-1" d="M352.12,203.07v4.82H332v-26h19.64v4.83H338v5.64h12.07v4.68H338v6Z"/><path class="cls-1" d="M378.64,196.64a6.18,6.18,0,0,1,1.26,3.94,6.29,6.29,0,0,1-2.62,5.38c-1.74,1.29-4.24,1.93-7.48,1.93H357v-26H369.1a12.29,12.29,0,0,1,7,1.74,5.72,5.72,0,0,1,2.53,5,6,6,0,0,1-1,3.4,6.65,6.65,0,0,1-2.71,2.32A7.06,7.06,0,0,1,378.64,196.64Zm-15.67-4h5.61a4.72,4.72,0,0,0,3-.8,3.24,3.24,0,0,0,0-4.7,4.67,4.67,0,0,0-2.95-.81H363Zm10.84,7.43q0-3.24-4.23-3.24H363v6.58h6.61C372.4,203.44,373.81,202.32,373.81,200.1Z"/><path class="cls-1" d="M123,215.94h2.71v21.54l16.64-21.54h2.48v26h-2.71V220.43l-16.63,21.51H123Z"/><path class="cls-1" d="M185.16,215.94v26h-2.71V218.32H166v23.62h-2.71v-26Z"/><path class="cls-1" d="M210.56,235H196.08L193,241.94H190.1l11.88-26h2.71l11.89,26h-2.9Zm-1-2.23-6.24-14-6.24,14Z"/><path class="cls-1" d="M239.08,218.32a9,9,0,0,1,0,13.05q-2.82,2.35-7.8,2.36h-7v8.21h-2.75v-26h9.73Q236.26,215.94,239.08,218.32Zm-2,11.3a5.81,5.81,0,0,0,2-4.77,5.9,5.9,0,0,0-2-4.84,9,9,0,0,0-5.9-1.69H224.3v13h6.91A9,9,0,0,0,237.11,229.62Z"/><path class="cls-1" d="M263.7,218.32h-9.13v23.62h-2.71V218.32h-9.14v-2.38h21Z"/><path class="cls-1" d="M290.26,215.94v26h-2.72v-12H271.28v12h-2.75v-26h2.75v11.59h16.26V215.94Z"/><path class="cls-1" d="M317.4,239.56v2.38H299v-26h17.82v2.38H301.77v9.24h13.44v2.34H301.77v9.66Z"/><path class="cls-1" d="M341,218.32a9,9,0,0,1,0,13.05q-2.82,2.35-7.8,2.36h-7v8.21h-2.75v-26h9.73Q338.2,215.94,341,218.32Zm-2,11.3a5.83,5.83,0,0,0,2-4.77,5.92,5.92,0,0,0-2-4.84,9,9,0,0,0-5.9-1.69h-6.91v13h6.91A9,9,0,0,0,339.05,229.62Z"/><path class="cls-1" d="M367.41,227.3a7.58,7.58,0,0,1,2.43,6.09,7.86,7.86,0,0,1-2.58,6.37c-1.72,1.45-4.21,2.18-7.45,2.18H349.49v-26h2.71v9.28h8.17C363.44,225.22,365.78,225.92,367.41,227.3Zm-2.2,10.85a5.87,5.87,0,0,0,1.88-4.72q0-6-7.35-6H352.2v12.29h7.54A8.24,8.24,0,0,0,365.21,238.15Zm9.12-22.21H377v26h-2.71Z"/><path d="M499,1V499H1V1H499m1-1H0V500H500V0Z"/><text class="cls-2" transform="translate(31.84 396.19)">А<tspan class="cls-3" x="19.63" y="0">Р</tspan><tspan class="cls-4" x="37.87" y="0">Х</tspan><tspan class="cls-5" x="54.24" y="0">ИТЕ</tspan><tspan class="cls-6" x="109.22" y="0">КТ</tspan><tspan class="cls-7" x="141.63" y="0">У</tspan><tspan class="cls-8" x="159.2" y="0">Р</tspan><tspan class="cls-9" x="177.84" y="0">Н</tspan><tspan class="cls-10" x="199.85" y="0">А</tspan><tspan x="218.66" y="0">Я М</tspan><tspan class="cls-11" x="270.96" y="0">А</tspan><tspan class="cls-12" x="290.33" y="0">С</tspan><tspan x="309.21" y="0">ТЕРС</tspan><tspan class="cls-10" x="380.13" y="0">КА</tspan><tspan class="cls-9" x="416.72" y="0">Я</tspan></text></svg>