<svg width="199" height="56" viewBox="0 0 199 56" fill="none" xmlns="http://www.w3.org/2000/svg">
<g clip-path="url(#clip0)">
<path d="M194.944 8.18145H195.574C195.853 8.18145 195.993 7.96986 195.993 7.75827C195.993 7.47616 195.853 7.26457 195.504 7.26457H194.944V8.18145ZM197.182 7.75827C197.182 8.25197 196.902 8.67515 196.553 8.95726L197.392 10.3678H195.993L195.294 9.23938H194.944V10.3678H193.756V6.20663C194.385 6.20663 194.875 6.1361 195.434 6.1361C196.553 6.20663 197.182 6.77087 197.182 7.75827ZM192.008 8.3225C192.008 10.2973 193.406 11.7079 195.364 11.7079C197.322 11.7079 198.72 10.2973 198.72 8.3225C198.72 6.41822 197.322 4.93711 195.364 4.93711C193.476 4.93711 192.008 6.41822 192.008 8.3225ZM199.839 8.3225C199.839 10.8615 197.951 12.7658 195.364 12.7658C192.847 12.7658 190.889 10.8615 190.889 8.3225C190.889 5.85399 192.777 3.94971 195.364 3.94971C197.881 3.94971 199.839 5.85399 199.839 8.3225Z" fill="black"/>
<path d="M10.838 23.6271L19.2987 13.753H30.4164L20.1377 25.8135L31.3254 42.5994H20.3475L13.6349 32.5843H9.57941V42.5994H0V0.352539H9.57941V23.6271H10.838Z" fill="black"/>
<path d="M63.28 23.9796V42.5993H53.7006V26.8713C53.7006 23.2743 51.6029 21.6522 48.8759 21.6522C47.3376 21.6522 45.4497 21.7932 43.0723 21.9343V42.5993H33.4929V14.3172C39.8559 13.5413 46.4286 12.9066 51.6029 12.9066C58.5952 12.836 63.28 17.3499 63.28 23.9796Z" fill="black"/>
<path d="M85.6553 36.1812V30.6094L79.0127 30.962C76.1458 31.1736 74.8872 32.0905 74.8872 33.7832C74.8872 35.4759 76.4954 36.6044 79.4322 36.6044C80.6908 36.6044 82.7885 36.5338 85.6553 36.1812ZM94.8152 23.7681V42.0351C84.117 43.5867 80.9006 43.5162 76.9849 43.5162C69.7829 43.5162 65.8672 39.7782 65.8672 33.8537C65.8672 28.0704 70.0626 25.2492 78.3134 24.826L85.5854 24.4028V24.1913C85.5854 21.9343 83.8373 20.7353 80.6209 20.7353C76.915 20.7353 73.8384 21.1585 69.5731 21.7227L68.5942 14.1056C74.1181 13.1887 77.2646 12.7656 81.8096 12.7656C90.3401 12.6245 94.8152 16.3625 94.8152 23.7681Z" fill="black"/>
<path d="M120.407 28.2116C120.407 23.8388 118.309 20.665 113.624 20.665C111.527 20.665 109.779 20.8061 107.821 20.9472V34.7708C110.758 35.194 112.506 35.194 114.044 35.194C117.75 35.194 120.407 32.1613 120.407 28.2116ZM129.637 28.0001C129.637 37.6625 123.064 43.0227 115.722 43.0227C113.065 43.0227 110.967 43.0227 107.821 42.7406V55.9295H98.2415V14.3174C104.884 13.4006 109.849 12.9069 115.303 12.9069C124.183 12.8363 129.357 18.9018 129.637 28.0001Z" fill="black"/>
<path d="M154.18 28.2116C154.18 23.8388 152.082 20.665 147.397 20.665C145.299 20.665 143.551 20.8061 141.593 20.9472V34.7708C144.53 35.194 146.278 35.194 147.817 35.194C151.522 35.194 154.18 32.1613 154.18 28.2116ZM163.339 28.0001C163.339 37.6625 156.767 43.0227 149.425 43.0227C146.768 43.0227 144.67 43.0227 141.523 42.7406V55.9295H131.944V14.3174C138.587 13.4006 143.551 12.9069 149.005 12.9069C157.955 12.8363 163.06 18.9018 163.339 28.0001Z" fill="black"/>
<path d="M189.63 42.3175C186.344 43.2343 184.246 43.5165 180.68 43.5165C173.548 43.5165 169.563 39.1437 169.563 31.2444V22.3578H164.109V13.7532H169.563V3.94971H179.142V13.7532H187.952V22.3578H179.142V30.257C179.142 33.0782 180.261 34.8414 183.198 34.8414C184.596 34.8414 186.134 34.7003 188.721 34.3477L189.63 42.3175Z" fill="black"/>
<path d="M169.563 13.7529H164.109V22.3575H169.563V13.7529Z" fill="black"/>
</g>
<defs>
<clipPath id="clip0">
<rect width="199" height="56" fill="white"/>
</clipPath>
</defs>
</svg>
