<svg id="Слой_1" data-name="Слой 1" xmlns="http://www.w3.org/2000/svg" viewBox="0 0 113.39 113.39"><defs><style>.cls-1{fill:#1b1918;fill-rule:evenodd;}</style></defs><path class="cls-1" d="M86.11,53.16a3.16,3.16,0,0,1,1.84.56,3.59,3.59,0,0,1,1.21,1.55,6.31,6.31,0,0,1,.43,2.37,6.59,6.59,0,0,1-.43,2.43A3.72,3.72,0,0,1,88,61.68a3.1,3.1,0,0,1-1.84.58,3.35,3.35,0,0,1-1.89-.56A3.51,3.51,0,0,1,83,60.12a6.46,6.46,0,0,1-.42-2.46,6.09,6.09,0,0,1,.43-2.4,3.59,3.59,0,0,1,1.22-1.55A3.33,3.33,0,0,1,86.11,53.16Zm-3.39-8.35h-4v20.3h3.85l0-1.86a5,5,0,0,0,2,1.72,6.48,6.48,0,0,0,5.27,0,6,6,0,0,0,2.07-1.61,7.61,7.61,0,0,0,1.33-2.49,10.83,10.83,0,0,0,.48-3.22,10,10,0,0,0-.42-3A7.33,7.33,0,0,0,92,52.26a5.75,5.75,0,0,0-2-1.62,6.24,6.24,0,0,0-2.7-.59,6.16,6.16,0,0,0-2.59.53,5.52,5.52,0,0,0-2,1.61Zm-7.52,0h-4v20.3h4ZM60.13,53.13a3.31,3.31,0,0,1,1.84.51,3.15,3.15,0,0,1,1.17,1.43,5.62,5.62,0,0,1,.41,2.25,6,6,0,0,1-.42,2.32A3.32,3.32,0,0,1,62,61.13a3.16,3.16,0,0,1-1.8.53,3.23,3.23,0,0,1-1.83-.53,3.29,3.29,0,0,1-1.18-1.47,5.69,5.69,0,0,1-.41-2.25,5.88,5.88,0,0,1,.4-2.3,3.25,3.25,0,0,1,1.16-1.47A3.36,3.36,0,0,1,60.13,53.13Zm7.27-2.74H63.58v2A6.29,6.29,0,0,0,62.42,51,4.26,4.26,0,0,0,61,50.24,6.23,6.23,0,0,0,59.19,50a6.55,6.55,0,0,0-2.64.54,5.72,5.72,0,0,0-2,1.51,7,7,0,0,0-1.31,2.35,10,10,0,0,0-.46,3,9.06,9.06,0,0,0,.78,3.84,5.84,5.84,0,0,0,2.17,2.5,6.14,6.14,0,0,0,3.33.9,5.55,5.55,0,0,0,2.56-.57,5.31,5.31,0,0,0,1.94-1.71l0,1.65a8.51,8.51,0,0,1-.14,1.6,3.24,3.24,0,0,1-.47,1.2,2.31,2.31,0,0,1-1,.76,4.49,4.49,0,0,1-1.65.26,3.73,3.73,0,0,1-2-.44A2.24,2.24,0,0,1,57.28,66h-4a4.59,4.59,0,0,0,2,3.45,8.83,8.83,0,0,0,4.9,1.14,9.8,9.8,0,0,0,4-.72,5.07,5.07,0,0,0,2.43-2.3,8.58,8.58,0,0,0,.81-4ZM49.9,65.11V55.27a6.08,6.08,0,0,0-.63-2.89A4.28,4.28,0,0,0,47.5,50.6,5.72,5.72,0,0,0,44.8,50a6.09,6.09,0,0,0-2.78.64,6.15,6.15,0,0,0-2.1,1.82V50.39H36.07V65.11h4v-7.9a6.61,6.61,0,0,1,.15-1.51,3.61,3.61,0,0,1,.53-1.23,2.44,2.44,0,0,1,1-.83,3.6,3.6,0,0,1,1.52-.31,3,3,0,0,1,1.3.24,1.75,1.75,0,0,1,.77.67,2.86,2.86,0,0,1,.35,1,8.3,8.3,0,0,1,.09,1.26v8.59ZM33.63,50.39H28.87l-5.19,5.28V44.81h-4v20.3h4v-5l1.66-1.54,4.05,6.53h4.9L28.1,55.84Z"/></svg>