<svg width="190" height="78" viewBox="0 0 190 78" fill="none" xmlns="http://www.w3.org/2000/svg">
<path d="M144.716 16.4192C143.747 15.3413 142.113 14.3187 140.146 14.3187C133.831 14.3187 131.754 19.957 131.754 25.2635C131.754 30.2108 133.914 35.1028 139.869 35.1028C141.503 35.1028 143.414 34.1631 144.024 33.1405V34.8541C144.024 37.922 143.774 39.3868 139.786 39.3868C137.875 39.3868 135.631 38.6958 133.665 37.6732L132.363 41.3491C134.939 42.6205 137.376 43.3944 140.063 43.3944C142.14 43.3944 145.076 43.0627 146.959 41.4321C148.954 39.8014 149.037 36.8993 149.037 34.0802L149.064 14.2634L145.104 14.8991C145.104 14.8438 144.799 15.977 144.716 16.4192ZM144.024 26.7837C144.024 27.7234 143.941 28.6631 143.58 29.437C143.137 30.3767 142.279 30.9847 141.171 30.9847C137.986 30.9847 137.626 28.7736 137.626 24.5726C137.626 20.8137 138.318 18.6027 141.088 18.6027C142.473 18.6027 143.497 19.2936 144.024 19.874V26.7837Z" fill="#D0103A"/>
<path d="M125.162 64.8143L125.19 57.9876C125.19 55.8871 125.107 55.2514 124.83 54.3946C124.054 52.1835 121.728 50.8845 118.265 50.8845C116.354 50.8845 114.637 51.2162 112.643 52.073C111.535 52.5428 110.455 53.1509 109.43 53.7589L111.397 57.2414C113.834 55.7213 115.745 55.1132 117.462 55.1132C119.456 55.1132 119.927 55.9976 119.927 58.2087V58.9826H118.681C112.2 58.9826 108.932 61.1937 108.932 65.8922C108.932 69.5405 110.926 71.8069 114.748 72.1662H116.908C118.127 72.028 119.152 71.641 119.983 71.1159C120.426 70.8672 120.841 70.4249 121.284 69.9827C121.728 70.8395 122.558 71.641 123.5 72.1662L124.137 72.4702L124.414 72.1662L127.156 69.2365C125.356 67.8822 125.162 66.8872 125.162 64.8143ZM116.991 68.4073C115.607 68.4073 114.665 67.3018 114.665 65.754C114.665 63.3495 115.884 62.465 119.595 62.465H119.9V67.1636C119.096 68.0204 118.016 68.4073 116.991 68.4073Z" fill="#D0103A"/>
<path d="M27.1984 7.46436H5.67798V28.7736L16.5074 39.525L38.0555 18.2157L27.1984 7.46436Z" fill="#D0103A"/>
<path d="M5.67798 50.2765V71.6134H27.1984L38.0555 60.8621L16.5074 39.5251L5.67798 50.2765Z" fill="#D0103A"/>
<path d="M48.8851 71.6134H70.2947V50.1107L59.6038 39.5251L38.0557 60.8621L48.8851 71.6134Z" fill="#D0103A"/>
<path d="M38.0557 18.2157L59.6038 39.525L70.2947 28.9395V7.46436H48.8851L38.0557 18.2157Z" fill="#D0103A"/>
<path d="M184.211 31.2334C183.27 31.4821 182.827 31.6756 182.328 31.6756C180.5 31.6756 180.002 30.9846 180.002 28.4143V18.3262H183.353L184.738 14.6503H180.002V9.09497L174.739 9.95176V14.6503H172.662V18.3262H174.739V29.2711C174.739 31.1505 174.739 31.4821 175.071 32.3666C175.681 34.1631 177.841 35.3515 180.5 35.3515C181.885 35.3515 183.353 35.0199 184.904 34.4118L184.211 31.2334Z" fill="#D0103A"/>
<path d="M86.2757 20.5374L94.6124 34.8265H101.647L92.092 20.1228L100.706 7.46436H94.1416L86.2757 19.957V7.46436H80.6809V34.8265H86.2757V20.5374Z" fill="#D0103A"/>
<path d="M112.117 18.741C113.585 18.741 114 19.6807 114 21.9747V34.799H119.18V20.1229C119.18 18.8239 119.096 17.9948 118.847 17.2209C118.238 15.5073 116.161 14.3188 113.917 14.3188C112.698 14.3188 111.341 14.5676 110.289 15.1756C109.43 15.6179 108.572 16.2812 107.962 17.0551L107.63 14.3741L103.143 15.0927V34.8266H108.489V22.9421C108.489 21.4772 108.932 20.4546 109.624 19.7913C110.4 19.1003 111.258 18.741 112.117 18.741Z" fill="#D0103A"/>
<path d="M123.223 34.8265H128.596V14.2358L123.223 15.065V34.8265Z" fill="#D0103A"/>
<path d="M164.104 14.153C161.777 14.153 159.783 15.0098 158.315 16.6129C158.315 16.3641 158.398 15.148 158.398 14.5676V6.96704L152.969 7.85147V34.8543H158.398V23.716C158.398 21.8365 158.647 20.7586 159.257 20.04C160.06 19.1003 161.417 18.5752 162.636 18.5752C164.187 18.5752 164.713 19.432 164.713 21.3114V34.8266H169.892V20.731C169.892 18.7687 169.809 18.1606 169.366 17.0551C168.757 15.2586 166.707 14.153 164.104 14.153Z" fill="#D0103A"/>
<path d="M125.938 5.83374C124.11 5.83374 122.642 7.29858 122.642 9.12272C122.642 10.9469 124.11 12.4117 125.938 12.4117C127.766 12.4117 129.233 10.9469 129.233 9.12272C129.233 7.32622 127.766 5.83374 125.938 5.83374Z" fill="#D0103A"/>
<path d="M80.6255 71.4751H86.0541V59.3418H93.1444V54.9196H86.0541V48.5075H94.8616L95.5541 44.1406H80.6255V71.4751Z" fill="#D0103A"/>
<path d="M101.177 53.9523L100.65 51.2161L96.3296 51.9071V71.4751H101.675V58.9825C101.675 57.9599 101.841 57.1031 102.451 56.4398C102.977 55.887 103.835 55.5001 104.805 55.5001C105.414 55.5001 106.107 55.6659 106.633 55.9146L107.99 51.2161C107.131 50.8844 106.771 50.8015 105.996 50.8015C104.002 50.8015 102.035 52.598 101.177 53.9523Z" fill="#D0103A"/>
<path d="M149.701 44.6659V71.4752H155.047V60.0329V43.8091L149.701 44.6659Z" fill="#D0103A"/>
<path d="M166.79 51.2991H160.309L155.047 60.0328L161.999 71.4752H168.258L160.226 59.7841L166.79 51.2991Z" fill="#D0103A"/>
<path d="M140.395 50.9673C139.176 50.9673 137.792 51.216 136.767 51.8241C135.908 52.2663 135.05 52.9296 134.44 53.7035L134.108 51.0226L129.621 51.7412V71.475H134.967V59.5905C134.967 58.1257 135.41 57.103 136.102 56.4121C136.878 55.7211 137.736 55.3894 138.595 55.3894C140.063 55.3894 140.506 56.3292 140.506 58.6508V71.475H145.685V56.7714C145.685 55.5 145.602 54.6432 145.353 53.8693C144.716 52.1834 142.639 50.9673 140.395 50.9673Z" fill="#D0103A"/>
</svg>
