<svg width="177" height="61" viewBox="0 0 177 61" fill="none" xmlns="http://www.w3.org/2000/svg">
<path fill-rule="evenodd" clip-rule="evenodd" d="M77.7491 3.62908V3.22242H76.3558C75.5941 3.22242 75.1974 3.54345 75.1974 4.10019C75.1974 4.64575 75.6047 4.95619 76.3018 4.95619C77.1165 4.95619 77.7491 4.36738 77.7491 3.62908ZM77.7809 5.27723H77.5669C77.2454 5.6839 76.6986 5.9405 75.9484 5.9405C74.683 5.9405 73.9756 5.09509 73.9756 4.15345C73.9756 3.28685 74.5648 2.32345 76.1412 2.32345H77.7491V2.16308C77.7491 1.56367 77.3951 1.1676 76.6022 1.1676C75.9051 1.1676 75.5517 1.44597 75.5083 1.86323H74.3078C74.3614 0.83597 75.2725 0.215088 76.5592 0.215088C77.9743 0.215088 78.9172 0.83597 78.9172 2.18427V5.8016H77.7809V5.27723Z" fill="black"/>
<path fill-rule="evenodd" clip-rule="evenodd" d="M80.74 0.354492H84.996V1.38175H81.9514V5.80153H80.74V0.354492Z" fill="black"/>
<path fill-rule="evenodd" clip-rule="evenodd" d="M87.1078 2.28078H89.8414C89.7665 1.6705 89.3264 1.1782 88.5332 1.1782C87.6867 1.1782 87.2466 1.6599 87.1078 2.28078ZM91.0847 3.17975H87.0541C87.086 4.29264 87.6009 4.91323 88.5869 4.91323C89.2409 4.91323 89.6268 4.65663 89.7771 4.21789H91.0098C90.8058 5.22367 89.9911 5.9405 88.5763 5.9405C86.8613 5.9405 85.8533 4.74226 85.8533 3.04028C85.8533 1.32827 86.872 0.215088 88.5438 0.215088C90.1738 0.215088 91.0634 1.36034 91.0847 2.77308V3.17975Z" fill="black"/>
<path fill-rule="evenodd" clip-rule="evenodd" d="M96.4982 5.80153V3.52191H93.8616V5.80153H92.6501V0.354492H93.8616V2.49465H96.4982V0.354492H97.7097V5.80153H96.4982Z" fill="black"/>
<path fill-rule="evenodd" clip-rule="evenodd" d="M99.0925 0.354492H103.981V1.38175H102.148V5.80153H100.937V1.38175H99.0925V0.354492Z" fill="black"/>
<path fill-rule="evenodd" clip-rule="evenodd" d="M110.092 4.05747C109.92 5.18125 109.009 5.94074 107.69 5.94074C105.997 5.94074 104.989 4.7531 104.989 3.07288C104.989 1.40326 105.997 0.215332 107.69 0.215332C109.02 0.215332 109.888 0.953919 110.049 2.01326H108.848C108.698 1.54244 108.333 1.24288 107.701 1.24288C106.618 1.24288 106.2 2.08829 106.2 3.062C106.2 4.05747 106.629 4.91348 107.701 4.91348C108.376 4.91348 108.773 4.59244 108.891 4.05747H110.092Z" fill="black"/>
<path fill-rule="evenodd" clip-rule="evenodd" d="M111.11 0.354492H115.998V1.38175H114.166V5.80153H112.954V1.38175H111.11V0.354492Z" fill="black"/>
<path fill-rule="evenodd" clip-rule="evenodd" d="M121.101 4.17511C121.101 3.76844 120.865 3.458 120.169 3.458H118.571V4.88133H120.169C120.865 4.88133 121.101 4.58177 121.101 4.17511ZM118.571 2.53756H120.158C120.726 2.53756 120.929 2.24859 120.929 1.90608C120.929 1.55325 120.726 1.27488 120.158 1.27488H118.571V2.53756ZM122.323 4.30341C122.323 5.288 121.627 5.80177 120.393 5.80177H117.381V0.354443H120.415C121.519 0.354443 122.141 0.878814 122.141 1.73482C122.141 2.27007 121.83 2.66586 121.519 2.81592V3.01926C122.023 3.22259 122.323 3.704 122.323 4.30341ZM127.876 3.07264C127.876 2.12041 127.394 1.24264 126.332 1.24264C125.271 1.24264 124.789 2.12041 124.789 3.07264C124.789 4.04635 125.271 4.91352 126.332 4.91352C127.394 4.91352 127.876 4.04635 127.876 3.07264ZM129.088 3.07264C129.088 4.74226 128.048 5.94078 126.332 5.94078C124.618 5.94078 123.578 4.74226 123.578 3.07264C123.578 1.4139 124.618 0.215088 126.332 0.215088C128.048 0.215088 129.088 1.4139 129.088 3.07264ZM79.0784 16.4357C78.9069 17.5595 77.9958 18.319 76.6773 18.319C74.9836 18.319 73.9758 17.1313 73.9758 15.4511C73.9758 13.7815 74.9836 12.5936 76.6773 12.5936C78.0067 12.5936 78.8747 13.3322 79.0357 14.3915H77.8348C77.6851 13.9207 77.3205 13.6211 76.6879 13.6211C75.6053 13.6211 75.1873 14.4665 75.1873 15.4402C75.1873 16.4357 75.6159 17.2917 76.6879 17.2917C77.3632 17.2917 77.76 16.9707 77.8776 16.4357H79.0784Z" fill="black"/>
<path fill-rule="evenodd" clip-rule="evenodd" d="M80.0969 12.7329H84.9855V13.7602H83.1524V18.1802H81.9409V13.7602H80.0969V12.7329Z" fill="black"/>
<path fill-rule="evenodd" clip-rule="evenodd" d="M87.5472 15.4617C87.5472 16.4139 87.9973 17.2917 89.0587 17.2917C90.0556 17.2917 90.5487 16.5104 90.5487 15.4617C90.5487 14.4021 90.0556 13.6208 89.0587 13.6208C87.9973 13.6208 87.5472 14.4986 87.5472 15.4617ZM87.7936 17.6448H87.5793V20.3202H86.3682V12.7327H87.5472V13.2677H87.7615C88.0619 12.8931 88.5335 12.5933 89.3373 12.5933C90.8382 12.5933 91.7602 13.8135 91.7602 15.4617C91.7602 17.1096 90.8276 18.319 89.3373 18.319C88.5444 18.319 88.0831 18.03 87.7936 17.6448ZM96.7025 16.0073V15.6006H95.3091C94.5478 15.6006 94.151 15.9217 94.151 16.4784C94.151 17.024 94.5584 17.3344 95.2552 17.3344C96.0699 17.3344 96.7025 16.7456 96.7025 16.0073ZM96.7346 17.6555H96.5203C96.1987 18.0621 95.6519 18.3187 94.9018 18.3187C93.6364 18.3187 92.9292 17.4733 92.9292 16.5317C92.9292 15.6651 93.5185 14.7017 95.0945 14.7017H96.7025V14.5413C96.7025 13.9419 96.3488 13.5458 95.5555 13.5458C94.8585 13.5458 94.505 13.8242 94.462 14.2415H93.2614C93.3148 13.2142 94.2262 12.5933 95.5128 12.5933C96.9277 12.5933 97.8709 13.2142 97.8709 14.5625V18.1798H96.7346V17.6555Z" fill="black"/>
<path fill-rule="evenodd" clip-rule="evenodd" d="M99.1787 12.7329H104.067V13.7602H102.234V18.1802H101.023V13.7602H99.1787V12.7329Z" fill="black"/>
<path fill-rule="evenodd" clip-rule="evenodd" d="M106.329 14.6592H109.063C108.988 14.0489 108.548 13.5566 107.755 13.5566C106.908 13.5566 106.468 14.0383 106.329 14.6592ZM110.306 15.5582H106.276C106.308 16.6711 106.822 17.2917 107.808 17.2917C108.463 17.2917 108.848 17.0351 108.998 16.5963H110.231C110.028 17.6021 109.213 18.3189 107.798 18.3189C106.083 18.3189 105.075 17.1207 105.075 15.4187C105.075 13.7067 106.093 12.5935 107.766 12.5935C109.395 12.5935 110.285 13.7388 110.306 15.1515V15.5582Z" fill="black"/>
<path fill-rule="evenodd" clip-rule="evenodd" d="M111.872 12.7329H116.127V13.7602H113.083V18.1802H111.872V12.7329Z" fill="black"/>
<path fill-rule="evenodd" clip-rule="evenodd" d="M117.51 18.18V12.7327H118.69V16.3073H118.904L121.198 12.7327H122.592V18.18H121.413V14.6056H121.198L118.871 18.18H117.51Z" fill="black"/>
<path fill-rule="evenodd" clip-rule="evenodd" d="M125.39 12.7328V14.3059C125.39 14.7662 125.432 15.2476 126.591 15.2476C127.041 15.2476 127.426 15.1943 127.78 15.1193V12.7328H129.003V18.1802H127.78V16.1253C127.33 16.2216 126.708 16.2751 126.247 16.2751C124.339 16.2751 124.178 15.3547 124.178 14.4666V12.7328H125.39ZM131.833 14.6592H134.566C134.491 14.0489 134.051 13.5566 133.258 13.5566C132.411 13.5566 131.972 14.0383 131.833 14.6592ZM135.809 15.5582H131.779C131.811 16.6711 132.326 17.2917 133.312 17.2917C133.966 17.2917 134.352 17.0351 134.502 16.5963H135.735C135.531 17.6021 134.716 18.3189 133.301 18.3189C131.586 18.3189 130.578 17.1207 130.578 15.4187C130.578 13.7067 131.597 12.5935 133.269 12.5935C134.899 12.5935 135.788 13.7388 135.809 15.1515V15.5582ZM142.156 16.4357C141.984 17.5595 141.073 18.319 139.755 18.319C138.061 18.319 137.053 17.1313 137.053 15.4511C137.053 13.7815 138.061 12.5936 139.755 12.5936C141.084 12.5936 141.952 13.3321 142.113 14.3915H140.912C140.763 13.9207 140.398 13.6211 139.765 13.6211C138.683 13.6211 138.265 14.4665 138.265 15.4402C138.265 16.4357 138.693 17.2917 139.765 17.2917C140.441 17.2917 140.838 16.9707 140.955 16.4357H142.156Z" fill="black"/>
<path fill-rule="evenodd" clip-rule="evenodd" d="M146.251 15.9004H144.901V18.18H143.689V12.7327H144.901V14.8731H146.273L147.42 12.7327H148.663L147.27 15.3548L148.738 18.18H147.463L146.251 15.9004Z" fill="black"/>
<path fill-rule="evenodd" clip-rule="evenodd" d="M154.012 15.4511C154.012 14.4988 153.53 13.6211 152.469 13.6211C151.408 13.6211 150.925 14.4988 150.925 15.4511C150.925 16.4248 151.408 17.2919 152.469 17.2919C153.53 17.2919 154.012 16.4248 154.012 15.4511ZM155.224 15.4511C155.224 17.1207 154.184 18.3192 152.469 18.3192C150.754 18.3192 149.714 17.1207 149.714 15.4511C149.714 13.7923 150.754 12.5935 152.469 12.5935C154.184 12.5935 155.224 13.7923 155.224 15.4511Z" fill="black"/>
<path fill-rule="evenodd" clip-rule="evenodd" d="M156.8 12.7329H161.056V13.7602H158.011V18.1802H156.8V12.7329Z" fill="black"/>
<path fill-rule="evenodd" clip-rule="evenodd" d="M166.212 15.4511C166.212 14.4988 165.729 13.6211 164.668 13.6211C163.607 13.6211 163.125 14.4988 163.125 15.4511C163.125 16.4248 163.607 17.2919 164.668 17.2919C165.729 17.2919 166.212 16.4248 166.212 15.4511ZM167.423 15.4511C167.423 17.1207 166.384 18.3192 164.668 18.3192C162.953 18.3192 161.913 17.1207 161.913 15.4511C161.913 13.7923 162.953 12.5935 164.668 12.5935C166.384 12.5935 167.423 13.7923 167.423 15.4511ZM75.6156 27.8428C75.6156 28.795 76.0657 29.6728 77.1271 29.6728C78.124 29.6728 78.6171 28.8915 78.6171 27.8428C78.6171 26.7832 78.124 26.0019 77.1271 26.0019C76.0657 26.0019 75.6156 26.8797 75.6156 27.8428ZM75.862 30.0259H75.6477V32.7013H74.4365V25.1138H75.6156V25.6488H75.8299C76.1302 25.2742 76.6018 24.9744 77.4057 24.9744C78.9066 24.9744 79.8286 26.1946 79.8286 27.8428C79.8286 29.4907 78.896 30.7001 77.4057 30.7001C76.6127 30.7001 76.1514 30.4111 75.862 30.0259ZM84.7708 28.3884V27.9818H83.3775C82.6161 27.9818 82.2194 28.3028 82.2194 28.8595C82.2194 29.4051 82.6267 29.7155 83.3236 29.7155C84.1383 29.7155 84.7708 29.1267 84.7708 28.3884ZM84.803 30.0366H84.5887C84.2671 30.4433 83.7203 30.6999 82.9701 30.6999C81.7047 30.6999 80.9976 29.8544 80.9976 28.9128C80.9976 28.0462 81.5868 27.0828 83.1629 27.0828H84.7708V26.9224C84.7708 26.323 84.4171 25.927 83.6239 25.927C82.9268 25.927 82.5734 26.2053 82.5304 26.6226H81.3298C81.3832 25.5953 82.2946 24.9744 83.5812 24.9744C84.996 24.9744 85.9393 25.5953 85.9393 26.9436V30.561H84.803V30.0366ZM89.8306 26.002C89.1444 26.002 88.7695 26.2159 88.6622 26.6976H87.5365C87.6438 25.5738 88.587 24.9744 89.8951 24.9744C91.2991 24.9744 92.0926 25.6704 92.0926 26.5264C92.0926 27.147 91.8137 27.4895 91.5243 27.6072V27.8214C91.921 27.9391 92.2638 28.3028 92.2638 29.009C92.2638 29.951 91.3852 30.6999 89.9058 30.6999C88.3082 30.6999 87.4722 30.0151 87.3328 28.9343H88.4691C88.6409 29.5122 89.198 29.6726 89.8627 29.6726C90.5702 29.6726 91.0527 29.4478 91.0527 28.9555C91.0527 28.5167 90.7738 28.2813 90.0237 28.2813H89.091V27.2967H89.9697C90.6241 27.2967 90.8917 27.0401 90.8917 26.6547C90.8917 26.2159 90.4631 26.002 89.8306 26.002ZM97.6028 28.9343C97.6028 28.5277 97.367 28.2172 96.6701 28.2172H95.0728V29.6406H96.6701C97.367 29.6406 97.6028 29.341 97.6028 28.9343ZM95.0728 27.2968H96.6595C97.2275 27.2968 97.4312 27.0078 97.4312 26.6653C97.4312 26.3125 97.2275 26.0341 96.6595 26.0341H95.0728V27.2968ZM98.8248 29.0626C98.8248 30.0472 98.128 30.561 96.895 30.561H93.8829V25.1137H96.9166C98.0207 25.1137 98.6427 25.6381 98.6427 26.4941C98.6427 27.0293 98.3317 27.4251 98.0207 27.5752V27.7785C98.5248 27.9818 98.8248 28.4632 98.8248 29.0626Z" fill="black"/>
<path fill-rule="evenodd" clip-rule="evenodd" d="M100.401 30.5606V25.1133H101.58V28.6879H101.794L104.088 25.1133H105.482V30.5606H104.303V26.9865H104.088L101.762 30.5606H100.401Z" fill="black"/>
<path fill-rule="evenodd" clip-rule="evenodd" d="M106.865 25.1135H111.753V26.1408H109.92V30.5609H108.709V26.1408H106.865V25.1135Z" fill="black"/>
<path fill-rule="evenodd" clip-rule="evenodd" d="M113.136 30.5606V25.1133H114.315V28.6879H114.53L116.824 25.1133H118.218V30.5606H117.038V26.9865H116.824L114.497 30.5606H113.136Z" fill="black"/>
<path fill-rule="evenodd" clip-rule="evenodd" d="M123.535 26.0981H122.098C121.391 26.0981 121.134 26.3871 121.134 26.8685C121.134 27.3502 121.391 27.6392 122.098 27.6392H123.535V26.0981ZM124.746 25.1135V30.5609H123.535V28.5811H122.249C122.12 28.5811 121.991 28.5811 121.863 28.5705L121.101 30.5609H119.879L120.758 28.3133C120.212 28.0246 119.933 27.5217 119.933 26.8579C119.933 25.7771 120.673 25.1135 122.002 25.1135H124.746Z" fill="black"/>
<path fill-rule="evenodd" clip-rule="evenodd" d="M55.8358 18.8682H49.636V6.48896H37.2354V0.299316H55.8358V18.8682Z" fill="#FD7400"/>
<path fill-rule="evenodd" clip-rule="evenodd" d="M6.23512 18.8682H0.034668V0.299316H18.6352V6.48896H6.23512V18.8682Z" fill="black"/>
<path fill-rule="evenodd" clip-rule="evenodd" d="M0.034668 37.437H6.23512V49.8166H18.6352V56.0059H0.034668V37.437Z" fill="black"/>
<path fill-rule="evenodd" clip-rule="evenodd" d="M49.636 37.437H55.8358V56.0059H37.2354V49.8166H49.636V37.437Z" fill="black"/>
<path fill-rule="evenodd" clip-rule="evenodd" d="M27.9349 18.1807C22.427 18.1807 17.946 22.654 17.946 28.1534C17.946 33.6515 22.427 38.1251 27.9349 38.1251C33.4431 38.1251 37.9241 33.6515 37.9241 28.1534C37.9241 22.654 33.4431 18.1807 27.9349 18.1807ZM27.9349 24.1409C30.151 24.1409 31.9537 25.9408 31.9537 28.1529C31.9537 30.3649 30.151 32.1643 27.9349 32.1643C25.7191 32.1643 23.9164 30.3649 23.9164 28.1529C23.9164 25.9408 25.7191 24.1409 27.9349 24.1409Z" fill="#FD7400"/>
<path fill-rule="evenodd" clip-rule="evenodd" d="M90.9701 56.0059H74.4363V37.437H78.5698V52.3379H88.2147V37.437H92.348V52.3379H95.1037V60.8192H90.9701V56.0059Z" fill="black"/>
<path fill-rule="evenodd" clip-rule="evenodd" d="M136.439 37.437V56.0059H132.305L132.306 48.4396H123.579V56.0059H119.445V37.437H123.579V44.7728H132.306L132.305 37.437H136.439Z" fill="black"/>
<path fill-rule="evenodd" clip-rule="evenodd" d="M172.756 43.6269C172.756 41.9882 171.87 41.105 169.474 41.105H163.535V46.1485H169.474C171.87 46.1485 172.756 45.2392 172.756 43.6269ZM176.886 43.6269C176.886 47.3717 174.411 49.8162 170.165 49.8162H163.535V56.0062H159.402V37.4373H170.165C174.411 37.4373 176.886 39.934 176.886 43.6269Z" fill="black"/>
<path fill-rule="evenodd" clip-rule="evenodd" d="M115.082 52.3379V56.0059H98.5483V37.4373H114.852V41.105H102.682L102.682 44.773H112.557V48.4407H102.682L102.682 52.3379H115.082Z" fill="black"/>
<path fill-rule="evenodd" clip-rule="evenodd" d="M156.646 41.105H149.986V56.0059H145.853V41.105H139.193V37.437H156.646V41.105Z" fill="black"/>
</svg>
