<svg width="202" height="63" viewBox="0 0 202 63" fill="none" xmlns="http://www.w3.org/2000/svg">
<path d="M77.7114 19.8889H73.1884V32.253H71.7202V18.5366H77.7085L77.7114 19.8889ZM76.4204 27.3552C76.4204 25.5868 76.7248 24.2901 77.3308 23.4638C77.6257 23.0573 78.0171 22.7309 78.4698 22.5139C78.9224 22.297 79.4219 22.1964 79.9232 22.2214C81.1264 22.2214 82.009 22.6463 82.5726 23.4946C83.1347 24.3429 83.4201 25.6292 83.426 27.3552C83.426 29.1221 83.1186 30.4216 82.5067 31.2524C82.2105 31.6555 81.8195 31.9791 81.3682 32.1946C80.917 32.4101 80.4196 32.5107 79.9202 32.4875C78.7214 32.4875 77.8388 32.0626 77.2708 31.2128C76.7043 30.3616 76.4218 29.0752 76.4218 27.3552H76.4204ZM77.8871 27.3552C77.8841 27.8797 77.9207 28.4027 77.9969 28.9228C78.0554 29.3419 78.1725 29.7492 78.3482 30.1345C78.4916 30.4495 78.7112 30.7235 78.9864 30.93C79.2601 31.1234 79.5894 31.2231 79.9232 31.2113C80.2384 31.221 80.5498 31.1404 80.8208 30.979C81.0918 30.8175 81.311 30.582 81.4528 30.3C81.7909 29.6935 81.9593 28.7119 81.9593 27.3552C81.9618 26.8341 81.9266 26.3136 81.8539 25.7977C81.796 25.3739 81.6767 24.9608 81.4996 24.5714C81.3578 24.2584 81.1393 23.9863 80.8644 23.7803C80.5896 23.586 80.2595 23.4858 79.9232 23.4946C79.6095 23.4883 79.3004 23.5715 79.0322 23.7344C78.7639 23.8973 78.5475 24.1333 78.4082 24.4147C78.0759 25.0286 77.8871 26.0087 77.8871 27.3552ZM85.3084 22.4573H86.3008L86.516 23.5136H86.5921C86.8077 23.1036 87.136 22.7641 87.5384 22.5351C87.9407 22.306 88.4002 22.1972 88.8624 22.2214C89.3157 22.1948 89.7681 22.2872 90.1748 22.4895C90.5815 22.6917 90.9283 22.9968 91.181 23.3744C91.6933 24.148 91.9524 25.4109 91.9524 27.1588C91.9603 27.907 91.8742 28.6532 91.6963 29.3799C91.5557 29.9806 91.3098 30.5506 90.9717 31.0663C90.6848 31.5073 90.291 31.8721 89.83 32.1226C89.3693 32.3683 88.8544 32.4942 88.3325 32.4889C88.0309 32.4953 87.7293 32.4717 87.4323 32.4186C87.178 32.3596 86.9339 32.2633 86.7077 32.1329V36.1693H85.3069V22.4558L85.3084 22.4573ZM86.718 30.7147C86.901 30.8714 87.1088 30.996 87.3328 31.0868C87.6255 31.1894 87.9344 31.2333 88.2432 31.2216C88.5906 31.2198 88.9304 31.1196 89.2234 30.9327C89.5163 30.7458 89.7505 30.4797 89.8987 30.1652C90.3027 29.4605 90.5048 28.4555 90.5048 27.15C90.5083 26.6507 90.4716 26.1519 90.395 25.6586C90.3421 25.2633 90.2306 24.8781 90.0642 24.5158C89.9258 24.2137 89.7127 23.9519 89.445 23.7554C89.1855 23.574 88.8743 23.4814 88.5579 23.4916C87.605 23.4916 86.9917 24.0748 86.718 25.2351V30.7147ZM93.3854 27.3552C93.3854 25.5868 93.6884 24.2901 94.2959 23.4638C94.5907 23.0576 94.9819 22.7314 95.4343 22.5145C95.8866 22.2975 96.3858 22.1968 96.8868 22.2214C98.0885 22.2214 98.9712 22.6463 99.5362 23.4946C100.101 24.3429 100.385 25.6292 100.388 27.3552C100.388 29.1221 100.081 30.4216 99.4659 31.2524C99.1707 31.655 98.7806 31.9784 98.3304 32.1939C97.8802 32.4094 97.3838 32.5102 96.8853 32.4875C95.685 32.4875 94.8009 32.0626 94.2359 31.2128C93.6709 30.3616 93.3869 29.0752 93.3854 27.3552ZM94.8521 27.3552C94.8492 27.8797 94.8858 28.4027 94.9619 28.9228C95.0175 29.3419 95.1361 29.7506 95.3132 30.1345C95.4537 30.4495 95.6719 30.7235 95.9485 30.93C96.2222 31.1234 96.553 31.2231 96.8882 31.2113C97.203 31.2207 97.5138 31.1398 97.7843 30.9784C98.0547 30.817 98.2735 30.5816 98.415 30.3C98.756 29.6935 98.9273 28.7119 98.9243 27.3552C98.9271 26.834 98.8904 26.3134 98.8146 25.7977C98.7589 25.3738 98.6405 24.9605 98.4633 24.5714C98.3214 24.2584 98.1029 23.9863 97.828 23.7803C97.5534 23.5867 97.224 23.4865 96.8882 23.4946C96.574 23.4887 96.2646 23.5723 95.9961 23.7357C95.7276 23.8992 95.5111 24.1356 95.3718 24.4176C95.0249 25.0329 94.8521 26.0131 94.8521 27.3581V27.3552ZM109.396 34.7393H108.404L108.168 32.253H102.374L102.12 34.7379H101.16V30.9769H102.082C102.21 30.7208 102.321 30.4565 102.414 30.1858C102.587 29.6583 102.721 29.1221 102.815 28.5771C102.947 27.8914 103.059 27.046 103.146 26.0424C103.246 24.8499 103.301 23.654 103.311 22.4573H108.224V30.9769H109.38L109.396 34.7379V34.7393ZM106.83 30.9769V23.729H104.642C104.615 24.2901 104.579 24.9055 104.536 25.5721C104.493 26.2373 104.419 26.898 104.332 27.5603C104.241 28.2225 104.127 28.8496 103.999 29.4503C103.893 29.9711 103.743 30.4819 103.55 30.9769H106.83ZM116.266 31.7622C115.932 32.0138 115.553 32.1992 115.15 32.3087C114.719 32.4302 114.273 32.4904 113.826 32.4875C113.275 32.505 112.729 32.3799 112.24 32.1241C111.804 31.878 111.442 31.5199 111.191 31.0868C110.906 30.5808 110.708 30.0306 110.605 29.4591C110.477 28.7653 110.414 28.0608 110.419 27.3552C110.419 25.6805 110.716 24.4073 111.309 23.5341C111.583 23.1102 111.962 22.765 112.41 22.5325C112.858 22.2999 113.358 22.1882 113.862 22.2082C114.307 22.2009 114.752 22.2463 115.187 22.3445C115.515 22.4206 115.831 22.5408 116.127 22.699L115.736 23.9312C115.219 23.6321 114.632 23.4769 114.035 23.4814C113.708 23.4705 113.385 23.5521 113.103 23.7166C112.821 23.8812 112.591 24.1221 112.439 24.4117C112.081 25.0315 111.899 26.0087 111.899 27.342C111.896 27.846 111.937 28.3514 112.018 28.8496C112.081 29.2745 112.212 29.6891 112.409 30.0715C112.574 30.3997 112.816 30.6839 113.114 30.8978C113.433 31.1073 113.809 31.2128 114.19 31.1996C114.796 31.2007 115.384 30.9938 115.856 30.6136L116.266 31.7622ZM119.965 27.846H119.239V32.253H117.833V22.4573H119.239V26.8849L119.902 26.6094L122.292 22.4573H123.798L121.481 26.394L120.799 27.0563L121.639 27.8416L124.142 32.2692H122.46L119.965 27.8445V27.846ZM130.281 26.6094L130.397 25.1209H130.316L129.636 26.7779L126.325 32.2662H125.404V22.4573H126.824V28.2752L126.708 29.7037H126.787L127.431 28.0965L130.777 22.4631H131.698V32.2589H130.29L130.281 26.6094ZM139.853 31.5806C139.505 31.8829 139.098 32.1086 138.657 32.2428C138.163 32.4002 137.648 32.4793 137.13 32.4772C136.576 32.4908 136.028 32.3659 135.535 32.1139C135.081 31.8685 134.697 31.5115 134.419 31.0766C134.107 30.5815 133.888 30.0333 133.774 29.4591C133.631 28.7636 133.562 28.0549 133.569 27.3449C133.569 25.6703 133.876 24.3971 134.488 23.5239C134.772 23.0979 135.16 22.7522 135.616 22.52C136.072 22.2878 136.58 22.1769 137.091 22.1979C137.457 22.1979 137.823 22.2448 138.177 22.3342C138.543 22.4309 138.876 22.6199 139.147 22.8851C139.465 23.2103 139.703 23.6074 139.843 24.0411C140.036 24.6681 140.125 25.323 140.103 25.9794C140.103 26.1992 140.094 26.4395 140.074 26.6959C140.058 26.9508 140.034 27.2116 140.008 27.487H135.041C135.037 27.9998 135.084 28.5126 135.18 29.0151C135.254 29.4254 135.4 29.8209 135.611 30.1814C135.795 30.489 136.054 30.7454 136.363 30.9271C136.714 31.1132 137.11 31.2026 137.508 31.1894C137.866 31.1894 138.224 31.122 138.557 30.993C138.852 30.8949 139.122 30.7352 139.348 30.5227L139.853 31.5806ZM138.753 26.3281C138.78 25.3494 138.642 24.63 138.344 24.1744C138.218 23.9608 138.037 23.7845 137.82 23.6638C137.604 23.543 137.359 23.4821 137.111 23.4872C136.835 23.4777 136.561 23.535 136.312 23.6544C136.063 23.7738 135.847 23.9517 135.681 24.1729C135.33 24.6315 135.12 25.3494 135.055 26.3266H138.753V26.3281ZM150.931 23.7231H147.639V32.2457H146.233V22.4573H152.337V32.253H150.931V23.7231ZM154.649 22.4499H155.641L155.859 23.5078H155.959C156.175 23.0981 156.504 22.7589 156.906 22.53C157.309 22.301 157.768 22.192 158.23 22.2155C158.684 22.188 159.136 22.28 159.543 22.4824C159.949 22.6847 160.296 22.9903 160.548 23.3686C161.064 24.1407 161.322 25.4036 161.322 27.153C161.331 27.9002 161.246 28.6474 161.067 29.3726C160.925 29.9733 160.681 30.5447 160.343 31.0604C160.054 31.5 159.66 31.8648 159.196 32.1168C158.736 32.3621 158.222 32.4875 157.7 32.4816C157.4 32.4878 157.099 32.4642 156.803 32.4113C156.549 32.3533 156.305 32.2575 156.079 32.127V36.1634H154.668L154.649 22.4499ZM156.065 30.7147C156.248 30.8714 156.456 30.996 156.68 31.0868C156.973 31.1894 157.282 31.2333 157.591 31.2216C157.938 31.2201 158.278 31.1201 158.571 30.9331C158.864 30.7462 159.098 30.4799 159.246 30.1652C159.65 29.4591 159.855 28.4555 159.855 27.15C159.859 26.6508 159.823 26.152 159.747 25.6586C159.692 25.2637 159.581 24.8788 159.416 24.5158C159.28 24.2214 159.074 23.9648 158.816 23.7686C158.556 23.5866 158.243 23.4941 157.926 23.5048C156.976 23.5048 156.36 24.0879 156.089 25.2483L156.065 30.7147ZM162.74 27.3639C162.74 25.597 163.043 24.3019 163.651 23.4741C163.945 23.0667 164.336 22.7396 164.789 22.5225C165.242 22.3055 165.742 22.2055 166.243 22.2316C167.44 22.2316 168.323 22.6565 168.891 23.5048C169.459 24.3531 169.741 25.6395 169.741 27.3639C169.741 29.1323 169.436 30.4304 168.821 31.2612C168.526 31.6651 168.136 31.9895 167.685 32.2053C167.235 32.4211 166.738 32.5216 166.239 32.4977C165.038 32.4977 164.156 32.0728 163.591 31.2231C163.026 30.3718 162.742 29.0855 162.74 27.3639ZM164.207 27.3639C164.204 27.8884 164.239 28.4123 164.312 28.9316C164.371 29.3521 164.489 29.7609 164.667 30.1447C164.807 30.4597 165.027 30.7337 165.302 30.9403C165.577 31.1337 165.906 31.2319 166.243 31.2216C166.558 31.2308 166.868 31.1499 167.138 30.9885C167.409 30.8271 167.627 30.5918 167.768 30.3103C168.099 29.7037 168.279 28.7236 168.279 27.3654C168.282 26.8437 168.245 26.3226 168.169 25.8065C168.112 25.3834 167.994 24.9708 167.818 24.5817C167.674 24.2685 167.455 23.996 167.18 23.7891C166.906 23.5956 166.578 23.4959 166.243 23.5048C165.928 23.498 165.618 23.5809 165.349 23.7438C165.08 23.9067 164.862 24.1429 164.722 24.4249C164.378 25.0403 164.207 26.019 164.207 27.3639ZM177.479 31.5864C177.133 31.8893 176.727 32.1151 176.287 32.2486C175.793 32.4069 175.277 32.4865 174.758 32.4845C174.204 32.4979 173.655 32.3724 173.162 32.1197C172.709 31.8746 172.326 31.5175 172.05 31.0824C171.731 30.5887 171.506 30.0404 171.387 29.4649C171.242 28.7702 171.173 28.0618 171.182 27.3522C171.182 25.6776 171.488 24.4029 172.1 23.5312C172.384 23.1049 172.773 22.759 173.229 22.5268C173.685 22.2945 174.194 22.1838 174.705 22.2053C175.071 22.2052 175.436 22.2509 175.791 22.3415C176.156 22.4368 176.488 22.6258 176.757 22.8909C177.076 23.2162 177.315 23.6132 177.453 24.0484C177.65 24.674 177.739 25.3289 177.718 25.9867C177.718 26.2065 177.707 26.4453 177.688 26.7017L177.621 27.4929H172.656C172.651 28.0057 172.697 28.5185 172.79 29.021C172.867 29.4312 173.011 29.8268 173.221 30.1887C173.407 30.4964 173.666 30.7528 173.976 30.933C174.329 31.119 174.724 31.2099 175.122 31.1967C175.479 31.1967 175.834 31.1293 176.167 31.0004C176.462 30.9026 176.732 30.7422 176.959 30.5301L177.479 31.5864ZM176.383 26.334C176.41 25.3553 176.273 24.6374 175.973 24.1802C175.846 23.9677 175.665 23.7924 175.449 23.672C175.233 23.5517 174.989 23.4904 174.742 23.4946C174.466 23.4853 174.192 23.5427 173.943 23.6621C173.694 23.7815 173.477 23.9592 173.312 24.1802C172.96 24.6374 172.748 25.3567 172.685 26.334H176.383ZM181.845 27.846H181.121V32.253H179.711V22.4573H181.121V26.8849L181.784 26.6094L184.17 22.4573H185.676L183.359 26.394L182.674 27.0563L183.514 27.8416L186.021 32.2692H184.34L181.845 27.8445V27.846ZM192.377 23.729H189.971V32.253H188.56V23.729H186.153V22.4573H192.377V23.729ZM194.964 30.9769C195.318 31.0531 195.678 31.0927 196.039 31.0956C196.665 31.0956 197.102 30.93 197.364 30.596C197.638 30.1684 197.768 29.6641 197.735 29.1572C197.763 28.6701 197.636 28.1865 197.373 27.7756C197.131 27.4445 196.711 27.276 196.089 27.276C195.907 27.2763 195.725 27.286 195.543 27.3053C195.352 27.3246 195.162 27.3614 194.977 27.4152L194.964 30.9755V30.9769ZM194.964 26.1977C195.203 26.1433 195.445 26.1027 195.688 26.0761C195.924 26.0585 196.145 26.0497 196.351 26.0497C196.811 26.0351 197.269 26.1113 197.701 26.271C198.038 26.4028 198.338 26.6153 198.572 26.8907C198.793 27.1632 198.951 27.4812 199.033 27.8225C199.127 28.1961 199.173 28.58 199.172 28.9653C199.172 30.1535 198.907 31.0165 198.377 31.5542C197.85 32.0875 196.969 32.3556 195.745 32.3556C195.006 32.3556 194.268 32.3175 193.534 32.2384V22.4573H194.943L194.964 26.1977ZM200.363 22.4573H201.773V32.253H200.356L200.363 22.4573ZM75.1762 43.1183L75.2289 42.2627H75.1762L74.8439 43.1374L72.4433 47.3672H71.9808V40.8709H72.6761V45.1783L72.6102 46.0134H72.6453L72.9776 45.1431L75.387 40.865H75.8436V47.3599H75.1762V43.1183ZM79.023 43.3308H78.01C78.01 43.8582 77.9661 44.3637 77.9368 44.8574C77.9127 45.2953 77.8584 45.731 77.7744 46.1614C77.719 46.4801 77.607 46.7863 77.4435 47.0654C77.386 47.1651 77.3035 47.2481 77.2042 47.3061C77.1049 47.3642 76.9921 47.3953 76.8771 47.3965C76.7863 47.3965 76.6956 47.3906 76.6063 47.3804C76.5361 47.3676 76.4681 47.3449 76.4043 47.313L76.5067 46.7299C76.6211 46.7669 76.7453 46.7585 76.8536 46.7064C76.9561 46.6537 77.0439 46.491 77.1186 46.2229C77.2123 45.8186 77.2723 45.4054 77.2972 44.9908C77.344 44.4384 77.3777 43.681 77.3967 42.7198H79.6846V47.3599H79.023V43.3308ZM81.4499 46.7636C81.6167 46.7987 81.7865 46.8178 81.9593 46.8192C82.5419 46.8192 82.8302 46.5145 82.8302 45.9021C82.8446 45.6637 82.7729 45.4282 82.6282 45.2384C82.542 45.1525 82.4377 45.0869 82.3231 45.0464C82.2084 45.0058 82.0861 44.9913 81.9651 45.0039C81.7868 44.9881 81.607 45.006 81.4352 45.0567L81.4499 46.7636ZM81.4499 44.4999C81.5655 44.4765 81.6826 44.4604 81.8012 44.4501H82.1305C82.3574 44.4428 82.5814 44.4794 82.7936 44.56C82.9574 44.6183 83.1047 44.7154 83.223 44.8429C83.3412 44.9705 83.4269 45.1247 83.4728 45.2926C83.5226 45.4684 83.546 45.6501 83.546 45.8317C83.5666 46.0533 83.541 46.2768 83.4707 46.4879C83.4003 46.699 83.2869 46.8932 83.1376 47.058C82.7742 47.3426 82.3165 47.4787 81.8568 47.439C81.5055 47.439 81.1542 47.4214 80.8029 47.3833V42.7433H81.466L81.4499 44.4999ZM86.5848 44.6948L86.6404 43.9901H86.6038L86.273 44.7681L84.7068 47.3672H84.2706V42.7272H84.9322V45.4845L84.8766 46.1467H84.9132L85.2176 45.3878L86.8029 42.714H87.2391V47.354H86.5775L86.5848 44.6963V44.6948ZM93.5728 42.3462C93.5743 42.5089 93.5552 42.6715 93.5172 42.8297C93.4825 42.9893 93.4233 43.1425 93.3415 43.2839C93.2622 43.4263 93.1604 43.555 93.04 43.6648C92.9146 43.7811 92.7644 43.8672 92.6009 43.9168V43.9696C92.7487 44.0003 92.8936 44.0516 93.0268 44.1219C93.1673 44.1952 93.2903 44.2978 93.3884 44.4208C93.4996 44.5571 93.5845 44.7139 93.6401 44.8809C93.706 45.0948 93.7382 45.3204 93.7324 45.5446C93.7397 45.8405 93.6855 46.1365 93.5728 46.4119C93.4787 46.6421 93.3312 46.8465 93.1425 47.0082C92.9577 47.1608 92.7434 47.2736 92.513 47.3393C92.2701 47.4155 92.0154 47.4536 91.7592 47.4522H91.0903C90.9614 47.4522 90.8326 47.4302 90.7067 47.4126C90.5888 47.3999 90.4723 47.3768 90.3584 47.3437V40.9265C90.8441 40.8373 91.3371 40.7942 91.8309 40.7976C92.0432 40.7976 92.254 40.8181 92.4603 40.8577C92.6638 40.8943 92.8556 40.9719 93.0268 41.0862C93.2025 41.2034 93.3415 41.3646 93.4308 41.5551C93.5435 41.8027 93.5948 42.0737 93.5831 42.3462H93.5728ZM91.8119 46.8002C91.9698 46.8014 92.1267 46.7756 92.2759 46.724C92.4194 46.6711 92.5501 46.5882 92.6591 46.4808C92.7681 46.3735 92.8531 46.2441 92.9083 46.1013C92.9724 45.9305 93.0037 45.749 93.0005 45.5666C93.0082 45.3552 92.9681 45.1449 92.8834 44.9512C92.8168 44.8081 92.716 44.6835 92.5899 44.5887C92.4637 44.4939 92.3162 44.4317 92.1603 44.4076C91.9996 44.3766 91.8364 44.3609 91.6728 44.3608H91.0537V46.7372C91.0995 46.7528 91.1473 46.7617 91.1956 46.7636L91.3918 46.7826H91.6114L91.8119 46.8002ZM91.4342 43.7571H91.7299C91.8221 43.7542 91.9158 43.7454 92.008 43.7308C92.2401 43.6348 92.4429 43.4798 92.5965 43.281C92.7634 43.0612 92.8497 42.7906 92.8409 42.5147C92.8466 42.3401 92.8188 42.166 92.7589 42.0019C92.7108 41.8742 92.6324 41.7601 92.5306 41.6693C92.4334 41.5899 92.3207 41.5316 92.1998 41.4979C92.0663 41.4641 91.9291 41.4474 91.7914 41.4481H91.3552C91.2566 41.4541 91.1584 41.4653 91.061 41.4818V43.7542L91.4342 43.7571ZM94.6326 43.0055C94.8375 42.8854 95.0615 42.7975 95.2957 42.7462C95.5606 42.6832 95.8329 42.6524 96.1066 42.6539C96.321 42.6465 96.5344 42.6865 96.7316 42.7711C96.8824 42.8444 97.0112 42.9601 97.1034 43.1022C97.1947 43.2388 97.2547 43.3939 97.2791 43.5564C97.3069 43.7322 97.3201 43.911 97.3215 44.0897C97.3215 44.4604 97.3215 44.8252 97.2981 45.1754C97.2747 45.527 97.2747 45.8625 97.2747 46.1702C97.2747 46.4046 97.2747 46.6244 97.2981 46.8324C97.3098 47.0243 97.3391 47.2163 97.3845 47.4038H96.8736L96.7184 46.8559H96.6819C96.5798 47.0253 96.4394 47.1683 96.272 47.2734C96.0531 47.3996 95.8027 47.4606 95.5504 47.4492C95.3977 47.4566 95.2453 47.4308 95.1036 47.3736C94.9618 47.3165 94.8341 47.2293 94.7292 47.1181C94.5001 46.8519 94.3817 46.5079 94.3984 46.157C94.3911 45.9284 94.4364 45.7028 94.5301 45.4948C94.6157 45.3182 94.7471 45.1679 94.9107 45.0596C95.0863 44.9424 95.2854 44.8604 95.4933 44.8208C95.7432 44.7739 95.9972 44.7518 96.2515 44.7549H96.6292C96.6477 44.5855 96.6574 44.4154 96.6584 44.245C96.6814 43.9871 96.6264 43.7283 96.5003 43.5022C96.4286 43.4226 96.3387 43.3617 96.2382 43.3247C96.1377 43.2877 96.0298 43.2757 95.9236 43.2898C95.7333 43.2927 95.5445 43.3191 95.3615 43.3659C95.183 43.4099 95.0102 43.4788 94.8507 43.5696L94.6326 43.0055ZM96.6423 45.253C96.5804 45.2496 96.5184 45.2496 96.4564 45.253H96.272C96.1256 45.253 95.9792 45.2647 95.8343 45.2882C95.7019 45.3103 95.5742 45.3549 95.4567 45.42C95.3397 45.4816 95.2431 45.5759 95.1787 45.6914C95.1143 45.8068 95.0847 45.9386 95.0937 46.0706C95.0819 46.2773 95.1465 46.4812 95.2752 46.6434C95.3331 46.7099 95.405 46.7628 95.4857 46.7982C95.5664 46.8337 95.654 46.8509 95.7421 46.8485C95.9597 46.8618 96.1748 46.7963 96.3481 46.6639C96.4784 46.5547 96.5795 46.4147 96.6423 46.2566V45.253ZM98.3871 42.7272H98.857L98.9595 43.2312H98.9961C99.0974 43.0361 99.2528 42.8744 99.4436 42.7655C99.6344 42.6566 99.8526 42.6052 100.072 42.6173C100.287 42.605 100.501 42.649 100.694 42.7448C100.887 42.8406 101.051 42.985 101.171 43.1638C101.417 43.53 101.539 44.1249 101.539 44.9541C101.543 45.3087 101.501 45.6632 101.417 46.009C101.353 46.2919 101.241 46.5615 101.085 46.806C100.952 47.0156 100.767 47.1875 100.549 47.3052C100.331 47.423 100.086 47.4826 99.8377 47.4785C99.6936 47.4825 99.5494 47.4717 99.4074 47.4463C99.2902 47.4185 99.1781 47.3725 99.0751 47.31V49.222H98.4135L98.3871 42.7272ZM99.0488 46.6346C99.1366 46.7079 99.2347 46.7665 99.3415 46.8104C99.4792 46.8587 99.6246 46.8811 99.7704 46.8764C99.9346 46.8748 100.095 46.8269 100.233 46.7383C100.371 46.6497 100.482 46.5239 100.552 46.3753C100.766 45.9308 100.864 45.4394 100.837 44.9468C100.839 44.7095 100.823 44.4724 100.788 44.2377C100.76 44.0512 100.706 43.8696 100.627 43.6985C100.562 43.5586 100.464 43.4368 100.341 43.344C100.218 43.258 100.07 43.2147 99.9197 43.2209C99.4703 43.2209 99.179 43.4963 99.0488 44.0458V46.6346ZM104.427 43.3205H103.417C103.396 43.848 103.373 44.3534 103.343 44.8472C103.318 45.2851 103.263 45.7208 103.178 46.1511C103.123 46.4699 103.011 46.776 102.847 47.0551C102.79 47.155 102.708 47.2382 102.608 47.2963C102.509 47.3544 102.396 47.3854 102.281 47.3862C102.191 47.3862 102.101 47.3818 102.013 47.3701C101.942 47.3567 101.873 47.3341 101.808 47.3027L101.91 46.7196C102.02 46.7522 102.137 46.7444 102.241 46.6976C102.344 46.6434 102.433 46.4822 102.505 46.2141C102.601 45.8083 102.661 45.3951 102.688 44.9805C102.735 44.4267 102.764 43.6722 102.784 42.7096H105.075V47.3496H104.413L104.427 43.3205ZM106.141 42.9894C106.347 42.8693 106.571 42.7814 106.804 42.7301C107.069 42.6671 107.341 42.6363 107.615 42.6378C107.829 42.6291 108.043 42.6687 108.24 42.7535C108.392 42.8268 108.521 42.9425 108.612 43.0846C108.703 43.2212 108.763 43.3763 108.787 43.5388C108.816 43.7146 108.831 43.8934 108.83 44.0721C108.83 44.4443 108.83 44.8076 108.806 45.1593C108.783 45.5109 108.783 45.8449 108.783 46.1541C108.783 46.3885 108.783 46.6083 108.806 46.8163C108.821 47.0082 108.85 47.1987 108.896 47.3877H108.386L108.227 46.8397H108.19C108.088 47.0083 107.949 47.1512 107.783 47.2573C107.563 47.3842 107.312 47.4452 107.059 47.4331C106.906 47.4402 106.754 47.4143 106.613 47.3571C106.472 47.3 106.345 47.2129 106.24 47.102C106.01 46.8365 105.891 46.492 105.909 46.1409C105.902 45.912 105.948 45.6846 106.046 45.4772C106.131 45.3023 106.261 45.1528 106.422 45.0435C106.6 44.9263 106.799 44.8442 107.007 44.8047C107.257 44.7572 107.51 44.7351 107.764 44.7388H108.148C108.164 44.5468 108.174 44.3769 108.174 44.2289C108.196 43.9709 108.141 43.712 108.014 43.4861C107.943 43.4075 107.854 43.3472 107.755 43.3102C107.655 43.2732 107.549 43.2607 107.443 43.2736C107.252 43.2766 107.061 43.3029 106.876 43.3498C106.698 43.3938 106.526 43.4612 106.366 43.552L106.141 42.9894ZM108.15 45.2354C108.089 45.232 108.027 45.232 107.965 45.2354H107.78C107.634 45.2354 107.489 45.2486 107.347 45.2721C107.214 45.2949 107.085 45.3394 106.966 45.4039C106.858 45.4624 106.766 45.5483 106.701 45.653C106.633 45.7755 106.6 45.9143 106.605 46.0544C106.592 46.2614 106.656 46.4658 106.786 46.6273C106.844 46.6943 106.916 46.7475 106.997 46.783C107.078 46.8185 107.166 46.8354 107.255 46.8324C107.47 46.8452 107.683 46.7797 107.855 46.6478C107.987 46.5396 108.088 46.3994 108.15 46.2405V45.2354ZM112.971 44.5966L113.038 43.7146H113.001L112.723 44.5029L111.849 46.2903H111.611L110.711 44.5102L110.462 43.722H110.415L110.488 44.5923V47.3569H109.885V42.7169H110.548L111.558 44.7314L111.76 45.3351H111.779L112.002 44.7124L112.938 42.7242H113.624V47.3628H112.962L112.971 44.5966ZM114.531 45.0303C114.531 44.1952 114.674 43.5799 114.961 43.1872C115.102 42.9957 115.288 42.842 115.502 42.7397C115.716 42.6375 115.952 42.5899 116.189 42.6012C116.433 42.5832 116.677 42.6295 116.897 42.7354C117.117 42.8413 117.306 43.0032 117.444 43.2048C117.751 43.7615 117.892 44.3959 117.848 45.0303C117.848 45.8713 117.706 46.4881 117.415 46.8764C117.274 47.0674 117.089 47.2209 116.875 47.3231C116.662 47.4254 116.426 47.4732 116.189 47.4624C115.946 47.4795 115.702 47.4328 115.482 47.327C115.262 47.2211 115.074 47.0598 114.935 46.8588C114.628 46.3008 114.487 45.666 114.531 45.0303ZM115.226 45.0303C115.225 45.2794 115.241 45.527 115.276 45.7731C115.304 45.9724 115.361 46.1658 115.444 46.3489C115.511 46.4977 115.615 46.6269 115.746 46.724C115.875 46.8156 116.031 46.8629 116.189 46.8588C116.338 46.8632 116.485 46.825 116.613 46.7487C116.741 46.6724 116.844 46.5612 116.911 46.428C117.101 45.9885 117.185 45.5094 117.153 45.0303C117.154 44.7843 117.138 44.5384 117.103 44.2948C117.077 44.0943 117.021 43.8987 116.937 43.7146C116.869 43.5649 116.765 43.4349 116.633 43.3366C116.503 43.246 116.348 43.1998 116.189 43.2048C116.041 43.2013 115.895 43.2402 115.768 43.3171C115.641 43.3939 115.538 43.5054 115.472 43.6385C115.28 44.076 115.196 44.5533 115.226 45.0303ZM118.739 42.711L119.304 42.6642C119.509 42.6436 119.752 42.6378 120.036 42.6378C120.417 42.6026 120.797 42.7023 121.112 42.9191C121.227 43.029 121.316 43.163 121.373 43.3114C121.431 43.4598 121.454 43.619 121.443 43.7776C121.443 43.9974 121.389 44.2128 121.288 44.4076C121.179 44.6199 120.997 44.7858 120.775 44.875V44.9102C121.026 44.9499 121.252 45.0841 121.406 45.2853C121.541 45.5109 121.605 45.7687 121.592 46.031C121.61 46.2276 121.581 46.4256 121.506 46.6084C121.432 46.7912 121.315 46.9535 121.165 47.0815C120.788 47.3254 120.342 47.4415 119.894 47.4126C119.685 47.4126 119.484 47.4126 119.291 47.3892L118.745 47.3364L118.738 42.711H118.739ZM119.401 46.7665L119.662 46.7929H119.973C120.22 46.8136 120.466 46.7444 120.666 46.598C120.802 46.4323 120.879 46.2257 120.884 46.0111C120.889 45.7966 120.823 45.5864 120.695 45.4142C120.606 45.3331 120.502 45.2717 120.388 45.2341C120.273 45.1965 120.153 45.1835 120.033 45.1959H119.414L119.4 46.7665H119.401ZM120.086 44.6787C120.265 44.6658 120.432 44.5851 120.553 44.4531C120.619 44.3851 120.671 44.3057 120.708 44.2186C120.744 44.1288 120.763 44.0327 120.762 43.9359C120.77 43.8406 120.759 43.7447 120.73 43.6538C120.7 43.563 120.652 43.479 120.59 43.407C120.422 43.2803 120.213 43.2212 120.004 43.2414H119.648L119.4 43.2561V44.6684L120.086 44.6787ZM122.421 42.9792C122.626 42.859 122.85 42.7726 123.082 42.7198C123.347 42.6568 123.621 42.6261 123.893 42.6275C124.108 42.6198 124.322 42.6599 124.52 42.7447C124.671 42.8187 124.799 42.9327 124.89 43.0744C124.981 43.2109 125.041 43.366 125.066 43.5286C125.094 43.7044 125.108 43.8831 125.11 44.0619C125.11 44.434 125.11 44.7988 125.085 45.149C125.063 45.5006 125.063 45.8361 125.063 46.1438C125.063 46.3782 125.063 46.598 125.085 46.806C125.098 46.998 125.127 47.1899 125.173 47.3774H124.66L124.507 46.8295H124.466C124.364 46.9981 124.225 47.141 124.059 47.247C123.84 47.3733 123.589 47.4343 123.337 47.4229C123.185 47.43 123.033 47.4041 122.891 47.3469C122.75 47.2898 122.622 47.2027 122.517 47.0917C122.288 46.8255 122.169 46.4817 122.185 46.1306C122.179 45.9019 122.226 45.6748 122.321 45.4669C122.407 45.2909 122.538 45.1411 122.702 45.0332C122.877 44.916 123.077 44.834 123.284 44.7944C123.533 44.7476 123.786 44.7256 124.04 44.7285H124.42C124.439 44.5586 124.45 44.3886 124.45 44.2186C124.473 43.9608 124.417 43.7019 124.291 43.4758C124.22 43.3965 124.13 43.3357 124.029 43.2987C123.929 43.2617 123.821 43.2496 123.715 43.2634C123.524 43.2663 123.336 43.2927 123.151 43.3396C122.974 43.3835 122.801 43.4509 122.642 43.5418L122.421 42.9792ZM124.433 45.2252C124.372 45.2218 124.309 45.2218 124.248 45.2252H124.062C123.915 45.2252 123.769 45.2384 123.625 45.2618C123.493 45.284 123.365 45.3286 123.248 45.3937C123.139 45.4506 123.047 45.5368 122.984 45.6427C122.914 45.7646 122.88 45.9038 122.886 46.0442C122.872 46.251 122.936 46.4557 123.066 46.617C123.124 46.6839 123.196 46.7371 123.277 46.7726C123.357 46.8081 123.445 46.825 123.533 46.8222C123.727 46.8348 123.92 46.7838 124.082 46.6771C124.245 46.5703 124.368 46.4134 124.433 46.2303V45.2252ZM130.45 44.6684L130.505 43.9637H130.466L130.135 44.7417L128.566 47.3393H128.148V42.7008H128.81V45.4581L128.754 46.1204H128.79L129.094 45.3614L130.681 42.6876H131.127V47.3262H130.466L130.45 44.6684ZM138.246 43.0715L138.329 42.0781H138.292L137.994 42.9982L136.671 45.8186H136.438L135.068 42.9982L134.779 42.0781H134.769L134.898 43.0715V47.3393H134.236V40.8445H134.819L136.385 44.0355L136.616 44.7974H136.637L136.858 44.0296L138.342 40.8445H138.954V47.3393H138.259L138.246 43.0715ZM140.034 42.9792C140.239 42.859 140.463 42.7726 140.696 42.7198C140.961 42.6568 141.233 42.6261 141.507 42.6275C141.721 42.6194 141.935 42.6595 142.132 42.7447C142.284 42.8179 142.413 42.932 142.504 43.0744C142.596 43.2108 142.657 43.3659 142.682 43.5286C142.709 43.7044 142.722 43.8846 142.722 44.0619C142.722 44.434 142.722 44.7988 142.698 45.149C142.675 45.5006 142.675 45.8361 142.675 46.1438C142.675 46.3782 142.675 46.598 142.698 46.806C142.713 46.998 142.744 47.1884 142.788 47.3774H142.278L142.119 46.8295H142.084C141.981 46.9982 141.842 47.1411 141.675 47.247C141.456 47.3732 141.206 47.4342 140.954 47.4229C140.801 47.43 140.649 47.4041 140.508 47.3469C140.366 47.2898 140.239 47.2027 140.134 47.0917C139.903 46.8265 139.784 46.482 139.802 46.1306C139.796 45.9019 139.842 45.6748 139.938 45.4669C140.024 45.2909 140.155 45.1412 140.318 45.0332C140.494 44.916 140.693 44.834 140.901 44.7944C141.15 44.7476 141.403 44.7256 141.656 44.7285H142.037C142.054 44.5591 142.063 44.3889 142.063 44.2186C142.087 43.9611 142.033 43.7024 141.908 43.4758C141.836 43.3965 141.746 43.3357 141.646 43.2987C141.545 43.2617 141.437 43.2496 141.331 43.2634C141.141 43.2663 140.951 43.2927 140.765 43.3396C140.588 43.3835 140.416 43.4524 140.255 43.5418L140.034 42.9792ZM142.047 45.2252C141.985 45.2219 141.923 45.2219 141.861 45.2252H141.675C141.529 45.2252 141.382 45.2384 141.239 45.2618C141.106 45.2846 140.977 45.3292 140.858 45.3937C140.75 45.4521 140.659 45.538 140.593 45.6427C140.525 45.7653 140.492 45.9041 140.497 46.0442C140.484 46.2513 140.549 46.4558 140.68 46.617C140.737 46.6839 140.809 46.7371 140.89 46.7726C140.971 46.8081 141.059 46.825 141.147 46.8222C141.363 46.8353 141.577 46.7698 141.748 46.6376C141.88 46.5284 141.982 46.3885 142.047 46.2303V45.2252ZM144.799 45.253H144.467V47.3393H143.805V42.7008H144.467V44.7988L144.781 44.6684L145.913 42.7008H146.626L145.523 44.5659L145.191 44.8736L145.589 45.2428L146.778 47.3393H145.98L144.797 45.253H144.799ZM149.861 47.1079C149.702 47.228 149.524 47.3159 149.334 47.3701C149.131 47.4244 148.922 47.4519 148.711 47.4522C148.45 47.4615 148.191 47.4024 147.959 47.2807C147.753 47.1646 147.581 46.9951 147.463 46.7899C147.328 46.5499 147.234 46.2889 147.185 46.0178C147.126 45.6895 147.097 45.3565 147.098 45.023C147.057 44.393 147.204 43.763 147.519 43.2136C147.649 43.0144 147.829 42.8526 148.041 42.7439C148.253 42.6353 148.49 42.5836 148.728 42.5938C148.937 42.5909 149.146 42.6114 149.35 42.6583C149.505 42.6935 149.654 42.7506 149.793 42.8268L149.612 43.4099C149.366 43.2684 149.087 43.195 148.804 43.1975C148.649 43.1914 148.496 43.2297 148.362 43.3078C148.228 43.3859 148.119 43.5006 148.048 43.6385C147.849 44.0707 147.762 44.5468 147.794 45.023C147.792 45.2633 147.81 45.5036 147.851 45.7394C147.88 45.9416 147.942 46.1379 148.035 46.3196C148.114 46.473 148.228 46.6056 148.368 46.7064C148.518 46.8075 148.696 46.8587 148.877 46.8529C149.164 46.8538 149.442 46.7555 149.664 46.5746L149.861 47.1079ZM152.91 44.6684L152.965 43.9637H152.929L152.598 44.7417L151.032 47.3393H150.595V42.7008H151.257V45.4581L151.201 46.1204H151.236L151.542 45.3614L153.128 42.6876H153.565V47.3262H152.902L152.91 44.6684ZM157.749 44.5864L157.812 43.7044H157.777L157.498 44.4941L156.62 46.2889H156.379L155.478 44.5102L155.23 43.722H155.184L155.256 44.5923V47.3569H154.668V42.7169H155.329L156.339 44.7314L156.544 45.3351L156.767 44.7124L157.703 42.7242H158.388V47.3628H157.727L157.749 44.5864ZM159.464 42.9792C159.671 42.859 159.895 42.7726 160.126 42.7198C160.389 42.6642 160.656 42.6378 160.925 42.6436C161.14 42.6358 161.353 42.6759 161.55 42.7609C161.702 42.8341 161.83 42.9484 161.921 43.092C162.013 43.2281 162.073 43.3834 162.096 43.5462C162.127 43.722 162.14 43.9007 162.14 44.0795C162.14 44.4501 162.14 44.8149 162.117 45.1666C162.093 45.5182 162.093 45.8523 162.093 46.1599C162.093 46.3943 162.093 46.6141 162.117 46.8236C162.13 47.0141 162.161 47.2046 162.206 47.3936H161.697L161.537 46.8456H161.5C161.398 47.0148 161.258 47.1578 161.091 47.2632C160.872 47.3894 160.621 47.4504 160.369 47.439C160.216 47.4461 160.064 47.4202 159.922 47.3631C159.781 47.3059 159.653 47.2189 159.548 47.1079C159.318 46.8419 159.199 46.4979 159.215 46.1467C159.21 45.9182 159.255 45.6926 159.349 45.4845C159.435 45.3086 159.566 45.1585 159.729 45.0494C159.906 44.9322 160.105 44.8501 160.315 44.812C160.564 44.7637 160.817 44.7417 161.07 44.7446H161.451C161.451 44.5542 161.477 44.3842 161.477 44.2348C161.5 43.9769 161.445 43.718 161.319 43.4919C161.247 43.4135 161.157 43.3534 161.058 43.3167C160.958 43.28 160.851 43.2677 160.745 43.281C160.555 43.2839 160.365 43.3103 160.18 43.3572C160.001 43.401 159.83 43.469 159.669 43.5593L159.464 42.9792ZM161.474 45.2252C161.412 45.2217 161.35 45.2217 161.288 45.2252H161.104C160.957 45.2252 160.812 45.2384 160.669 45.2618C160.536 45.2846 160.407 45.3291 160.288 45.3937C160.179 45.4514 160.088 45.5374 160.023 45.6427C159.954 45.7648 159.921 45.904 159.928 46.0442C159.915 46.2507 159.979 46.4548 160.107 46.617C160.165 46.684 160.237 46.7371 160.319 46.7726C160.4 46.8081 160.488 46.825 160.577 46.8222C160.793 46.8354 161.008 46.7699 161.18 46.6376C161.311 46.5294 161.413 46.3891 161.474 46.2303V45.2252ZM166.258 44.3344H165.927V47.3393H165.229V40.8445H165.924V43.8699L166.255 43.741L167.944 40.8445H168.742L167.042 43.6487L166.711 43.9432L167.092 44.3139L168.973 47.3393H168.092L166.258 44.3344ZM169.708 42.9792C169.914 42.8592 170.138 42.7717 170.371 42.7198C170.636 42.6568 170.908 42.6261 171.182 42.6275C171.396 42.62 171.61 42.6601 171.807 42.7447C171.959 42.8179 172.088 42.932 172.179 43.0744C172.27 43.211 172.329 43.3661 172.353 43.5286C172.384 43.7044 172.397 43.8831 172.397 44.0619C172.397 44.434 172.397 44.7988 172.373 45.149C172.35 45.5006 172.35 45.8361 172.35 46.1438C172.35 46.3782 172.35 46.598 172.373 46.806C172.386 46.998 172.414 47.1899 172.46 47.3774H171.953L171.794 46.8295H171.757C171.654 46.9983 171.514 47.1411 171.347 47.247C171.128 47.3732 170.878 47.4342 170.626 47.4229C170.473 47.43 170.321 47.4041 170.179 47.347C170.037 47.2898 169.909 47.2028 169.804 47.0917C169.575 46.8259 169.456 46.4817 169.474 46.1306C169.468 45.9021 169.513 45.6764 169.608 45.4669C169.695 45.2918 169.827 45.1424 169.989 45.0332C170.166 44.9155 170.364 44.8343 170.573 44.7944C170.821 44.7475 171.074 44.7255 171.327 44.7285H171.712C171.729 44.5591 171.739 44.389 171.741 44.2186C171.764 43.9606 171.708 43.7017 171.581 43.4758C171.51 43.3968 171.421 43.3362 171.321 43.2992C171.222 43.2623 171.115 43.2499 171.009 43.2634C170.819 43.2663 170.628 43.2927 170.443 43.3396C170.264 43.3835 170.093 43.4509 169.933 43.5418L169.708 42.9792ZM171.718 45.2252C171.656 45.2217 171.594 45.2217 171.532 45.2252H171.347C171.202 45.2257 171.056 45.2379 170.912 45.2618C170.779 45.2848 170.651 45.3293 170.532 45.3937C170.423 45.4514 170.331 45.5374 170.267 45.6427C170.198 45.7648 170.165 45.904 170.172 46.0442C170.159 46.2506 170.223 46.4545 170.35 46.617C170.409 46.684 170.481 46.7371 170.562 46.7726C170.643 46.8081 170.732 46.825 170.82 46.8222C171.037 46.8354 171.251 46.7699 171.423 46.6376C171.554 46.5283 171.655 46.3883 171.718 46.2303V45.2252ZM176.863 48.5202H176.399L176.29 47.3393H173.462V42.7008H174.124V46.7372H175.654V42.7272H176.317V46.7636H176.852L176.863 48.5202ZM177.524 42.9792C177.731 42.859 177.955 42.7711 178.187 42.7198C178.452 42.6568 178.725 42.6261 178.998 42.6275C179.213 42.62 179.426 42.6601 179.623 42.7447C179.776 42.818 179.903 42.9323 179.995 43.0744C180.084 43.2121 180.144 43.3674 180.171 43.5286C180.197 43.7044 180.21 43.8846 180.21 44.0619C180.21 44.434 180.21 44.7988 180.187 45.149C180.163 45.5006 180.163 45.8361 180.163 46.1438C180.163 46.3782 180.163 46.598 180.187 46.806C180.202 46.998 180.232 47.1884 180.276 47.3774H179.767L179.607 46.8295H179.571C179.469 46.9982 179.33 47.1411 179.164 47.247C178.944 47.374 178.693 47.4351 178.439 47.4229C178.287 47.4298 178.135 47.4037 177.994 47.3466C177.853 47.2895 177.726 47.2025 177.621 47.0917C177.39 46.8264 177.272 46.4818 177.29 46.1306C177.284 45.9021 177.33 45.6764 177.425 45.4669C177.511 45.2908 177.643 45.1411 177.807 45.0332C177.982 44.916 178.18 44.834 178.389 44.7944C178.638 44.7476 178.89 44.7256 179.143 44.7285H179.524C179.543 44.5592 179.552 44.389 179.552 44.2186C179.574 43.961 179.519 43.7025 179.395 43.4758C179.324 43.3963 179.234 43.3354 179.134 43.2983C179.033 43.2613 178.926 43.2493 178.82 43.2634C178.629 43.2663 178.438 43.2918 178.253 43.3396C178.075 43.3835 177.903 43.4524 177.744 43.5418L177.524 42.9792ZM179.538 45.2252C179.477 45.222 179.414 45.222 179.353 45.2252H179.167C179.02 45.2252 178.874 45.2384 178.73 45.2618C178.597 45.2846 178.469 45.3291 178.35 45.3937C178.241 45.4506 178.15 45.5369 178.088 45.6427C178.017 45.7644 177.983 45.9036 177.988 46.0442C177.966 46.2488 178.02 46.4544 178.141 46.6214C178.198 46.6889 178.269 46.7425 178.35 46.778C178.431 46.8135 178.519 46.8301 178.607 46.8266C178.824 46.8397 179.039 46.7736 179.211 46.6405C179.341 46.531 179.443 46.3911 179.508 46.2332L179.538 45.2252Z" fill="black"/>
<path d="M17.0252 21.9475V21.8727C17.0252 20.5102 17.0252 19.9095 18.568 19.5696L23.359 18.5059C23.3959 18.4431 23.4525 18.3942 23.52 18.3667C24.0469 18.1543 25.5473 17.2825 26.5353 17.4027C28.3314 17.618 28.0635 18.2729 26.6524 18.7535C25.537 19.1344 24.0045 18.9498 23.7029 18.9586H23.6502C23.6074 18.958 23.5649 18.9506 23.5244 18.9366L18.6778 20.0135C17.5185 20.2714 17.5156 20.7622 17.5083 21.8757V21.9489H17.8391C17.8996 21.9489 17.9577 21.973 18.0005 22.0159C18.0434 22.0587 18.0674 22.1169 18.0674 22.1775C18.0674 22.2381 18.0434 22.2962 18.0005 22.3391C17.9577 22.382 17.8996 22.406 17.8391 22.406H17.7571V30.6341H17.8391C17.8698 30.633 17.9005 30.6379 17.9294 30.6486C17.9583 30.6593 17.9847 30.6756 18.0073 30.6965C18.0299 30.7175 18.0481 30.7427 18.0609 30.7707C18.0738 30.7987 18.0809 30.829 18.0821 30.8598C18.0813 30.9145 18.0612 30.9672 18.0253 31.0085C17.9894 31.0498 17.94 31.0771 17.8859 31.0854V41.6533C17.8859 42.8356 18.4626 43.7967 19.1711 43.7967H19.2736V44.1279C19.2729 44.149 19.2661 44.1694 19.2538 44.1866C19.2416 44.2038 19.2245 44.217 19.2048 44.2246C19.1916 44.2292 19.1777 44.2312 19.1638 44.2304H15.582C15.5611 44.2311 15.5406 44.2257 15.5229 44.2147C15.5052 44.2038 15.4911 44.1878 15.4824 44.1689C15.4763 44.156 15.4728 44.1421 15.4722 44.1279V43.7967C16.1353 43.7381 16.6915 42.8019 16.6915 41.6562C16.6915 38.137 16.6651 34.6105 16.6622 31.0883C16.6048 31.0794 16.553 31.0488 16.5175 31.0028C16.482 30.9569 16.4654 30.899 16.4712 30.8412C16.477 30.7833 16.5048 30.7299 16.5488 30.692C16.5927 30.654 16.6496 30.6343 16.7076 30.6371H16.7896V22.406H16.7076C16.647 22.406 16.5889 22.382 16.5461 22.3391C16.5033 22.2962 16.4792 22.2381 16.4792 22.1775C16.4792 22.1169 16.5033 22.0587 16.5461 22.0159C16.5889 21.973 16.647 21.9489 16.7076 21.9489H17.0252V21.9475Z" fill="#BD7ABD"/>
<path d="M40.3662 28.6065C39.5739 28.6056 38.7957 28.8165 38.112 29.2174V26.6945C38.112 26.0323 37.5323 25.3422 37.181 24.8089C37.5488 24.6456 37.8501 24.3619 38.0353 24.0044C38.2205 23.6469 38.2786 23.2369 38.2 22.842C38.1214 22.447 37.9108 22.0906 37.6029 21.8315C37.2949 21.5723 36.908 21.4258 36.5058 21.416C36.1036 21.4063 35.71 21.5339 35.3899 21.7779C35.0698 22.0219 34.8423 22.3677 34.7447 22.7584C34.6471 23.149 34.6853 23.5613 34.8531 23.9274C35.0208 24.2934 35.308 24.5914 35.6675 24.7723C35.3865 25.2001 34.5726 26.4659 34.5726 26.9831C34.5726 27.364 34.5258 29.9661 34.6385 31.2613L33.1586 32.1359V29.6452C33.1586 28.9815 32.579 28.2915 32.2277 27.7582C32.5956 27.595 32.897 27.3114 33.0824 26.9539C33.2678 26.5964 33.326 26.1864 33.2475 25.7913C33.169 25.3963 32.9584 25.0398 32.6504 24.7806C32.3425 24.5213 31.9555 24.3747 31.5532 24.365C31.1509 24.3552 30.7573 24.4829 30.4372 24.7269C30.1171 24.971 29.8895 25.3169 29.792 25.7076C29.6945 26.0984 29.7328 26.5108 29.9007 26.8768C30.0686 27.2429 30.356 27.5408 30.7156 27.7215C30.4331 28.1493 29.6192 29.4152 29.6192 29.9339C29.6192 30.3104 29.5753 32.8817 29.6822 34.1842L28.1628 35.0559V32.4509C28.1628 31.7887 27.5831 31.0986 27.2347 30.5683C27.6042 30.4053 27.9073 30.1213 28.094 29.763C28.2807 29.4047 28.3399 28.9934 28.2619 28.5969C28.1839 28.2004 27.9733 27.8422 27.6648 27.5815C27.3563 27.3208 26.9683 27.173 26.5647 27.1625C26.1611 27.152 25.7659 27.2793 25.4442 27.5236C25.1226 27.7679 24.8936 28.1145 24.7951 28.5064C24.6966 28.8983 24.7343 29.3122 24.9021 29.6797C25.0699 30.0473 25.3578 30.3467 25.7183 30.5287C25.4372 30.9565 24.6263 32.2253 24.6263 32.7425C24.6263 33.1307 24.5765 35.8383 24.6995 37.0968L24.196 37.3913C23.5789 37.1892 22.9255 37.1236 22.2806 37.1988C21.6358 37.2741 21.0149 37.4885 20.4609 37.8272C19.9069 38.166 19.4329 38.621 19.0716 39.1609C18.7103 39.7008 18.4704 40.3127 18.3683 40.9544C18.2662 41.5961 18.3045 42.2524 18.4804 42.8779C18.6563 43.5034 18.9657 44.0832 19.3873 44.5774C19.8088 45.0716 20.3325 45.4684 20.9221 45.7403C21.5117 46.0123 22.1532 46.153 22.8025 46.1527C23.6132 46.1462 24.4158 45.9892 25.1694 45.6897C29.1816 43.8964 36.6848 38.6015 38.8468 37.3283C39.4626 37.5474 40.1188 37.6291 40.7695 37.5679C41.4201 37.5066 42.0496 37.3038 42.6138 36.9737C43.178 36.6435 43.6633 36.194 44.0358 35.6565C44.4083 35.119 44.6589 34.5065 44.7702 33.8619C44.8816 33.2173 44.8508 32.5562 44.6802 31.9247C44.5096 31.2933 44.2032 30.7067 43.7825 30.2062C43.3618 29.7056 42.8369 29.3031 42.2445 29.0268C41.6521 28.7504 41.0066 28.607 40.353 28.6065H40.3662ZM40.3662 36.4243C39.7332 36.4243 39.1135 36.2428 38.5804 35.9013C34.6092 38.3656 28.5068 42.7067 24.5473 44.5455C24.0024 44.7831 23.4089 44.8881 22.8156 44.8517C22.338 44.8537 21.8661 44.7483 21.4347 44.5433C21.0032 44.3383 20.6233 44.039 20.3229 43.6674C20.0225 43.2957 19.8093 42.8614 19.699 42.3962C19.5887 41.9311 19.5842 41.4472 19.6858 40.9801C19.7874 40.513 19.9925 40.0747 20.286 39.6976C20.5794 39.3204 20.9537 39.0141 21.3813 38.8011C21.8089 38.5881 22.2787 38.474 22.7563 38.4671C23.2338 38.4601 23.7068 38.5607 24.1403 38.7612L38.5189 30.3338C38.6255 30.2606 38.736 30.1931 38.8497 30.1316C39.2953 29.9165 39.7834 29.804 40.2782 29.8026C40.7729 29.8011 41.2617 29.9107 41.7085 30.1233C42.1554 30.3358 42.5489 30.646 42.8602 31.0308C43.1715 31.4157 43.3926 31.8656 43.5073 32.3473C43.622 32.829 43.6273 33.3303 43.5229 33.8143C43.4185 34.2984 43.207 34.7528 42.9039 35.1442C42.6009 35.5357 42.214 35.8541 41.7718 36.0761C41.3296 36.2982 40.8433 36.4182 40.3486 36.4273L40.3662 36.4243Z" fill="#00B93E"/>
<path d="M36.4068 5.78426H30.7786V5.52933C30.7786 5.51054 30.7749 5.49194 30.7676 5.4746C30.7604 5.45727 30.7498 5.44153 30.7365 5.42832C30.7231 5.4151 30.7073 5.40466 30.6899 5.39761C30.6725 5.39055 30.6539 5.38702 30.6351 5.38721H29.5695C29.5319 5.38721 29.4957 5.40219 29.4691 5.42884C29.4425 5.45549 29.4275 5.49164 29.4275 5.52933V5.79159H27.3021C26.014 5.79159 26.1223 12.4447 27.3021 12.4447H36.4068C37.5851 12.4388 37.6949 5.78426 36.4068 5.78426ZM35.83 11.5934H27.8847C26.9406 11.5934 26.8542 6.62231 27.8847 6.62231H35.83C36.8605 6.6267 36.7698 11.5934 35.83 11.5934Z" fill="#FF2A31"/>
<path d="M31.8281 6.94751C31.5703 6.94751 31.3149 6.99835 31.0767 7.09712C30.8385 7.19589 30.622 7.34067 30.4396 7.52318C30.2573 7.70569 30.1127 7.92236 30.014 8.16082C29.9153 8.39928 29.8645 8.65486 29.8645 8.91296C29.8645 9.17107 29.9153 9.42665 30.014 9.66511C30.1127 9.90357 30.2573 10.1202 30.4396 10.3027C30.622 10.4853 30.8385 10.63 31.0767 10.7288C31.3149 10.8276 31.5703 10.8784 31.8281 10.8784C32.3489 10.8784 32.8484 10.6713 33.2167 10.3027C33.5849 9.93415 33.7918 9.43423 33.7918 8.91296C33.7918 8.39169 33.5849 7.89177 33.2167 7.52318C32.8484 7.15458 32.3489 6.94751 31.8281 6.94751ZM31.8281 10.2089C31.6581 10.208 31.4899 10.1736 31.3332 10.1077C31.1764 10.0418 31.0342 9.94558 30.9146 9.82464C30.795 9.70369 30.7003 9.56035 30.6361 9.40279C30.5718 9.24523 30.5392 9.07655 30.54 8.90637C30.5409 8.73619 30.5752 8.56785 30.6411 8.41095C30.707 8.25406 30.8031 8.11169 30.9239 7.99196C31.0447 7.87224 31.1879 7.77751 31.3454 7.71319C31.5028 7.64886 31.6713 7.6162 31.8413 7.61707C32.1847 7.61901 32.5132 7.7574 32.7547 8.00181C32.9961 8.24621 33.1306 8.5766 33.1287 8.92029C33.1268 9.26398 32.9885 9.59283 32.7443 9.83448C32.5001 10.0761 32.1701 10.2108 31.8267 10.2089H31.8281ZM35.8272 7.07644H34.7615C34.7426 7.07624 34.7239 7.07982 34.7064 7.08697C34.6889 7.09412 34.673 7.10469 34.6597 7.11806C34.6463 7.13143 34.6357 7.14734 34.6286 7.16484C34.6215 7.18235 34.6179 7.20111 34.6181 7.22002V7.91595C34.6181 7.99507 34.6825 8.05807 34.7615 8.05807H35.8272C35.8458 8.05807 35.8643 8.05439 35.8815 8.04725C35.8987 8.04011 35.9144 8.02964 35.9276 8.01644C35.9407 8.00325 35.9512 7.98758 35.9583 7.97034C35.9655 7.95309 35.9691 7.93461 35.9691 7.91595V7.22002C35.9691 7.20136 35.9655 7.18288 35.9583 7.16564C35.9512 7.14839 35.9407 7.13273 35.9276 7.11953C35.9144 7.10633 35.8987 7.09586 35.8815 7.08872C35.8643 7.08158 35.8458 7.0779 35.8272 7.0779V7.07644Z" fill="#FF2A31"/>
<path d="M52.4907 7.62457H46.6444L49.0669 5.09139C48.8161 4.93388 48.5634 4.77954 48.3087 4.62841L45.3914 7.60992H44.1823L47.5387 4.1669C47.0315 3.88127 46.5161 3.61059 45.993 3.35522L41.8286 7.61432H39.6432C36.8547 7.61432 37.0216 16.9178 37.184 16.9178H39.1455C39.1571 17.2736 39.3065 17.6109 39.562 17.8584C39.8175 18.1059 40.1592 18.2443 40.5148 18.2443C40.8705 18.2443 41.2121 18.1059 41.4677 17.8584C41.7232 17.6109 41.8726 17.2736 41.8842 16.9178H53.9896C54.0058 17.2702 54.1572 17.6027 54.412 17.8463C54.6669 18.0899 55.0058 18.2258 55.3582 18.2258C55.7106 18.2258 56.0495 18.0899 56.3043 17.8463C56.5592 17.6027 56.7105 17.2702 56.7268 16.9178H58.5272C58.7432 16.9175 58.956 16.8661 59.1483 16.7678C59.3406 16.6695 59.507 16.5271 59.6339 16.3523C58.8803 14.987 58.026 13.6799 57.0781 12.4419H55.3992V10.4405C55.0337 10.0401 54.6579 9.64928 54.2721 9.26843V12.4521H50.8703V8.98567H53.9881C53.5019 8.51587 53.001 8.06146 52.4863 7.62311H52.4921L52.4907 7.62457ZM46.2799 8.98713H49.6832V12.4521H46.2799V8.98567V8.98713ZM41.6778 8.98713H45.0942V12.4521H41.6778V8.98567V8.98713ZM39.4368 8.98713H40.6078V12.4521H39.4368V8.98567V8.98713Z" fill="#00B7DE"/>
<path d="M35.3675 6.41714V7.81926C35.3595 7.98969 35.2862 8.1505 35.1629 8.26828C35.0395 8.38606 34.8756 8.45178 34.7051 8.45178C34.5347 8.45178 34.3707 8.38606 34.2474 8.26828C34.1241 8.1505 34.0508 7.98969 34.0428 7.81926V5.61572C34.0443 5.0543 34.2675 4.51625 34.6637 4.11885C35.0599 3.72146 35.597 3.49694 36.1579 3.49423H39.4851L41.4055 2.0174C41.5125 1.93851 41.6461 1.90474 41.7777 1.92332C41.9093 1.9419 42.0284 2.01136 42.1094 2.11679C42.1904 2.22222 42.2269 2.35524 42.2111 2.4873C42.1953 2.61936 42.1283 2.73995 42.0247 2.82321L40.5814 3.9367L40.9986 5.65528C41.0337 5.71964 41.0593 5.78872 41.0747 5.86039L41.4363 7.683C41.4533 7.77006 41.453 7.85962 41.4354 7.94658C41.4179 8.03353 41.3834 8.11616 41.3339 8.18976C41.2844 8.26337 41.2209 8.32649 41.1471 8.37554C41.0732 8.42459 40.9904 8.4586 40.9035 8.47563C40.8165 8.49265 40.727 8.49237 40.6401 8.47478C40.5533 8.4572 40.4707 8.42266 40.3972 8.37314C40.3236 8.32361 40.2606 8.26008 40.2116 8.18616C40.1626 8.11224 40.1286 8.02939 40.1116 7.94233L39.8861 6.79953L39.5553 7.97163C39.5336 8.05609 39.4955 8.13545 39.4431 8.20516C39.3908 8.27488 39.3252 8.33359 39.2502 8.37794C39.1751 8.42229 39.0921 8.45142 39.0058 8.46365C38.9196 8.47589 38.8317 8.471 38.7473 8.44926C38.6629 8.42751 38.5837 8.38935 38.514 8.33694C38.4444 8.28453 38.3857 8.2189 38.3414 8.1438C38.2971 8.0687 38.268 7.98561 38.2558 7.89925C38.2435 7.8129 38.2484 7.72498 38.2701 7.64051L38.601 6.44791L35.366 6.4186L35.3675 6.41714ZM31.1431 2.59612H31.6656C31.7047 2.22892 31.8854 1.89148 32.1692 1.65551L32.579 0.376465C33.1396 0.796953 34.7015 2.13314 34.6356 3.08986C34.5966 3.37723 34.4572 3.64148 34.242 3.83568C34.0268 4.02988 33.7498 4.14146 33.4602 4.1506H31.1431C31.0372 4.15712 30.9311 4.14187 30.8313 4.10579C30.7315 4.06971 30.6402 4.01357 30.5629 3.94083C30.4856 3.86808 30.424 3.78027 30.3819 3.68281C30.3398 3.58534 30.3181 3.48028 30.3181 3.37409C30.3181 3.26791 30.3398 3.16285 30.3819 3.06538C30.424 2.96791 30.4856 2.8801 30.5629 2.80736C30.6402 2.73461 30.7315 2.67847 30.8313 2.6424C30.9311 2.60632 31.0372 2.59107 31.1431 2.59758V2.59612ZM38.6346 0.859953L35.7773 3.06202C35.7463 3.10386 35.7059 3.13781 35.6593 3.16115C35.6128 3.18448 35.5614 3.19654 35.5094 3.19636C35.4573 3.19617 35.406 3.18375 35.3596 3.16008C35.3133 3.13642 35.2731 3.10218 35.2424 3.06012C35.2116 3.01807 35.1912 2.96937 35.1827 2.91796C35.1742 2.86655 35.1779 2.81386 35.1935 2.76415C35.2091 2.71444 35.2362 2.66909 35.2725 2.63176C35.3088 2.59443 35.3534 2.56616 35.4026 2.54923L37.8032 0.688535C38.0813 0.739814 38.3594 0.791093 38.6346 0.849697V0.861418V0.859953Z" fill="#BD7ABD"/>
<path d="M20.8293 30.0745C20.6507 29.4122 20.276 28.8379 19.5939 28.8379H14.0784L16.2448 26.671L12.9894 23.4243L9.73542 26.6813L11.9003 28.8496H1.26899C1.23971 29.2306 1.21629 29.6115 1.1958 29.9954H4.1087V33.286H1.22068C1.30851 34.8112 1.50905 36.3291 1.82083 37.8249H1.84279V37.8616L2.01844 38.6513C2.13988 38.7596 2.29486 38.8228 2.45736 38.8302C2.61985 38.8377 2.77996 38.789 2.91079 38.6922C3.04162 38.5954 3.1352 38.4566 3.17582 38.2989C3.21643 38.1413 3.20161 37.9744 3.13383 37.8264H3.99599C3.94466 37.9341 3.92141 38.053 3.92841 38.172C3.9354 38.2911 3.97242 38.4065 4.03599 38.5073C4.09957 38.6082 4.18764 38.6913 4.29199 38.7489C4.39634 38.8065 4.51356 38.8368 4.63273 38.8368C4.75189 38.8368 4.86912 38.8065 4.97347 38.7489C5.07781 38.6913 5.16588 38.6082 5.22946 38.5073C5.29304 38.4065 5.33005 38.2911 5.33705 38.172C5.34404 38.053 5.32079 37.9341 5.26947 37.8264H6.18725C6.14208 37.9212 6.11811 38.0247 6.11699 38.1297C6.12855 38.3095 6.20807 38.4782 6.33939 38.6014C6.47071 38.7247 6.64397 38.7932 6.82399 38.7932C7.00401 38.7932 7.17727 38.7247 7.30859 38.6014C7.4399 38.4782 7.51942 38.3095 7.53099 38.1297C7.53054 38.0243 7.50706 37.9203 7.46219 37.8249H14.0008C13.9395 37.9576 13.9201 38.1058 13.9452 38.2498C13.9703 38.3938 14.0388 38.5267 14.1414 38.6308C14.2592 38.7486 14.4149 38.8209 14.5809 38.8349C14.7469 38.8489 14.9125 38.8036 15.0484 38.7071C15.1842 38.6106 15.2816 38.4691 15.3232 38.3076C15.3648 38.1462 15.348 37.9752 15.2758 37.8249H16.1555C16.0946 37.9577 16.0754 38.1058 16.1005 38.2497C16.1256 38.3936 16.1938 38.5265 16.296 38.6308C16.4139 38.7486 16.5696 38.8209 16.7356 38.8349C16.9016 38.8489 17.0672 38.8036 17.203 38.7071C17.3389 38.6106 17.4363 38.4691 17.4779 38.3076C17.5195 38.1462 17.5027 37.9752 17.4305 37.8249H18.3482C18.2867 37.9575 18.2671 38.1056 18.2919 38.2496C18.3168 38.3936 18.3849 38.5266 18.4873 38.6308C18.6051 38.7486 18.7608 38.8209 18.9269 38.8349C19.0929 38.8489 19.2584 38.8036 19.3943 38.7071C19.5302 38.6106 19.6275 38.4691 19.6691 38.3076C19.7108 38.1462 19.694 37.9752 19.6217 37.8249C20.2848 37.8249 20.6786 37.2462 20.8308 36.5899L21.6549 33.0633L20.8308 30.0745H20.8293ZM8.51903 33.2758H5.21092V29.9851H8.51903V33.2758ZM12.9557 33.2758H9.64613V29.9851H12.9542V33.2758H12.9557ZM12.9894 28.5669L11.0953 26.671L12.9894 24.7722L14.8835 26.671L12.9894 28.5669ZM17.3134 33.2758H14.0023V29.9851H17.3134V33.2758ZM19.5939 33.2758H18.4375V29.9851H19.5939V33.2758Z" fill="#FF8814"/>
<path d="M31.4213 9.64496C31.55 9.7785 31.6219 9.95681 31.6219 10.1424C31.6219 10.3279 31.55 10.5062 31.4213 10.6398C30.8255 11.2229 30.1669 11.8617 29.4672 12.5342H30.3118C30.4914 12.5483 30.659 12.6296 30.7813 12.762C30.9036 12.8944 30.9715 13.0681 30.9715 13.2484C30.9715 13.4287 30.9036 13.6024 30.7813 13.7348C30.659 13.8672 30.4914 13.9485 30.3118 13.9627H28.0942C28.062 13.966 28.0297 13.966 27.9975 13.9627C27.3623 14.5795 26.7065 15.208 26.0507 15.8351H27.4355C27.5576 15.8277 27.6796 15.8517 27.7898 15.9048C27.9 15.9579 27.9949 16.0383 28.0653 16.1385C28.1357 16.2386 28.1793 16.3551 28.1921 16.4769C28.2048 16.5987 28.1862 16.7217 28.1381 16.8343C28.0795 16.9696 27.9805 17.0836 27.8548 17.1604C27.729 17.2373 27.5825 17.2733 27.4355 17.2636H24.5606L23.1569 18.6085C22.8923 18.8253 22.6781 19.097 22.5289 19.4049C22.3798 19.7128 22.2994 20.0495 22.2932 20.3916V23.7657H19.2076V20.3857C19.2018 20.0438 19.1219 19.7073 18.9733 19.3994C18.8246 19.0915 18.6109 18.8197 18.3469 18.6027L16.9066 17.2577H14.0464C13.8627 17.2494 13.6893 17.1705 13.5623 17.0374C13.4353 16.9044 13.3644 16.7275 13.3644 16.5435C13.3644 16.3594 13.4353 16.1825 13.5623 16.0495C13.6893 15.9164 13.8627 15.8375 14.0464 15.8292H15.4296L13.4828 13.9597H11.1657C10.9861 13.9456 10.8184 13.8642 10.6961 13.7319C10.5738 13.5995 10.5059 13.4258 10.5059 13.2455C10.5059 13.0652 10.5738 12.8915 10.6961 12.7591C10.8184 12.6267 10.9861 12.5453 11.1657 12.5312H12.0059C11.3077 11.869 10.649 11.2053 10.0532 10.6354C9.9838 10.5706 9.928 10.4926 9.8891 10.406C9.85019 10.3194 9.82895 10.2258 9.82663 10.1309C9.82431 10.0359 9.84095 9.94148 9.87558 9.85305C9.91021 9.76462 9.96213 9.68401 10.0283 9.61592C10.0945 9.54784 10.1735 9.49367 10.2609 9.45658C10.3483 9.41949 10.4421 9.40023 10.537 9.39994C10.6319 9.39964 10.7259 9.41831 10.8135 9.45485C10.9011 9.49138 10.9805 9.54506 11.0471 9.61272L12.9339 11.4676V10.8522C12.9295 10.7557 12.9448 10.6593 12.9787 10.5688C13.0125 10.4784 13.0644 10.3957 13.1311 10.3259C13.1978 10.256 13.2779 10.2004 13.3667 10.1624C13.4554 10.1245 13.551 10.1049 13.6475 10.1049C13.744 10.1049 13.8395 10.1245 13.9283 10.1624C14.0171 10.2004 14.0972 10.256 14.1639 10.3259C14.2306 10.3957 14.2824 10.4784 14.3163 10.5688C14.3502 10.6593 14.3655 10.7557 14.3611 10.8522V12.6572C14.3607 12.7202 14.3519 12.7828 14.3347 12.8433L16.5319 14.997V13.7048C16.5319 13.5158 16.6069 13.3345 16.7404 13.2008C16.874 13.0671 17.0551 12.992 17.244 12.992C17.4328 12.992 17.614 13.0671 17.7475 13.2008C17.8811 13.3345 17.9561 13.5158 17.9561 13.7048V16.3962L20.0054 18.3829V14.5399L19.9849 14.5194C17.8931 12.4786 15.8063 10.4328 13.7243 8.38203H11.3179C12.2976 7.48439 13.3342 6.65096 14.4211 5.88693V7.05756L20.0127 12.5415V9.99658L17.7204 7.75935C17.5847 7.62743 17.507 7.44696 17.5042 7.25765C17.5015 7.06834 17.574 6.88569 17.7058 6.74989C17.8376 6.61408 18.0179 6.53624 18.207 6.53349C18.3962 6.53075 18.5786 6.60331 18.7143 6.73524L20.0112 8.00549V5.71112H16.245C16.0804 5.71048 15.921 5.6532 15.7936 5.5489C15.6662 5.44459 15.5785 5.2996 15.5453 5.13826C16.0086 4.84042 16.4801 4.55558 16.9593 4.2841H18.6148L18.0264 3.70684C18.467 3.48707 18.909 3.27024 19.3496 3.06072C19.5589 3.25558 19.8034 3.44458 20.0317 3.67021V2.75891C20.506 2.55379 20.9861 2.3604 21.4721 2.17872V3.68779C22.021 3.1457 22.6738 2.79407 22.6738 2.12012V1.76117C23.8917 1.36265 25.133 1.04033 26.3918 0.797119C26.3557 0.886011 26.3008 0.965995 26.2308 1.03154L25.2354 2.00731H25.9527C26.1338 2.01893 26.3038 2.09916 26.428 2.23169C26.5522 2.36422 26.6213 2.53911 26.6213 2.72082C26.6213 2.90252 26.5522 3.07741 26.428 3.20994C26.3038 3.34247 26.1338 3.4227 25.9527 3.43433H23.776L22.8656 4.29875H25.2369C25.4263 4.29875 25.608 4.37407 25.742 4.50816C25.8759 4.64224 25.9512 4.8241 25.9512 5.01372C25.9512 5.20335 25.8759 5.3852 25.742 5.51929C25.608 5.65337 25.4263 5.7287 25.2369 5.7287H21.4516V8.01428L22.7499 6.74842C22.8172 6.6831 22.8967 6.63168 22.9838 6.59711C23.071 6.56253 23.164 6.54547 23.2578 6.54689C23.3515 6.54832 23.444 6.56821 23.53 6.60543C23.6161 6.64265 23.6939 6.69646 23.7592 6.7638C23.8245 6.83115 23.8758 6.91069 23.9104 6.9979C23.9449 7.08512 23.962 7.17828 23.9605 7.27209C23.9591 7.3659 23.9392 7.4585 23.9021 7.54462C23.8649 7.63074 23.8111 7.70868 23.7438 7.774L21.4516 10.0098V12.5591C23.3193 10.7335 25.1842 8.90507 27.0476 7.07368V2.12012C27.0559 1.93667 27.1345 1.76349 27.2672 1.63661C27.3998 1.50974 27.5762 1.43893 27.7597 1.43893C27.9432 1.43893 28.1196 1.50974 28.2522 1.63661C28.3848 1.76349 28.4635 1.93667 28.4718 2.12012V5.67449L29.5843 4.5903C29.7196 4.45858 29.9016 4.38604 30.0903 4.38865C30.279 4.39126 30.459 4.46881 30.5906 4.60422C30.7222 4.73964 30.7947 4.92184 30.7921 5.11074C30.7895 5.29964 30.712 5.47976 30.5767 5.61149L29.1861 6.97112H30.6001C30.6966 6.96675 30.7929 6.98198 30.8832 7.0159C30.9736 7.04983 31.0562 7.10173 31.126 7.16849C31.1958 7.23524 31.2513 7.31546 31.2893 7.40429C31.3272 7.49313 31.3468 7.58875 31.3468 7.68536C31.3468 7.78198 31.3272 7.87759 31.2893 7.96643C31.2513 8.05527 31.1958 8.13549 31.126 8.20224C31.0562 8.269 30.9736 8.3209 30.8832 8.35482C30.7929 8.38875 30.6966 8.40398 30.6001 8.39961H27.7326L21.475 14.537L21.4516 14.556V18.4137L23.5009 16.4255V13.718C23.5009 13.5289 23.5759 13.3476 23.7094 13.214C23.843 13.0803 24.0241 13.0052 24.213 13.0052C24.4018 13.0052 24.583 13.0803 24.7165 13.214C24.8501 13.3476 24.9251 13.5289 24.9251 13.718V15.0102L27.1237 12.8565C27.1065 12.7959 27.0977 12.7334 27.0973 12.6704V10.8639C27.093 10.7674 27.1082 10.671 27.1421 10.5805C27.176 10.4901 27.2278 10.4074 27.2945 10.3376C27.3612 10.2677 27.4413 10.2121 27.5301 10.1742C27.6189 10.1362 27.7144 10.1166 27.8109 10.1166C27.9074 10.1166 28.003 10.1362 28.0917 10.1742C28.1805 10.2121 28.2606 10.2677 28.3273 10.3376C28.394 10.4074 28.4459 10.4901 28.4798 10.5805C28.5136 10.671 28.5289 10.7674 28.5245 10.8639V11.4939L30.4142 9.64496C30.5471 9.51511 30.7255 9.44242 30.9112 9.44242C31.0969 9.44242 31.2752 9.51511 31.4081 9.64496H31.4213Z" fill="#00B93E"/>
<path d="M57.6564 42.6642L57.6388 42.6906L56.9669 42.2701L56.1853 41.7924V41.769C56.4546 41.0775 56.7869 40.4123 57.1792 39.7808C57.5529 39.1672 57.978 38.5864 58.4497 38.0447L59.2314 38.5223L59.893 38.9369C59.4212 39.4787 58.9962 40.0595 58.6225 40.6731C58.2316 41.3031 57.8994 41.9697 57.6286 42.6613L57.6564 42.6642ZM54.5868 47.6851V47.6588L53.9018 47.2368L53.1202 46.7607V46.787C52.1526 47.8813 51.3807 49.1342 50.8381 50.4908L51.6198 50.9685L52.2829 51.3831C52.5464 50.715 52.8684 50.0718 53.246 49.4609C53.6325 48.8279 54.076 48.2302 54.5707 47.6778L54.5854 47.6851H54.5868ZM57.1338 45.9944C56.6122 46.8108 55.9049 47.4921 55.0699 47.9826C54.6381 48.5188 54.2414 49.0814 53.8813 49.6704C53.4909 50.3069 53.1479 50.9714 52.8552 51.6585C54.319 52.3208 56.8118 50.7209 58.7718 47.9137C58.9474 47.6617 59.1187 47.4009 59.2841 47.1313C61.3041 43.8172 61.7783 40.405 60.4068 39.3047C59.4906 40.4104 58.7306 41.637 58.1482 42.9499C58.0827 43.9823 57.7607 44.9819 57.2114 45.8581L57.1323 45.9841V45.9944H57.1338Z" fill="#FF1B0D"/>
<path d="M59.59 36.8974L57.2451 36.8388C57.1332 36.8466 57.0282 36.8958 56.9506 36.9768C56.873 37.0579 56.8284 37.165 56.8255 37.2772C56.8226 37.3894 56.8615 37.4987 56.9348 37.5837C57.008 37.6687 57.1103 37.7233 57.2216 37.7369L59.5666 37.7955C59.6817 37.7924 59.7913 37.7452 59.8726 37.6635C59.9539 37.5819 60.0008 37.4722 60.0036 37.3569C60.0065 37.2417 59.965 37.1297 59.8877 37.0442C59.8105 36.9587 59.7034 36.9062 59.5885 36.8974H59.59ZM57.3563 16.9953L58.0179 31.9732C58.0179 32.061 57.9831 32.1452 57.921 32.2073C57.859 32.2694 57.7748 32.3043 57.6871 32.3043C57.6423 32.3065 57.5976 32.2995 57.5556 32.2839C57.5135 32.2682 57.4752 32.2442 57.4427 32.2132C57.4103 32.1822 57.3844 32.145 57.3668 32.1037C57.3492 32.0625 57.3401 32.018 57.3402 31.9732L56.6771 16.988C55.8398 17.1447 55.3539 17.8128 54.903 19.5109L50.2453 40.317C50.2191 40.4349 50.1472 40.5376 50.0453 40.6025C49.9435 40.6673 49.8201 40.689 49.7023 40.6628C49.5844 40.6365 49.4818 40.5645 49.4171 40.4626C49.3523 40.3607 49.3306 40.2371 49.3568 40.1192L54.0057 19.3805C54.2999 17.6619 55.389 16.1235 57.0621 16.1235C58.6137 16.1235 59.6866 17.2429 60.1433 18.9732V19.0596C60.1726 19.1651 60.1975 19.2794 60.2194 19.3907L63.4104 33.6405C63.3458 34.5593 63.2413 35.4749 63.0972 36.3846L59.3134 19.4845C58.9094 17.8275 58.3195 17.092 57.327 16.988L57.3563 16.9953ZM57.2977 32.6105L58.7996 33.0149L58.8654 32.7218C58.9111 32.5304 59.0123 32.3568 59.1562 32.2227C59.3002 32.0886 59.4804 32 59.6745 31.9681C59.8685 31.9362 60.0676 31.9623 60.2468 32.0432C60.4261 32.1242 60.5775 32.2562 60.682 32.423C60.7512 32.5341 60.7978 32.6579 60.8191 32.7871C60.8405 32.9163 60.8361 33.0485 60.8064 33.176L60.3321 35.192C60.2033 35.7414 59.9325 36.5429 59.167 36.5165L57.6974 36.4667C57.0357 36.4667 57.0679 36.3451 56.4795 36.6689L55.3729 37.2827C54.1682 37.945 53.9033 36.6762 54.5532 36.3114C55.2002 35.9466 55.9291 35.4909 56.5746 35.1788C57.0679 34.9224 58.2302 35.466 58.3956 34.7378L58.5859 33.9247L57.0548 33.5174C56.9353 33.4838 56.8338 33.4047 56.772 33.2971C56.7101 33.1894 56.6929 33.0618 56.7239 32.9416C56.7565 32.8221 56.8349 32.7203 56.9421 32.6583C57.0493 32.5963 57.1765 32.5791 57.2963 32.6105H57.2977ZM60.1301 29.3257C60.2823 29.3252 60.433 29.3547 60.5738 29.4126C60.7145 29.4704 60.8425 29.5554 60.9504 29.6628C61.0584 29.7701 61.1441 29.8977 61.2028 30.0382C61.2614 30.1787 61.2919 30.3294 61.2924 30.4817C61.2929 30.634 61.2634 30.7848 61.2056 30.9257C61.1478 31.0666 61.0629 31.1947 60.9556 31.3027C60.8484 31.4108 60.7209 31.4966 60.5805 31.5553C60.4402 31.614 60.2896 31.6445 60.1375 31.645C59.8302 31.6459 59.5351 31.5247 59.3172 31.3079C59.0992 31.0911 58.9762 30.7966 58.9752 30.489C58.9743 30.1814 59.0954 29.8861 59.312 29.6679C59.5286 29.4498 59.8229 29.3267 60.1301 29.3257Z" fill="#FF3A3A"/>
<path d="M27.3387 56.5242C26.7768 57.8734 25.7474 58.9743 24.4396 59.6247C23.1318 60.2751 21.6334 60.4313 20.2198 60.0646C18.8061 59.6979 17.5722 58.833 16.7446 57.6286C15.917 56.4243 15.5514 54.9615 15.7149 53.509C15.8267 52.5449 16.168 51.6217 16.71 50.8169C17.2519 50.0121 17.9789 49.3491 18.8298 48.8837V50.3488C18.198 50.824 17.6923 51.4472 17.3571 52.1636C17.022 52.88 16.8676 53.6678 16.9074 54.4579C16.9473 55.2479 17.1803 56.0161 17.5858 56.6951C17.9914 57.3741 18.5573 57.943 19.2337 58.3521C19.9102 58.7612 20.6766 58.9979 21.4658 59.0415C22.2549 59.0851 23.0427 58.9341 23.76 58.602C24.4773 58.2698 25.1022 57.7666 25.5799 57.1363C26.0576 56.5061 26.3735 55.7682 26.5 54.9873L27.3387 56.5257V56.5242ZM21.1675 45.4377C21.5991 45.4393 22.0125 45.6116 22.3177 45.917C22.6229 46.2225 22.7951 46.6364 22.7966 47.0684V48.1526H25.7769C25.9778 48.1698 26.1649 48.2618 26.3013 48.4105C26.4377 48.5591 26.5133 48.7536 26.5133 48.9555C26.5133 49.1573 26.4377 49.3518 26.3013 49.5004C26.1649 49.6491 25.9778 49.7411 25.7769 49.7583H22.7966V51.011H26.7488C26.9464 51.011 27.1396 51.0638 27.3094 51.1634C27.4778 51.2528 27.6168 51.389 27.7134 51.5546L30.2487 55.9528C30.373 56.1852 30.4021 56.4568 30.3298 56.7103C30.2574 56.9637 30.0893 57.179 29.8611 57.3105C29.6328 57.4419 29.3624 57.4793 29.1071 57.4145C28.8519 57.3498 28.6318 57.1881 28.4936 56.9638L26.3492 53.2482H21.1704C21.0458 53.2476 20.9221 53.2263 20.8044 53.1852C20.4477 53.0984 20.1306 52.894 19.9041 52.6048C19.6777 52.3156 19.555 51.9586 19.5558 51.5912V47.0684C19.5566 46.6364 19.7283 46.2223 20.0334 45.9167C20.3384 45.6111 20.752 45.4389 21.1836 45.4377H21.1675ZM21.2436 41.6958C21.6822 41.6958 22.103 41.8702 22.4132 42.1807C22.7234 42.4912 22.8976 42.9123 22.8976 43.3514C22.8976 43.7905 22.7234 44.2116 22.4132 44.5221C22.103 44.8325 21.6822 45.007 21.2436 45.007C20.8049 45.007 20.3842 44.8325 20.074 44.5221C19.7638 44.2116 19.5895 43.7905 19.5895 43.3514C19.5895 42.9123 19.7638 42.4912 20.074 42.1807C20.3842 41.8702 20.8049 41.6958 21.2436 41.6958Z" fill="#DC4F90"/>
<path d="M26.9143 60.8507H33.2817V58.1402L27.169 58.1138L32.2278 53.8357L29.2227 53.802L32.986 50.3326H31.3041L33.9902 47.795L34.4835 47.3203L34.6723 47.5064L37.651 50.3341H35.9662L39.7501 53.802L36.7479 53.8357L41.8038 58.1138H35.9604V60.8345H40.7308C38.5831 61.8888 36.2227 62.4369 33.8306 62.4369C31.4385 62.4369 29.0781 61.8888 26.9304 60.8345L26.9158 60.8507H26.9143Z" fill="#00B93E"/>
<path d="M2.39771 36.9047V35.9333L4.34159 35.9597V36.9311L2.39771 36.9047ZM5.3106 36.9443V35.97L7.25449 35.9964V36.9677L5.31207 36.9443H5.3106ZM8.22204 36.9809V36.0095L10.1645 36.033V37.0073L8.22204 36.9809ZM11.1349 37.0175V36.0462L13.0788 36.0725V37.0439L11.1349 37.0175ZM14.0478 37.0571V36.0857H15.2189V37.819H14.2572V37.0468L14.0493 37.0571H14.0478ZM14.2601 38.8035H15.2306V40.7492H14.2572L14.2601 38.8035ZM14.2601 41.7191H15.2306V43.6648H14.2572L14.2601 41.7191ZM15.3198 44.5468V43.5725H17.2593V44.5438L15.3198 44.5468ZM18.2327 44.5468V43.5754H20.1766V44.5497L18.2327 44.5468ZM21.1456 44.5468V43.5725H23.091V44.5468H21.1471H21.1456ZM24.06 44.5468V43.5754H26.0039V44.5497L24.06 44.5468ZM26.9729 44.5468V43.5754H28.9168V44.5497L26.9744 44.5468H26.9729ZM29.8873 44.5468V43.5754H31.8312V44.5497L29.8873 44.5468ZM32.8002 44.5468V43.5754H34.744V44.5468H32.8002ZM35.7131 44.5468V43.5754H37.654V44.5468H35.716H35.7131ZM38.6274 44.5468V43.5754H40.5684V44.5468H38.6274ZM41.5374 44.5468V43.5754H43.4784V44.5468H41.5374ZM43.3817 44.6464H44.3522V46.5877H43.3788L43.3817 44.6464ZM43.3817 47.562H44.3522V49.5077H43.392L43.3817 47.562ZM43.3817 50.4776H44.3859V52.4203H43.392L43.3817 50.4776ZM43.3817 53.3931H44.3859V55.3359H43.4125L43.3832 53.3946L43.3817 53.3931ZM43.3817 56.3073H44.3859V58.2485H43.4154L43.3817 56.3073ZM43.3817 59.2228H44.3859V60.2074C44.0536 60.3393 43.7418 60.4697 43.4154 60.5913L43.3817 59.2228Z" fill="#BD7ABD"/>
<path d="M10.0708 40.3742C6.79932 40.3742 4.14258 41.139 4.14258 42.084C4.14404 42.1455 4.15722 42.2056 4.17624 42.2628L4.58317 45.1168C5.08085 46.1395 5.63416 47.1343 6.23869 48.0983L6.10695 47.105C6.78029 47.2354 7.46094 47.3247 8.14598 47.3731L8.25138 48.8338C7.66219 48.7849 7.07979 48.6739 6.51388 48.5027C6.78907 48.9232 7.07304 49.3407 7.36872 49.748C7.67904 49.7949 8.00107 49.8315 8.32896 49.8579L8.41385 51.0447H8.34798C8.69929 51.4813 9.05938 51.912 9.4341 52.3296V52.1391C9.9874 52.1391 10.5466 52.1391 11.0882 52.1054L11.0003 53.3713C10.8174 53.3713 10.6285 53.3976 10.4339 53.4035C10.9432 53.9309 11.4761 54.4379 12.0235 54.9272C13.2941 54.7368 14.1884 54.3617 14.288 53.9339C14.2894 53.9173 14.2894 53.9006 14.288 53.8841L14.7051 50.9655C14.7344 50.8571 14.749 50.7458 14.7549 50.633L15.9669 42.1763C15.9701 42.1368 15.9701 42.0971 15.9669 42.0576C15.9962 41.139 13.3438 40.3728 10.0694 40.3728L10.0708 40.3742ZM5.96497 46.0076L5.71613 44.1586C6.44801 44.3901 7.20332 44.5483 7.9674 44.6318L8.09329 46.3753C7.37766 46.3241 6.66956 46.1964 5.98107 45.9944L5.96497 46.0076ZM5.48778 42.4474C5.54048 41.9844 7.57072 41.6122 10.0694 41.6122C12.0557 41.6122 13.761 41.8481 14.3904 42.1807L14.3641 42.1998C12.934 43.4363 7.48436 43.7308 5.48778 42.4342V42.4488V42.4474ZM11.1716 51.1003C10.57 51.1516 9.96545 51.1692 9.36091 51.1545L9.29211 49.9532C9.95374 49.9737 10.6168 49.9561 11.2784 49.9019L11.1716 51.1003ZM11.3311 48.847C10.6256 48.9202 9.91568 48.9496 9.20575 48.9349L9.10329 47.4654C9.87616 47.4888 10.649 47.4727 11.4204 47.4156L11.3311 48.847ZM11.5068 46.3387C10.6839 46.4195 9.85666 46.4484 9.0301 46.4252L8.91153 44.711C9.81614 44.7608 10.7251 44.7329 11.6254 44.6289L11.5068 46.3387ZM13.2809 52.586C13.2809 52.8746 12.751 53.1251 11.9562 53.2775L12.0469 52.0527C12.5124 51.9955 12.9662 51.9208 13.3965 51.827L13.2809 52.586ZM13.5488 50.5978C13.0847 50.7678 12.6032 50.8908 12.1128 50.9582L12.1992 49.7861C12.7041 49.7168 13.2046 49.6179 13.6981 49.4902L13.5488 50.5978ZM13.881 48.132C13.3852 48.4209 12.8386 48.6119 12.2709 48.6946L12.3704 47.3101C12.9267 47.2456 13.48 47.1519 14.0259 47.0317L13.8796 48.1306L13.881 48.132ZM14.2118 45.7058C13.6541 45.9505 13.0642 46.116 12.4597 46.1937L12.5856 44.4604C13.1901 44.3535 13.7859 44.1996 14.367 43.9989C14.397 43.9882 14.4252 43.9729 14.4504 43.9535L14.2118 45.7058ZM9.88348 15.8907C9.71807 16.9748 9.36091 18.2876 9.10914 19.3806C8.84479 20.5266 8.58765 21.6743 8.33774 22.8236C7.93667 24.6623 8.10353 24.4792 7.23259 25.9355C6.69849 26.8264 6.16666 27.7187 5.63709 28.6123C5.34433 29.1002 5.09403 29.6071 5.43801 30.2136C5.57871 30.4616 5.79817 30.6554 6.06153 30.7643C6.32488 30.8731 6.61703 30.8907 6.89154 30.8143C7.62635 30.6048 8.21478 29.2892 8.72564 28.4335C9.23503 27.5794 9.77077 26.6783 10.2948 25.7817C10.7588 24.9876 10.9198 22.8338 11.1848 22.4119C11.7249 22.9262 12.8213 24.192 13.3731 24.8044C14.0757 25.5868 13.8269 25.0799 14.1635 26.7941C14.3509 27.7405 14.4958 28.9976 14.7608 29.8855C14.8184 30.1073 14.9341 30.3099 15.0959 30.4721C15.2577 30.6343 15.4599 30.7505 15.6815 30.8085C15.9265 30.8669 16.1831 30.8541 16.4212 30.7716C16.6592 30.689 16.8688 30.5402 17.0252 30.3426C17.4892 29.6803 17.0838 28.3544 16.8832 27.3391C16.7705 26.7604 16.4397 24.6228 16.2509 24.277C16.1645 24.1232 14.7432 22.4749 14.5719 22.2668C14.2938 21.9357 13.9923 21.6046 13.7273 21.272C13.4584 20.9258 13.171 20.5942 12.8666 20.2787L13.6907 16.5075C13.7275 16.5321 13.7593 16.5634 13.7844 16.5998C14.1884 17.117 14.1152 17.7499 14.8676 18.2744C15.4326 18.6685 16.9022 19.719 17.4233 20.0369C17.5849 20.1427 17.7754 20.1953 17.9683 20.1874C18.1612 20.1796 18.3468 20.1116 18.4992 19.993C18.6493 19.8583 18.7478 19.6756 18.778 19.4762C18.8082 19.2768 18.7681 19.0731 18.6646 18.9C18.4729 18.5953 16.5085 17.3294 16.125 17.0642C15.7415 16.799 15.8542 16.862 15.5322 16.232L14.0625 13.3296C13.3702 11.951 12.0762 11.7488 10.7778 12.7919L8.76809 14.4197C8.57633 14.5662 7.25894 15.6357 7.18575 15.7456C6.994 16.0196 6.68807 17.6048 6.57975 18.0942C6.45387 18.6612 6.01327 19.9871 6.33091 20.4384C6.65001 20.8882 7.65562 21.1563 7.94398 19.8245C8.11671 19.0231 8.2748 18.2466 8.46069 17.4452C8.61585 16.7228 8.58951 16.8987 9.02717 16.5338C9.29065 16.2877 9.57901 16.065 9.88348 15.8716V15.8907ZM12.5358 8.03178C10.0591 8.51234 10.7412 12.1575 13.1813 11.7502C15.6214 11.3415 14.9364 7.55122 12.5197 8.03178H12.5358ZM14.9554 32.8758H16.9066V31.3286H14.9437L14.9554 32.8758Z" fill="#FF2A31"/>
<path d="M6.39516 27.2613H8.43712L8.65961 27.2379V25.4929L8.44004 25.4607H6.39809L6.39516 27.2628V27.2613ZM7.16364 32.8756H9.10459V31.3285H7.16656L7.16364 32.8756ZM3.2627 32.8756H5.20951V31.3285H3.26562L3.2627 32.8756ZM18.8064 32.8756H20.7533V31.3285H18.8167L18.8064 32.8756ZM18.1375 27.2613H20.3961V25.4651H18.1507L18.1375 27.2613Z" fill="#FF2A31"/>
<path d="M48.729 48.9567C48.8022 49.112 49.9834 50.2563 50.2059 50.4805C50.427 50.7061 50.6963 50.9757 50.9612 51.2365C51.9537 52.2108 52.4762 52.7177 51.1896 53.9337C50.405 54.6765 49.679 55.4252 48.9076 56.1387L48.1566 56.8933C47.921 57.1716 47.6253 57.3914 47.293 57.5394C47.0974 57.5969 46.8897 57.5998 46.6926 57.5477C46.4954 57.4957 46.3162 57.3906 46.1743 57.244C46.0325 57.0973 45.9334 56.9147 45.8878 56.7157C45.8422 56.5168 45.8518 56.3092 45.9156 56.1153C46.0942 55.5585 47.7292 54.3191 48.0571 53.8312C45.8161 53.7726 43.4975 53.8312 41.2433 53.8312C40.608 53.8312 36.6514 53.9249 36.2182 53.7315C36.0163 53.6428 35.8454 53.496 35.7273 53.3096C35.6092 53.1233 35.5493 52.906 35.5551 52.6855C35.5946 51.3595 37.092 51.6086 37.8971 51.6086H44.7168C45.8293 51.6086 47.0076 51.6438 48.1098 51.6086C47.923 51.3376 47.7004 51.0932 47.4482 50.8819C46.4821 49.8885 45.7927 49.5735 46.0679 48.4645L46.0825 48.4439L46.1044 48.4234L46.1923 48.3004C46.2295 48.2455 46.2732 48.1953 46.3225 48.1509C47.4057 47.14 48.3382 48.7516 48.7363 48.9714L48.729 48.9567ZM47.0515 45.524V46.4983L45.1076 46.5159V45.5415L47.0515 45.524ZM61.9995 40.0562V41.0305H60.0585V40.0562H61.9995ZM59.0866 40.0562V41.0305H57.1457V40.0562H59.0851H59.0866ZM56.1752 40.0562V41.0305H54.2328V40.0562H56.1766H56.1752ZM53.2623 40.0562V41.0305H52.7221V41.4583H51.7487V40.0532L53.2623 40.0562ZM51.759 42.4355H52.7295V44.3812H51.7692L51.759 42.4355ZM51.759 45.3511H52.7295V46.4558H50.9393V45.4815H51.7766L51.7575 45.3525L51.759 45.3511ZM49.9483 45.5005V46.4719H48.0044V45.5005H49.9483Z" fill="#BD7ABD"/>
<path d="M38.0945 25.8431C38.1799 25.0595 38.4553 24.3086 38.8967 23.6557C39.1748 23.2352 39.9491 22.3664 40.4263 22.2199C40.6546 22.5525 41.631 24.3853 41.9193 24.8952C42.1067 25.1955 42.2677 25.5135 42.3994 25.8431H38.096H38.0945ZM26.9874 22.5027C28.7644 23.729 29.7525 26.8101 28.0662 29.2393C27.9008 29.4737 27.7193 29.6949 27.5202 29.903C27.335 30.1184 27.1212 30.3077 26.885 30.4656C22.7762 33.3987 17.1538 29.0576 19.5544 24.1157C21.068 20.9877 25.2221 21.1342 25.9643 21.9034C25.8618 22.1774 24.8781 23.8916 24.6659 24.2432C24.2121 25.0212 23.2607 26.3134 24.0248 26.6519C24.5839 26.8965 24.8254 26.3207 25.0348 25.9354C25.3378 25.3787 26.8381 22.6521 27.0006 22.5027H26.986H26.9874ZM41.5022 21.7144C42.2794 21.2427 44.0345 21.4727 44.8352 21.7833C47.8491 22.97 48.9571 26.728 47.1069 29.2847C44.3097 33.1496 38.5322 31.3432 38.0916 26.9932H41.5607C42.6044 26.9932 44.3814 27.2643 43.932 26.1684C43.6832 25.5618 41.6339 22.1481 41.5022 21.7144ZM29.186 18.4824L32.1326 23.5736C32.6127 24.4513 33.106 25.2629 33.592 26.1552C33.9228 26.7852 33.9228 26.9962 34.8113 26.9903C35.4466 26.9551 36.0848 26.9551 36.7215 26.9903C36.9367 27.9177 36.9425 28.3148 37.3304 29.1572C37.7022 29.9044 38.2058 30.5769 38.8161 31.1454C40.9254 32.9445 44.0813 33.3225 46.4321 31.7519C52.1452 27.9309 48.7859 19.2984 42.2033 20.1526C41.691 20.22 41.2431 20.4046 40.8069 20.4647L39.5685 18.2714C39.3958 17.9403 39.5685 17.7835 39.9389 17.1183C40.0852 16.862 40.4131 16.1528 40.618 16.0137C41.1933 16.0137 42.7464 16.166 43.0625 15.8232C43.1188 15.7582 43.1599 15.6815 43.1828 15.5986C43.2057 15.5157 43.2098 15.4287 43.1947 15.3441C43.1797 15.2594 43.146 15.1791 43.096 15.1092C43.0461 15.0392 42.9811 14.9813 42.9059 14.9397C42.6337 14.8152 39.3036 14.8606 38.9054 14.8738C38.5102 14.8884 38.1779 15.0936 38.2702 15.58C38.3638 16.0664 38.7312 15.9946 39.2216 16.0239L38.7576 16.9293H30.1097L31.6086 14.2189C32.44 14.1954 33.2846 14.2189 34.1189 14.2189C35.2416 14.2189 35.1113 13.0981 34.2448 13.0776C33.3768 13.0585 32.5556 13.0776 31.7183 13.0776C30.7259 13.0776 30.9308 13.1142 30.3175 14.1881C29.7057 15.262 29.1289 16.3418 28.4937 17.4158C27.8584 18.4897 27.2948 19.6354 26.6522 20.6903C25.6393 20.3357 25.0933 20.0867 23.8316 20.1072C22.873 20.1187 21.9303 20.3534 21.0782 20.7929C20.0976 21.2951 19.265 22.0449 18.6627 22.968C18.0605 23.8911 17.7094 24.9556 17.6442 26.0562C17.579 27.1568 17.8019 28.2554 18.291 29.2433C18.78 30.2312 19.5183 31.0742 20.4327 31.6889C26.2878 35.6301 33.4309 28.1961 28.8845 22.469C28.503 22.036 28.089 21.6329 27.6461 21.2632L29.186 18.4824ZM35.2167 25.8519C35.2475 25.6336 36.7347 22.973 36.9762 22.5393C37.3802 21.8331 38.4663 19.7087 38.7869 19.2618C39.1704 19.8215 39.4939 20.4193 39.75 21.0493C39.3372 21.269 38.9537 21.5445 38.6112 21.8668C37.937 22.5434 37.4154 23.3567 37.0816 24.252C36.3863 26.2109 37.389 25.8226 35.208 25.8534H35.2182L35.2167 25.8519ZM34.1321 24.7926C33.6125 23.9341 30.3878 18.2172 30.3409 18.0648H38.1179L34.3048 25.008L34.1321 24.7926Z" fill="#8A2E83"/>
<path d="M44.1765 24.4822C44.3751 24.4759 44.5728 24.5097 44.7581 24.5814C44.9434 24.6532 45.1123 24.7614 45.255 24.8998C45.3976 25.0382 45.5111 25.2038 45.5885 25.3869C45.666 25.57 45.7059 25.7668 45.7059 25.9656C45.7059 26.1644 45.666 26.3612 45.5885 26.5443C45.5111 26.7274 45.3976 26.8931 45.255 27.0314C45.1123 27.1698 44.9434 27.2781 44.7581 27.3498C44.5728 27.4215 44.3751 27.4553 44.1765 27.449C43.7915 27.4369 43.4263 27.2753 43.1583 26.9985C42.8902 26.7216 42.7403 26.3512 42.7403 25.9656C42.7403 25.5801 42.8902 25.2096 43.1583 24.9328C43.4263 24.6559 43.7915 24.4943 44.1765 24.4822ZM48.2092 31.7594V34.4626C48.216 34.5801 48.1988 34.6978 48.1586 34.8085C48.1183 34.9191 48.056 35.0204 47.9752 35.106C47.8945 35.1917 47.7971 35.2599 47.6891 35.3066C47.5811 35.3532 47.4647 35.3773 47.347 35.3773C47.2294 35.3773 47.113 35.3532 47.005 35.3066C46.8969 35.2599 46.7996 35.1917 46.7188 35.106C46.6381 35.0204 46.5757 34.9191 46.5355 34.8085C46.4952 34.6978 46.478 34.5801 46.4849 34.4626V30.9902C46.2753 31.6385 46.17 32.3161 46.1731 32.9974V42.5353C46.1731 42.7613 46.0848 42.9784 45.9269 43.1399C45.769 43.3015 45.5542 43.3948 45.3285 43.3998H45.289C45.0632 43.3948 44.8484 43.3015 44.6906 43.1399C44.5327 42.9784 44.4443 42.7613 44.4444 42.5353V35.8647C44.4403 35.8006 44.4123 35.7405 44.3659 35.6962C44.3195 35.652 44.2582 35.6268 44.1941 35.6259C44.13 35.6265 44.0686 35.6516 44.0224 35.6959C43.9762 35.7403 43.9486 35.8006 43.9452 35.8647V42.5353C43.9442 42.761 43.8554 42.9774 43.6978 43.1387C43.5402 43.3001 43.326 43.3937 43.1006 43.3998H43.0611C42.8354 43.3948 42.6206 43.3015 42.4627 43.1399C42.3048 42.9784 42.2165 42.7613 42.2165 42.5353V32.9974C42.2209 32.3163 42.1172 31.6388 41.9091 30.9902V34.4626C41.9091 34.6918 41.8181 34.9117 41.6562 35.0738C41.4942 35.2359 41.2746 35.327 41.0455 35.327C40.8165 35.327 40.5968 35.2359 40.4348 35.0738C40.2729 34.9117 40.1819 34.6918 40.1819 34.4626V31.7594C40.3429 28.6797 41.6149 27.7816 44.1999 27.8446C46.7849 27.7684 48.057 28.6768 48.2165 31.7594H48.2092ZM45.3124 43.3998H43.0772H45.3124ZM53.3909 38.3363H52.9884V42.5412C52.9873 42.7674 52.8982 42.9842 52.7399 43.1456C52.5817 43.307 52.3667 43.4003 52.1409 43.4056H52.1013C51.8756 43.4006 51.6608 43.3074 51.5029 43.1458C51.3451 42.9842 51.2567 42.7672 51.2568 42.5412V38.0726C50.759 37.9593 50.2691 37.8139 49.7901 37.6375L51.267 31.5865C51.267 31.5162 51.2275 31.4429 51.2011 31.3668L50.377 34.2941C50.2599 34.694 49.9818 35.0823 49.4549 34.9563C48.6249 34.7365 48.9821 33.7666 49.1255 33.3007C49.6525 31.6422 49.8574 30.2811 50.6142 28.9918C50.9201 28.4805 51.5802 28.1332 53.1348 28.1626H53.3865C54.9425 28.1332 55.6041 28.4937 55.9086 28.9918C56.6668 30.2665 56.8688 31.6437 57.3987 33.2993C57.5407 33.7534 57.8979 34.7248 57.0679 34.9563C56.538 35.0926 56.2599 34.7043 56.1457 34.2941L55.329 31.3785C55.3019 31.4496 55.2799 31.5226 55.2631 31.5968L56.74 37.6477C56.2608 37.8231 55.7709 37.968 55.2733 38.0814V42.5456C55.2734 42.7716 55.185 42.9886 55.0271 43.1502C54.8693 43.3118 54.6545 43.405 54.4287 43.41H54.3848C54.1593 43.4047 53.9449 43.3112 53.7874 43.1497C53.6298 42.9882 53.5416 42.7713 53.5417 42.5456V38.3363H53.3895H53.3909ZM54.4068 43.3968H52.1262H54.4068ZM53.3602 24.8353C53.7538 24.8353 54.1314 24.9918 54.4097 25.2704C54.6881 25.549 54.8444 25.9269 54.8444 26.3209C54.8444 26.7149 54.6881 27.0928 54.4097 27.3714C54.1314 27.65 53.7538 27.8065 53.3602 27.8065C52.9665 27.8065 52.589 27.65 52.3107 27.3714C52.0323 27.0928 51.8759 26.7149 51.8759 26.3209C51.8759 25.9269 52.0323 25.549 52.3107 25.2704C52.589 24.9918 52.9665 24.8353 53.3602 24.8353Z" fill="#FF8814"/>
<path d="M27.9214 45.8918C28.3263 45.7355 28.7551 45.6503 29.189 45.6398H41.9882C42.4419 45.6486 42.8898 45.5431 43.2924 45.335L45.1338 44.6127C45.2656 44.5622 45.4121 44.5662 45.5409 44.6237C45.6698 44.6813 45.7706 44.7878 45.821 44.9197C45.8715 45.0516 45.8676 45.1982 45.81 45.3272C45.7525 45.4562 45.6462 45.557 45.5144 45.6075L43.5441 46.3826C43.1813 46.5738 42.7823 46.6867 42.3731 46.7137C42.5642 46.8437 42.7085 47.0316 42.785 47.2498C42.8615 47.468 42.8661 47.7049 42.7981 47.9259C42.7302 48.1469 42.5932 48.3402 42.4074 48.4776C42.2216 48.615 41.9967 48.6891 41.7657 48.6891C41.5347 48.6891 41.3098 48.615 41.1239 48.4776C40.9381 48.3402 40.8012 48.1469 40.7332 47.9259C40.6653 47.7049 40.6699 47.468 40.7464 47.2498C40.8228 47.0316 40.9672 46.8437 41.1582 46.7137H30.8708C31.0614 46.8437 31.2054 47.0314 31.2816 47.2492C31.3578 47.467 31.3622 47.7036 31.2943 47.9242C31.2264 48.1447 31.0896 48.3377 30.9041 48.4748C30.7185 48.6119 30.494 48.6858 30.2634 48.6858C30.0328 48.6858 29.8082 48.6119 29.6227 48.4748C29.4372 48.3377 29.3004 48.1447 29.2325 47.9242C29.1645 47.7036 29.169 47.467 29.2452 47.2492C29.3214 47.0314 29.4654 46.8437 29.6559 46.7137H29.1158C28.9542 46.71 28.7935 46.7384 28.643 46.7972L28.2185 46.9218C28.1527 46.9434 28.0833 46.9517 28.0143 46.9461C27.9453 46.9404 27.8781 46.921 27.8167 46.889C27.7554 46.8569 27.701 46.8129 27.6569 46.7594C27.6128 46.706 27.5799 46.6443 27.56 46.5779C27.5402 46.5115 27.5338 46.4418 27.5413 46.3729C27.5488 46.304 27.57 46.2373 27.6037 46.1768C27.6374 46.1163 27.6829 46.0631 27.7374 46.0204C27.792 45.9778 27.8545 45.9465 27.9214 45.9284V45.8918ZM27.8321 40.1148H27.8511C27.845 40.1848 27.8535 40.2553 27.8762 40.3218C27.8988 40.3883 27.935 40.4493 27.9825 40.501C28.0301 40.5527 28.0878 40.5939 28.1521 40.622C28.2165 40.6501 28.2859 40.6645 28.3561 40.6642C28.4261 40.6643 28.4953 40.6498 28.5594 40.6217C28.6235 40.5936 28.6811 40.5525 28.7286 40.501C28.776 40.4495 28.8123 40.3888 28.8351 40.3226C28.8579 40.2563 28.8668 40.1861 28.8611 40.1163C28.8538 40.2038 28.8694 40.2917 28.9063 40.3713C28.9432 40.451 29.0003 40.5196 29.0718 40.5704C29.1433 40.6213 29.2268 40.6527 29.3141 40.6614C29.4014 40.6701 29.4894 40.656 29.5696 40.6203C29.6661 40.5779 29.7471 40.5065 29.8011 40.4159C29.8552 40.3253 29.8797 40.22 29.8711 40.1148C29.8757 40.2485 29.9303 40.3756 30.0241 40.4708C30.1179 40.5661 30.2441 40.6225 30.3776 40.6291C30.4857 40.6261 30.5901 40.5889 30.6758 40.5228C30.7616 40.4567 30.8242 40.3652 30.8547 40.2613C30.874 40.2657 30.894 40.2657 30.9133 40.2613C30.946 40.3623 31.0091 40.4506 31.0941 40.5141C31.179 40.5776 31.2816 40.6132 31.3876 40.6159C31.5222 40.6092 31.6493 40.5514 31.7428 40.4542C31.8364 40.357 31.8894 40.2278 31.8911 40.0928C31.8928 40.2283 31.9463 40.3579 32.0404 40.4552C32.1346 40.5524 32.2624 40.6099 32.3976 40.6159C32.5358 40.6001 32.6633 40.5339 32.756 40.4301C32.8486 40.3262 32.8998 40.1918 32.8998 40.0526C32.8998 39.9133 32.8486 39.779 32.756 39.6751C32.6633 39.5712 32.5358 39.505 32.3976 39.4892C32.3284 39.4903 32.2603 39.5058 32.1975 39.5348C32.1347 39.5638 32.0787 39.6057 32.0331 39.6577L32.0126 39.6343C32.2248 39.205 32.1355 38.5779 31.9936 37.9289C31.9053 37.4239 31.7825 36.9256 31.6262 36.4374C31.4432 36.2777 29.9004 36.2176 29.7028 36.3583C29.5037 36.4975 29.4876 36.9809 29.1568 37.3414C28.5274 37.9743 26.5996 37.9421 26.3551 38.9193C26.2878 39.1088 26.2878 39.3158 26.3551 39.5053H26.3156C26.176 39.5196 26.0467 39.5852 25.9527 39.6894C25.8587 39.7936 25.8066 39.929 25.8066 40.0694C25.8066 40.2098 25.8587 40.3452 25.9527 40.4494C26.0467 40.5536 26.176 40.6192 26.3156 40.6335C26.4464 40.6265 26.57 40.5716 26.6629 40.4791C26.7558 40.3867 26.8114 40.2633 26.8191 40.1324C26.8393 40.2495 26.9002 40.3557 26.991 40.4323C27.0817 40.5088 27.1966 40.5508 27.3154 40.5508C27.4341 40.5508 27.549 40.5088 27.6398 40.4323C27.7306 40.3557 27.7914 40.2495 27.8116 40.1324L27.8321 40.1163V40.1148Z" fill="#00B7DE"/>
<path d="M48.9615 36.2645V36.6791H50.3916C50.6169 36.6921 50.8288 36.7908 50.9837 36.9551C51.1386 37.1194 51.2249 37.3367 51.2249 37.5626C51.2249 37.7885 51.1386 38.0058 50.9837 38.1701C50.8288 38.3343 50.6169 38.4331 50.3916 38.446H48.9615V39.791H51.3387C51.4981 39.7964 51.649 39.8645 51.7587 39.9805C51.8683 40.0965 51.9278 40.2511 51.9242 40.4108C51.9253 40.5391 51.8868 40.6647 51.8139 40.7703C51.7411 40.876 51.6375 40.9566 51.5173 41.0012C51.519 41.0197 51.519 41.0384 51.5173 41.0569V45.2955C51.5173 45.3771 51.4849 45.4553 51.4272 45.513C51.3696 45.5707 51.2914 45.6031 51.2099 45.6031C51.1284 45.6031 51.0502 45.5707 50.9925 45.513C50.9349 45.4553 50.9025 45.3771 50.9025 45.2955V41.0276H50.2131V43.826C50.2131 43.9076 50.1807 43.9858 50.123 44.0435C50.0654 44.1012 49.9872 44.1336 49.9057 44.1336C49.8241 44.1336 49.746 44.1012 49.6883 44.0435C49.6307 43.9858 49.5983 43.9076 49.5983 43.826V41.0276H33.9506V43.826C33.9506 43.9076 33.9182 43.9858 33.8606 44.0435C33.8029 44.1012 33.7247 44.1336 33.6432 44.1336C33.5617 44.1336 33.4835 44.1012 33.4258 44.0435C33.3682 43.9858 33.3358 43.9076 33.3358 43.826V41.0276H32.6464V45.2955C32.6493 45.3379 32.6435 45.3806 32.6292 45.4207C32.615 45.4608 32.5927 45.4976 32.5636 45.5287C32.5346 45.5599 32.4995 45.5847 32.4604 45.6017C32.4214 45.6186 32.3793 45.6274 32.3368 45.6274C32.2942 45.6274 32.2521 45.6186 32.2131 45.6017C32.1741 45.5847 32.139 45.5599 32.11 45.5287C32.0809 45.4976 32.0586 45.4608 32.0444 45.4207C32.0301 45.3806 32.0243 45.3379 32.0272 45.2955V41.0232C31.8781 40.9971 31.7436 40.9177 31.6487 40.7996C31.5539 40.6816 31.5051 40.5331 31.5116 40.3818C31.518 40.2304 31.5792 40.0866 31.6838 39.9771C31.7884 39.8676 31.9291 39.7999 32.0799 39.7866H34.4658V38.4402H33.0401C32.817 38.4244 32.6081 38.3246 32.4556 38.1608C32.3031 37.9969 32.2183 37.7814 32.2183 37.5575C32.2183 37.3335 32.3031 37.118 32.4556 36.9542C32.6081 36.7903 32.817 36.6905 33.0401 36.6747H34.4673V36.2645H33.0401C32.8064 36.2645 32.5823 36.1716 32.417 36.0062C32.2518 35.8407 32.1589 35.6164 32.1589 35.3825C32.1589 35.1486 32.2518 34.9242 32.417 34.7588C32.5823 34.5934 32.8064 34.5005 33.0401 34.5005H50.3858C50.6131 34.5098 50.828 34.6067 50.9855 34.7709C51.1431 34.9352 51.2311 35.1541 51.2311 35.3818C51.2311 35.6095 51.1431 35.8283 50.9855 35.9926C50.828 36.1568 50.6131 36.2537 50.3858 36.263H48.9615V36.2645ZM48.3585 39.7881V38.4417H35.1157V39.7881H48.3585ZM35.1157 36.6762H48.3585V36.266H35.1157V36.6762Z" fill="#FFAE00"/>
<path d="M51.1952 19.2618V19.672C51.1948 19.9409 51.088 20.1988 50.8981 20.389C50.7083 20.5793 50.4509 20.6866 50.1822 20.6874H45.0473C44.7789 20.6866 44.5217 20.5795 44.3319 20.3896C44.1421 20.1996 44.0352 19.9422 44.0344 19.6735V14.865H51.3181C52.6648 14.865 53.7582 15.8393 53.7582 17.0422C53.7582 18.2435 52.6662 19.2222 51.3181 19.2222H51.2083L51.1952 19.2618ZM41.3528 21.2207H54.0144C54.0136 21.5968 53.8639 21.9573 53.598 22.2232C53.3321 22.489 52.9718 22.6385 52.596 22.6389H42.7712C42.3956 22.6381 42.0357 22.4885 41.7701 22.2227C41.5046 21.9568 41.355 21.5966 41.3542 21.2207H41.3528ZM51.1952 15.5331V18.5527H51.3049C51.5165 18.5746 51.7303 18.5518 51.9325 18.4857C52.1347 18.4196 52.3208 18.3118 52.4788 18.1692C52.6367 18.0266 52.763 17.8524 52.8494 17.6579C52.9359 17.4634 52.9805 17.2529 52.9805 17.04C52.9805 16.8271 52.9359 16.6165 52.8494 16.422C52.763 16.2275 52.6367 16.0533 52.4788 15.9107C52.3208 15.7681 52.1347 15.6603 51.9325 15.5942C51.7303 15.5282 51.5165 15.5053 51.3049 15.5272L51.1952 15.5331Z" fill="#F6EC4A"/>
<path d="M10.9738 32.8756H12.9338V31.3285H10.9475L10.9738 32.8756ZM2.59668 27.2613H4.62985L4.8582 27.235V25.4915L4.64303 25.4592H2.59375L2.59668 27.2613ZM26.1765 27.2613H28.2185L28.438 27.235V25.4915L28.2229 25.4592H26.1794L26.1765 27.2613ZM22.2726 27.2613H24.3161L24.5356 27.235V25.4915L24.3161 25.4592H22.277L22.2726 27.2613Z" fill="#FF2A31"/>
</svg>
