<svg width="183" height="51" viewBox="0 0 183 51" fill="none" xmlns="http://www.w3.org/2000/svg">
<path d="M0 5.84473H18.9687L28.5495 35.8409H28.6781L38.7091 5.84473H56.9705V50.9996H45.2034L45.3963 16.3145H45.2677L33.6936 50.9996H22.6339L11.6384 16.3145H11.5098L11.767 50.9996H0V5.84473Z" fill="black"/>
<path d="M65.0725 5.84473H77.0968V42.0714H95.744V50.9996H65.0725V5.84473Z" fill="black"/>
<path d="M129.245 5.84473H114.455L97.2871 50.9996H109.504L113.041 41.3649H130.016L133.36 50.9996H146.542L129.245 5.84473ZM115.934 32.8221L121.786 15.1583H121.914L127.316 32.8221H115.934Z" fill="black"/>
<path d="M150.207 12.9104H162.488V0.64209H170.654V12.9104H183V21.0678H170.654V33.336H162.488V21.0678H150.207V12.9104Z" fill="black"/>
</svg>
