<svg width="206" height="68" viewBox="0 0 206 68" fill="none" xmlns="http://www.w3.org/2000/svg">
<g clip-path="url(#clip0)">
<path d="M95.0304 37.7048C94.2802 39.6745 93.4363 40.9876 92.5925 41.7379C91.6548 42.4883 90.5296 42.9572 89.1231 42.9572H86.9665V39.7683H88.7481C89.2169 39.7683 89.6857 39.6745 89.967 39.4869C90.2483 39.3931 90.4359 39.0179 90.7171 38.6428C90.7171 38.549 90.8109 38.3614 90.8109 38.3614C90.8109 38.2676 90.9047 38.2676 90.9047 38.08L84.4349 22.3228H88.6543L91.0922 28.9821C91.4673 29.92 91.6548 30.7641 91.9361 31.5145C92.2174 32.3586 92.4049 32.9214 92.6862 33.4841H92.78L94.374 28.7945C94.374 28.7007 94.4678 28.4193 94.6553 28.0441C94.8428 27.669 94.9366 27.2938 95.1241 26.8248C95.2179 26.3559 95.4992 25.8869 95.593 25.4179C95.6867 24.949 95.968 24.48 96.0618 24.011C96.1556 23.5421 96.3431 23.1669 96.4369 22.8855C96.5306 22.5103 96.5306 22.4166 96.7181 22.3228H100.75C100.656 22.1352 95.0304 37.7048 95.0304 37.7048ZM113.408 37.4235C113.408 39.0179 112.94 40.331 112.096 41.269C111.252 42.2069 109.939 42.6759 108.251 42.6759C107.782 42.6759 107.126 42.6759 106.47 42.5821C105.72 42.4883 105.063 42.2069 104.313 41.8317V48.3972H100.656V27.7628H104.126L104.407 29.0759C105.251 28.6069 106.001 28.2317 106.751 27.9503C107.501 27.669 108.064 27.5752 108.533 27.5752C110.127 27.5752 111.346 28.0441 112.189 28.8883C113.033 29.7324 113.408 31.0455 113.408 33.0152V37.4235ZM109.564 33.3903C109.564 32.5462 109.47 31.9834 109.095 31.7021C108.72 31.3269 108.251 31.2331 107.782 31.2331C107.501 31.2331 107.314 31.2331 106.939 31.3269C106.657 31.4207 106.376 31.4207 106.095 31.6083C105.72 31.7021 105.532 31.8897 105.157 31.9834C104.876 32.0772 104.594 32.3586 104.313 32.4524V38.2676C105.063 38.6428 105.532 38.7366 106.001 38.8303C106.47 38.9241 106.939 38.9241 107.407 38.9241C107.97 38.9241 108.533 38.8303 108.814 38.4552C109.189 38.08 109.376 37.5172 109.376 36.6731L109.564 33.3903ZM119.972 29.451L120.722 29.0759C121.003 28.9821 121.191 28.7945 121.566 28.7007C121.847 28.6069 122.129 28.6069 122.41 28.4193H123.16C124.004 28.4193 124.848 28.5131 125.504 28.7945C126.254 29.0759 126.817 29.3572 127.286 29.7324C127.755 30.2014 128.13 30.8579 128.505 31.4207C128.786 32.171 128.88 33.0152 128.88 33.9531V36.9545C128.88 37.8924 128.786 38.6428 128.411 39.3931C128.036 40.1434 127.567 40.7062 127.004 41.0814C126.442 41.5503 125.692 41.9255 124.942 42.2069C124.191 42.4883 123.348 42.5821 122.41 42.5821C121.472 42.5821 120.628 42.4883 119.784 42.2069C118.941 41.9255 118.378 41.6441 117.722 41.0814C117.065 40.5186 116.784 39.9559 116.409 39.3931C116.034 38.6428 115.94 37.9862 115.94 36.9545V33.4841C115.94 32.3586 115.94 31.5145 116.034 30.5766C116.128 29.7324 116.315 28.9821 116.409 28.2317C116.503 27.4814 116.784 26.9186 117.159 26.2621C117.534 25.6055 117.909 25.1366 118.284 24.6676C118.659 24.2924 119.034 23.9172 119.409 23.7297C119.784 23.4483 120.253 23.2607 120.722 22.9793C121.191 22.6979 121.66 22.5103 122.129 22.4166C122.597 22.1352 123.066 22.0414 123.535 21.8538C124.098 21.5724 124.66 21.3848 125.129 21.291C125.598 21.1972 126.067 20.9159 126.723 20.5407L127.942 23.5421C127.567 23.6359 127.192 23.8234 127.004 23.9172L126.254 24.2924C125.973 24.3862 125.785 24.5738 125.504 24.5738C125.223 24.6676 125.035 24.8552 124.754 24.8552C124.191 25.1366 123.535 25.3241 123.066 25.6055C122.597 25.8869 121.941 26.0745 121.66 26.4497C121.191 26.8248 120.816 27.2 120.535 27.5752C120.253 27.9503 119.972 28.7007 119.972 29.451ZM125.035 34.5159C125.035 33.5779 124.754 32.9214 124.191 32.4524C123.723 32.0772 122.972 31.8897 122.222 31.8897C121.847 31.8897 121.66 31.8897 121.285 31.9834C120.91 32.0772 120.722 32.2648 120.441 32.4524C120.16 32.7338 119.972 32.9214 119.878 33.2966C119.784 33.6717 119.597 34.0469 119.597 34.5159V36.5793C119.597 37.0483 119.691 37.4235 119.878 37.7986C119.972 38.1738 120.253 38.3614 120.441 38.549C120.722 38.8303 120.91 38.9241 121.285 39.0179C121.66 39.1117 121.847 39.1117 122.222 39.1117C122.597 39.1117 122.972 39.1117 123.16 39.0179C123.535 38.9241 123.723 38.7366 124.004 38.549C124.285 38.2676 124.473 38.08 124.567 37.7986C124.66 37.4235 124.848 37.0483 124.848 36.5793L125.035 34.5159ZM139.85 41.269C139.006 41.7379 138.163 42.1131 137.412 42.3945C136.662 42.6759 136.1 42.6759 135.443 42.6759C134.037 42.6759 132.818 42.3007 131.974 41.4566C131.13 40.6124 130.755 39.4869 130.755 38.1738C130.755 37.3297 130.849 36.7669 131.224 36.1103C131.599 35.5476 131.974 35.1724 132.537 34.7972C133.005 34.4221 133.662 34.2345 134.224 34.0469C134.787 33.9531 135.443 33.7655 136.006 33.7655H139.757V33.2028C139.757 32.4524 139.475 31.9834 139.194 31.6083C138.819 31.2331 138.069 31.1393 137.131 31.1393C136.662 31.1393 136.006 31.2331 135.35 31.4207C134.599 31.5145 133.943 31.8897 133.193 32.5462L131.505 29.7324C132.443 28.8883 133.568 28.4193 134.693 28.1379C135.818 27.8566 136.662 27.7628 137.6 27.7628C139.663 27.7628 141.257 28.2317 142.194 29.1697C143.132 30.1076 143.601 31.6083 143.601 33.4841V42.6759H140.225C140.132 42.7697 139.85 41.269 139.85 41.269ZM139.85 36.5793H136.006C135.725 36.5793 135.537 36.6731 135.443 36.8607C135.162 36.9545 135.068 37.1421 134.974 37.3297C134.881 37.611 134.881 37.7986 134.881 38.08C134.881 38.4552 134.974 38.8303 135.35 39.0179C135.631 39.2993 136.1 39.3931 136.662 39.3931C137.225 39.3931 137.881 39.2993 138.444 39.0179C139.006 38.7366 139.569 38.549 139.85 38.2676V36.5793ZM155.697 42.4883V36.5793H150.258V42.4883H146.508V27.8566H150.258V33.3903H155.697V27.8566H159.447V42.4883H155.697ZM171.543 33.7655L169.011 37.611L165.73 42.4883H162.448V27.8566H166.198V36.5793H166.292L168.449 33.2966L172.106 27.8566H175.481V42.4883H171.731V33.7655H171.543ZM178.294 42.4883V27.8566H182.045V33.2966H183.264C183.826 33.2966 184.483 33.2028 184.858 32.9214C185.327 32.64 185.702 32.0772 185.983 31.3269L187.296 27.8566H191.328L189.734 32.0772C189.452 32.8276 189.265 33.2966 188.89 33.7655C188.515 34.2345 188.046 34.6097 187.483 34.891C188.233 35.1724 188.702 35.4538 189.077 36.0166C189.452 36.4855 189.64 37.1421 189.921 37.7986L191.609 42.4883H187.389L186.17 38.6428C186.077 38.1738 185.889 37.8924 185.702 37.5172C185.42 37.2359 185.327 37.0483 185.139 36.9545C184.858 36.8607 184.67 36.6731 184.295 36.6731H181.951V42.5821H178.294V42.4883ZM202.204 41.269C201.36 41.7379 200.517 42.1131 199.766 42.3945C199.016 42.6759 198.454 42.6759 197.797 42.6759C196.391 42.6759 195.172 42.3007 194.328 41.4566C193.484 40.6124 193.109 39.4869 193.109 38.1738C193.109 37.3297 193.203 36.7669 193.578 36.1103C193.953 35.4538 194.328 35.1724 194.891 34.7972C195.359 34.4221 196.016 34.2345 196.578 34.0469C197.141 33.9531 197.797 33.7655 198.36 33.7655H202.111V33.2028C202.111 32.4524 201.829 31.9834 201.548 31.6083C201.173 31.2331 200.423 31.1393 199.485 31.1393C199.016 31.1393 198.36 31.2331 197.704 31.4207C196.953 31.5145 196.297 31.8897 195.547 32.5462L193.859 29.7324C194.797 28.8883 195.922 28.4193 197.047 28.1379C198.172 27.8566 199.016 27.7628 199.954 27.7628C202.017 27.7628 203.611 28.2317 204.548 29.1697C205.486 30.1076 205.955 31.6083 205.955 33.4841V42.6759H202.579C202.579 42.7697 202.204 41.269 202.204 41.269ZM202.204 36.5793H198.36C198.079 36.5793 197.891 36.6731 197.797 36.8607C197.516 36.9545 197.422 37.1421 197.329 37.3297C197.235 37.611 197.235 37.7986 197.235 38.08C197.235 38.4552 197.329 38.8303 197.704 39.0179C197.985 39.2993 198.454 39.3931 199.016 39.3931C199.579 39.3931 200.235 39.2993 200.798 39.0179C201.36 38.7366 201.923 38.549 202.392 38.2676V36.5793H202.204ZM0.0458984 34.5159H3.23393V37.7048H0.0458984V34.5159ZM5.95313 33.5779H11.2978V38.9241H5.95313V33.5779ZM11.7666 27.7628H14.9546V30.9517H11.7666V27.7628ZM17.5801 25.6055H22.9247V30.9517H17.5801V25.6055ZM14.017 33.5779H22.8309V42.3945H14.017V33.5779ZM30.4259 0H33.614V3.18897H30.4259V0ZM29.207 5.90897H34.5516V11.2552H29.207V5.90897ZM37.2708 11.7241H40.3651V14.9131H37.177V11.7241H37.2708ZM45.3346 19.7903H48.5227V22.9793H45.3346V19.7903ZM19.8304 19.6028H23.0184V22.7917H19.8304V19.6028ZM19.6429 45.0207H22.8309V48.2097H19.6429V45.0207ZM45.2409 45.2083H48.4289V48.3972H45.2409V45.2083ZM37.2708 17.5393H42.6154V22.8855H37.2708V17.5393ZM25.7376 13.9752H34.5516V22.7917H25.7376V13.9752ZM64.9316 30.2952H68.1197V33.4841H64.9316V30.2952ZM56.9616 29.0759H62.3062V34.4221H56.9616V29.0759ZM53.3047 37.0483H56.4927V40.2372H53.3047V37.0483ZM45.2409 37.0483H50.5855V42.3945H45.2409V37.0483ZM45.3346 25.6055H54.1486V34.4221H45.3346V25.6055ZM34.5516 64.811H37.7396V68H34.5516V64.811ZM33.614 56.651H38.9586V61.9972H33.614V56.651ZM27.8005 53.0869H30.9885V56.2759H27.8005V53.0869ZM25.6439 45.0207H30.9885V50.3669H25.6439V45.0207ZM33.614 45.2083H42.4279V54.0248H33.614V45.2083ZM25.7376 33.5779V42.3945H30.9885V40.331H27.988V33.5779H25.7376ZM42.4279 37.0483H40.2713V40.331H33.614V42.3945H42.4279" fill="black"/>
<path d="M42.4276 25.6055H25.7373V30.9517H27.8939V27.7627H30.5193V37.5172H37.5518V27.7627H40.1772V34.3282H42.3338" fill="black"/>
</g>
<defs>
<clipPath id="clip0">
<rect width="206" height="68" fill="white"/>
</clipPath>
</defs>
</svg>
