<svg id="Слой_1" data-name="Слой 1" xmlns="http://www.w3.org/2000/svg" viewBox="0 0 184.25 230.58"><defs><style>.cls-1{fill:#fff200;}</style></defs><rect width="184.25" height="230.58" rx="3"/><path class="cls-1" d="M63.23,33.56H35.46v16.9H81.41a2.28,2.28,0,0,1,1.92.93,2.92,2.92,0,0,1,.7,1.76v52.92a3,3,0,0,1-.7,1.76,2.28,2.28,0,0,1-1.92.93H17.6a3,3,0,0,1-1.76-.71,2.27,2.27,0,0,1-.93-1.91V83.22a3,3,0,0,1,.71-1.76,2.3,2.3,0,0,1,1.92-.92H33.09a2.3,2.3,0,0,1,1.92.92,3,3,0,0,1,.7,1.76V88H63.23V71.26H17.28a2.28,2.28,0,0,1-1.92-.93,3,3,0,0,1-.7-1.76V15.45a3,3,0,0,1,.7-1.76,2.28,2.28,0,0,1,1.92-.93H81.41a2.28,2.28,0,0,1,1.92.93,3,3,0,0,1,.7,1.76v23.1a2.92,2.92,0,0,1-.7,1.76,2.28,2.28,0,0,1-1.92.93H65.85a2.25,2.25,0,0,1-1.91-.93,2.94,2.94,0,0,1-.71-1.76Z"/><path class="cls-1" d="M100.16,15.26a2.28,2.28,0,0,1,.92-1.95,3,3,0,0,1,1.77-.67h15.66a3,3,0,0,1,1.76.67,2.28,2.28,0,0,1,.92,1.95v90.88a2.29,2.29,0,0,1-.92,1.91,3,3,0,0,1-1.76.71H102.85a3,3,0,0,1-1.77-.71,2.29,2.29,0,0,1-.92-1.91Z"/><path class="cls-1" d="M63.23,142.74H35.46v16.9H81.41a2.28,2.28,0,0,1,1.92.93,2.94,2.94,0,0,1,.7,1.76v52.92a2.94,2.94,0,0,1-.7,1.76,2.28,2.28,0,0,1-1.92.93H17.6a3,3,0,0,1-1.76-.7,2.28,2.28,0,0,1-.93-1.92V192.41a3,3,0,0,1,.71-1.76,2.28,2.28,0,0,1,1.92-.93H33.09a2.28,2.28,0,0,1,1.92.93,2.94,2.94,0,0,1,.7,1.76v4.73H63.23v-16.7H17.28a2.28,2.28,0,0,1-1.92-.93,2.94,2.94,0,0,1-.7-1.76V124.63a3,3,0,0,1,.7-1.76,2.3,2.3,0,0,1,1.92-.92H81.41a2.3,2.3,0,0,1,1.92.92,3,3,0,0,1,.7,1.76v23.11a3,3,0,0,1-.7,1.76,2.3,2.3,0,0,1-1.92.92H65.85a2.27,2.27,0,0,1-1.91-.92,3,3,0,0,1-.71-1.76Z"/><path class="cls-1" d="M100.16,215.25V124.51a3,3,0,0,1,.7-1.77,2.3,2.3,0,0,1,1.92-.92h15.55a2.38,2.38,0,0,1,2,.92,2.64,2.64,0,0,1,.64,1.77v72.63h27.83V124.51a3.59,3.59,0,0,1,.74-1.77,2.22,2.22,0,0,1,1.89-.92H167a2.28,2.28,0,0,1,1.95.92,3,3,0,0,1,.67,1.77v90.74a2.94,2.94,0,0,1-.7,1.76,2.34,2.34,0,0,1-2,.93H102.78a2.28,2.28,0,0,1-1.92-.93A2.94,2.94,0,0,1,100.16,215.25Z"/></svg>