<?xml version="1.0" encoding="utf-8"?>
<!-- Generator: Adobe Illustrator 19.2.0, SVG Export Plug-In . SVG Version: 6.00 Build 0)  -->
<svg version="1.1" id="Layer_1" xmlns="http://www.w3.org/2000/svg" xmlns:xlink="http://www.w3.org/1999/xlink" x="0px" y="0px"
	 viewBox="0 0 133.7 133.6" style="enable-background:new 0 0 133.7 133.6;" xml:space="preserve">
<path d="M9.1,118.2c0.5-0.4,0.7-0.5,0.9-0.7C26.7,100.8,43.5,84,60.3,67.1c-0.4-0.5-0.8-0.9-1.2-1.3c-4.7-4.7-9.3-9.3-14-14
	c-8.6-8.6-17.2-17.2-25.8-25.9C13.7,20.4,8.2,14.8,2.7,9.3C2,8.5,1.3,7.8,0.7,6.9c-1.3-2-0.8-4.5,1.1-5.9c1.8-1.4,4.2-1.3,5.8,0.3
	c1,1,2,2.1,3,3.1c19.5,19.5,39,39,58.5,58.5c0.4,0.4,0.8,0.7,1.1,1.1c1.5,1.8,1.5,4.1,0,5.9c-0.4,0.5-0.9,0.9-1.3,1.4
	c-7.2,7.2-14.4,14.4-21.6,21.6c-8.8,8.8-17.6,17.6-26.4,26.4c-4,4-7.9,8-11.9,12c-0.4,0.4-0.7,0.7-1.1,1.1c-1.2,1.1-2.7,1.5-4.3,1.3
	c-1.7-0.3-2.8-1.3-3.4-2.9c-0.2-0.6-0.3-1.3-0.3-1.9C0,108.9,0,89,0,69.1c0-1-0.1-2.1,0.1-3.1c0.3-1.7,1.4-2.9,3.1-3.4
	c1.7-0.5,3.2-0.1,4.5,1.2C8.6,64.7,9,65.8,9,67c0,0.7,0,1.4,0,2.1c0,15.5,0,31.1,0,46.6C9,116.5,9.1,117.2,9.1,118.2z"/>
<path d="M124.7,15.9c-1,0.4-1.4,1-1.9,1.5C109.3,30.9,95.7,44.5,82.2,58c-0.7,0.7-1.4,1.4-2.1,2c-1.4,1.1-3,1.2-4.6,0.4
	c-1.6-0.8-2.4-2.2-2.5-3.9c-0.1-1.2,0.4-2.3,1.2-3.2c0.3-0.4,0.7-0.7,1.1-1.1C91.6,35.9,108,19.5,124.4,3.1c0.4-0.4,0.8-0.9,1.2-1.3
	c0.6-0.5,1.2-1.1,1.9-1.4c3.2-1.5,6.3,1.2,6.2,3.9c0,1.2-0.1,2.5-0.1,3.7c0,3.5,0,7,0,10.5c0,35.6,0,71.1,0,106.7
	c0,1.3,0.1,2.6,0.1,3.9c0.1,2.1-1.4,4-3.4,4.4c-2.2,0.5-4.3-0.6-5.1-2.5c-0.3-0.6-0.4-1.4-0.5-2.1c-0.1-0.6,0-1.3,0-1.9
	c0-36.2,0-72.4,0-108.6C124.8,17.6,124.7,16.9,124.7,15.9z"/>
</svg>
