<svg xmlns="http://www.w3.org/2000/svg" viewBox="0 0 841.89 170.08">
    <defs>
        <style> .cls-1 {
            fill: var(--color-text-opposite);
        } </style>
    </defs>
    <title>logo_unit4_bl</title>
    <rect class="logo-unit4-rect" width="841.89" height="170.08"/>
    <rect class="cls-1" x="478.17" y="53.84" width="17.66" height="17.67"/>
    <rect class="cls-1" x="531.17" y="53.84" width="17.67" height="17.67"/>
    <rect class="cls-1" x="478.17" y="106.85" width="17.66" height="17.66"/>
    <rect class="cls-1" x="531.17" y="106.85" width="17.67" height="17.66"/>
    <path class="cls-1" d="M106.4,113.49a36.12,36.12,0,0,1-6.11,5.81,29,29,0,0,1-5.81,3.34A21.54,21.54,0,0,1,89,124.16a39.12,39.12,0,0,1-5.07.34A24,24,0,0,1,72.75,122a23.11,23.11,0,0,1-8.15-7.07,32.86,32.86,0,0,1-5-11,55.93,55.93,0,0,1-1.69-14.3,50.82,50.82,0,0,1,2-15A34.72,34.72,0,0,1,65.6,63.42a24.7,24.7,0,0,1,8.5-7.11,23,23,0,0,1,10.53-2.47,46.4,46.4,0,0,1,5,.26,27.09,27.09,0,0,1,5.2,1.08,27.92,27.92,0,0,1,5.59,2.47,35.67,35.67,0,0,1,6,4.42V27.82h6.93v94.95H106.4Zm0-43a34.37,34.37,0,0,0-9.76-7.28,25.63,25.63,0,0,0-11.23-2.43A19.64,19.64,0,0,0,77,62.55a17.2,17.2,0,0,0-6.46,5.38,26.57,26.57,0,0,0-4.16,9,48.87,48.87,0,0,0-1.48,12.71q0,13.69,5.29,20.81t14.74,7.11a20.34,20.34,0,0,0,11.45-3.43A39.61,39.61,0,0,0,106.4,104Z"/>
    <path class="cls-1" d="M162.85,124.5a32.81,32.81,0,0,1-12.75-2.38,27.08,27.08,0,0,1-9.84-6.94A31.48,31.48,0,0,1,133.89,104a46,46,0,0,1-2.26-15,46.53,46.53,0,0,1,2.17-14.7A31.89,31.89,0,0,1,140,63.24a27.07,27.07,0,0,1,9.46-7,29.67,29.67,0,0,1,12.14-2.42,30.71,30.71,0,0,1,12.39,2.42,26.11,26.11,0,0,1,9.46,7,31.61,31.61,0,0,1,6,11.1,48.71,48.71,0,0,1,2.08,14.79v1.56H138.57a40.48,40.48,0,0,0,2.51,11.88,25.52,25.52,0,0,0,5.2,8.36,20.57,20.57,0,0,0,7.42,5,24.81,24.81,0,0,0,9.15,1.65,29.84,29.84,0,0,0,6.93-.83,22.74,22.74,0,0,0,6.29-2.47,16.67,16.67,0,0,0,4.73-4.07,10.73,10.73,0,0,0,2.25-5.55h6.85a23.29,23.29,0,0,1-9.37,14.7,25.91,25.91,0,0,1-8.06,3.85A34.46,34.46,0,0,1,162.85,124.5Zm21.59-40.75q-1.74-11.53-7.85-17.25a21.17,21.17,0,0,0-15-5.73,24,24,0,0,0-8.24,1.39,19.34,19.34,0,0,0-6.81,4.25,24,24,0,0,0-5,7.2,36.47,36.47,0,0,0-2.9,10.14Z"/>
    <path class="cls-1" d="M231.87,124.5q-24.72,0-27-19.85h7a13.2,13.2,0,0,0,5.6,9.49q4.8,3.44,14.26,3.43a29.07,29.07,0,0,0,8.06-1,17.86,17.86,0,0,0,5.77-2.69,10.87,10.87,0,0,0,3.43-4,11.46,11.46,0,0,0,1.12-5,10.53,10.53,0,0,0-.91-4.59A8.74,8.74,0,0,0,246,96.76a30,30,0,0,0-6.51-3q-4.11-1.44-10.53-3.08-5.46-1.39-9.71-2.86a26.38,26.38,0,0,1-7.16-3.65,14.06,14.06,0,0,1-4.37-5.24,17.62,17.62,0,0,1-1.48-7.68A15.45,15.45,0,0,1,207.89,64a16,16,0,0,1,4.73-5.5A22.37,22.37,0,0,1,220,55.05a35.62,35.62,0,0,1,9.62-1.21q12,0,18.17,4t6.89,12.7h-7a9.6,9.6,0,0,0-4.81-7.41q-4.12-2.38-12.27-2.39a32.78,32.78,0,0,0-7,.7,18.7,18.7,0,0,0-5.5,2,10.4,10.4,0,0,0-3.6,3.39,8.37,8.37,0,0,0-1.3,4.63,9.48,9.48,0,0,0,.52,3,7.33,7.33,0,0,0,2.64,3.21,27,27,0,0,0,6.38,3.34,95.46,95.46,0,0,0,11.61,3.51A96.76,96.76,0,0,1,244.4,87.7a26.65,26.65,0,0,1,7.11,3.81,14.27,14.27,0,0,1,4.2,5.16,16.1,16.1,0,0,1,1.39,6.94,19.46,19.46,0,0,1-1.78,8.28,19.09,19.09,0,0,1-5,6.63,24,24,0,0,1-7.93,4.38A32.22,32.22,0,0,1,231.87,124.5Z"/>
    <path class="cls-1" d="M283.46,122.77h-6.94V55.57h6.94Zm0-77.61h-6.94V38h6.94Z"/>
    <path class="cls-1" d="M747.37,122.77h-6.94V55.57h6.94Zm0-77.61h-6.94V38h6.94Z"/>
    <path class="cls-1" d="M357.16,118.78a47.76,47.76,0,0,1-1.73,13.75,22.64,22.64,0,0,1-5.16,9.23,20.19,20.19,0,0,1-8.63,5.2,39.89,39.89,0,0,1-12.05,1.65,39,39,0,0,1-10.32-1.26,24.92,24.92,0,0,1-7.89-3.6,16.69,16.69,0,0,1-5.16-5.81,18.76,18.76,0,0,1-2.12-7.89H311q.44,6,5,8.8t13.35,2.82a30,30,0,0,0,9.1-1.25,14.85,14.85,0,0,0,6.51-4.12,18.71,18.71,0,0,0,3.94-7.55,42.17,42.17,0,0,0,1.35-11.53V113a42.84,42.84,0,0,1-6.38,6.29,26.46,26.46,0,0,1-5.76,3.47,19.66,19.66,0,0,1-5.34,1.47,42.61,42.61,0,0,1-5,.3A24,24,0,0,1,316.58,122a23.11,23.11,0,0,1-8.15-7.07,32.67,32.67,0,0,1-5-11,55.93,55.93,0,0,1-1.69-14.3,50.84,50.84,0,0,1,2-15,34.93,34.93,0,0,1,5.64-11.27,24.7,24.7,0,0,1,8.5-7.11,23,23,0,0,1,10.53-2.47,38.18,38.18,0,0,1,5,.34,29.55,29.55,0,0,1,5.38,1.26,33.76,33.76,0,0,1,5.63,2.47,34.19,34.19,0,0,1,5.73,4V55.57h6.93Zm-6.93-48.3a34.51,34.51,0,0,0-9.76-7.28,25.63,25.63,0,0,0-11.23-2.43,19.64,19.64,0,0,0-8.45,1.78,17.12,17.12,0,0,0-6.46,5.38,26.57,26.57,0,0,0-4.16,9,48.44,48.44,0,0,0-1.48,12.71q0,13.69,5.29,20.81t14.74,7.11a20.36,20.36,0,0,0,11.45-3.43A39.61,39.61,0,0,0,350.23,104Z"/>
    <path class="cls-1" d="M386.3,65.54a37.8,37.8,0,0,1,6.63-6.33,29.53,29.53,0,0,1,6.33-3.55,22.61,22.61,0,0,1,5.85-1.52,48.67,48.67,0,0,1,5.21-.3Q431,53.84,431,78.29v44.48H424.1V78.9a34.94,34.94,0,0,0-.82-8.11,13.54,13.54,0,0,0-2.69-5.64,11.15,11.15,0,0,0-4.86-3.29,21.93,21.93,0,0,0-18.55,2.29,48.48,48.48,0,0,0-10.88,9.54v49.08h-6.94V55.57h6.94Z"/>
    <path class="cls-1" d="M640.8,113.75a24.77,24.77,0,0,1-5.68,5.08,36.39,36.39,0,0,1-6.41,3.29,34.12,34.12,0,0,1-6.42,1.82,32.26,32.26,0,0,1-5.68.56Q596,124.5,596,100V55.57h6.94V99.36q0,9.45,3.51,13.83t12.18,4.38a21.67,21.67,0,0,0,11.75-3.47,41,41,0,0,0,10.45-9.89V55.57h6.94v67.2H640.8Z"/>
    <path class="cls-1" d="M675.38,65.54A37.8,37.8,0,0,1,682,59.21a29.53,29.53,0,0,1,6.33-3.55,22.67,22.67,0,0,1,5.86-1.52,48.34,48.34,0,0,1,5.2-.3q20.72,0,20.72,24.45v44.48h-6.94V78.9a34.94,34.94,0,0,0-.82-8.11,13.42,13.42,0,0,0-2.69-5.64,11.18,11.18,0,0,0-4.85-3.29,21.49,21.49,0,0,0-7.33-1.09,21.25,21.25,0,0,0-11.23,3.38,48.48,48.48,0,0,0-10.88,9.54v49.08h-6.94V55.57h6.94Z"/>
    <path class="cls-1" d="M791,123.38c-1,.11-2,.2-3,.26s-2,.08-2.95.08a17.47,17.47,0,0,1-7.24-1.25,9,9,0,0,1-4.16-3.78,16.32,16.32,0,0,1-1.87-6.28,78.06,78.06,0,0,1-.43-8.8V62.51h-8.58V55.57h8.58V38h6.94v17.6h11v6.94h-11v41.7a29.28,29.28,0,0,0,.6,6.64,8.69,8.69,0,0,0,1.82,3.81,5.53,5.53,0,0,0,3,1.74,18.8,18.8,0,0,0,4,.39h1.65a15.32,15.32,0,0,0,1.56-.09Z"/>
</svg>