<?xml version="1.0" encoding="utf-8"?>
<!-- Generator: Adobe Illustrator 22.0.1, SVG Export Plug-In . SVG Version: 6.00 Build 0)  -->
<svg version="1.1" id="Layer_1" xmlns="http://www.w3.org/2000/svg" xmlns:xlink="http://www.w3.org/1999/xlink" x="0px" y="0px"
	 viewBox="0 0 713.7 561.2" style="enable-background:new 0 0 713.7 561.2;" xml:space="preserve">
<path d="M330.9,424.5c0.1,0,0.3,0,0.4,0c1.7,4.8,3.4,9.5,5.1,14.3c2.5,6.6,2.5,6.5,9.3,6.3c1.7-0.1,2.5-0.7,3-2.2
	c1.8-5.2,3.7-10.3,5.6-15.4c0.4-1,0.5-2.2,1.5-3c0.6,1.2,0.2,2.3,0.2,3.4c-0.1,7.3-0.3,14.5-0.4,21.8c-0.1,7.3,0,7.3,7.2,6.7
	c1.2-0.1,1.9-0.4,1.9-1.7c0-0.9,0-1.8,0-2.7c0-13.8,0-27.5,0-41.3c0-6.4,0-6.3-6.6-6.3c-2.2,0-3.1,0.8-3.9,2.7
	c-3,7.7-6.2,15.3-9.3,23c-0.5,1.1-0.5,2.5-1.8,3.4c-0.3-0.6-0.7-1.1-0.9-1.7c-2.7-7.6-5.9-14.9-9-22.3c-2.6-6.1-0.9-4.9-7.6-5
	c-3.7-0.1-3.6-0.4-3.6,3.8c0,14,0,28,0,42c0,6.3,0,6.3,6.3,6.1c2.6-0.1,2.6-0.1,2.6-2.9c0-5-0.1-9.9-0.1-14.9
	C330.9,433.9,330.9,429.2,330.9,424.5z"/>
<path d="M555.8,430.2c0,7.5,0,15,0,22.5c0,3.8-0.5,3.6,3.8,3.6c6.5,0,13,0,19.5,0c3.1,0,3.1,0.1,3.1,3.2c0.1,5.6,0.1,5.6,5.6,5.6
	c0.6,0,1.3,0,1.9,0c1.1,0,1.6-0.6,1.6-1.7c0-4.7,0-9.4,0-14.1c0-1.1-0.4-1.5-1.5-1.7c-3.2-0.5-3.2-0.6-3.2-3.9c0-11.1,0-22.2,0-33.2
	c0-7.2,1.1-6-6-6.1c-3.4,0-3.4,0-3.4,3.7c0,11.7,0,23.4,0,35.1c0,0.9,0,1.8,0,2.7c0,1.3-0.6,1.8-1.9,1.7c-2.8-0.1-5.6,0-8.4,0
	c-1.3,0-1.8-0.6-1.9-1.8c0-0.9,0-1.8,0-2.7c0-10.8,0-21.6,0-32.5c0-6.5,0-6.5-6.5-6.2c-2.6,0.1-2.7,0.1-2.7,2.9
	C555.8,414.9,555.8,422.6,555.8,430.2z"/>
<path d="M70.2,456.4c0.7,1,0.6,1.8,0.6,2.5c0.2,6.7,0.2,6.7,6.9,6.3c1.6-0.1,2.3-0.5,2.3-2.2c-0.1-4.5-0.1-8.9,0-13.4
	c0-1.5-0.5-1.9-1.9-2.1c-2.8-0.2-2.8-0.3-2.8-3.1c0-11.5,0-22.9,0-34.4c0-6.7,1.1-5.7-5.9-5.7c-3.4,0-3.4,0-3.4,3.6
	c0,11.6,0,23.2,0,34.8c0,1,0,2,0,3.1c0,1.3-0.6,1.8-1.9,1.8c-1.8,0-3.6,0-5.3,0c-5.2-0.1-4.7,0.9-4.8-4.6c0-10.9,0-21.9,0-32.8
	c0-6.7,1.1-5.7-5.9-5.8c-3.3,0-3.3,0-3.3,3.3c0,15.1,0,30.3,0,45.4c0,0.1,0,0.3,0,0.4c0.1,2.7,0.1,2.8,2.6,2.8c3.4,0,6.9,0,10.3,0
	C61.9,456.4,66.2,456.4,70.2,456.4z"/>
<path d="M661.7,425c0.6,0.3,0.4,0.8,0.4,1.3c-0.5,8.1-0.3,16.3-0.4,24.4c0,5.7,0,5.7,5.6,5.6c3.4,0,3.2,0.2,3.2-3.4
	c0-14.1,0-28.3,0-42.4c0-6.2,0-6.1-6.3-6.2c-2.1,0-3.1,0.7-4,2.6c-3.7,8.8-7.5,17.5-11.4,26.3c-0.4,0.8-0.4,2-1.9,2.3
	c0.5-8.3,0.7-16.6,0.5-24.9c-0.1-7.4,1.5-6.1-6.5-6.2c-0.3,0-0.5,0-0.8,0c-1.1-0.1-1.6,0.5-1.6,1.6c0,0.8,0,1.5,0,2.3
	c0,14.8,0,29.5,0,44.3c0,1.1-0.2,2.3,0.5,3.7c1.9,0,3.9-0.2,5.9,0c2.2,0.2,3.1-0.7,3.9-2.6c3.7-9.1,8-17.9,11.5-27
	C660.7,426.1,660.8,425.2,661.7,425z"/>
<path d="M620.4,423.9c0,1.6,0.1,3.2,0,4.8c-0.6,7.2-0.5,14.5-0.5,21.7c0,5.9,0,5.9,5.8,5.9c3.6,0,3.3,0,3.3-3.3
	c0-14.1,0-28.3,0-42.4c0-6.4,0-6.3-6.6-6.3c-1.9,0-2.9,0.7-3.7,2.5c-3.8,9.1-7.8,18.2-11.8,27.3c-0.4,0.9-0.5,2-1.4,2.6
	c-0.4-0.7-0.2-1.5-0.2-2.2c0.9-8.2,0.7-16.5,0.7-24.8c0-6.1,1-5.3-5.5-5.3c-3.5,0-3.5,0-3.5,3.6c0,14.1,0,28.3,0,42.4c0,6,0,5.9,6,6
	c2.4,0,3.6-0.7,4.5-2.9c3.9-9.5,8.4-18.8,12-28.4C619.7,424.6,619.7,424,620.4,423.9z"/>
<path d="M120,430.2c0,6.5,0,13,0,19.5c0,6.9,0,6.8,6.8,6.8c2.1,0,2.5-0.8,2.5-2.7c-0.1-5.6,0-11.2-0.1-16.8c0-1.6,0.4-2.3,2.1-2.3
	c2.7,0.1,5.3,0.1,8,0c1.9-0.1,2.4,0.6,2.4,2.4c-0.1,4.5,0,8.9,0,13.4c0,6,0,6,6,5.9c4,0,3.3-0.2,3.3-3.3c0-14.4,0-28.8,0-43.1
	c0-5.6,0-5.6-5.8-5.5c-3.4,0-3.6-0.6-3.6,3.5c0,5.2,0,10.4,0,15.7c0,1.6-0.6,2.3-2.2,2.2c-2.7-0.1-5.3-0.1-8,0
	c-2,0.1-2.3-0.8-2.3-2.5c0.1-4.2,0-8.4,0-12.6c0-6.5,0-6.5-6.5-6.2c-2.6,0.1-2.7,0.1-2.7,2.9C120,414.9,120,422.6,120,430.2z"/>
<path d="M515.4,430.3c0,6.5,0,13,0,19.5c0,7,0,6.9,7,6.6c2-0.1,2.3-0.9,2.3-2.6c-0.1-3.2-0.1-6.4,0-9.5c0.1-3.1-0.6-6.3,0.5-9.3
	c3.2-0.6,6.3-0.1,9.5-0.2c0.1,0,0.3,0,0.4,0c1.6-0.2,1.9,0.7,1.9,2.1c0,4.5,0,8.9,0,13.4c0,6.3,0,6.3,6.1,6.2c3.7,0,3.2-0.2,3.2-3.5
	c0-14,0-28,0-42c0-6.6,0-6.6-6.4-6.4c-2.8,0.1-2.9,0.1-2.9,3c0,5.2-0.1,10.4,0,15.7c0,1.8-0.3,2.9-2.5,2.7c-2.4-0.2-4.8-0.1-7.3,0
	c-2,0.1-2.7-0.5-2.6-2.6c0.1-4.2,0-8.4,0-12.6c0-6.3,0-6.3-6.2-6.2c-2.9,0.1-3,0.1-3,3C515.4,415,515.4,422.7,515.4,430.3z"/>
<path d="M405.1,430.3c0-7.8-0.1-15.5,0-23.3c0-2-0.6-2.7-2.6-2.6c-3.3,0.1-6.6,0-9.9,0c-5.3,0-10.7,0-16,0c-1.6,0-2.3,0.6-2.2,2.2
	c0.1,0.8,0,1.5,0,2.3c0,13.6,0,27.2,0,40.9c0,7,0,6.9,6.9,6.6c1.9-0.1,2.3-0.8,2.3-2.5c-0.1-5.7,0-11.5,0-17.2c0-7,0.1-14,0-21
	c0-1.8,0.6-2.5,2.4-2.4c2.3,0.1,4.6,0,6.9,0c3.1,0,3.1,0,3.1,3.1c0,11.2,0,22.4,0,33.6c0,6.4,0,6.4,6.5,6.3c2.6-0.1,2.7-0.1,2.7-2.8
	C405.1,445.8,405.1,438.1,405.1,430.3z"/>
<path d="M255.4,424c-0.3-0.6-0.4-0.9-0.4-1.1c0-4.1,0-8.2-0.1-12.2c-0.1-7.3,1.3-6.1-6.2-6.2c-2.8,0-2.9,0.1-2.9,3
	c0,14.4,0,28.8,0,43.2c0,1.3,0,2.5,0,3.8c0,1.2,0.3,1.9,1.7,1.9c1.9-0.1,3.8,0,5.7,0c1.3,0,1.7-0.6,1.7-1.9c0-3.7,0.2-7.4-0.1-11.1
	c-0.2-3,0.9-5.3,3-7.3c1.2,1,1.6,2.2,2.1,3.3c2.6,5,5.1,9.9,7.7,14.9c0.5,1,0.9,2.1,2.4,2c2.9-0.2,5.8,0.3,8.9-0.3
	c-0.7-1.3-1.2-2.5-1.9-3.6c-4.2-7.6-8.3-15.2-12.6-22.7c-1.1-1.9-1.1-3.3,0.1-5.2c3.7-5.7,7.1-11.5,10.6-17.2
	c0.5-0.8,1.5-1.5,0.8-2.9c-2.3,0-4.7,0.1-7.1,0c-1.9-0.1-3,0.6-3.9,2.3C262,412.3,258.8,417.9,255.4,424z"/>
<path d="M85.6,430.3c0,7.9,0.1,15.8,0,23.7c0,1.9,0.6,2.4,2.4,2.4c6.2-0.1,12.5,0,18.7,0c6.3,0,6.3,0,5.9-6.5
	c-0.1-1.7-0.7-2.2-2.3-2.2c-4.1,0.1-8.2,0-12.2,0c-3.1,0-3.1-0.1-3.1-3.2c0-2.4,0-4.8,0-7.3c0.1-3,0.1-3,2.9-3c2.3,0,4.6,0,6.9,0
	c6.8-0.2,5.5,1.3,5.7-5.9c0.1-2.1-0.9-2.6-2.7-2.5c-3.3,0.1-6.6,0.1-9.9,0c-2.8,0-2.8-0.1-2.9-3c0-2,0-4.1,0-6.1
	c0-3.4,0-3.4,3.2-3.4c2.7,0,5.4,0,8,0c6.6-0.1,5.6,1.2,5.7-6c0-2.8-0.1-2.9-3.1-2.9c-6.8,0-13.5,0-20.3,0c-2.9,0-3,0.1-3,2.9
	C85.6,415,85.6,422.7,85.6,430.3z"/>
<path d="M481,430.5c0,7.8,0.1,15.5,0,23.3c0,2,0.5,2.7,2.6,2.6c6.1-0.1,12.2,0,18.3-0.1c7.1-0.1,5.9,1.5,6.1-6.3
	c0-2-0.8-2.4-2.5-2.3c-4.3,0.1-8.7,0-13,0c-1.6,0-2.3-0.5-2.3-2.2c0.1-3.1,0.1-6.1,0-9.2c0-1.6,0.6-2.3,2.2-2.2c2.7,0.1,5.3,0.1,8,0
	c6.1-0.1,5.2,1.1,5.3-5.6c0-2.7-0.1-2.7-2.8-2.8c-3.6,0-7.1-0.1-10.7,0c-1.4,0-2.1-0.5-2.1-2c0.1-2.8,0.1-5.6,0-8.4
	c-0.1-1.6,0.5-2.3,2.2-2.2c2.9,0.1,5.9,0.1,8.8,0c7-0.1,5.9,1.3,6-6c0-2.7-0.1-2.8-2.7-2.8c-6.7,0-13.5,0-20.2,0
	c-3.2,0-3.2,0-3.2,3.1C481,415.2,481,422.8,481,430.5z"/>
<path d="M414.8,430.4c0,7.3,0,14.5,0,21.8c0,4.7-0.6,4.1,4,4.2c5.6,0,11.2,0.1,16.8,0c7.2-0.1,5.9,1.5,6.1-6.3
	c0.1-1.9-0.6-2.4-2.4-2.4c-4.3,0.1-8.7,0-13,0.1c-1.6,0-2.3-0.5-2.2-2.2c0.1-3.1,0.1-6.1,0-9.2c0-1.6,0.5-2.3,2.2-2.3
	c2.5,0.1,5.1,0.1,7.6,0c6.6-0.2,5.5,1.4,5.7-5.9c0-1.8-0.5-2.5-2.4-2.4c-3.7,0.1-7.4,0-11.1,0c-1.5,0-2-0.5-2-2
	c0.1-2.9,0.1-5.9,0-8.8c0-1.3,0.5-1.8,1.8-1.8c3.1,0,6.1,0.1,9.2,0c7-0.1,5.9,1.3,5.9-6c0-2.7-0.1-2.8-2.7-2.8c-6.9,0-13.7,0-20.6,0
	c-2.7,0-2.8,0.1-2.8,2.7C414.7,414.9,414.8,422.7,414.8,430.4z"/>
<path d="M455.8,434.8c0,5.1,0,10.2,0,15.3c0,6.3,0,6.3,6.2,6.2c3.4,0,3.4,0,3.4-3.7c0-11.6,0-23.2,0-34.7c0-5.3-0.7-4.5,4.7-4.6
	c6.5-0.1,5.6,1.3,5.7-5.9c0-2.9-0.1-3-2.9-3c-7,0-14,0-21,0c-6.8,0-6.8,0-6.3,6.8c0,0.1,0,0.3,0,0.4c-0.1,1.4,0.7,1.7,1.9,1.7
	c1.9,0,3.8,0,5.7,0c2.7,0.1,2.7,0.1,2.7,2.8C455.8,422.4,455.8,428.6,455.8,434.8z"/>
<path d="M176.3,456c0.5-1.2,0.3-2.5,0.3-3.8c0-11.3,0-22.7,0-34c0-5.6-0.7-4.8,4.8-4.9c6.7-0.1,5.6,1.3,5.7-5.9c0-2.9,0-3-2.9-3
	c-7,0-14,0-21,0c-6.9,0-7.2,0.4-6.4,7.2c0.2,1.3,0.7,1.8,1.9,1.7c1.8-0.1,3.6,0,5.3,0c3.1,0,3.1,0,3.1,3.1c0,10.7,0,21.4,0,32.1
	C167.2,457.3,167.2,457.3,176.3,456z"/>
<path d="M308.8,502.1c-1.1-1.1-1.3-2.1-1.7-3c-1.4-3.4-2.8-6.8-4.2-10.2c-0.4-1-0.9-1.8-2.2-1.6c-1.5,0.3-1.1,1.5-1.1,2.4
	c0,1.7,0,3.3,0,5c0,5.2,0,10.4,0,15.6c0,0.9,0,1.9,1.3,1.9c1.4,0,1.2-1,1.2-1.9c0-3.2,0-6.4,0-9.5c0-1.6-0.3-3.2,0.3-4.7
	c1.1,0.1,1.2,0.8,1.4,1.3c1,2.5,2,5,2.9,7.4c0.3,0.9,0.8,1.6,1.8,1.6c1.1,0,1.5-0.8,1.8-1.7c0.9-2.3,1.7-4.5,2.7-6.7
	c0.4-0.9,0.4-2.2,1.9-2.6c0,4.5,0,8.8,0,13.1c0,0.9,0,1.8,0.1,2.7c0.1,0.8,0.7,1,1.4,1c0.5,0,1-0.3,1-0.9c0.1-0.5,0.1-1,0.1-1.5
	c0-6.6,0-13.2,0-19.8c0-0.4,0-0.8,0-1.1c0-0.7-0.2-1.3-0.9-1.4c-0.8-0.1-1.6-0.1-2,0.7c-0.3,0.7-0.6,1.4-0.9,2.1
	C312.1,494,310.5,497.8,308.8,502.1z"/>
<path d="M117.2,543.9c0.8,1.5,0.5,2.8,0.5,4c0,3.7,0,7.4,0,11.1c0,0.8,0,1.7,1,1.8c1.3,0.1,1.3-0.9,1.3-1.8c0-7,0-14,0-21
	c0-0.8,0.3-1.9-1-2.1c-1.3-0.2-1.8,0.7-2.1,1.7c-1.4,3.5-2.8,7.1-4.3,10.6c-0.4,0.9-0.3,2.1-1.7,2.4c-1.8-4.3-3.6-8.6-5.3-13
	c-0.4-1-0.8-1.9-2.1-1.7c-1.6,0.2-1.2,1.4-1.2,2.3c0,5.6,0,11.2,0,16.8c0,1.3,0,2.5,0,3.8c0,0.9-0.2,1.9,1.1,2
	c1.4,0.1,1.2-1,1.3-1.9c0-2-0.1-4.1,0-6.1c0.1-2.9-0.4-5.8,0.3-8.6c1.4,0.4,1.4,1.5,1.8,2.4c1,2.3,1.9,4.7,2.8,7.1
	c0.3,0.8,0.7,1.3,1.7,1.3c0.9,0,1.4-0.4,1.7-1.2c0.5-1.3,1-2.6,1.5-3.9C115.3,547.9,115.7,545.7,117.2,543.9z"/>
<path d="M412.7,543.7c0.3,0,0.6-0.1,0.9-0.1c1.2,2.9,2.3,5.9,3.5,8.8c0.4,1,0.5,2.3,2,2.4c1.8,0.1,1.8-1.5,2.3-2.6
	c0.9-2.1,1.7-4.3,2.6-6.4c0.3-0.8,0.3-2,1.7-2.3c0,5,0,10,0,15c0,0.8-0.2,1.9,1.1,2.1c1.3,0.1,1.3-0.9,1.3-1.8c0-7.1,0-14.3,0-21.4
	c0-0.7,0.1-1.6-1-1.7c-0.8-0.1-1.5,0.2-1.9,1c-0.7,1.5-1.3,3-1.9,4.6c-1.3,3.2-2.6,6.4-4.2,10.1c-0.5-1.4-0.8-2.3-1.2-3.1
	c-1.5-3.8-3.1-7.5-4.6-11.3c-0.4-1-1.1-1.4-2.1-1.2c-1,0.2-0.9,1.1-0.9,1.8c0,0.5,0,1,0,1.5c0,6.1,0,12.2,0,18.3
	c0,1.1-0.8,3.1,1,3.1c2.2,0,1.2-2.1,1.2-3.3C412.7,552.8,412.7,548.3,412.7,543.7z"/>
<path d="M479.5,494c1.1,1.8,0.7,3.1,0.8,4.3c0.1,4.1,0,8.1,0,12.2c0,0.8,0.1,1.6,1.2,1.6c1,0,1.3-0.6,1.3-1.5c0-7.3,0-14.5,0-21.8
	c0-0.7-0.1-1.3-0.9-1.5c-0.7-0.2-1.6-0.2-2.1,0.5c-0.4,0.6-0.7,1.4-1,2.1c-1.8,4.1-3.6,8.2-5.4,12.2c-0.4,1-0.7,2.1-2.1,3.2
	c0-1.7,0-2.9,0-4.1c0-3.9,0-7.9,0-11.8c0-0.9,0.2-1.9-1.1-2c-1.3-0.1-1.3,0.8-1.3,1.8c0,7.1,0,14.3,0,21.4c0,0.8,0,1.6,1.1,1.7
	c0.8,0.1,1.5-0.1,1.9-0.9c0.4-0.8,0.7-1.6,1.1-2.4C475.1,504.1,477.2,499.3,479.5,494z"/>
<path d="M226.7,500.1c0-3.6-0.1-7.1,0-10.7c0-1.7-0.6-2.2-2.2-2.2c-2.9,0.1-5.9,0.1-8.8,0c-2-0.1-2.6,0.6-2.6,2.6
	c0.1,6.6,0,13.2,0,19.8c0,0.6,0,1.3,0.2,1.9c0.2,0.5,0.8,0.7,1.3,0.5c0.3-0.1,0.8-0.4,0.8-0.6c0.1-0.7,0.1-1.5,0.1-2.3
	c0-4.8,0-9.7,0-14.5c0-5.8-0.8-5.3,5.3-5.3c3.3,0,3.3,0.1,3.3,3.4c0,5.8,0,11.7,0,17.5c0,0.7-0.1,1.6,1,1.7c1.3,0.1,1.4-0.7,1.4-1.7
	C226.7,507,226.7,503.5,226.7,500.1z"/>
<path d="M376.4,547c-0.6-1.1-0.5-2-0.5-2.9c0-2,0-4.1,0-6.1c0-0.9,0.3-2.2-1.3-2.2c-1.4,0-1,1.2-1.1,2c0,0.5,0,1,0,1.5
	c0,6,0,12,0,17.9c0,0.8,0,1.5,0,2.3c0,0.7,0.4,1.2,1.2,1.1c0.8,0,1.1-0.5,1.1-1.2c0-1.5,0-3.1,0-4.6c0-6.1,0-6.1,6.3-5.7
	c1.6,0.1,2.3,0.5,2.2,2.2c-0.1,2.5,0,5.1,0,7.6c0,0.8,0,1.6,1,1.7c1.3,0.1,1.4-0.8,1.4-1.8c0-7.1,0-14.2,0-21.4c0-0.9,0-1.9-1.4-1.8
	c-1.1,0.1-1,1-1,1.7c0,2.5,0,5.1,0,7.6c0,1.2-0.4,1.9-1.7,1.9C380.5,546.9,378.3,547,376.4,547z"/>
<path d="M433.3,548.1c0,3.6,0,7.1,0,10.7c0,0.1,0,0.3,0,0.4c0,0.8,0.2,1.5,1.2,1.6c1.1,0,1.2-0.8,1.2-1.6c0-1.5,0-3.1,0-4.6
	c0.1-5.9-1.1-5.4,5.5-5.4c3,0,3.1,0.1,3.1,3.2c0,2.4,0,4.8,0.1,7.2c0,0.7,0.6,1.1,1.3,1c0.5-0.1,0.9-0.4,1-1
	c0.1-0.4,0.1-0.8,0.1-1.1c0-6.9,0-13.7,0-20.6c0-0.4,0-0.8-0.1-1.1c-0.1-0.7-0.5-1.1-1.2-1.1c-0.8,0-1.1,0.5-1.1,1.2
	c0,1.4,0,2.8-0.1,4.2c-0.1,6.5,1.2,5.7-6.3,5.8c-1.9,0-2.4-0.9-2.3-2.6c0.1-2.3,0-4.6,0-6.9c0-0.9,0-1.9-1.3-1.8
	c-1.1,0.1-1.1,0.9-1.1,1.7C433.3,541,433.3,544.6,433.3,548.1z"/>
<path d="M33.4,548c0,1.5,0,3,0,4.6c0,2.3,0,4.6,0,6.9c0,0.9,0.5,1.4,1.4,1.3c0.8-0.1,1-0.7,1-1.4c0-1.4,0-2.8,0-4.2
	c0-6.3,0.6-6.8,6.9-5.9c1.3,0.2,1.8,0.7,1.7,1.9c0,1,0,2,0,3c0,1.8,0,3.6,0,5.3c0,0.7,0.4,1.2,1.2,1.2c0.7,0,1.2-0.4,1.2-1.2
	c0-0.6,0.1-1.3,0.1-1.9c0-6.2,0-12.5,0-18.7c0-0.8,0-1.5-0.1-2.3c-0.1-0.6-0.5-0.9-1-0.9c-0.7-0.1-1.2,0.3-1.3,1
	c-0.1,1.4,0,2.8-0.1,4.2c-0.1,6.7,1.1,5.9-6.2,6c-1.8,0-2.6-0.6-2.5-2.4c0.1-2.3,0-4.6,0-6.9c0-0.8,0.2-1.9-1.1-1.9
	c-1.3,0-1.3,1-1.3,1.9C33.4,541.1,33.5,544.5,33.4,548z"/>
<path d="M180.4,553.8c-0.3-0.1-0.6-0.1-0.9-0.2c0-4.8,0-9.6,0-14.4c0-0.9,0-1.8-0.1-2.7c-0.1-0.6-0.6-0.8-1.1-0.7
	c-0.3,0.1-0.8,0.3-0.9,0.6c-0.2,0.6-0.2,1.2-0.2,1.9c0,6.6,0,13.2,0,19.9c0,0.9-0.5,2.2,0.9,2.6c1.7,0.5,2.2-0.9,2.7-2.1
	c1.5-3.4,3-6.7,4.5-10.1c0.8-1.9,1.7-3.8,2.7-6c1,1.2,0.7,2.1,0.7,2.9c0,4.1,0,8.2,0,12.2c0,0.8,0,1.5,0.1,2.3
	c0.1,0.6,0.6,0.8,1.1,0.8c0.6,0,1-0.3,1.1-0.9c0.1-0.9,0.1-1.8,0.1-2.7c0-5.7,0.1-11.5-0.1-17.2c0-1.4,1.3-3.7-1.2-4.1
	c-2.3-0.4-2.2,2-2.9,3.4C184.6,544.1,182.5,549,180.4,553.8z"/>
<path d="M207.7,542.8c0,5.1,0,9.8,0,14.5c0,0.9,0,1.8,0.1,2.7c0.1,0.6,0.5,0.8,1.1,0.8c0.6,0,1-0.3,1.1-0.8c0.1-0.9,0.1-1.8,0.1-2.7
	c0-5.2,0-10.4,0-15.6c0-1.4,0-2.8,0-4.2c0-0.8-0.1-1.6-1.1-1.6c-0.8,0-1.5,0.1-1.9,0.9c-0.3,0.7-0.6,1.4-0.9,2.1
	c-1.9,4.3-3.8,8.6-5.7,12.9c-0.3,0.7-0.3,1.8-1.7,1.9c0-1.3,0-2.5,0-3.7c0-3.9,0-7.9,0-11.8c0-0.9,0.4-2.3-1.2-2.2
	c-1.5,0.1-1,1.5-1.1,2.4c0,0.1,0,0.3,0,0.4c0,6.5,0,13,0,19.4c0,0.4,0,0.8,0,1.1c0,0.6,0.1,1.3,0.9,1.5c0.8,0.2,1.6,0.1,2-0.7
	c0.4-0.7,0.7-1.4,1-2.1c1.9-4.2,3.7-8.4,5.6-12.5C206.1,544.6,206.1,543.4,207.7,542.8z"/>
<path d="M448.6,511.7c-2.5-4-4.8-7.8-7.3-11.5c-1.1-1.6-1.1-2.8,0.2-4.4c2.1-2.6,4-5.4,6-8.2c-2.3-1.1-3.2,0.1-4.1,1.4
	c-1.9,2.8-3.9,5.5-5.9,8.2c-0.3-0.1-0.5-0.2-0.8-0.2c0-2.6,0-5.2,0-7.8c0-0.9,0.1-1.9-1.1-2c-1.2-0.1-1.4,0.8-1.4,1.8
	c0,7.1,0,14.2,0,21.4c0,1,0.2,1.8,1.4,1.7c1-0.1,1.1-0.8,1.1-1.6c0-2.4,0-4.8,0.1-7.2c0-0.8,0.3-1.6,1.1-1.9
	c0.9-0.3,1.4,0.4,1.8,1.1c1.7,2.7,3.5,5.3,5.1,8C445.7,511.8,446.6,512.7,448.6,511.7z"/>
<path d="M542.9,536.2c-2-0.8-2.9-0.2-3.7,1c-1.2,1.8-2.4,3.6-3.8,5.3c-0.7,0.9-1,2.7-2.7,2.2c-1.3-0.5-0.7-2-0.7-3.1
	c-0.1-1.3,0-2.5,0-3.8c0-0.8,0.2-1.9-1.2-1.9c-1.4,0-1.2,1-1.2,1.9c0,5.1,0,10.2,0,15.3c0,2,0,4.1,0,6.1c0,0.8,0,1.6,1.1,1.7
	c1.3,0.1,1.3-0.9,1.3-1.8c0-2,0-4.1,0-6.1c0-1.4,0.3-2.7,2-3.5c2.1,3.3,4.2,6.5,6.2,9.7c0.8,1.3,1.6,2.3,3.3,1.4
	c0.1-1.2-0.7-1.9-1.2-2.7c-1.9-3-3.7-6.1-5.7-9c-1.1-1.5-1-2.6,0.2-4C538.8,542,540.7,539.2,542.9,536.2z"/>
<path d="M245.5,536.2c-2.4-1.1-3.2,0.3-4.1,1.5c-1.9,2.7-3.9,5.4-5.9,8.2c-0.3-0.1-0.6-0.2-0.9-0.3c0-2.5,0-4.9,0-7.4
	c0-0.9,0.5-2.3-1-2.4c-1.9-0.1-1.3,1.5-1.3,2.5c-0.1,3.8,0,7.6,0,11.4c0,3.2,0,6.4,0,9.5c0,0.9,0.4,1.5,1.4,1.4c0.8-0.1,1-0.7,1-1.3
	c0-2.2,0-4.3,0-6.5c0-1.4,0.2-2.7,1.9-3.6c2.1,3.3,4.2,6.5,6.2,9.7c0.8,1.2,1.6,2.4,3.3,1.5c0.2-1.2-0.7-1.9-1.2-2.7
	c-1.8-2.9-3.6-5.9-5.5-8.7c-1.2-1.7-1.3-3,0.1-4.7C241.6,541.9,243.4,539.2,245.5,536.2z"/>
<path d="M155,548c0-2.9,0.1-5.9-0.1-8.8c-0.1-1.2,1-3.3-1.3-3.3c-1.9,0-1,2-1.1,3.1c-0.1,2,0,4.1-0.1,6.1c-0.1,3.1-2.6,1.9-4,1.8
	c-1.5-0.1-4.2,1.6-4.4-1.7c-0.2-2.5,0-5.1-0.1-7.6c0-0.8-0.1-1.6-1.1-1.7c-1.3-0.1-1.4,0.9-1.4,1.8c0,7.1,0,14.3,0,21.4
	c0,0.8,0,1.6,1,1.7c1.2,0.1,1.4-0.8,1.4-1.7c0-2.2,0-4.3,0-6.5c0-3.2,0-3.2,3.4-3.3c0.1,0,0.3,0,0.4,0c5.5,0.1,4.6-0.5,4.7,4.7
	c0,1.8,0,3.6,0,5.4c0,0.8,0.2,1.5,1.3,1.5c0.8-0.1,1-0.6,1.1-1.3c0-0.8,0-1.5,0-2.3C155,554.1,155,551,155,548z"/>
<path d="M145.9,487.2c-3.7,0-7.1,0-10.5,0c-2.7,0-2.8,0.1-2.8,2.7c0,6.5,0,13,0,19.5c0,0.6,0,1.3,0.1,1.9c0.1,0.6,0.5,0.8,1.1,0.8
	c0.5,0,1-0.2,1.1-0.8c0.1-0.9,0.1-1.8,0.1-2.7c0-5,0-9.9,0-14.9c0-4.8-0.5-4.3,4.2-4.3c4.8,0,4.2-0.4,4.3,4.3c0,5.5,0,10.9,0,16.4
	c0,0.9-0.1,1.9,1.2,1.9c1.1,0,1.1-0.8,1.1-1.6C145.9,502.9,145.9,495.2,145.9,487.2z"/>
<path d="M529.6,511.9c2.8,0.4,5.6,0.2,8.4,0.2c1.2,0,3.3,1,3.3-1.2c0-1.8-2-0.9-3.1-1c-2-0.3-4.6,0.9-5.9-0.5
	c-1.4-1.5-0.3-4.1-0.5-6.3c0-0.1,0-0.3,0-0.4c-0.2-1.8,0.7-2.2,2.3-2.1c1.8,0.1,3.6,0,5.3-0.1c0.6,0,0.9-0.4,0.9-1
	c0-0.6-0.3-1-0.8-1.1c-0.5-0.1-1,0-1.5-0.1c-2-0.2-4.6,1-5.8-0.6c-1.2-1.6-0.2-4.2-0.4-6.3c-0.1-1.5,0.5-2.1,2-2
	c1.9,0.1,3.8,0,5.7,0c0.8,0,1.6-0.1,1.5-1.2c-0.1-0.8-0.7-0.9-1.4-0.9c-2.8,0-5.6,0-8.4,0c-1.6-0.1-1.9,0.8-1.8,2.1
	c0,5,0,9.9,0,14.9C529.4,506.8,529.2,509.3,529.6,511.9z"/>
<path d="M416.6,499.4c0.2,2.7-0.3,5.5,0.5,8.3c0.9,2.9,3.1,4.7,6.1,4.9c3,0.2,5.6-1.3,6.7-4.1c0.4-1,1.5-2.6-0.2-3.2
	c-1.6-0.6-1.4,1.3-1.9,2.2c-1,2-2.5,3-4.5,2.8c-2-0.2-3.5-1.3-3.8-3.6c-0.7-4.8-0.7-9.6,0-14.4c0.3-2,1.6-3.1,3.7-3.3
	c2-0.1,3.5,0.6,4.3,2.4c0.2,0.5,0.4,0.9,0.5,1.4c0.2,0.9,0.8,1.4,1.6,1.1c1-0.3,0.8-1.2,0.7-1.9c-0.6-3.1-2.9-5.1-6.1-5.4
	c-3.5-0.3-6,1.4-7,4.6C416.3,494,416.7,496.7,416.6,499.4z"/>
<path d="M495.3,499.8c0.2,2.4-0.3,5,0.3,7.5c1.1,4.7,6.4,6.9,10.5,4.2c1.7-1.1,2.6-2.7,2.9-4.7c0.1-0.6,0.3-1.3-0.6-1.6
	c-0.9-0.2-1.4,0.1-1.7,1c-0.2,0.7-0.4,1.5-0.8,2.1c-1.6,2.4-5.1,2.6-6.9,0.5c-1-1.1-1.3-2.5-1.3-3.9c0-3.6-0.1-7.1,0-10.7
	c0-1,0.2-2,0.6-2.9c1.3-2.9,5.4-3.2,7.2-0.7c0.4,0.6,0.7,1.4,0.9,2.1c0.2,0.8,0.6,1.5,1.5,1.3c1.3-0.3,0.9-1.3,0.7-2.2
	c-0.8-3.2-3.3-5.1-6.7-5.1c-3.3,0-5.5,1.7-6.4,4.9C495,494.3,495.5,497,495.3,499.8z"/>
<path d="M159.6,548.2C159.6,548.2,159.6,548.2,159.6,548.2c-0.1,0.6-0.1,1.3-0.1,1.9c0.1,2.3-0.3,4.6,0.6,6.8
	c1.2,3.1,3.7,4.5,7.3,4.2c3.1-0.3,5.4-2.6,5.8-5.6c0.1-0.6,0.2-1.3-0.7-1.5c-0.6-0.1-1.3-0.1-1.6,0.7c-0.1,0.3-0.1,0.8-0.3,1.1
	c-1.2,2.6-2.6,3.4-5,3.1c-2.2-0.3-3.6-1.8-3.8-4.6c-0.2-2.4-0.1-4.8-0.1-7.2c0-1.9-0.1-3.8,0.2-5.7c0.2-1.7,1.2-3.1,3-3.5
	c1.6-0.4,3-0.1,4.2,1c0.7,0.6,1,1.5,1.3,2.3c0.3,0.9,0.4,1.9,1.7,1.5c1.5-0.5,0.8-1.6,0.5-2.5c-1-3.4-3.5-5.1-7.3-4.7
	c-3.3,0.3-5.5,2.4-5.9,5.9C159.4,543.6,159.6,546,159.6,548.2z"/>
<path d="M214.7,548.3c0,2.4-0.2,4.9,0.1,7.2c0.4,3.2,2.6,5.1,5.5,5.6c3.4,0.5,6-0.7,7.3-3.5c0.5-1.1,1.6-2.6,0.3-3.4
	c-1.8-1-1.7,1.1-2.2,2.1c-1.1,2.1-2.4,2.9-4.6,2.7c-2-0.2-3.6-1.4-3.8-3.6c-0.5-4.7-0.6-9.4,0.1-14.1c0.5-3.4,4.6-4.7,7.1-2.5
	c0.8,0.7,1.2,1.7,1.5,2.6c0.3,1,0.7,1.7,1.8,1.3c1-0.4,0.6-1.2,0.4-1.9c-0.8-3.4-3.1-5.2-6.6-5.2c-3.4,0-5.8,1.8-6.6,5.2
	C214.3,543.1,214.7,545.7,214.7,548.3z"/>
<path d="M266.7,499.8C266.6,499.8,266.6,499.8,266.7,499.8c-0.1,2-0.1,4.1-0.1,6.1c0,0.3,0,0.5,0,0.8c0.5,3.4,2.7,5.6,6,5.9
	c3.1,0.4,5.9-1.2,7-4.1c0.4-1,1.6-2.5-0.2-3.2c-1.7-0.6-1.4,1.3-1.9,2.2c-1.1,2.1-2.9,3.1-4.9,2.8c-1.9-0.3-3.5-1.7-3.6-3.9
	c-0.2-4.4-0.2-8.9,0-13.3c0.1-2.3,1.6-3.6,3.5-3.9c2.3-0.4,3.8,0.5,4.8,2.7c0.2,0.3,0.3,0.7,0.4,1.1c0.2,0.8,0.7,1.4,1.6,1.1
	c1-0.3,0.8-1.1,0.6-1.9c-0.8-3.5-3.3-5.5-6.8-5.4c-3.5,0.1-6.1,2.2-6.5,5.8C266.5,494.9,266.7,497.3,266.7,499.8z"/>
<path d="M568.5,548.2c-1.2-0.8-1.3-1.8-1.6-2.6c-1-2.7-2-5.5-3-8.2c-0.4-1.1-0.9-2-2.2-1.5c-1.4,0.5-0.3,1.5-0.1,2.2
	c1.5,4.2,3.1,8.3,4.6,12.5c1.3,3.7,0.4,6.2-3,8.1c-0.6,0.3-1.1,0.7-1,1.4c0.1,1.1,1,1,1.8,0.9c2.3-0.3,3.6-1.8,4.3-3.9
	c2.1-6.5,4.1-13.1,6.1-19.6c0.2-0.6,0.5-1.3-0.4-1.6c-0.8-0.3-1.5-0.1-1.8,0.8c-0.3,0.7-0.5,1.4-0.7,2.2
	C570.5,541.9,569.5,544.9,568.5,548.2z"/>
<path d="M645.8,390.4c0.4,6.1,4.1,9.5,9.8,9.1c5.2-0.3,8.4-3.9,8-9c-0.7,0-1.5-0.1-2.2-0.1c-1.7-0.1-3,0.1-4,2c-1.1,2.1-4,2-5.3-0.2
	c-0.9-1.6-1.9-1.8-3.4-1.7C647.9,390.5,647,390.4,645.8,390.4z"/>
<path d="M266.8,548.4C266.8,548.4,266.8,548.4,266.8,548.4c0,3.7,0,7.4,0,11c0,0.7,0.4,1.2,1.1,1.3c0.8,0.1,1.1-0.5,1.2-1.2
	c0.1-0.9,0.1-1.8,0.1-2.7c0-5.5,0-10.9,0-16.4c0-1.8,0.6-2.6,2.4-2.4c1.4,0.1,2.8,0.1,4.2,0c0.9-0.1,2.2,0.5,2.3-1.1
	c0.1-1.7-1.2-1.3-2.1-1.3c-2.3,0-4.6,0.1-6.9,0c-1.9-0.1-2.4,0.7-2.4,2.5C266.9,541.6,266.8,545,266.8,548.4z"/>
<path d="M473.1,538.4c2.1-0.5,4.1-0.1,6.1-0.3c0.9-0.1,2.3,0.5,2.4-1.1c0.1-1.9-1.6-1.2-2.5-1.3c-2-0.1-4.1-0.1-6.1,0
	c-2.7,0.1-2.8,0.1-2.8,2.8c0,6.5,0,13,0,19.5c0,0.5,0,1,0,1.5c0.1,0.7,0.4,1.2,1.1,1.3c1,0.1,1.3-0.6,1.4-1.4c0-0.8,0-1.5,0-2.3
	c0-3.8,0-7.6,0-11.5C472.8,543.2,472.4,540.7,473.1,538.4z"/>
<path d="M343.9,549.4c0,0.6,0,1.3,0,1.9c0,2.7,0,5.3,0,8c0,0.9,0.5,1.5,1.4,1.4c0.8-0.1,1-0.7,1-1.4c0-0.8,0-1.5,0-2.3
	c0-4.7,0-9.4,0-14.1c0-1.5-0.6-3.2,0.4-4.4c0.9-1,2.4-0.3,3.6-0.5c0.7-0.1,1.3-0.3,1.3-1.1c0.1-1-0.6-1.3-1.5-1.3
	c-2.8,0-5.6-0.1-8.4,0c-1.2,0.1-3.3-0.9-3.3,1.2c0,1.8,2,1,3.1,1c1.7,0,2.2,0.7,2.2,2.3C343.9,543.3,343.9,546.4,343.9,549.4z"/>
<path d="M577.6,548.3c0,3.1-0.1,6.1,0,9.2c0,1.1-0.8,3.1,1,3.2c2.2,0.1,1.3-2,1.3-3.2c0.1-5.7,0.1-11.4,0-17.2
	c0-1.6,0.5-2.3,2.2-2.2c1.5,0.1,3.1,0.1,4.6,0c0.9,0,2.3,0.4,2.2-1.2c-0.1-1.3-1.2-1-2.1-1.1c-2.4,0-4.8,0.1-7.2,0
	c-1.8-0.1-2.1,0.8-2.1,2.3C577.6,541.4,577.6,544.9,577.6,548.3z"/>
<path d="M330.8,499.3c0,3.3-0.1,6.6,0,9.9c0,1-0.6,2.7,1,2.8c2.1,0.1,1.2-1.8,1.3-2.9c0.1-5.3,0-10.7,0-16c0-3.7,0-3.7,3.8-3.7
	c1.3,0,2.5,0,3.8,0c0.7,0,1.3-0.1,1.4-0.9c0.1-1.1-0.7-1.2-1.5-1.2c-2.5,0-5.1,0.1-7.6,0c-2-0.1-2.3,0.8-2.3,2.5
	C330.9,492.9,330.8,496.1,330.8,499.3z"/>
<path d="M55.5,549.5c0,1.1,0,2.3,0,3.4c0,1.8,0,3.6,0,5.3c0,0.9-0.4,2.3,1.1,2.4c1.6,0.1,1.2-1.3,1.3-2.2c0.1-0.6,0-1.3,0-1.9
	c0-4.7,0-9.4,0-14.1c0-1.3-0.2-2.7,0.3-3.7c0.7-1.3,2.3-0.5,3.5-0.6c0.8-0.1,1.6-0.2,1.5-1.2c-0.1-1.1-0.9-1.1-1.7-1.1
	c-2.7,0-5.4-0.1-8,0c-1.2,0.1-3.3-1-3.3,1.2c0,1.9,2,1,3.1,1c1.7,0,2.2,0.7,2.1,2.3C55.5,543.4,55.5,546.4,55.5,549.5z"/>
<path d="M669.3,535.8C669.3,535.8,669.3,535.7,669.3,535.8c-0.9,0-1.8,0-2.7,0c-3.2,0-3.2,0-3.2,3.4c0,6-0.1,11.9,0,17.9
	c0,1.2-0.8,3.4,1,3.5c2.4,0.1,1.2-2.3,1.3-3.6c0.2-5.5,0.1-10.9,0-16.4c0-2,0.7-2.7,2.6-2.6c1.6,0.1,3.3,0,5,0
	c0.8,0,1.6-0.2,1.5-1.3c-0.1-0.8-0.6-1-1.3-1C672.1,535.7,670.7,535.8,669.3,535.8z"/>
<path d="M580.1,499.4c0,3.6,0,7.1,0,10.7c0,0.8-0.2,1.9,1.1,2c1.4,0.1,1.2-1,1.2-1.8c0-7,0-14,0-20.9c0-0.8,0.3-1.9-1.1-2
	c-1.6,0-1.3,1.3-1.3,2.2C580.1,492.8,580.1,496.1,580.1,499.4z"/>
<path d="M713.3,548c0-3.5,0-7.1,0-10.6c0-0.8-0.1-1.6-1.2-1.5c-1,0-1.2,0.7-1.2,1.5c0,7.2,0,14.4,0,21.6c0,1,0.1,1.9,1.4,1.7
	c1-0.1,1-1,1-1.7C713.3,555.3,713.3,551.6,713.3,548z"/>
<path d="M85.4,548.5c0-3.7,0-7.4,0-11.1c0-0.8-0.1-1.6-1.1-1.6c-1.1,0-1.2,0.8-1.2,1.5c0,7.2,0,14.5,0,21.7c0,0.8,0.1,1.6,1.1,1.6
	c1,0,1.2-0.8,1.2-1.6C85.4,555.6,85.4,552,85.4,548.5z"/>
<path d="M203.4,533.6c1.8,0,3.1-0.9,3.6-2.7c0.1-0.5,0.3-1-0.3-1.3c-0.5-0.2-1.1-0.3-1.3,0.2c-1.5,2.5-2.9,2.5-4.4,0.1
	c-0.3-0.5-0.9-0.5-1.3-0.2c-0.5,0.3-0.4,0.9-0.3,1.3C199.8,532.7,201.3,533.7,203.4,533.6z"/>
<path d="M94.2,547C94.2,547,94.2,547,94.2,547c-1.1,0-2.3,0-3.4,0c-0.7,0-1.3,0.3-1.2,1.1c0,0.7,0.5,1.1,1.2,1.1c2.1,0,4.3,0,6.4,0
	c0.7,0,1.1-0.5,1-1.3c-0.1-0.6-0.5-0.8-1-0.9C96.2,547,95.2,547,94.2,547z"/>
<path d="M620,547.1C620,547.1,620,547.1,620,547.1c-1.8,0-3.6,0-5.3,0c-0.5,0-1,0.2-1,0.8c0,0.6,0.3,1.1,0.8,1.1
	c3.4,0.1,6.9,0.1,10.3,0c0.5,0,0.9-0.5,0.9-1c0-0.6-0.5-0.9-1-0.9C623.1,547.1,621.6,547.1,620,547.1z"/>
<path d="M479.8,481.7c0-0.7-0.7-1.2-1.3-0.9c-0.2,0.1-0.4,0.2-0.6,0.4c-2.2,1.9-2.2,1.9-4.1,0.1c-0.4-0.4-0.7-0.7-1.3-0.6
	c-0.4,0.1-0.7,0.3-0.7,0.8c-0.2,1.7,1.6,3.4,3.7,3.6C477.8,485.2,479.8,483.6,479.8,481.7z"/>
<path d="M357.6,0.4c0.4,0.3,0.7,0.4,1,0.7c0.7,0.7,1.5,1.4,2.2,2.1c57.7,57.7,115.3,115.3,173,173c3.3,3.3,3.3,3.3,0.1,6.6
	c-26.2,26.2-52.4,52.4-78.7,78.7c-31.4,31.4-62.9,62.9-94.3,94.3c-3.6,3.6-2.7,3.7-6.3,0.1C296.7,298,238.8,240.2,181,182.3
	c-3.3-3.3-3.3-2.5-0.1-5.8C238.9,118.6,296.8,60.7,354.7,2.8C355.6,1.9,356.3,0.7,357.6,0.4z M455.4,185.6c-2-0.4-3.7,0.8-5.6,0.9
	c-0.9,0.1-1.2,0.8-1.2,1.6c0,3.8,0,7.6,0,11.4c0,0.7,0.3,1.2,1.1,1.2c1.5,0,3.3-1.5,3.2-3.1C452.6,193.3,453.7,189.4,455.4,185.6
	c0.3-0.2,0.4-0.3,0.1-0.3C455.5,185.3,455.5,185.5,455.4,185.6z M390.1,312.4c0.8,0,1.2-0.5,1.7-0.9c14.6-14.6,29.2-29.2,43.8-43.8
	c1.8-1.8,1.7-1.9-0.3-3.9c-25.2-25.2-50.4-50.4-75.6-75.6c-2.1-2.1-2.1-2.1-4.1-0.1c-25.2,25.2-50.4,50.4-75.6,75.6
	c-2,2-2,2.1,0,4.1c14.4,14.4,28.8,28.8,43.2,43.2c0.6,0.6,1.1,1.5,2.4,1.2c0.7-1.7,1.5-3.6,2.3-5.5c3.1-7.2,7.1-13.8,12.9-19.2
	c10.5-9.8,23.8-9.7,34.2,0.1c6.2,5.8,10.2,12.9,13.4,20.7C388.8,309.8,388.9,311.4,390.1,312.4z M436.9,93.2
	c-0.1-0.9-0.8-1.3-1.4-1.9c-9.6-9.6-19.3-19.3-28.9-28.9c-15.7-15.7-31.4-31.3-47-47c-2.3-2.3-2.1-2.1-4.1,0
	c-0.4,0.5-0.9,0.9-1.4,1.4c-24.4,24.4-48.8,48.8-73.2,73.2c-0.5,0.5-1,1.1-1.6,1.6c-1.2,1-1.3,1.9-0.1,3.1c3,2.8,5.7,5.8,8.7,8.6
	c1.8,1.8,3.3,4.9,5.6,4.9c2.5,0,4-3.2,5.9-5c3.5-3.3,6.8-6.8,10.4-10.4c4.7,4.8,9.2,9.3,13.7,13.8c2.6,2.6,2.3,1.9,4.4-0.1
	c3.9-3.9,7.8-7.7,11.6-11.6c2.1-2.1,1.8-2.4,4.1-0.1c4,4.1,8.2,8.1,12.1,12.2c1.4,1.4,2.2,1.5,3.7,0c4.1-4.2,8.3-8.3,12.4-12.5
	c1.4-1.5,2.3-1.4,3.6,0c4,4.1,8.1,8.1,12.1,12.2c1.9,1.9,2,1.9,3.8,0.1c2.4-2.3,4.7-4.7,7-7c2.3-2.3,4.6-4.6,7.5-7.4
	c1.2,1.5,2,2.8,3.1,3.9c3.6,3.7,7.4,7.4,11.1,11.1c0.8,0.8,1.4,1.5,2.5,0.4C427.3,103,432.1,98.1,436.9,93.2z M449.2,253.4
	c1.5-0.3,2.2-1.6,3.2-2.5c22.8-22.8,45.6-45.6,68.4-68.4c3.4-3.4,3.5-2.7,0.1-6.1c-24.6-24.6-49.2-49.2-73.8-73.8
	c-0.5-0.5-1.1-1-1.6-1.6c-1-1.2-1.9-1-2.8,0.1c-0.4,0.5-0.9,0.9-1.3,1.4c-24.7,24.7-49.4,49.4-74.1,74c-0.5,0.5-1,1.1-1.6,1.6
	c-1.2,1-0.9,1.9,0.1,2.8c0.4,0.3,0.7,0.7,1.1,1.1c23.3,23.3,46.7,46.7,70,70c0.7,0.7,1.2,1.7,2.7,1.7c0-6.5,0.1-13,0-19.5
	c0-3.4,1-7.1-0.4-10.2c-1.4-3.1-5.1-4.5-7.5-6.9c-0.1-0.1-0.2-0.2-0.3-0.3c-1.5-1.5-3-1.8-4.7-0.4c-0.4,0.3-0.9,0.5-1.3,0.7
	c-6.6,3.2-13,2.5-18.7-1.8c-5.7-4.3-8.1-10.3-6.8-17.5c1.4-7.5,5.8-12.5,13.2-14.3c7.1-1.7,13.3,0.2,18.2,5.8
	c4,4.7,4.5,10.1,3.7,15.8c-0.1,0.8-0.7,1.7,0.2,2.4c1.3,0.9,2.2,2.4,3.8,2.8c0.9-0.7,0.6-1.5,0.7-2.3c0-6.1,0-12.2,0-18.3
	c0-2.9,0-3-3-3.8c-14.8-4.1-22.5-17.5-22.4-29.7c0.2-18.4,17.6-32.3,35.1-29.2c21.4,3.7,32.5,28.3,19.8,46.9c-0.8,1.1-1.9,2-2.4,4
	c2.9-1.1,5.5-0.8,8.1-0.2c8.4,1.9,14.3,8.6,14.2,18c-0.1,6.9-3.4,12.6-9.9,15.7c-6.1,2.9-12.6,2.9-18.1-1.3c-3-2.2-5.2-2.5-8-0.4
	c-0.4,0.3-0.9,0.5-1.4,0.7c-2.3,0.7-2.9,2.3-2.9,4.7c0.1,11.7,0,23.4,0.1,35.2C448.6,251.3,448.3,252.4,449.2,253.4z M311.8,217.3
	c1.5,0,1.9-0.7,2.4-1.2c11.5-11.5,23.1-23.1,34.6-34.6c2-2,2-2.1-0.1-4.1c-25.1-25.1-50.3-50.3-75.4-75.4c-2.2-2.2-2.3-2.2-4.4-0.1
	c-25.1,25.1-50.3,50.3-75.4,75.4c-2.1,2.1-2.1,2.2-0.1,4.2c11.5,11.5,23.1,23.1,34.6,34.6c0.6,0.6,1,1.5,2.6,1.2c0-1.3,0-2.6,0-4
	c0-16.2,0.1-32.4-0.1-48.5c0-2.6,0.7-4.2,2.8-5.7c12-8.4,23.9-16.9,35.8-25.5c1.7-1.2,2.7-1.1,4.3,0.1c11.9,8.6,23.8,17.1,35.8,25.5
	c2.1,1.5,2.8,3.2,2.8,5.7c-0.1,16.2-0.1,32.4-0.1,48.5C311.8,214.6,311.8,215.8,311.8,217.3z M278,251.8c0.9-0.5,1.2-0.7,1.5-0.9
	c7.2-7.2,14.4-14.4,21.6-21.6c1.4-1.3,1.5-2.8,1.5-4.5c0-18.6,0-37.2,0-55.8c0-2.1-0.5-3.5-2.3-4.7c-9-6.3-17.9-12.6-26.7-19.1
	c-1.7-1.3-2.7-1.5-4.6-0.1c-8.7,6.4-17.5,12.7-26.4,18.9c-2,1.4-2.8,2.8-2.8,5.3c0.1,18.5,0.1,36.9,0,55.4c0,2.2,0.6,3.8,2.2,5.4
	c6.7,6.6,13.3,13.3,20,19.9c0.6,0.6,1,1.5,2.1,1.4c0.6-1.2,0.3-2.5,0.3-3.7c0-7.1,0-14.3,0-21.4c0-3.3,0-3.3,3-3.3
	c2.8,0,5.6,0,8.4,0c1.4,0,2.2,0.5,2.1,2c0,1,0,2,0,3.1C278,235.7,278,243.5,278,251.8z M357.1,289.6c-0.5,0.1-1.4,0.3-2.2,0.5
	c-5,1.1-8.5,4.4-11.5,8.3c-4.8,6.1-7.6,13.2-10,20.5c-0.5,1.6,0,2.6,1.1,3.7c7.1,7.1,14.3,14.2,21.3,21.3c1.4,1.4,2.2,1.5,3.7,0
	c7-7.2,14.1-14.3,21.3-21.3c1.4-1.4,1.6-2.7,1-4.5c-1.6-5-3.5-9.8-6.1-14.4c-2.1-3.7-4.6-7-7.8-9.8
	C364.8,291.4,361.5,289.8,357.1,289.6z M464.7,157.1c0.7-9.2-7.1-20.9-20.3-21c-13.8,0-21,10.8-21.1,20.6c-0.2,11,9.2,21.1,20.8,21
	C457.2,177.6,464.9,167.1,464.7,157.1z M357.5,140.8c5-5,9.5-9.6,14.2-14.2c1.1-1.1,1.4-1.8,0.1-3.1c-4.4-4.3-8.7-8.6-13-13
	c-0.8-0.8-1.5-1.2-2.5-0.1c-4.7,4.8-9.5,9.5-14.1,14.2c0.1,1,0.6,1.4,1,1.9C347.9,131.1,352.6,135.8,357.5,140.8z M425.7,201
	c0-4.8-3.6-8.5-8.3-8.6c-4.9-0.1-8.5,3.7-8.7,8.6c-0.1,3.7,2.6,8.4,8.3,8.6C421.5,209.9,425.8,206.2,425.7,201z M479.2,195.6
	c0.1-5-3.3-8.5-8.2-8.6c-5-0.1-8.8,3.5-8.8,8.5c0,4.8,3.6,8.4,8.4,8.5C475.5,204,479.2,200.4,479.2,195.6z"/>
<path d="M330.9,424.5c0,4.7,0,9.4,0,14.1c0,5,0.1,9.9,0.1,14.9c0,2.8-0.1,2.8-2.6,2.9c-6.3,0.2-6.3,0.2-6.3-6.1c0-14,0-28,0-42
	c0-4.2-0.1-3.9,3.6-3.8c6.7,0.1,5.1-1.1,7.6,5c3.1,7.4,6.4,14.7,9,22.3c0.2,0.6,0.6,1.1,0.9,1.7c1.3-0.8,1.3-2.2,1.8-3.4
	c3.2-7.6,6.3-15.3,9.3-23c0.8-1.9,1.7-2.7,3.9-2.7c6.6,0.1,6.6-0.1,6.6,6.3c0,13.8,0,27.5,0,41.3c0,0.9,0,1.8,0,2.7
	c0.1,1.3-0.7,1.6-1.9,1.7c-7.2,0.6-7.2,0.6-7.2-6.7c0.1-7.3,0.3-14.5,0.4-21.8c0-1.1,0.4-2.2-0.2-3.4c-1,0.8-1.1,1.9-1.5,3
	c-1.9,5.1-3.8,10.3-5.6,15.4c-0.5,1.5-1.3,2.1-3,2.2c-6.9,0.2-6.9,0.3-9.3-6.3c-1.8-4.7-3.4-9.5-5.1-14.3
	C331.2,424.5,331.1,424.5,330.9,424.5z"/>
<path d="M555.8,430.2c0-7.6,0-15.3,0-22.9c0-2.8,0.1-2.8,2.7-2.9c6.5-0.2,6.5-0.2,6.5,6.2c0,10.8,0,21.6,0,32.5c0,0.9,0,1.8,0,2.7
	c0,1.2,0.6,1.9,1.9,1.8c2.8,0,5.6,0,8.4,0c1.3,0,1.9-0.4,1.9-1.7c0-0.9,0-1.8,0-2.7c0-11.7,0-23.4,0-35.1c0-3.6,0-3.7,3.4-3.7
	c7.1,0.1,5.9-1.1,6,6.1c0.1,11.1,0,22.2,0,33.2c0,3.3,0,3.4,3.2,3.9c1.1,0.2,1.5,0.7,1.5,1.7c0,4.7,0,9.4,0,14.1
	c0,1.1-0.4,1.7-1.6,1.7c-0.6,0-1.3,0-1.9,0c-5.5,0.1-5.5,0.1-5.6-5.6c-0.1-3.2-0.1-3.2-3.1-3.2c-6.5,0-13,0-19.5,0
	c-4.2,0-3.8,0.2-3.8-3.6C555.8,445.2,555.8,437.7,555.8,430.2z"/>
<path d="M70.2,456.4c-4,0-8.4,0-12.7,0c-3.4,0-6.9,0-10.3,0c-2.6,0-2.6-0.1-2.6-2.8c0-0.1,0-0.3,0-0.4c0-15.1,0-30.3,0-45.4
	c0-3.3,0-3.4,3.3-3.3c6.9,0.1,5.8-1,5.9,5.8c0.1,10.9,0,21.9,0,32.8c0,5.4-0.4,4.5,4.8,4.6c1.8,0,3.6,0,5.3,0c1.3,0,1.9-0.5,1.9-1.8
	c0-1,0-2,0-3.1c0-11.6,0-23.2,0-34.8c0-3.6,0-3.7,3.4-3.6c7,0.1,5.9-1,5.9,5.7c0.1,11.5,0,22.9,0,34.4c0,2.8,0,2.9,2.8,3.1
	c1.5,0.1,2,0.6,1.9,2.1c-0.1,4.5-0.1,8.9,0,13.4c0,1.7-0.7,2.1-2.3,2.2c-6.7,0.3-6.7,0.4-6.9-6.3C70.8,458.1,70.9,457.4,70.2,456.4z
	"/>
<path d="M661.7,425c-0.9,0.2-1,1.1-1.2,1.7c-3.5,9.2-7.8,18-11.5,27c-0.8,1.9-1.7,2.9-3.9,2.6c-2-0.2-4,0-5.9,0
	c-0.7-1.4-0.5-2.5-0.5-3.7c0-14.8,0-29.5,0-44.3c0-0.8,0-1.5,0-2.3c0-1.1,0.5-1.7,1.6-1.6c0.3,0,0.5,0,0.8,0c8,0.2,6.4-1.2,6.5,6.2
	c0.1,8.3,0,16.5-0.5,24.9c1.5-0.2,1.5-1.4,1.9-2.3c3.8-8.7,7.7-17.5,11.4-26.3c0.8-1.9,1.8-2.7,4-2.6c6.3,0,6.3-0.1,6.3,6.2
	c0,14.1,0,28.3,0,42.4c0,3.6,0.2,3.4-3.2,3.4c-5.6,0-5.6,0.1-5.6-5.6c0-8.1-0.1-16.3,0.4-24.4C662.1,425.8,662.3,425.3,661.7,425z"
	/>
<path d="M620.4,423.9c-0.8,0.1-0.7,0.7-0.9,1.1c-3.6,9.7-8.2,18.9-12,28.4c-0.9,2.2-2.1,3-4.5,2.9c-6-0.1-6,0-6-6
	c0-14.1,0-28.3,0-42.4c0-3.5,0-3.6,3.5-3.6c6.5,0.1,5.5-0.8,5.5,5.3c0,8.3,0.2,16.5-0.7,24.8c-0.1,0.7-0.2,1.5,0.2,2.2
	c0.9-0.6,1-1.7,1.4-2.6c3.9-9.1,7.9-18.2,11.8-27.3c0.8-1.8,1.7-2.4,3.7-2.5c6.6,0,6.6-0.1,6.6,6.3c0,14.1,0,28.3,0,42.4
	c0,3.3,0.3,3.3-3.3,3.3c-5.8,0-5.7,0.1-5.8-5.9c0-7.3,0-14.5,0.5-21.7C620.6,427.1,620.4,425.5,620.4,423.9z"/>
<path d="M120,430.2c0-7.6,0-15.3,0-22.9c0-2.8,0.1-2.8,2.7-2.9c6.5-0.2,6.5-0.2,6.5,6.2c0,4.2,0.1,8.4,0,12.6c0,1.7,0.3,2.6,2.3,2.5
	c2.7-0.1,5.3-0.1,8,0c1.6,0.1,2.2-0.6,2.2-2.2c-0.1-5.2,0-10.4,0-15.7c0-4,0.2-3.5,3.6-3.5c5.8,0,5.8,0,5.8,5.5
	c0,14.4,0,28.8,0,43.1c0,3,0.7,3.3-3.3,3.3c-6,0-6,0.1-6-5.9c0-4.5-0.1-8.9,0-13.4c0-1.8-0.5-2.5-2.4-2.4c-2.7,0.1-5.3,0.1-8,0
	c-1.7-0.1-2.1,0.7-2.1,2.3c0.1,5.6,0,11.2,0.1,16.8c0,1.9-0.3,2.7-2.5,2.7c-6.8,0.1-6.8,0.2-6.8-6.8C120,443.2,120,436.7,120,430.2z
	"/>
<path d="M313.9,430.6c0,3.6,0.1,7.1,0,10.7c-0.3,7.9-4.3,13.5-11,15.3c-3.6,1-7.3,1-10.9-0.1c-7.1-2.1-10.3-7.5-10.6-14.3
	c-0.4-7.7-0.5-15.6,0-23.3c0.9-12.3,12.2-18.8,23.6-13.9c6.2,2.7,8.5,8.1,8.9,14.4C314.1,423.2,313.9,426.9,313.9,430.6
	C313.9,430.6,313.9,430.6,313.9,430.6z M304.4,430.8c-0.2-4.2,0.4-8.4-0.3-12.6c-0.8-4.9-5.6-7.2-9.8-4.9c-2.4,1.3-3.2,3.5-3.4,6
	c-0.4,7.4-0.3,14.8,0,22.1c0,1.2,0.3,2.3,0.8,3.3c0.7,1.4,1.8,2.5,3.3,3c4.3,1.7,8.3-0.6,9.1-5.2
	C304.7,438.7,304.2,434.8,304.4,430.8z"/>
<path d="M515.4,430.3c0-7.6,0-15.3,0-22.9c0-2.9,0.1-2.9,3-3c6.2-0.1,6.2-0.1,6.2,6.2c0,4.2,0.1,8.4,0,12.6c-0.1,2,0.7,2.7,2.6,2.6
	c2.4-0.1,4.8-0.2,7.3,0c2.2,0.2,2.5-0.8,2.5-2.7c-0.1-5.2,0-10.4,0-15.7c0-2.9,0.1-2.9,2.9-3c6.4-0.1,6.4-0.1,6.4,6.4
	c0,14,0,28,0,42c0,3.3,0.5,3.5-3.2,3.5c-6.1,0-6.1,0.1-6.1-6.2c0-4.5,0-8.9,0-13.4c0-1.4-0.4-2.2-1.9-2.1c-0.1,0-0.3,0-0.4,0
	c-3.2,0.1-6.3-0.3-9.5,0.2c-1.1,3.1-0.4,6.2-0.5,9.3c-0.1,3.2-0.1,6.4,0,9.5c0,1.7-0.3,2.5-2.3,2.6c-7,0.3-7,0.3-7-6.6
	C515.4,443.3,515.4,436.8,515.4,430.3z"/>
<path d="M405.1,430.3c0,7.8,0,15.5,0,23.3c0,2.7-0.1,2.7-2.7,2.8c-6.5,0.2-6.5,0.2-6.5-6.3c0-11.2,0-22.4,0-33.6
	c0-3.1,0-3.1-3.1-3.1c-2.3,0-4.6,0.1-6.9,0c-1.8-0.1-2.4,0.6-2.4,2.4c0.1,7,0,14,0,21c0,5.7-0.1,11.5,0,17.2c0,1.7-0.4,2.4-2.3,2.5
	c-6.9,0.2-6.9,0.3-6.9-6.6c0-13.6,0-27.2,0-40.9c0-0.8,0.1-1.5,0-2.3c-0.1-1.6,0.6-2.2,2.2-2.2c5.3,0.1,10.7,0,16,0
	c3.3,0,6.6,0.1,9.9,0c2-0.1,2.6,0.7,2.6,2.6C405,414.8,405.1,422.5,405.1,430.3z"/>
<path d="M255.4,424c3.4-6,6.6-11.6,9.7-17.3c0.9-1.7,2-2.4,3.9-2.3c2.4,0.1,4.8,0,7.1,0c0.6,1.4-0.3,2.1-0.8,2.9
	c-3.5,5.8-7,11.6-10.6,17.2c-1.2,1.9-1.2,3.3-0.1,5.2c4.3,7.5,8.4,15.1,12.6,22.7c0.6,1.1,1.2,2.2,1.9,3.6c-3.1,0.6-6,0.2-8.9,0.3
	c-1.5,0.1-1.9-1-2.4-2c-2.6-5-5.1-10-7.7-14.9c-0.6-1.1-0.9-2.4-2.1-3.3c-2,2.1-3.1,4.3-3,7.3c0.2,3.7,0,7.4,0.1,11.1
	c0,1.3-0.4,1.9-1.7,1.9c-1.9,0-3.8-0.1-5.7,0c-1.4,0-1.7-0.7-1.7-1.9c0-1.3,0-2.5,0-3.8c0-14.4,0-28.8,0-43.2c0-3,0.1-3,2.9-3
	c7.5,0.1,6.1-1,6.2,6.2c0.1,4.1,0,8.2,0.1,12.2C254.9,423.1,255.1,423.3,255.4,424z"/>
<path d="M85.6,430.3c0-7.6,0-15.3,0-22.9c0-2.9,0.1-2.9,3-2.9c6.8,0,13.5,0,20.3,0c3,0,3.1,0.1,3.1,2.9c-0.1,7.2,0.9,5.8-5.7,6
	c-2.7,0.1-5.4,0-8,0c-3.2,0-3.2,0-3.2,3.4c0,2,0,4.1,0,6.1c0,2.9,0.1,3,2.9,3c3.3,0,6.6,0.1,9.9,0c1.9-0.1,2.8,0.4,2.7,2.5
	c-0.2,7.2,1,5.7-5.7,5.9c-2.3,0.1-4.6,0-6.9,0c-2.8,0-2.9,0.1-2.9,3c0,2.4,0,4.8,0,7.3c0,3.2,0.1,3.2,3.1,3.2c4.1,0,8.2,0.1,12.2,0
	c1.6,0,2.2,0.5,2.3,2.2c0.4,6.5,0.4,6.5-5.9,6.5c-6.2,0-12.5-0.1-18.7,0c-1.8,0-2.4-0.5-2.4-2.4C85.6,446.1,85.6,438.2,85.6,430.3z"
	/>
<path d="M192.5,430.2c0-7.6,0-15.3,0-22.9c0-2.9,0.1-3,3-2.9c5,0.1,9.9-0.4,14.9,0.4c7,1,11.5,5.4,12.7,12.3
	c0.7,3.9,0.6,7.8-0.6,11.7c-1.8,5.6-5.8,8.8-11.5,9.8c-2.1,0.4-4.3,0.3-6.5,0.4c-2.7,0.1-2.8,0.1-2.8,2.7c0,4.1-0.1,8.1,0,12.2
	c0.1,1.8-0.6,2.3-2.4,2.4c-6.9,0.2-6.9,0.3-6.9-6.7C192.5,443.2,192.5,436.7,192.5,430.2z M205.4,430.3c5.2,0,7.8-1.4,8.3-5.3
	c1.3-9.4-1.8-12.3-10.3-11.6c-1.3,0.1-1.7,0.7-1.7,1.9c0,4.4,0,8.9,0,13.3c0,1.3,0.6,1.8,1.8,1.8
	C204.1,430.3,204.7,430.3,205.4,430.3z"/>
<path d="M481,430.5c0-7.6,0-15.3,0-22.9c0-3.1,0.1-3.1,3.2-3.1c6.7,0,13.5,0,20.2,0c2.7,0,2.8,0.1,2.7,2.8c-0.1,7.3,1,5.9-6,6
	c-2.9,0.1-5.9,0.1-8.8,0c-1.7-0.1-2.2,0.6-2.2,2.2c0.1,2.8,0.1,5.6,0,8.4c0,1.5,0.6,2,2.1,2c3.6-0.1,7.1,0,10.7,0
	c2.7,0,2.8,0.1,2.8,2.8c-0.1,6.6,0.9,5.5-5.3,5.6c-2.7,0-5.3,0.1-8,0c-1.7-0.1-2.3,0.6-2.2,2.2c0.1,3.1,0.1,6.1,0,9.2
	c0,1.7,0.7,2.2,2.3,2.2c4.3-0.1,8.7,0,13,0c1.7,0,2.6,0.4,2.5,2.3c-0.2,7.8,1,6.2-6.1,6.3c-6.1,0.1-12.2-0.1-18.3,0.1
	c-2.1,0-2.6-0.7-2.6-2.6C481,446,481,438.2,481,430.5z"/>
<path d="M414.8,430.4c0-7.8,0-15.5,0-23.3c0-2.7,0.1-2.7,2.8-2.7c6.9,0,13.7,0,20.6,0c2.7,0,2.7,0.1,2.7,2.8c-0.1,7.4,1,5.9-5.9,6
	c-3.1,0.1-6.1,0.1-9.2,0c-1.3,0-1.8,0.5-1.8,1.8c0.1,2.9,0.1,5.9,0,8.8c0,1.5,0.6,2,2,2c3.7-0.1,7.4,0.1,11.1,0
	c1.9-0.1,2.4,0.7,2.4,2.4c-0.2,7.3,1,5.7-5.7,5.9c-2.5,0.1-5.1,0.1-7.6,0c-1.7-0.1-2.2,0.7-2.2,2.3c0.1,3.1,0.1,6.1,0,9.2
	c0,1.7,0.6,2.2,2.2,2.2c4.3-0.1,8.7,0,13-0.1c1.8,0,2.5,0.5,2.4,2.4c-0.2,7.7,1.1,6.1-6.1,6.3c-5.6,0.1-11.2,0-16.8,0
	c-4.5,0-3.9,0.5-4-4.2C414.7,444.9,414.8,437.7,414.8,430.4z"/>
<path d="M455.8,434.8c0-6.2,0-12.5,0-18.7c0-2.7-0.1-2.7-2.7-2.8c-1.9,0-3.8,0-5.7,0c-1.2,0-2-0.4-1.9-1.7c0-0.1,0-0.3,0-0.4
	c-0.5-6.8-0.5-6.8,6.3-6.8c7,0,14,0,21,0c2.9,0,3,0.1,2.9,3c-0.1,7.3,0.8,5.8-5.7,5.9c-5.4,0.1-4.7-0.7-4.7,4.6
	c0,11.6,0,23.2,0,34.7c0,3.6,0,3.6-3.4,3.7c-6.2,0.1-6.2,0.1-6.2-6.2C455.8,445,455.8,439.9,455.8,434.8z"/>
<path d="M176.3,456c-9.1,1.3-9.1,1.3-9.1-7.5c0-10.7,0-21.4,0-32.1c0-3.1,0-3.1-3.1-3.1c-1.8,0-3.6,0-5.3,0c-1.2,0-1.8-0.4-1.9-1.7
	c-0.8-6.8-0.5-7.2,6.4-7.2c7,0,14,0,21,0c2.9,0,3,0.1,2.9,3c-0.1,7.2,1,5.8-5.7,5.9c-5.5,0.1-4.8-0.7-4.8,4.9c0,11.3,0,22.7,0,34
	C176.6,453.5,176.8,454.8,176.3,456z"/>
<path d="M638,547.9c0-3.4,0-6.9,0-10.3c0-0.9-0.1-1.9,1.3-1.8c1.1,0.1,1.1,0.9,1.1,1.7c0,2.5,0,5.1,0,7.6c0,1.2,0.3,1.9,1.7,1.9
	c1.2,0,2.3,0.1,2.4-1.6c0.1-1.5,0.2-3.1,0.5-4.5c0.8-3.4,3.1-5.2,6.5-5.3c3.5-0.1,5.8,1.5,6.9,4.9c0.2,0.7,0.4,1.5,0.4,2.2
	c0,3.8,0.2,7.6,0,11.5c-0.3,4.4-3,6.9-7.1,6.9c-3.5,0-5.8-1.7-6.7-5.1c-0.4-1.5-0.6-3-0.5-4.5c0-1.7-0.6-2.2-2.2-2.2
	c-1.6,0-1.9,0.8-1.9,2.1c0,2.7,0,5.3,0,8c0,0.9-0.4,1.5-1.4,1.4c-0.8-0.1-1-0.7-1-1.4C638,555.5,638,551.7,638,547.9
	C638,547.9,638,547.9,638,547.9z M656.4,548.4C656.4,548.4,656.4,548.4,656.4,548.4c0-2,0.2-4.1-0.1-6.1c-0.4-3-2.1-4.5-4.8-4.4
	c-2.5,0.1-4,1.5-4.3,4.4c-0.4,3.9-0.4,7.9,0,11.8c0.3,3.1,1.9,4.6,4.5,4.6c2.6,0,4.3-1.5,4.6-4.6
	C656.5,552.2,656.4,550.3,656.4,548.4z"/>
<path d="M308.8,502.1c1.8-4.2,3.3-8.1,4.9-11.9c0.3-0.7,0.6-1.4,0.9-2.1c0.4-0.8,1.2-0.9,2-0.7c0.7,0.1,1,0.7,0.9,1.4
	c0,0.4,0,0.8,0,1.1c0,6.6,0,13.2,0,19.8c0,0.5,0,1-0.1,1.5c-0.1,0.6-0.5,0.9-1,0.9c-0.7,0.1-1.3-0.2-1.4-1c-0.1-0.9-0.1-1.8-0.1-2.7
	c0-4.3,0-8.6,0-13.1c-1.5,0.5-1.5,1.7-1.9,2.6c-0.9,2.2-1.8,4.5-2.7,6.7c-0.3,0.9-0.7,1.6-1.8,1.7c-1.1,0-1.5-0.7-1.8-1.6
	c-0.9-2.5-1.9-5-2.9-7.4c-0.2-0.5-0.3-1.3-1.4-1.3c-0.6,1.5-0.3,3.1-0.3,4.7c-0.1,3.2,0,6.4,0,9.5c0,0.9,0.1,1.9-1.2,1.9
	c-1.3,0-1.3-0.9-1.3-1.9c0-5.2,0-10.4,0-15.6c0-1.7,0-3.3,0-5c0-0.9-0.4-2.1,1.1-2.4c1.3-0.2,1.8,0.6,2.2,1.6
	c1.4,3.4,2.8,6.8,4.2,10.2C307.5,500,307.7,501,308.8,502.1z"/>
<path d="M117.2,543.9c-1.6,1.9-1.9,4-2.7,5.9c-0.6,1.3-1.1,2.6-1.5,3.9c-0.3,0.8-0.8,1.2-1.7,1.2c-0.9,0-1.4-0.5-1.7-1.3
	c-0.9-2.4-1.8-4.7-2.8-7.1c-0.4-0.9-0.4-2-1.8-2.4c-0.7,2.9-0.2,5.8-0.3,8.6c-0.1,2,0,4.1,0,6.1c0,0.9,0.1,1.9-1.3,1.9
	c-1.3-0.1-1.1-1.2-1.1-2c0-1.3,0-2.5,0-3.8c0-5.6,0-11.2,0-16.8c0-0.9-0.4-2.1,1.2-2.3c1.3-0.2,1.7,0.8,2.1,1.7
	c1.8,4.3,3.6,8.6,5.3,13c1.4-0.3,1.3-1.6,1.7-2.4c1.5-3.5,2.9-7.1,4.3-10.6c0.4-1,0.8-1.9,2.1-1.7c1.3,0.2,1,1.3,1,2.1
	c0,7,0,14,0,21c0,0.9,0,2-1.3,1.8c-1-0.1-1-1-1-1.8c0-3.7,0-7.4,0-11.1C117.7,546.7,118,545.4,117.2,543.9z"/>
<path d="M412.7,543.7c0,4.5,0.1,9-0.1,13.5c0,1.2,1,3.3-1.2,3.3c-1.8,0-1-2-1-3.1c-0.1-6.1,0-12.2,0-18.3c0-0.5,0-1,0-1.5
	c0-0.7-0.1-1.6,0.9-1.8c1-0.2,1.7,0.3,2.1,1.2c1.5,3.8,3.1,7.5,4.6,11.3c0.3,0.8,0.6,1.7,1.2,3.1c1.5-3.7,2.8-6.9,4.2-10.1
	c0.6-1.5,1.3-3,1.9-4.6c0.4-0.8,1-1.1,1.9-1c1.1,0.1,1,1,1,1.7c0,7.1,0,14.3,0,21.4c0,0.9,0,1.9-1.3,1.8c-1.3-0.1-1.1-1.2-1.1-2.1
	c0-5,0-9.9,0-15c-1.4,0.3-1.4,1.4-1.7,2.3c-0.9,2.1-1.7,4.3-2.6,6.4c-0.5,1.1-0.5,2.7-2.3,2.6c-1.5-0.1-1.6-1.4-2-2.4
	c-1.2-2.9-2.4-5.9-3.5-8.8C413.3,543.7,413,543.7,412.7,543.7z"/>
<path d="M479.5,494c-2.4,5.3-4.5,10-6.6,14.8c-0.4,0.8-0.7,1.6-1.1,2.4c-0.4,0.8-1.1,1-1.9,0.9c-1.1-0.1-1.1-0.9-1.1-1.7
	c0-7.1,0-14.3,0-21.4c0-0.9,0.1-1.9,1.3-1.8c1.3,0.1,1.1,1.2,1.1,2c0,3.9,0,7.9,0,11.8c0,1.2,0,2.4,0,4.1c1.5-1.1,1.7-2.3,2.1-3.2
	c1.8-4.1,3.6-8.1,5.4-12.2c0.3-0.7,0.6-1.4,1-2.1c0.5-0.7,1.3-0.7,2.1-0.5c0.8,0.2,0.9,0.8,0.9,1.5c0,7.3,0,14.5,0,21.8
	c0,0.9-0.3,1.5-1.3,1.5c-1.1,0-1.2-0.8-1.2-1.6c0-4.1,0-8.1,0-12.2C480.3,497.1,480.7,495.8,479.5,494z"/>
<path d="M411.8,498.9c0,2.4-0.1,4.8,0,7.2c0.1,1.5-0.8,3.3,1.6,4.1c0.7,0.2,0.7,4.8,0.2,5.4c-0.2,0.2-0.6,0.4-1,0.4
	c-0.6,0-0.9-0.4-1-0.9c-0.2-1,0.3-2.3-0.8-2.7c-1-0.4-2.2-0.3-3.4-0.3c-2,0-4.1,0-6.1,0c-1.5,0-2.6,0.2-2.4,2c0,0.4,0,0.8-0.1,1.1
	c-0.1,0.6-0.6,0.8-1.1,0.8c-0.5,0-1.1-0.2-1.1-0.8c0.2-2.1-1.1-4.3,1.6-6.1c1.9-1.3,2-4,2.2-6.3c0.3-4.4,0.5-8.9,0.6-13.3
	c0-1.9,0.6-2.5,2.4-2.4c1.9,0.1,3.8,0,5.7,0c2.6,0.1,2.6,0.1,2.6,2.9C411.8,493,411.8,496,411.8,498.9z M401.2,509.8
	c2.6,0,4.6,0,6.6,0c1.1,0,1.6-0.5,1.6-1.6c0-5.7,0-11.4,0-17.1c0-0.6,0-1.4-0.7-1.6c-1.5-0.4-3.1-0.5-4.5,0c-1.4,0.4-0.8,2-0.9,3
	C402.7,498.2,403.4,503.9,401.2,509.8z"/>
<path d="M188.1,499.3c1.9,1.4,2.9,3,3,5.2c0.3,4.6-1.9,7.2-6.5,7.5c-1.8,0.1-3.6,0-5.3,0.1c-1.4,0.1-1.7-0.6-1.7-1.8
	c0-7.1,0-14.2,0-21.3c0-1.3,0.5-1.8,1.8-1.8c1.5,0,3-0.1,4.6,0c4.9,0.3,7.6,4.5,5.7,9.2C189.3,497.4,188.7,498.2,188.1,499.3z
	 M180,504.7c0,0.7,0,1.2,0,1.7c0,3.5,0,3.5,3.6,3.4c0.4,0,0.8,0,1.1,0c2.5-0.3,3.7-1.4,3.9-3.8c0.2-2.6-0.8-4.5-3-5.1
	c-1.7-0.4-3.7-0.9-5.2,0.1C179.3,501.7,180.2,503.6,180,504.7z M180,493.6c0,0.6,0,1.3,0,1.9c0.1,2.7,0.1,2.7,2.7,2.7
	c0.5,0,1,0,1.5-0.1c2.4-0.4,3.7-2.2,3.5-4.9c-0.3-2.9-2.1-4-5.8-3.9c-3.2,0.1-1.5,2.5-1.9,3.9C180,493.4,180,493.5,180,493.6z"/>
<path d="M558,498.4c0,3.1,0,6.1,0,9.2c0,0.8-0.2,1.6,0.9,2.2c1.2,0.7,1.8,4.6,1.1,5.7c-0.2,0.3-0.6,0.5-0.9,0.5
	c-0.5,0-1-0.1-1.1-0.8c-0.3-0.9,0.4-2.2-0.6-2.8c-1.1-0.7-2.5-0.3-3.7-0.3c-2-0.1-4.1,0.1-6.1,0c-1.6-0.1-2.4,0.4-2.3,2.1
	c0.1,0.9,0.1,2-1.3,1.8c-1.3-0.1-1-1.2-1-2.1c0-1.8-0.4-3.6,1.8-4.9c1.3-0.7,1.5-2.8,1.8-4.5c0.9-4.7,0.5-9.4,0.7-14.1
	c0.2-3.2,0.1-3.3,3.5-3.2c2.3,0,5.2-0.9,6.7,0.4c1.7,1.6,0.4,4.6,0.6,6.9C558.1,495.9,558,497.2,558,498.4z M547.8,509.5
	c2,0.6,3.8,0.2,5.5,0.3c1.9,0.2,2.4-0.6,2.4-2.4c-0.1-5.2-0.1-10.4,0-15.6c0-2.1-0.8-2.6-2.7-2.5c-3.2,0-3.3,0-3.4,2.6
	C549.3,497.8,549.7,503.7,547.8,509.5z"/>
<path d="M226.7,500.1c0,3.4,0,6.9,0,10.3c0,1-0.2,1.8-1.4,1.7c-1.1-0.1-1-1-1-1.7c0-5.8,0-11.7,0-17.5c0-3.4,0-3.4-3.3-3.4
	c-6.1,0-5.3-0.5-5.3,5.3c0,4.8,0,9.7,0,14.5c0,0.8,0,1.5-0.1,2.3c-0.1,0.3-0.5,0.6-0.8,0.6c-0.5,0.1-1.1,0-1.3-0.5
	c-0.2-0.6-0.2-1.2-0.2-1.9c0-6.6,0.1-13.2,0-19.8c0-2,0.6-2.7,2.6-2.6c2.9,0.1,5.8,0.1,8.8,0c1.6,0,2.3,0.5,2.2,2.2
	C226.7,493,226.7,496.5,226.7,500.1z"/>
<path d="M484.4,548.2c0-2-0.1-4.1,0-6.1c0.4-4.2,2.9-6.6,6.9-6.7c4.1-0.1,6.6,2,7.2,6.3c0.5,4.3,0.5,8.6,0,12.9
	c-0.5,4.5-3.2,6.6-7.4,6.5c-3.9-0.1-6.4-2.6-6.7-6.9C484.2,552.2,484.3,550.2,484.4,548.2C484.4,548.2,484.4,548.2,484.4,548.2z
	 M496.3,548.5c-0.1,0-0.1,0-0.2,0c0-1.8,0-3.6,0-5.3c0-0.4-0.1-0.8-0.1-1.1c-0.5-2.8-1.9-4.2-4.5-4.2c-2.5,0-4.5,1.4-4.6,4.1
	c-0.2,4.3-0.2,8.6,0,12.9c0.2,2.7,2.1,4.1,4.6,4c2.4,0,4-1.3,4.4-3.9C496.2,552.8,496.2,550.6,496.3,548.5z"/>
<path d="M376.4,547c2,0,4.1,0,6.3,0c1.4,0,1.7-0.7,1.7-1.9c0-2.5,0-5.1,0-7.6c0-0.7-0.1-1.6,1-1.7c1.3-0.1,1.4,0.8,1.4,1.8
	c0,7.1,0,14.2,0,21.4c0,0.9-0.1,1.9-1.4,1.8c-1-0.1-1-1-1-1.7c0-2.5-0.1-5.1,0-7.6c0.1-1.7-0.7-2.1-2.2-2.2
	c-6.3-0.3-6.3-0.4-6.3,5.7c0,1.5,0,3.1,0,4.6c0,0.7-0.4,1.2-1.1,1.2c-0.8,0-1.1-0.4-1.2-1.1c-0.1-0.8,0-1.5,0-2.3c0-6,0-12,0-17.9
	c0-0.5,0-1,0-1.5c0.1-0.8-0.3-2,1.1-2c1.6-0.1,1.3,1.2,1.3,2.2c0,2,0,4.1,0,6.1C375.8,545,375.7,545.9,376.4,547z"/>
<path d="M451.4,548.2c0-2-0.1-4.1,0-6.1c0.3-4.1,2.9-6.6,6.8-6.7c4.1-0.1,6.8,2.1,7.2,6.3c0.4,4.4,0.4,8.9,0,13.3
	c-0.4,4.1-3.3,6.3-7.3,6.1c-3.8-0.1-6.3-2.5-6.7-6.5C451.3,552.5,451.5,550.4,451.4,548.2C451.5,548.2,451.4,548.2,451.4,548.2z
	 M463.2,548.1C463.1,548.1,463.1,548.1,463.2,548.1c0-2,0.1-4.1-0.1-6.1c-0.3-2.8-1.9-4.2-4.4-4.3c-2.7-0.1-4.6,1.4-4.7,4.4
	c-0.2,4.1-0.2,8.1,0,12.2c0.1,3,2,4.5,4.6,4.5c2.7,0,4.3-1.6,4.5-4.6C463.3,552.2,463.2,550.2,463.2,548.1z"/>
<path d="M280.9,548.1c0-2-0.1-4.1,0-6.1c0.3-4.1,2.9-6.6,6.9-6.6c4-0.1,6.8,2.2,7.1,6.3c0.3,4.3,0.3,8.6,0,12.9
	c-0.3,4.3-3.2,6.6-7.4,6.5c-3.9-0.2-6.4-2.7-6.6-6.9C280.8,552.2,280.9,550.2,280.9,548.1z M292.6,548.8
	C292.6,548.8,292.6,548.8,292.6,548.8c0-2.2,0.2-4.3,0-6.5c-0.2-3-1.9-4.5-4.6-4.6c-2.7,0-4.5,1.5-4.6,4.5c-0.2,4.1-0.2,8.1,0,12.2
	c0.1,2.9,2,4.4,4.7,4.4c2.5-0.1,4.1-1.5,4.4-4.3C292.8,552.6,292.6,550.7,292.6,548.8z"/>
<path d="M394.4,499.8c0,1.9,0.1,3.8,0,5.7c-0.3,4.4-2.9,7-6.9,7.1c-3.9,0.1-6.6-2.2-7.2-6.4c-0.6-4.4-0.6-8.9,0-13.3
	c0.6-4.2,3.3-6.3,7.4-6.2c3.7,0.2,6.3,2.6,6.7,6.5C394.5,495.4,394.4,497.6,394.4,499.8C394.4,499.8,394.4,499.8,394.4,499.8z
	 M382.7,499.7C382.7,499.7,382.7,499.7,382.7,499.7c0,2-0.1,4.1,0,6.1c0.2,2.7,1.9,4.3,4.3,4.5c2.5,0.1,4.6-1.5,4.8-4.4
	c0.4-4.2,0.4-8.4,0-12.6c-0.3-2.9-2.2-4.4-4.9-4.2c-2.5,0.1-4,1.7-4.2,4.5C382.6,495.6,382.7,497.7,382.7,499.7z"/>
<path d="M262.1,548.6c0,2,0.1,4.1,0,6.1c-0.3,3.9-2.9,6.4-6.6,6.5c-4.1,0.1-6.9-2-7.3-6.1c-0.5-4.5-0.5-9.1,0-13.7
	c0.5-3.9,3.2-6,7.1-5.9c3.8,0.1,6.5,2.4,6.8,6.3C262.3,544,262.1,546.3,262.1,548.6C262.1,548.6,262.1,548.6,262.1,548.6z
	 M259.7,548.3c0-2,0.1-4.1,0-6.1c-0.3-2.9-2-4.5-4.7-4.4c-2.5,0.1-4.2,1.5-4.4,4.3c-0.4,4.2-0.4,8.4,0,12.6c0.2,2.8,1.9,4.2,4.5,4.2
	c2.7,0,4.4-1.5,4.7-4.4C259.8,552.3,259.7,550.3,259.7,548.3z"/>
<path d="M433.3,548.1c0-3.6,0-7.1,0-10.7c0-0.8,0-1.6,1.1-1.7c1.4-0.1,1.3,0.9,1.3,1.8c0,2.3,0.1,4.6,0,6.9c0,1.7,0.4,2.6,2.3,2.6
	c7.5-0.1,6.2,0.7,6.3-5.8c0-1.4,0-2.8,0.1-4.2c0-0.7,0.3-1.2,1.1-1.2c0.7,0,1.2,0.4,1.2,1.1c0,0.4,0.1,0.8,0.1,1.1
	c0,6.9,0,13.7,0,20.6c0,0.4,0,0.8-0.1,1.1c-0.1,0.6-0.5,0.9-1,1c-0.7,0.1-1.3-0.3-1.3-1c-0.1-2.4,0-4.8-0.1-7.2
	c0-3.2-0.1-3.2-3.1-3.2c-6.7,0-5.4-0.6-5.5,5.4c0,1.5,0,3,0,4.6c0,0.8-0.1,1.6-1.2,1.6c-1,0-1.2-0.7-1.2-1.6c0-0.1,0-0.3,0-0.4
	C433.3,555.2,433.3,551.7,433.3,548.1z"/>
<path d="M33.5,548c0-3.4,0-6.9,0-10.3c0-0.9-0.1-1.9,1.3-1.9c1.4,0,1.1,1.1,1.1,1.9c0,2.3,0.1,4.6,0,6.9c-0.1,1.8,0.7,2.4,2.5,2.4
	c7.2-0.1,6,0.8,6.2-6c0-1.4,0-2.8,0.1-4.2c0-0.8,0.5-1.1,1.3-1c0.6,0,1,0.4,1,0.9c0.1,0.8,0.1,1.5,0.1,2.3c0,6.2,0,12.5,0,18.7
	c0,0.6,0,1.3-0.1,1.9c-0.1,0.7-0.5,1.2-1.2,1.2c-0.8,0-1.1-0.5-1.2-1.2c0-1.8,0-3.6,0-5.3c0-1,0-2,0-3c0-1.2-0.5-1.8-1.7-1.9
	c-6.3-0.8-6.9-0.4-6.9,5.9c0,1.4,0,2.8,0,4.2c0,0.7-0.2,1.3-1,1.4c-0.9,0.1-1.4-0.4-1.4-1.3c0-2.3,0-4.6,0-6.9
	C33.4,551,33.4,549.5,33.5,548z"/>
<path d="M180.4,553.8c2.2-4.9,4.2-9.7,6.5-14.5c0.6-1.3,0.6-3.8,2.9-3.4c2.4,0.5,1.1,2.7,1.2,4.1c0.2,5.7,0.1,11.5,0.1,17.2
	c0,0.9,0,1.8-0.1,2.7c-0.1,0.6-0.5,0.9-1.1,0.9c-0.6,0-1-0.3-1.1-0.8c-0.1-0.8-0.1-1.5-0.1-2.3c0-4.1,0-8.2,0-12.2
	c0-0.8,0.3-1.7-0.7-2.9c-1,2.2-1.8,4.1-2.7,6c-1.5,3.4-3,6.7-4.5,10.1c-0.5,1.2-1,2.5-2.7,2.1c-1.4-0.4-0.9-1.7-0.9-2.6
	c0-6.6,0-13.2,0-19.9c0-0.6,0-1.3,0.2-1.9c0.1-0.3,0.5-0.5,0.9-0.6c0.6-0.1,1.1,0.1,1.1,0.7c0.1,0.9,0.1,1.8,0.1,2.7
	c0,4.8,0,9.6,0,14.4C179.8,553.7,180.1,553.7,180.4,553.8z"/>
<path d="M207.7,542.8c-1.5,0.7-1.6,1.8-2,2.6c-1.9,4.2-3.7,8.3-5.6,12.5c-0.3,0.7-0.6,1.4-1,2.1c-0.4,0.8-1.2,0.9-2,0.7
	c-0.8-0.2-0.8-0.8-0.9-1.5c0-0.4,0-0.8,0-1.1c0-6.5,0-13,0-19.4c0-0.1,0-0.3,0-0.4c0.1-0.9-0.4-2.3,1.1-2.4c1.7-0.1,1.2,1.3,1.2,2.2
	c0.1,3.9,0,7.9,0,11.8c0,1.2,0,2.5,0,3.7c1.4-0.1,1.4-1.2,1.7-1.9c1.9-4.3,3.8-8.6,5.7-12.9c0.3-0.7,0.6-1.4,0.9-2.1
	c0.4-0.8,1.1-1,1.9-0.9c1.1,0.1,1.1,0.8,1.1,1.6c0,1.4,0,2.8,0,4.2c0,5.2,0,10.4,0,15.6c0,0.9,0,1.8-0.1,2.7
	c-0.1,0.6-0.5,0.8-1.1,0.8c-0.6,0-1-0.3-1.1-0.8c-0.1-0.9-0.1-1.8-0.1-2.7C207.7,552.5,207.7,547.8,207.7,542.8z"/>
<path d="M450,499.7c0-2-0.1-4.1,0-6.1c0.3-4.2,2.9-6.7,6.8-6.9c4.1-0.2,7,2.2,7.4,6.6c0.3,4.2,0.3,8.4,0,12.6
	c-0.3,4.4-3.3,6.9-7.3,6.7c-4-0.1-6.6-2.8-6.9-7.2C449.9,503.5,450,501.6,450,499.7C450,499.7,450,499.7,450,499.7z M452.4,499.6
	C452.4,499.6,452.4,499.6,452.4,499.6c0,1.8,0,3.6,0,5.3c0,0.3,0,0.5,0.1,0.8c0.4,2.9,2.1,4.6,4.6,4.6c2.6,0,4.4-1.6,4.6-4.6
	c0.2-3.9,0.2-7.9,0-11.8c-0.1-3.1-1.8-4.7-4.4-4.8c-2.8-0.1-4.6,1.6-4.9,4.7C452.3,495.7,452.4,497.6,452.4,499.6z"/>
<path d="M448.6,511.7c-2.1,0.9-3,0.1-3.8-1.3c-1.7-2.7-3.4-5.4-5.1-8c-0.4-0.6-0.9-1.4-1.8-1.1c-0.8,0.3-1.1,1.1-1.1,1.9
	c0,2.4,0,4.8-0.1,7.2c0,0.8-0.1,1.6-1.1,1.6c-1.2,0.1-1.4-0.8-1.4-1.7c0-7.1,0-14.2,0-21.4c0-1,0.2-1.9,1.4-1.8
	c1.3,0.1,1.1,1.1,1.1,2c0,2.6,0,5.2,0,7.8c0.3,0.1,0.5,0.2,0.8,0.2c2-2.7,3.9-5.5,5.9-8.2c0.9-1.3,1.8-2.5,4.1-1.4
	c-2,2.8-3.9,5.6-6,8.2c-1.3,1.6-1.2,2.7-0.2,4.4C443.8,504,446.1,507.7,448.6,511.7z"/>
<path d="M208.6,499.6c0,2,0.1,4.1,0,6.1c-0.3,4.1-2.9,6.7-6.7,6.9c-4,0.2-7-2.3-7.3-6.6c-0.3-4.2-0.3-8.4,0-12.6
	c0.3-4.3,3.2-6.8,7.3-6.7c4,0.1,6.6,2.8,6.8,7.2C208.7,495.8,208.6,497.7,208.6,499.6C208.6,499.6,208.6,499.6,208.6,499.6z
	 M196.9,499.5C196.9,499.5,196.9,499.5,196.9,499.5c0,2-0.2,4.1,0,6.1c0.3,3,2,4.6,4.6,4.7c2.6,0,4.5-1.7,4.6-4.6
	c0.2-4.1,0.2-8.1,0-12.2c-0.1-2.8-1.9-4.3-4.4-4.4c-2.7-0.1-4.5,1.4-4.8,4.3C196.8,495.5,196.9,497.5,196.9,499.5z"/>
<path d="M334.5,547.8c2.6,1.7,3.5,4.2,3.2,7.3c-0.3,2.8-1.9,4.6-4.7,5.4c-2.5,0.7-5.1,0.3-7.6,0.3c-1.2,0-1.4-0.9-1.4-1.8
	c0-1.9,0-3.8,0-5.7c0-5,0.1-9.9,0-14.9c0-2,0.7-2.8,2.7-2.6c1,0.1,2,0,3.1,0c6.2,0.3,8.9,5.3,5.8,10.7
	C335.2,546.9,334.9,547.2,334.5,547.8z M326.4,553.7c0,0.5,0,1,0,1.5c0,3.4,0,3.4,3.3,3.3c0.8,0,1.5,0,2.3-0.2
	c2.4-0.5,3.7-2.6,3.3-5.1c-0.4-3-3-4.5-6.9-4.3c-3.1,0.2-1.5,2.5-1.9,4C326.3,553.2,326.4,553.5,326.4,553.7z M326.4,542.6
	c0,4.5,0.5,4.9,4.2,4.3c2.8-0.5,3.9-2.2,3.6-5.3c-0.3-2.8-1.9-3.7-5.6-3.5c-2.1,0.1-2.1,0.1-2.1,4.1
	C326.4,542.3,326.4,542.4,326.4,542.6z"/>
<path d="M354.4,548c0-1.9-0.1-3.8,0-5.7c0.3-4.3,2.8-6.7,6.7-6.9c4.1-0.2,6.8,1.8,7.4,6.1c0.6,4.5,0.7,9.1,0,13.7
	c-0.7,4.2-3.4,6.2-7.5,6c-3.7-0.2-6.2-2.6-6.5-6.6C354.3,552.4,354.5,550.2,354.4,548C354.5,548,354.5,548,354.4,548z M366.4,548.5
	c0-1.8,0-3.6,0-5.3c0-0.5-0.1-1-0.3-1.5c-0.6-2.7-2-3.9-4.4-3.9c-2.5,0-4.5,1.3-4.7,4c-0.3,4.3-0.3,8.7,0,13
	c0.2,2.7,2.1,4.1,4.7,4.1c2.4,0,3.8-1.2,4.5-3.9C366.6,552.8,366.4,550.6,366.4,548.5z"/>
<path d="M542.9,536.2c-2.2,3-4.1,5.8-6.2,8.5c-1.1,1.4-1.2,2.5-0.2,4c2,2.9,3.9,6,5.7,9c0.5,0.8,1.4,1.6,1.2,2.7
	c-1.7,0.9-2.5-0.1-3.3-1.4c-2-3.2-4.1-6.4-6.2-9.7c-1.7,0.8-2,2-2,3.5c0,2,0,4.1,0,6.1c0,0.9,0,1.9-1.3,1.8
	c-1.1-0.1-1.1-0.9-1.1-1.7c0-2,0-4.1,0-6.1c0-5.1,0-10.2,0-15.3c0-0.9-0.2-1.9,1.2-1.9c1.4,0,1.1,1.1,1.2,1.9c0,1.3-0.1,2.5,0,3.8
	c0.1,1.1-0.6,2.6,0.7,3.1c1.6,0.6,1.9-1.3,2.7-2.2c1.4-1.7,2.6-3.5,3.8-5.3C540,536,540.9,535.4,542.9,536.2z"/>
<path d="M245.5,536.2c-2.1,2.9-3.9,5.7-6,8.2c-1.4,1.7-1.3,3-0.1,4.7c2,2.8,3.7,5.7,5.5,8.7c0.5,0.8,1.4,1.5,1.2,2.7
	c-1.7,0.9-2.5-0.3-3.3-1.5c-2-3.2-4.1-6.4-6.2-9.7c-1.7,0.9-1.9,2.2-1.9,3.6c0,2.2,0,4.3,0,6.5c0,0.7-0.2,1.3-1,1.3
	c-1,0.1-1.4-0.5-1.4-1.4c0-3.2,0-6.4,0-9.5c0-3.8,0-7.6,0-11.4c0-1-0.6-2.6,1.3-2.5c1.6,0.1,1,1.5,1,2.4c0.1,2.5,0,4.9,0,7.4
	c0.3,0.1,0.6,0.2,0.9,0.3c2-2.7,3.9-5.4,5.9-8.2C242.3,536.5,243.1,535.1,245.5,536.2z"/>
<path d="M359.1,499.9c0,1.9,0.1,3.8,0,5.7c-0.3,4.2-2.9,6.8-6.7,7c-3.9,0.2-6.8-2-7.4-6.2c-0.6-4.5-0.7-9.1,0-13.7
	c0.7-4.2,3.4-6.2,7.5-6c3.7,0.2,6.2,2.6,6.5,6.7C359.3,495.6,359.1,497.8,359.1,499.9C359.1,499.9,359.1,499.9,359.1,499.9z
	 M356.7,499.7c0-1.9,0.1-3.8,0-5.7c-0.2-3-1.8-4.7-4.3-4.9c-2.8-0.2-4.5,1.3-5,4.5c-0.6,4-0.5,8.1,0,12.1c0.4,3.1,2.1,4.6,4.6,4.6
	c2.6,0,4.5-1.9,4.7-5C356.8,503.5,356.7,501.6,356.7,499.7z"/>
<path d="M155,548c0,3.1,0,6.1,0,9.2c0,0.8,0,1.5,0,2.3c0,0.7-0.3,1.2-1.1,1.3c-1,0.1-1.3-0.7-1.3-1.5c0-1.8,0-3.6,0-5.4
	c-0.1-5.1,0.8-4.6-4.7-4.7c-0.1,0-0.3,0-0.4,0c-3.4,0-3.4,0-3.4,3.3c0,2.2,0,4.3,0,6.5c0,1-0.2,1.9-1.4,1.7c-1-0.1-1-1-1-1.7
	c0-7.1,0-14.3,0-21.4c0-0.9,0-1.9,1.4-1.8c1,0.1,1.1,0.9,1.1,1.7c0,2.5-0.1,5.1,0.1,7.6c0.2,3.3,2.9,1.6,4.4,1.7
	c1.4,0.1,3.9,1.3,4-1.8c0.1-2-0.1-4.1,0.1-6.1c0.1-1.1-0.8-3.1,1.1-3.1c2.2,0,1.2,2.1,1.3,3.3C155.1,542.1,155,545,155,548z"/>
<path d="M145.9,487.2c0,8,0,15.6,0,23.2c0,0.8-0.1,1.6-1.1,1.6c-1.3,0-1.2-1-1.2-1.9c0-5.5,0-10.9,0-16.4c0-4.7,0.6-4.3-4.3-4.3
	c-4.8,0-4.2-0.5-4.2,4.3c0,5,0,9.9,0,14.9c0,0.9,0,1.8-0.1,2.7c-0.1,0.6-0.6,0.8-1.1,0.8c-0.6,0-1-0.2-1.1-0.8
	c-0.1-0.6-0.1-1.3-0.1-1.9c0-6.5,0-13,0-19.5c0-2.6,0.1-2.7,2.8-2.7C138.8,487.2,142.2,487.2,145.9,487.2z"/>
<path d="M391.4,548.1c0-2.3-0.4-4.6,0.1-6.8c0.9-4,3.4-5.9,7.3-5.8c3.9,0.1,6.5,2.5,6.8,6.8c0.2,4.1,0.3,8.1,0,12.2
	c-0.3,4.2-3,6.6-6.8,6.7c-4,0.1-6.7-2-7.3-6.2C391.2,552.7,391.4,550.3,391.4,548.1z M403.3,548.6
	C403.3,548.6,403.3,548.6,403.3,548.6c0-1.9,0-3.8,0-5.7c0-0.3,0-0.5-0.1-0.8c-0.5-2.8-1.9-4.3-4.4-4.4c-2.7-0.2-4.4,1.1-4.9,4.1
	c-0.6,4.1-0.5,8.3-0.1,12.5c0.4,3.2,2.2,4.6,5.1,4.4c2.5-0.2,4.1-1.8,4.3-4.9C403.4,552.2,403.3,550.4,403.3,548.6z"/>
<path d="M525,548.3c0,2,0.1,4.1,0,6.1c-0.3,4-2.8,6.5-6.5,6.7c-4.1,0.2-6.9-1.7-7.5-5.9c-0.7-4.6-0.7-9.4,0-14
	c0.6-4,3.3-5.9,7.2-5.8c3.8,0.1,6.3,2.5,6.7,6.4C525.2,544,525,546.2,525,548.3C525,548.3,525,548.3,525,548.3z M522.6,548.4
	C522.6,548.4,522.6,548.4,522.6,548.4c0-1.8,0-3.6,0-5.3c0-0.3,0-0.5-0.1-0.8c-0.4-3-2-4.5-4.7-4.6c-2.6,0-4.1,1.2-4.6,4.1
	c-0.6,4.2-0.5,8.4-0.1,12.6c0.4,3.1,2,4.4,4.8,4.4c2.6-0.1,4.3-1.7,4.5-4.7C522.8,552.2,522.6,550.3,522.6,548.4z"/>
<path d="M138.4,559.5c0,0.5,0,1-0.6,1.2c-0.7,0.2-1.3,0-1.7-0.6c-0.3-0.5-0.3-1.3-0.5-1.8c-0.6-1.1,0-2.9-1.6-3.2
	c-2.1-0.4-4.3-0.4-6.4,0.1c-0.8,0.2-0.8,1.2-1,1.9c-0.2,0.7-0.4,1.5-0.6,2.2c-0.2,1-0.9,1.6-1.9,1.3c-1.1-0.3-0.6-1.2-0.5-1.9
	c1.1-4.3,2.2-8.6,3.3-12.9c0.7-2.8,1.5-5.7,2.2-8.5c0.2-0.9,0.6-1.7,1.7-1.7c1.2,0,1.5,0.8,1.8,1.7c1.9,7.1,3.7,14.2,5.6,21.4
	C138.3,559,138.3,559.3,138.4,559.5z M134.1,552.4c-1.1-4.2-2-7.9-3-11.7c-0.2,0-0.4,0.1-0.6,0.1c-0.9,3.8-1.8,7.6-2.8,11.5
	C129.9,552.9,131.7,552.8,134.1,552.4z"/>
<path d="M595.5,555c-3.5,0-3.5,0-4.5,3.5c-0.1,0.5-0.2,1-0.4,1.5c-0.3,0.7-0.9,0.9-1.6,0.8c-0.8-0.1-0.9-0.8-0.7-1.4
	c0.5-1.8,1-3.7,1.4-5.5c1.4-5.3,2.7-10.6,4.1-15.8c0.2-0.9,0.3-2.1,1.7-2.2c1.6-0.1,1.8,1.1,2.1,2.2c1.8,6.7,3.6,13.5,5.3,20.3
	c0.1,0.4,0.2,0.7,0.2,1.1c0.1,0.7,0,1.3-0.8,1.4c-0.7,0.1-1.3-0.1-1.5-0.8c-0.3-0.7-0.5-1.5-0.6-2.2c-0.2-2.2-1.4-3.2-3.6-2.8
	C596.3,555,595.9,555,595.5,555z M592.7,552.5c2.2,0.2,4.1,0.5,6.1-0.2c-0.8-4-1.7-7.9-3.1-12.2
	C594.5,544.5,593.4,548.2,592.7,552.5z"/>
<path d="M320.9,559.7c0,0.5-0.1,0.9-0.5,1c-0.6,0.2-1.4,0.2-1.7-0.5c-0.4-0.9-0.8-1.9-0.9-2.9c-0.3-1.9-1.3-2.6-3.2-2.4
	c-0.6,0.1-1.3,0-1.9,0c-3.1,0-3.1,0-3.9,2.9c-0.2,0.6-0.2,1.3-0.5,1.8c-0.3,0.8-0.9,1.3-1.8,1c-1.1-0.3-0.8-1.1-0.6-1.8
	c1.2-4.6,2.3-9.1,3.5-13.7c0.6-2.5,1.3-4.9,2-7.4c0.3-1,0.3-2,1.7-2.1c1.4-0.1,1.6,1,1.9,1.9c1.9,7,3.7,14,5.6,21
	C320.8,559,320.9,559.4,320.9,559.7z M310.1,552.8c2.4-0.2,4.2,0.3,6.4-0.5c-0.9-3.8-1.9-7.6-2.9-11.8c-0.5,0.8-0.7,1-0.8,1.4
	C311.9,545.3,311.1,548.7,310.1,552.8z"/>
<path d="M248.3,499.5c0-1.9-0.1-3.8,0-5.7c0.4-4.4,3-7,7-7.1c4.1-0.1,6.9,2.3,7.3,6.7c0.3,4.2,0.3,8.4,0,12.6
	c-0.3,4.2-3.2,6.6-7.1,6.6c-4,0-6.8-2.7-7.1-7C248.1,503.6,248.3,501.6,248.3,499.5z M250.7,499.4
	C250.7,499.4,250.7,499.4,250.7,499.4c0,2.2-0.2,4.3,0.1,6.4c0.4,2.9,2.3,4.5,4.8,4.5c2.3,0,4.2-1.6,4.5-4.3c0.5-4.1,0.4-8.4,0-12.5
	c-0.3-3-2.1-4.5-4.7-4.4c-2.6,0-4.3,1.6-4.6,4.6C250.5,495.6,250.7,497.5,250.7,499.4z"/>
<path d="M164.9,499.4c0,2,0.1,4.1,0,6.1c-0.4,4.4-3,7-7,7.1c-3.8,0.1-6.6-2.2-7.2-6.5c-0.5-4.3-0.5-8.7,0-12.9
	c0.5-4.4,3.4-6.7,7.5-6.5c3.8,0.2,6.3,2.7,6.7,7C165,495.6,164.9,497.5,164.9,499.4z M162.5,499.8
	C162.5,499.8,162.5,499.8,162.5,499.8c0-1.9,0.1-3.8,0-5.7c-0.2-3.2-1.9-4.9-4.6-5c-2.6,0-4.3,1.3-4.7,4.4c-0.6,4-0.5,8.1,0,12.1
	c0.4,3.2,2.3,4.8,5,4.7c2.6-0.2,4.3-2.1,4.5-5.2C162.6,503.3,162.5,501.5,162.5,499.8z"/>
<path d="M14.1,560.8c1.5-0.1,1.1-1.5,1.4-2.3c1.7-6.3,3.3-12.5,4.9-18.8c0.2-0.9,0.5-1.7,0.7-2.6c0.2-0.9,0.7-1.3,1.6-1.4
	c0.9,0,1.5,0.3,1.7,1.2c0.1,0.5,0.3,1,0.5,1.5c1.7,6.5,3.4,13.1,5.1,19.6c0.1,0.5,0.3,1,0.4,1.5c0.1,0.5,0,1.1-0.6,1.2
	c-0.6,0.2-1.3,0.1-1.6-0.6c-0.3-0.7-0.5-1.4-0.7-2.2c-0.3-1.1-0.2-2.6-1.5-2.8c-2.1-0.3-4.3-0.5-6.4,0.1c-0.8,0.2-0.8,1.5-1.1,2.3
	C17.3,560.7,17.3,560.7,14.1,560.8C14.2,560.7,14.1,560.8,14.1,560.8z M19.6,552.4c2.2,0.5,4.1,0.6,6.3-0.1c-1-3.9-1.9-7.6-3.1-12.2
	c-0.5,1.3-0.7,1.8-0.8,2.3C21.2,545.6,20.4,548.9,19.6,552.4z"/>
<path d="M232,499.4c0-3.4,0.1-6.8,0-10.3c0-1.5,0.6-2,2-1.9c1.8,0.1,3.6,0,5.3,0.1c2.9,0.2,4.6,1.8,5.5,4.5c2,6.2-1.1,10.7-7.5,11
	c-2.8,0.1-2.8,0.1-2.9,2.9c0,1.4,0,2.8,0,4.2c0,1,0.3,2.2-1.3,2.1c-1.4-0.1-1-1.2-1-2C232,506.5,232,503,232,499.4z M237.3,489.5
	c-2.8,0-2.8,0-2.9,3c0,2.2,0,4.3,0,6.5c0,0.6,0,1.4,0.9,1.4c2.1,0.1,4.4,0.5,6.1-1.2c1.5-1.4,1.8-4.9,0.9-7.2
	C241.3,489.8,239.4,489.5,237.3,489.5z"/>
<path d="M14.1,560.8C14.1,560.8,14.2,560.7,14.1,560.8c-1.6,0.3-2.5-0.4-3.2-1.9c-1.2-2.6-2.1-5.4-4-8.2c-1.2,2.6-2.2,4.8-3.2,7.1
	c-0.4,0.8-0.7,1.7-1.1,2.4c-0.5,0.7-1.3,0.9-2,0.5c-0.8-0.4-0.3-1.1-0.1-1.7c0.7-1.5,1.2-3.1,2.1-4.5c2.9-4.5,3.2-8.8,0-13.2
	c-0.7-1-1.1-2.3-1.6-3.4c-0.3-0.7-1-1.5,0-2c0.8-0.4,1.7-0.1,2.2,0.9c0.5,1,1,2.1,1.4,3.1c0.8,1.6,1.5,3.2,2.4,5
	c1.7-2.3,2.5-4.8,3.6-7.2c0.6-1.3,1.2-2.7,3.3-1.6c-0.5,2.1-1.4,4-2.6,5.8c-2.8,4.1-2.5,7.8,0,11.9C12.5,556,13.8,558.2,14.1,560.8z
	"/>
<path d="M281.3,511.7c2-7.6,4-15.2,5.9-22.8c0.2-1,0.6-1.6,1.7-1.7c1.1,0,1.6,0.6,1.8,1.6c1.9,7.2,3.8,14.5,5.7,21.7
	c0.1,0.6,0.3,1.4-0.5,1.5c-0.8,0.2-1.6,0.1-1.8-0.9c-0.1-0.2-0.1-0.5-0.2-0.7c-0.6-1.2-0.1-3.2-1.5-3.7c-2-0.8-4.3-0.4-6.4-0.2
	c-0.8,0.1-1,0.7-1.1,1.3c-0.2,1-0.5,2-0.8,2.9C283.6,512.3,282.7,512.4,281.3,511.7z M289.1,491.3c-1.5,4.7-2.4,8.6-3.2,12.7
	c2.1,0.3,4.1,0.5,6-0.1c0-0.6,0.1-1,0-1.4C291,499,290.1,495.6,289.1,491.3z"/>
<path d="M694.4,548.3c0-3.6,0-7.1,0-10.7c0-0.9-0.1-1.9,1.2-1.9c1.3,0.1,1.2,1.1,1.2,2c0,2.2,0.1,4.3,0,6.5c0,1.5,0.6,2.1,2,2
	c0.6,0,1.3,0,1.9,0c4.2,0.2,6.6,2.6,6.9,6.6c0.2,4.2-2,7.1-6.1,7.8c-6.5,1.1-7.1,0.6-7.1-5.9C694.4,552.7,694.4,550.5,694.4,548.3z
	 M696.9,553.3C696.9,553.3,696.9,553.3,696.9,553.3c0,1.3,0,2.5,0,3.8c0,0.7,0.2,1.3,1.1,1.3c1.9,0.1,3.8,0.2,5.5-1
	c1.7-1.3,2.3-4,1.4-6.2c-1-2.3-4.1-3.6-6.8-2.6c-2.2,0.8-0.7,2.9-1.1,4.3C696.8,553.1,696.9,553.2,696.9,553.3z"/>
<path d="M563.7,499.4c0-3.3,0-6.6,0-9.9c0-1-0.3-2.2,1.3-2.2c1.3,0.1,1.1,1.1,1.1,2c0,2,0,4.1,0,6.1c0,1.4,0.3,2.2,1.9,2.1
	c0.6-0.1,1.3,0,1.9,0c4.5,0.3,7.1,3.1,7,7.4c-0.1,4.3-2.7,6.9-7.2,7.2c-6,0.4-6,0.4-6-5.5C563.7,504.2,563.7,501.8,563.7,499.4z
	 M566.1,504.8c0,0.4,0,0.8,0,1.1c0,4,0.7,4.6,4.6,3.8c1.8-0.4,2.9-1.4,3.5-3.1c0.7-2,0.3-3.8-1-5.3c-1.7-1.8-4-1.8-6.1-1.2
	c-1.7,0.4-0.7,2.4-1,3.6C566,504,566.1,504.4,566.1,504.8z"/>
<path d="M529.6,511.9c-0.5-2.6-0.2-5.1-0.2-7.7c0-5,0-9.9,0-14.9c0-1.3,0.2-2.2,1.8-2.1c2.8,0.1,5.6,0,8.4,0c0.7,0,1.3,0.1,1.4,0.9
	c0.1,1.1-0.7,1.2-1.5,1.2c-1.9,0-3.8,0.1-5.7,0c-1.5,0-2.1,0.5-2,2c0.2,2.1-0.8,4.7,0.4,6.3c1.2,1.6,3.8,0.3,5.8,0.6
	c0.5,0.1,1,0,1.5,0.1c0.6,0.1,0.8,0.5,0.8,1.1c0,0.6-0.4,1-0.9,1c-1.8,0.1-3.6,0.1-5.3,0.1c-1.5-0.1-2.5,0.3-2.3,2.1
	c0,0.1,0,0.3,0,0.4c0.2,2.1-0.9,4.7,0.5,6.3c1.3,1.4,3.9,0.2,5.9,0.5c1.1,0.2,3.1-0.8,3.1,1c0.1,2.2-2.1,1.2-3.3,1.2
	C535.3,512.2,532.5,512.4,529.6,511.9z"/>
<path d="M512.9,499.5c0-3.4,0-6.8,0-10.3c0-1.4,0.5-2.1,2-2c1.8,0.1,3.6-0.1,5.3,0.1c3.2,0.3,5,2,5.8,5.2c0.5,2,0.4,4.1-0.3,6
	c-1.1,3.2-3.7,4.4-6.9,4.3c-4.1-0.1-3.4,0.7-3.4,3.6c0,1.4,0,2.8,0,4.2c0,0.9-0.2,1.5-1.3,1.5c-1,0-1.2-0.7-1.2-1.6
	C512.9,506.9,512.9,503.2,512.9,499.5z M515.3,495C515.3,495,515.3,495,515.3,495c0,1.3,0,2.5,0,3.8c0,1.3,0.7,1.7,1.9,1.8
	c4.9,0.4,7.1-1.9,6.5-6.8c-0.4-3.3-2-4.4-5.9-4.2c-2.4,0.1-2.4,0.1-2.4,4.3C515.3,494.2,515.3,494.6,515.3,495z"/>
<path d="M546.6,548.3c0-3.3,0.1-6.6,0-9.9c-0.1-1.9,0.4-2.9,2.5-2.7c1.1,0.1,2.3,0,3.4,0c3,0,5.6,1,6.7,4c1.2,3.2,1.1,6.5-1,9.4
	c-1.3,1.8-3.3,2.1-5.4,2.2c-3.6,0.1-3.6,0.2-3.7,3.9c0,1.4,0,2.8,0,4.2c0,0.7-0.3,1.3-1,1.3c-1,0.1-1.4-0.5-1.4-1.4c0-2.7,0-5.3,0-8
	C546.6,550.3,546.6,549.3,546.6,548.3z M549,543.1C549,543.1,549,543.1,549,543.1c0,1.4,0,2.8,0,4.2c0,0.6,0.1,1.2,0.8,1.6
	c3,1.5,7.1-0.6,7.5-3.9c0.1-1.1,0.1-2.3-0.1-3.4c-0.6-2.8-3-4-6.6-3.4c-2.7,0.4-1.2,2.6-1.6,3.9C548.9,542.3,549,542.7,549,543.1z"
	/>
<path d="M678.1,548.1c0-3.2,0-6.3,0-9.5c0-2.8,0.1-2.8,3-2.9c1,0,2,0,3,0c3,0.1,5.6,1.1,6.6,4.2c1.1,3.4,1.1,6.8-1.5,9.6
	c-1.5,1.6-3.6,1.7-5.6,1.8c-3.1,0.1-3.1,0.2-3.2,3.2c0,1.5,0,3,0,4.6c0,0.8,0,1.6-1.1,1.6c-1,0-1.2-0.7-1.2-1.6
	C678.1,555.5,678.1,551.8,678.1,548.1C678.1,548.1,678.1,548.1,678.1,548.1z M683.4,538.1c-3,0-3,0-3,3c0,2,0,4.1,0,6.1
	c0,0.6,0,1.3,0.7,1.6c1.6,0.9,6.1,0,7-1.6c1.2-2.2,1.2-4.7,0.2-7C687.2,538.3,685.3,538,683.4,538.1z"/>
<path d="M369.2,487.2c0.4,0,1.5,0.1,2.6,0.2c0.9,0.1,1.7,0.5,2.4,1c2.4,1.7,3.4,5.6,2.5,9.4c-0.7,2.9-2.8,4.5-6,5
	c-1.4,0.2-3.4-0.7-4.2,0.7c-0.7,1.2-0.3,3-0.3,4.5c0,1,0,2,0,3c0,0.8-0.4,1.1-1.2,1.1c-0.8,0-1.1-0.4-1.2-1.2c0-0.6,0-1.3,0-1.9
	c0-6.2,0-12.4,0-18.6c0-3.1,0-3.1,3.1-3.2C367.4,487.2,367.9,487.2,369.2,487.2z M366.1,494.9C366.1,494.9,366.1,494.9,366.1,494.9
	c0,1.3,0,2.5,0,3.8c0,1.3,0.5,1.7,1.8,1.8c5.2,0.5,7.8-2.7,6.4-7.9c-0.7-2.6-2.9-3.6-6.5-3.1c-2.8,0.4-1.3,2.5-1.7,3.9
	C366,493.9,366.1,494.4,366.1,494.9z"/>
<path d="M416.6,499.4c0.1-2.7-0.3-5.4,0.5-8c1-3.2,3.5-4.9,7-4.6c3.2,0.2,5.5,2.3,6.1,5.4c0.1,0.7,0.4,1.6-0.7,1.9
	c-0.9,0.2-1.4-0.2-1.6-1.1c-0.1-0.5-0.3-1-0.5-1.4c-0.9-1.9-2.4-2.6-4.3-2.4c-2,0.2-3.3,1.3-3.7,3.3c-0.8,4.8-0.7,9.6,0,14.4
	c0.3,2.3,1.8,3.4,3.8,3.6c2,0.2,3.6-0.8,4.5-2.8c0.5-0.9,0.3-2.8,1.9-2.2c1.8,0.6,0.6,2.2,0.2,3.2c-1.1,2.8-3.7,4.3-6.7,4.1
	c-3-0.2-5.2-2-6.1-4.9C416.2,505,416.7,502.2,416.6,499.4z"/>
<path d="M66.4,548.3c0-3.5,0-7.1,0-10.6c0-0.9,0-1.9,1.3-1.9c1.3,0,1.1,1.1,1.2,1.9c0,2,0.1,4.1,0,6.1c-0.1,1.8,0.7,2.6,2.5,2.4
	c0.4,0,0.8,0,1.1,0c4.6,0.2,7.2,2.8,7.2,7.1c0,4.3-2.5,7.1-6.9,7.5c-6.4,0.6-6.4,0.6-6.4-5.6C66.4,552.9,66.4,550.6,66.4,548.3
	C66.4,548.3,66.4,548.3,66.4,548.3z M68.8,553.1C68.8,553.1,68.8,553.1,68.8,553.1c0,1.3,0,2.5,0,3.8c0,0.8,0.3,1.5,1.2,1.6
	c1.6,0.1,3.3,0.2,4.8-0.6c2-1.1,2.8-3.9,2-6.4c-0.8-2.4-3.4-3.6-6.7-2.8c-2.6,0.6-0.9,2.7-1.4,4.1C68.8,552.8,68.8,552.9,68.8,553.1
	z"/>
<path d="M495.3,499.8c0.2-2.8-0.3-5.5,0.4-8.1c0.9-3.2,3.1-4.9,6.4-4.9c3.4,0,5.9,2,6.7,5.1c0.2,0.8,0.6,1.9-0.7,2.2
	c-0.9,0.2-1.3-0.4-1.5-1.3c-0.2-0.7-0.5-1.5-0.9-2.1c-1.8-2.6-5.9-2.2-7.2,0.7c-0.4,0.9-0.6,2-0.6,2.9c-0.1,3.6,0,7.1,0,10.7
	c0,1.4,0.3,2.8,1.3,3.9c1.8,2.1,5.3,1.9,6.9-0.5c0.4-0.6,0.6-1.4,0.8-2.1c0.3-0.9,0.8-1.3,1.7-1c0.9,0.2,0.7,1,0.6,1.6
	c-0.3,2-1.2,3.6-2.9,4.7c-4.1,2.6-9.3,0.5-10.5-4.2C495,504.7,495.5,502.2,495.3,499.8z"/>
<path d="M159.6,548.2c0-2.3-0.2-4.6,0-6.9c0.4-3.5,2.6-5.6,5.9-5.9c3.7-0.3,6.2,1.3,7.3,4.7c0.3,0.9,1,2-0.5,2.5
	c-1.3,0.4-1.4-0.7-1.7-1.5c-0.3-0.8-0.5-1.7-1.3-2.3c-1.2-1.1-2.6-1.4-4.2-1c-1.9,0.5-2.8,1.8-3,3.5c-0.3,1.9-0.2,3.8-0.2,5.7
	c0,2.4-0.1,4.8,0.1,7.2c0.2,2.8,1.5,4.2,3.8,4.6c2.4,0.3,3.8-0.5,5-3.1c0.2-0.3,0.2-0.7,0.3-1.1c0.3-0.7,0.9-0.8,1.6-0.7
	c0.9,0.2,0.8,0.9,0.7,1.5c-0.4,3.1-2.8,5.3-5.8,5.6c-3.6,0.4-6.1-1.1-7.3-4.2c-0.9-2.2-0.5-4.5-0.6-6.8
	C159.5,549.5,159.5,548.9,159.6,548.2C159.6,548.2,159.6,548.2,159.6,548.2z"/>
<path d="M214.7,548.3c0-2.5-0.5-5.1,0.1-7.6c0.8-3.4,3.1-5.2,6.6-5.2c3.5,0,5.8,1.8,6.6,5.2c0.2,0.7,0.6,1.6-0.4,1.9
	c-1.1,0.4-1.6-0.3-1.8-1.3c-0.3-1-0.6-1.9-1.5-2.6c-2.5-2.2-6.6-0.9-7.1,2.5c-0.7,4.7-0.5,9.4-0.1,14.1c0.2,2.2,1.8,3.4,3.8,3.6
	c2.2,0.2,3.5-0.6,4.6-2.7c0.5-1,0.4-3.1,2.2-2.1c1.3,0.8,0.2,2.3-0.3,3.4c-1.3,2.8-3.9,4-7.3,3.5c-2.9-0.4-5.1-2.4-5.5-5.6
	C214.5,553.1,214.7,550.7,214.7,548.3z"/>
<path d="M266.7,499.8c0-2.4-0.2-4.9,0.1-7.2c0.4-3.6,3-5.7,6.5-5.8c3.5-0.1,6.1,2,6.8,5.4c0.2,0.8,0.4,1.6-0.6,1.9
	c-0.9,0.3-1.4-0.3-1.6-1.1c-0.1-0.4-0.2-0.7-0.4-1.1c-1.1-2.3-2.6-3.1-4.8-2.7c-1.9,0.3-3.4,1.7-3.5,3.9c-0.2,4.4-0.2,8.9,0,13.3
	c0.1,2.2,1.7,3.6,3.6,3.9c2,0.4,3.8-0.7,4.9-2.8c0.5-0.9,0.2-2.8,1.9-2.2c1.8,0.7,0.6,2.1,0.2,3.2c-1.2,2.9-3.9,4.4-7,4.1
	c-3.3-0.4-5.5-2.6-6-5.9c0-0.3,0-0.5,0-0.8C266.6,503.8,266.6,501.8,266.7,499.8C266.6,499.8,266.6,499.8,266.7,499.8z"/>
<path d="M568.5,548.2c1-3.3,2-6.3,2.9-9.3c0.2-0.7,0.4-1.5,0.7-2.2c0.3-0.9,1-1.1,1.8-0.8c0.8,0.3,0.6,1,0.4,1.6
	c-2,6.5-4,13.1-6.1,19.6c-0.6,2-1.9,3.6-4.3,3.9c-0.7,0.1-1.6,0.2-1.8-0.9c-0.1-0.7,0.3-1,1-1.4c3.5-1.9,4.4-4.4,3-8.1
	c-1.5-4.2-3.1-8.3-4.6-12.5c-0.2-0.7-1.3-1.7,0.1-2.2c1.3-0.5,1.8,0.4,2.2,1.5c1,2.8,2,5.5,3,8.2
	C567.2,546.4,567.3,547.4,568.5,548.2z"/>
<path d="M645.8,390.4c1.2,0,2.1,0,2.9,0c1.5-0.1,2.5,0.1,3.4,1.7c1.2,2.2,4.1,2.4,5.3,0.2c1-1.9,2.3-2.1,4-2
	c0.7,0.1,1.5,0.1,2.2,0.1c0.4,5.2-2.8,8.7-8,9C650,399.9,646.2,396.6,645.8,390.4z"/>
<path d="M266.8,548.4c0-3.4,0.1-6.9,0-10.3c0-1.8,0.5-2.6,2.4-2.5c2.3,0.1,4.6,0,6.9,0c0.9,0,2.3-0.4,2.1,1.3
	c-0.1,1.6-1.5,1-2.3,1.1c-1.4,0.1-2.8,0.1-4.2,0c-1.9-0.1-2.5,0.7-2.4,2.4c0.1,5.5,0,10.9,0,16.4c0,0.9,0,1.8-0.1,2.7
	c0,0.7-0.4,1.2-1.2,1.2c-0.7-0.1-1.1-0.6-1.1-1.3C266.9,555.8,266.9,552.1,266.8,548.4C266.8,548.4,266.8,548.4,266.8,548.4z"/>
<path d="M473.1,538.4c-0.7,2.4-0.3,4.8-0.4,7.2c-0.1,3.8,0,7.6,0,11.5c0,0.8,0,1.5,0,2.3c0,0.8-0.4,1.5-1.4,1.4
	c-0.7,0-1.1-0.6-1.1-1.3c0-0.5,0-1,0-1.5c0-6.5,0-13,0-19.5c0-2.7,0.1-2.7,2.8-2.8c2,0,4.1-0.1,6.1,0c1,0,2.6-0.7,2.5,1.3
	c-0.1,1.6-1.5,1-2.4,1.1C477.3,538.2,475.2,537.9,473.1,538.4z"/>
<path d="M343.9,549.4c0-3-0.1-6.1,0-9.1c0-1.6-0.4-2.3-2.2-2.3c-1.1,0-3.1,0.8-3.1-1c0-2.2,2.1-1.2,3.3-1.2c2.8-0.1,5.6,0,8.4,0
	c0.8,0,1.5,0.3,1.5,1.3c0,0.8-0.6,1-1.3,1.1c-1.2,0.2-2.8-0.6-3.6,0.5c-1,1.2-0.4,2.9-0.4,4.4c-0.1,4.7,0,9.4,0,14.1
	c0,0.8,0,1.5,0,2.3c0,0.7-0.2,1.3-1,1.4c-0.9,0.1-1.4-0.5-1.4-1.4c0-2.7,0-5.3,0-8C343.9,550.7,343.9,550.1,343.9,549.4z"/>
<path d="M577.6,548.3c0-3.4,0-6.9,0-10.3c0-1.5,0.3-2.4,2.1-2.3c2.4,0.1,4.8,0,7.2,0c0.8,0,2-0.2,2.1,1.1c0.1,1.6-1.3,1.2-2.2,1.2
	c-1.5,0.1-3.1,0.1-4.6,0c-1.7-0.1-2.2,0.6-2.2,2.2c0.1,5.7,0.1,11.4,0,17.2c0,1.2,0.9,3.3-1.3,3.2c-1.8-0.1-0.9-2-1-3.2
	C577.5,554.4,577.6,551.4,577.6,548.3z"/>
<path d="M330.8,499.3c0-3.2,0.1-6.4,0-9.5c-0.1-1.7,0.3-2.6,2.3-2.5c2.5,0.1,5.1,0,7.6,0c0.8,0,1.6,0.1,1.5,1.2
	c-0.1,0.8-0.7,0.9-1.4,0.9c-1.3,0-2.5,0-3.8,0c-3.8,0-3.8,0-3.8,3.7c0,5.3,0,10.7,0,16c0,1,0.9,3-1.3,2.9c-1.7-0.1-1-1.8-1-2.8
	C330.8,505.9,330.8,502.6,330.8,499.3z"/>
<path d="M55.5,549.5c0-3.1-0.1-6.1,0-9.2c0-1.6-0.4-2.3-2.1-2.3c-1.1,0-3.1,0.9-3.1-1c0-2.2,2.1-1.2,3.3-1.2c2.7-0.2,5.3-0.1,8,0
	c0.8,0,1.6,0,1.7,1.1c0.1,1.1-0.7,1.1-1.5,1.2c-1.2,0.2-2.8-0.6-3.5,0.6c-0.5,1-0.3,2.5-0.3,3.7c0,4.7,0,9.4,0,14.1
	c0,0.6,0,1.3,0,1.9c-0.1,0.9,0.3,2.3-1.3,2.2c-1.5-0.1-1.1-1.5-1.1-2.4c-0.1-1.8,0-3.6,0-5.3C55.5,551.8,55.5,550.6,55.5,549.5z"/>
<path d="M669.3,535.8c1.4,0,2.8,0,4.2,0c0.7,0,1.3,0.2,1.3,1c0.1,1.1-0.7,1.2-1.5,1.3c-1.7,0-3.3,0.1-5,0c-1.9-0.1-2.7,0.5-2.6,2.6
	c0.1,5.5,0.1,10.9,0,16.4c0,1.2,1.2,3.6-1.3,3.6c-1.8-0.1-1-2.2-1-3.5c-0.1-6-0.1-11.9,0-17.9c0-3.4,0-3.4,3.2-3.4
	C667.5,535.7,668.4,535.7,669.3,535.8C669.3,535.7,669.3,535.8,669.3,535.8z"/>
<path d="M580.1,499.4c0-3.3,0-6.6,0-9.9c0-0.9-0.3-2.2,1.3-2.2c1.4,0,1.1,1.1,1.1,2c0,7,0,14,0,20.9c0,0.9,0.2,1.9-1.2,1.8
	c-1.3-0.1-1.1-1.1-1.1-2C580.1,506.5,580.1,503,580.1,499.4z"/>
<path d="M713.3,548c0,3.7,0,7.3,0,11c0,0.8,0,1.6-1,1.7c-1.3,0.1-1.4-0.8-1.4-1.7c0-7.2,0-14.4,0-21.6c0-0.8,0.2-1.5,1.2-1.5
	c1.1,0,1.2,0.7,1.2,1.5C713.3,540.9,713.3,544.4,713.3,548z"/>
<path d="M85.4,548.5c0,3.6,0,7.1,0,10.7c0,0.8-0.2,1.6-1.2,1.6c-1,0-1.1-0.9-1.1-1.6c0-7.2,0-14.5,0-21.7c0-0.8,0.1-1.6,1.2-1.5
	c1,0,1.1,0.9,1.1,1.6C85.4,541.1,85.4,544.8,85.4,548.5z"/>
<path d="M203.4,533.6c-2.1,0.1-3.5-0.9-4-2.7c-0.1-0.5-0.3-1,0.3-1.3c0.5-0.3,1-0.2,1.3,0.2c1.5,2.4,3,2.5,4.4-0.1
	c0.3-0.5,0.9-0.4,1.3-0.2c0.6,0.3,0.4,0.9,0.3,1.3C206.5,532.8,205.2,533.6,203.4,533.6z"/>
<path d="M94.2,547c1,0,2,0,3,0c0.5,0,1,0.3,1,0.9c0.1,0.7-0.3,1.3-1,1.3c-2.1,0.1-4.3,0.1-6.4,0c-0.7,0-1.2-0.4-1.2-1.1
	c0-0.8,0.5-1.1,1.2-1.1C91.9,547,93,547,94.2,547C94.2,547,94.2,547,94.2,547z"/>
<path d="M620,547.1c1.5,0,3.1,0,4.6,0c0.5,0,1,0.3,1,0.9c0,0.6-0.3,1-0.9,1c-3.4,0-6.9,0-10.3,0c-0.5,0-0.8-0.5-0.8-1.1
	c0-0.6,0.5-0.8,1-0.8C616.5,547.1,618.2,547.1,620,547.1C620,547.1,620,547.1,620,547.1z"/>
<path d="M479.8,481.7c0,1.9-2,3.6-4.3,3.4c-2.1-0.1-3.9-1.8-3.7-3.6c0-0.4,0.3-0.7,0.7-0.8c0.6-0.1,0.9,0.2,1.3,0.6
	c1.8,1.8,1.9,1.8,4.1-0.1c0.2-0.2,0.4-0.3,0.6-0.4C479.1,480.5,479.8,481,479.8,481.7z"/>
<path d="M455.4,185.6c0-0.1,0.1-0.3,0.1-0.3C455.8,185.3,455.7,185.4,455.4,185.6C455.4,185.5,455.4,185.6,455.4,185.6z"/>
<path d="M357.5,273.6c-10.7,0.5-24.2-8.2-24.1-24.3c0.1-15.5,12.9-24.3,24.4-24.1c13.5,0.2,24.2,11,24.1,24.4
	C381.9,263.5,370.1,274.2,357.5,273.6z M372.3,249.7c0.5-7.8-5.9-14.8-14.5-15.1c-8-0.3-14.9,6.6-14.9,14.7
	c-0.1,8.2,6.4,14.9,14.5,15.1C366.1,264.5,372.8,256.9,372.3,249.7z"/>
<path d="M373.7,61.1c-5.1,5.1-10,9.9-14.8,14.8c-1,1.1-1.7,1.1-2.8,0c-4.8-4.9-9.7-9.7-14.6-14.5c1.8-2.6,4.1-4.4,6.1-6.5
	c2.7-2.8,5.6-5.6,8.3-8.4c0.7-0.7,1.4-1.6,2.5-0.5C363.5,51,368.5,56,373.7,61.1z"/>
<path d="M271.1,193.2c-1.3,0-2.5,0-3.8,0c-2.8-0.1-2.8-0.1-2.9-2.7c-0.1-2.4,0-4.8,0-7.2c0-1.5,0.4-2.4,2.1-2.4c3.2,0.1,6.4,0,9.5,0
	c1.5,0,2,0.7,2,2.1c0,2.7-0.1,5.3,0,8c0,1.7-0.7,2.3-2.3,2.2C274.1,193.2,272.6,193.2,271.1,193.2z"/>
</svg>
